%TF.GenerationSoftware,KiCad,Pcbnew,10.0.0*%
%TF.CreationDate,2026-09-15T12:55:37+02:00*%
%TF.ProjectId,pdice-01,70646963-652d-4303-912e-6b696361645f,rev?*%
%TF.SameCoordinates,Original*%
%TF.FileFunction,Copper,L2,Bot*%
%TF.FilePolarity,Positive*%
%FSLAX46Y46*%
G04 Gerber Fmt 4.6, Leading zero omitted, Abs format (unit mm)*
G04 Created by KiCad (PCBNEW 10.0.0) date 2026-09-15 12:55:37*
%MOMM*%
%LPD*%
G01*
G04 APERTURE LIST*
G04 Aperture macros list*
%AMRoundRect*
0 Rectangle with rounded corners*
0 $1 Rounding radius*
0 $2 $3 $4 $5 $6 $7 $8 $9 X,Y pos of 4 corners*
0 Add a 4 corners polygon primitive as box body*
4,1,4,$2,$3,$4,$5,$6,$7,$8,$9,$2,$3,0*
0 Add four circle primitives for the rounded corners*
1,1,$1+$1,$2,$3*
1,1,$1+$1,$4,$5*
1,1,$1+$1,$6,$7*
1,1,$1+$1,$8,$9*
0 Add four rect primitives between the rounded corners*
20,1,$1+$1,$2,$3,$4,$5,0*
20,1,$1+$1,$4,$5,$6,$7,0*
20,1,$1+$1,$6,$7,$8,$9,0*
20,1,$1+$1,$8,$9,$2,$3,0*%
G04 Aperture macros list end*
%ADD10C,0.150000*%
%TA.AperFunction,ComponentPad*%
%ADD11R,1.800000X1.800000*%
%TD*%
%TA.AperFunction,ComponentPad*%
%ADD12C,1.800000*%
%TD*%
%TA.AperFunction,ComponentPad*%
%ADD13RoundRect,0.250000X-0.550000X0.550000X-0.550000X-0.550000X0.550000X-0.550000X0.550000X0.550000X0*%
%TD*%
%TA.AperFunction,ComponentPad*%
%ADD14C,1.600000*%
%TD*%
%TA.AperFunction,ComponentPad*%
%ADD15R,1.500000X1.500000*%
%TD*%
%TA.AperFunction,ComponentPad*%
%ADD16C,1.500000*%
%TD*%
%TA.AperFunction,ComponentPad*%
%ADD17R,1.700000X1.700000*%
%TD*%
%TA.AperFunction,ComponentPad*%
%ADD18C,1.700000*%
%TD*%
%TA.AperFunction,ComponentPad*%
%ADD19O,2.900000X1.700000*%
%TD*%
%TA.AperFunction,ComponentPad*%
%ADD20RoundRect,0.249999X0.850001X0.850001X-0.850001X0.850001X-0.850001X-0.850001X0.850001X-0.850001X0*%
%TD*%
%TA.AperFunction,ComponentPad*%
%ADD21C,2.200000*%
%TD*%
%TA.AperFunction,ComponentPad*%
%ADD22R,2.000000X2.000000*%
%TD*%
%TA.AperFunction,ComponentPad*%
%ADD23C,2.000000*%
%TD*%
%TA.AperFunction,ComponentPad*%
%ADD24RoundRect,0.250000X-0.600000X0.600000X-0.600000X-0.600000X0.600000X-0.600000X0.600000X0.600000X0*%
%TD*%
%TA.AperFunction,ComponentPad*%
%ADD25RoundRect,0.250000X0.550000X-0.950000X0.550000X0.950000X-0.550000X0.950000X-0.550000X-0.950000X0*%
%TD*%
%TA.AperFunction,ComponentPad*%
%ADD26O,1.600000X2.400000*%
%TD*%
%TA.AperFunction,ViaPad*%
%ADD27C,1.600000*%
%TD*%
%TA.AperFunction,Conductor*%
%ADD28C,0.500000*%
%TD*%
G04 APERTURE END LIST*
D10*
G36*
X125613002Y-60965930D02*
G01*
X124623174Y-60965930D01*
X124623174Y-59970295D01*
X124734285Y-59970295D01*
X124734285Y-60065533D01*
X124735014Y-60072938D01*
X124734874Y-60074913D01*
X124735464Y-60077510D01*
X124735726Y-60080165D01*
X124736484Y-60081996D01*
X124738134Y-60089250D01*
X124785753Y-60232107D01*
X124791747Y-60245532D01*
X124793512Y-60247567D01*
X124794544Y-60250058D01*
X124803871Y-60261423D01*
X125247266Y-60704819D01*
X124809285Y-60704819D01*
X124794653Y-60706260D01*
X124767617Y-60717459D01*
X124746925Y-60738151D01*
X124735726Y-60765187D01*
X124735726Y-60794451D01*
X124746925Y-60821487D01*
X124767617Y-60842179D01*
X124794653Y-60853378D01*
X124809285Y-60854819D01*
X125428332Y-60854819D01*
X125442964Y-60853378D01*
X125450882Y-60850098D01*
X125470000Y-60842180D01*
X125490692Y-60821487D01*
X125501891Y-60794451D01*
X125501891Y-60765188D01*
X125490693Y-60738151D01*
X125481365Y-60726786D01*
X124922456Y-60167876D01*
X124884285Y-60053362D01*
X124884285Y-59988000D01*
X124918543Y-59919484D01*
X124948950Y-59889077D01*
X125017466Y-59854819D01*
X125220151Y-59854819D01*
X125288667Y-59889077D01*
X125327680Y-59928090D01*
X125339045Y-59937417D01*
X125366081Y-59948616D01*
X125395344Y-59948616D01*
X125422380Y-59937417D01*
X125443073Y-59916724D01*
X125454272Y-59889688D01*
X125454272Y-59860425D01*
X125443073Y-59833389D01*
X125433746Y-59822024D01*
X125386127Y-59774405D01*
X125380377Y-59769686D01*
X125379078Y-59768188D01*
X125376818Y-59766766D01*
X125374762Y-59765078D01*
X125372934Y-59764320D01*
X125366635Y-59760356D01*
X125271397Y-59712737D01*
X125257665Y-59707482D01*
X125254977Y-59707291D01*
X125252488Y-59706260D01*
X125237856Y-59704819D01*
X124999761Y-59704819D01*
X124985129Y-59706260D01*
X124982640Y-59707290D01*
X124979951Y-59707482D01*
X124966220Y-59712737D01*
X124870982Y-59760356D01*
X124864682Y-59764320D01*
X124862855Y-59765078D01*
X124860798Y-59766766D01*
X124858539Y-59768188D01*
X124857239Y-59769686D01*
X124851490Y-59774405D01*
X124803871Y-59822024D01*
X124799152Y-59827773D01*
X124797654Y-59829073D01*
X124796232Y-59831332D01*
X124794544Y-59833389D01*
X124793786Y-59835216D01*
X124789822Y-59841516D01*
X124742203Y-59936754D01*
X124736948Y-59950486D01*
X124736757Y-59953173D01*
X124735726Y-59955663D01*
X124734285Y-59970295D01*
X124623174Y-59970295D01*
X124623174Y-59593708D01*
X125613002Y-59593708D01*
X125613002Y-60965930D01*
G37*
D11*
%TO.P,D2,1,K_1*%
%TO.N,/C1*%
X132715000Y-55880000D03*
D12*
%TO.P,D2,2,A_2*%
%TO.N,/a*%
X130175000Y-55880000D03*
%TD*%
D11*
%TO.P,D15,1,K_1*%
%TO.N,/C2*%
X178435000Y-71120000D03*
D12*
%TO.P,D15,2,A_2*%
%TO.N,/g*%
X175895000Y-71120000D03*
%TD*%
D13*
%TO.P,C1,1*%
%TO.N,+3V0*%
X153670000Y-104315240D03*
D14*
%TO.P,C1,2*%
%TO.N,GND*%
X153670000Y-106815240D03*
%TD*%
D11*
%TO.P,D10,1,K_1*%
%TO.N,/C2*%
X163195000Y-63500000D03*
D12*
%TO.P,D10,2,A_2*%
%TO.N,/b*%
X160655000Y-63500000D03*
%TD*%
D11*
%TO.P,D6,1,K_1*%
%TO.N,/C1*%
X147955000Y-55880000D03*
D12*
%TO.P,D6,2,A_2*%
%TO.N,/e*%
X145415000Y-55880000D03*
%TD*%
D11*
%TO.P,D4,1,K_1*%
%TO.N,/C1*%
X132715000Y-71120000D03*
D12*
%TO.P,D4,2,A_2*%
%TO.N,/c*%
X130175000Y-71120000D03*
%TD*%
D14*
%TO.P,R4,1*%
%TO.N,Net-(U1-Q4)*%
X135890000Y-83820000D03*
%TO.P,R4,2*%
%TO.N,/d*%
X135890000Y-76200000D03*
%TD*%
D15*
%TO.P,SW3,1,A_1*%
%TO.N,Net-(BZ1--)*%
X179070000Y-106045000D03*
D14*
%TO.P,SW3,2,B_2*%
%TO.N,GND*%
X179070000Y-103505000D03*
%TO.P,SW3,3,C_3*%
%TO.N,unconnected-(SW3-C-Pad3)*%
X179070000Y-108585000D03*
%TD*%
D11*
%TO.P,D14,1,K_1*%
%TO.N,/C2*%
X178435000Y-63500000D03*
D12*
%TO.P,D14,2,A_2*%
%TO.N,/f*%
X175895000Y-63500000D03*
%TD*%
D11*
%TO.P,D5,1,K_1*%
%TO.N,/C1*%
X140335000Y-63500000D03*
D12*
%TO.P,D5,2,A_2*%
%TO.N,/d*%
X137795000Y-63500000D03*
%TD*%
D11*
%TO.P,D9,1,K_1*%
%TO.N,/C2*%
X163195000Y-55880000D03*
D12*
%TO.P,D9,2,A_2*%
%TO.N,/a*%
X160655000Y-55880000D03*
%TD*%
D14*
%TO.P,R5,1*%
%TO.N,Net-(U1-Q1)*%
X139700000Y-83820000D03*
%TO.P,R5,2*%
%TO.N,/e*%
X139700000Y-76200000D03*
%TD*%
D11*
%TO.P,D13,1,K_1*%
%TO.N,/C2*%
X178435000Y-55880000D03*
D12*
%TO.P,D13,2,A_2*%
%TO.N,/e*%
X175895000Y-55880000D03*
%TD*%
D16*
%TO.P,TP2,1,1_1*%
%TO.N,Net-(BZ1-+)*%
X168910000Y-87437615D03*
%TD*%
D17*
%TO.P,J2,1,Pin_1_1*%
%TO.N,Net-(J2-Pin_1)*%
X181610000Y-95250000D03*
D18*
%TO.P,J2,2,Pin_2_2*%
%TO.N,+3V0*%
X181610000Y-92710000D03*
%TO.P,J2,3,Pin_3_3*%
%TO.N,GND*%
X181610000Y-90170000D03*
%TO.P,J2,4,Pin_4_4*%
%TO.N,/DAT*%
X181610000Y-87630000D03*
%TO.P,J2,5,Pin_5_5*%
%TO.N,/CLK*%
X181610000Y-85090000D03*
%TO.P,J2,6,Pin_6_6*%
%TO.N,unconnected-(J2-Pin_6-Pad6)*%
X181610000Y-82550000D03*
%TD*%
D14*
%TO.P,R3,1*%
%TO.N,Net-(U1-Q5)*%
X132080000Y-83820000D03*
%TO.P,R3,2*%
%TO.N,/c*%
X132080000Y-76200000D03*
%TD*%
D11*
%TO.P,D12,1,K_1*%
%TO.N,/C2*%
X170815000Y-63500000D03*
D12*
%TO.P,D12,2,A_2*%
%TO.N,/d*%
X168275000Y-63500000D03*
%TD*%
D14*
%TO.P,R8,1*%
%TO.N,+3V0*%
X151130000Y-100330000D03*
%TO.P,R8,2*%
%TO.N,Net-(J2-Pin_1)*%
X158750000Y-100330000D03*
%TD*%
D19*
%TO.P,SW2,1,1_1*%
%TO.N,Net-(J2-Pin_1)*%
X162660000Y-103490000D03*
X175160000Y-103490000D03*
%TO.P,SW2,2,2_2*%
%TO.N,GND*%
X162660000Y-108490000D03*
X175160000Y-108490000D03*
%TD*%
D14*
%TO.P,R1,1*%
%TO.N,Net-(U1-Q7)*%
X124460000Y-83820000D03*
%TO.P,R1,2*%
%TO.N,/a*%
X124460000Y-76200000D03*
%TD*%
D11*
%TO.P,D3,1,K_1*%
%TO.N,/C1*%
X132715000Y-63500000D03*
D12*
%TO.P,D3,2,A_2*%
%TO.N,/b*%
X130175000Y-63500000D03*
%TD*%
D14*
%TO.P,R7,1*%
%TO.N,Net-(U1-Q3)*%
X147320000Y-83820000D03*
%TO.P,R7,2*%
%TO.N,/g*%
X147320000Y-76200000D03*
%TD*%
D20*
%TO.P,D1,1,K_1*%
%TO.N,+3V0*%
X144780000Y-105410000D03*
D21*
%TO.P,D1,2,A_2*%
%TO.N,GND*%
X137160000Y-105410000D03*
%TD*%
D22*
%TO.P,BZ1,1,+_1*%
%TO.N,Net-(BZ1-+)*%
X168910000Y-85100000D03*
D23*
%TO.P,BZ1,2,-_2*%
%TO.N,Net-(BZ1--)*%
X168910000Y-92700000D03*
%TD*%
D11*
%TO.P,D7,1,K_1*%
%TO.N,/C1*%
X147955000Y-63500000D03*
D12*
%TO.P,D7,2,A_2*%
%TO.N,/f*%
X145415000Y-63500000D03*
%TD*%
D11*
%TO.P,D8,1,K_1*%
%TO.N,/C1*%
X147955000Y-71120000D03*
D12*
%TO.P,D8,2,A_2*%
%TO.N,/g*%
X145415000Y-71120000D03*
%TD*%
D23*
%TO.P,F1,1*%
%TO.N,/VB*%
X137240000Y-101600000D03*
%TO.P,F1,2*%
%TO.N,/VB_F*%
X142240000Y-101600000D03*
%TD*%
D24*
%TO.P,J1,1,Pin_1_1*%
%TO.N,/VB*%
X133460000Y-101600000D03*
D18*
%TO.P,J1,2,Pin_2_2*%
%TO.N,GND*%
X133460000Y-105600000D03*
%TD*%
D14*
%TO.P,R2,1*%
%TO.N,Net-(U1-Q6)*%
X128270000Y-83820000D03*
%TO.P,R2,2*%
%TO.N,/b*%
X128270000Y-76200000D03*
%TD*%
D16*
%TO.P,TP1,1,1_1*%
%TO.N,Net-(U1-Q0)*%
X143510000Y-96520000D03*
%TD*%
D14*
%TO.P,SW1,1,A_1*%
%TO.N,unconnected-(SW1-A-Pad1)*%
X130810000Y-110490000D03*
D15*
%TO.P,SW1,2,B_2*%
%TO.N,/VB_F*%
X133350000Y-110490000D03*
D14*
%TO.P,SW1,3,C_3*%
%TO.N,+3V0*%
X135890000Y-110490000D03*
%TD*%
%TO.P,C2,1*%
%TO.N,+3V0*%
X147320000Y-95170000D03*
%TO.P,C2,2*%
%TO.N,GND*%
X147320000Y-90170000D03*
%TD*%
%TO.P,R6,1*%
%TO.N,Net-(U1-Q2)*%
X143510000Y-83820000D03*
%TO.P,R6,2*%
%TO.N,/f*%
X143510000Y-76200000D03*
%TD*%
D25*
%TO.P,U2,1,VDD_1*%
%TO.N,+3V0*%
X151130000Y-96520000D03*
D26*
%TO.P,U2,2,RA5_2*%
%TO.N,/C1*%
X153670000Y-96520000D03*
%TO.P,U2,3,RA4_3*%
%TO.N,/C2*%
X156210000Y-96520000D03*
%TO.P,U2,4,RA3_4*%
%TO.N,Net-(J2-Pin_1)*%
X158750000Y-96520000D03*
%TO.P,U2,5,RA2_5*%
%TO.N,Net-(BZ1-+)*%
X158750000Y-88900000D03*
%TO.P,U2,6,RA1_6*%
%TO.N,/CLK*%
X156210000Y-88900000D03*
%TO.P,U2,7,RA0_7*%
%TO.N,/DAT*%
X153670000Y-88900000D03*
%TO.P,U2,8,VSS_8*%
%TO.N,GND*%
X151130000Y-88900000D03*
%TD*%
D11*
%TO.P,D11,1,K_1*%
%TO.N,/C2*%
X163195000Y-71120000D03*
D12*
%TO.P,D11,2,A_2*%
%TO.N,/c*%
X160655000Y-71120000D03*
%TD*%
D25*
%TO.P,U1,1,DSA_1*%
%TO.N,+3V0*%
X124465000Y-96520000D03*
D26*
%TO.P,U1,2,DSB_2*%
%TO.N,/DAT*%
X127005000Y-96520000D03*
%TO.P,U1,3,Q0_3*%
%TO.N,Net-(U1-Q0)*%
X129545000Y-96520000D03*
%TO.P,U1,4,Q1_4*%
%TO.N,Net-(U1-Q1)*%
X132085000Y-96520000D03*
%TO.P,U1,5,Q2_5*%
%TO.N,Net-(U1-Q2)*%
X134625000Y-96520000D03*
%TO.P,U1,6,Q3_6*%
%TO.N,Net-(U1-Q3)*%
X137165000Y-96520000D03*
%TO.P,U1,7,GND_7*%
%TO.N,GND*%
X139705000Y-96520000D03*
%TO.P,U1,8,CP_8*%
%TO.N,/CLK*%
X139705000Y-88900000D03*
%TO.P,U1,9,~{MR}_9*%
%TO.N,+3V0*%
X137165000Y-88900000D03*
%TO.P,U1,10,Q4_10*%
%TO.N,Net-(U1-Q4)*%
X134625000Y-88900000D03*
%TO.P,U1,11,Q5_11*%
%TO.N,Net-(U1-Q5)*%
X132085000Y-88900000D03*
%TO.P,U1,12,Q6_12*%
%TO.N,Net-(U1-Q6)*%
X129545000Y-88900000D03*
%TO.P,U1,13,Q7_13*%
%TO.N,Net-(U1-Q7)*%
X127005000Y-88900000D03*
%TO.P,U1,14,VCC_14*%
%TO.N,+3V0*%
X124465000Y-88900000D03*
%TD*%
D27*
%TO.N,/C1*%
X149860000Y-83820000D03*
%TO.N,/C2*%
X160655000Y-83820000D03*
%TO.N,+3V0*%
X164465000Y-93345000D03*
%TO.N,GND*%
X152400000Y-71120000D03*
%TD*%
%TO.N,/C1*%
D28*
X149860000Y-75565000D02*
X147955000Y-73660000D01*
X140335000Y-55880000D02*
X140970000Y-55880000D01*
X140335000Y-56515000D02*
X140335000Y-55880000D01*
X140335000Y-63500000D02*
X140335000Y-60960000D01*
X140970000Y-55880000D02*
X140335000Y-56515000D01*
X144780000Y-53340000D02*
X146685000Y-53340000D01*
X147955000Y-54610000D02*
X147955000Y-55880000D01*
X147955000Y-55880000D02*
X147955000Y-71120000D01*
X132715000Y-55880000D02*
X132715000Y-59055000D01*
X147955000Y-73660000D02*
X147955000Y-71120000D01*
X149860000Y-83820000D02*
X149860000Y-75565000D01*
X132715000Y-59690000D02*
X132715000Y-60325000D01*
X140970000Y-55880000D02*
X142240000Y-55880000D01*
X132715000Y-60325000D02*
X132715000Y-71120000D01*
X132715000Y-59055000D02*
X132715000Y-59690000D01*
X140335000Y-60960000D02*
X140335000Y-56515000D01*
X142240000Y-55880000D02*
X144780000Y-53340000D01*
X146685000Y-53340000D02*
X147955000Y-54610000D01*
X132715000Y-55880000D02*
X139700000Y-55880000D01*
X139700000Y-55880000D02*
X140335000Y-56515000D01*
X139700000Y-55880000D02*
X140335000Y-55880000D01*
%TO.N,/a*%
X124460000Y-76200000D02*
X124460000Y-66040000D01*
X124460000Y-66040000D02*
X130175000Y-60325000D01*
X130175000Y-60325000D02*
X130175000Y-55880000D01*
%TO.N,/C2*%
X163195000Y-59690000D02*
X163195000Y-59055000D01*
X163195000Y-55880000D02*
X163195000Y-54610000D01*
X163195000Y-59055000D02*
X163195000Y-55880000D01*
X169545000Y-59690000D02*
X163830000Y-59690000D01*
X170815000Y-60960000D02*
X169545000Y-59690000D01*
X178435000Y-71120000D02*
X178435000Y-55880000D01*
X163195000Y-54610000D02*
X164465000Y-53340000D01*
X163195000Y-59055000D02*
X163830000Y-59690000D01*
X163195000Y-60325000D02*
X163195000Y-59690000D01*
X163195000Y-73660000D02*
X160655000Y-76200000D01*
X163195000Y-71120000D02*
X163195000Y-73660000D01*
X163830000Y-59690000D02*
X163195000Y-60325000D01*
X160655000Y-76200000D02*
X160655000Y-83820000D01*
X163195000Y-71120000D02*
X163195000Y-60325000D01*
X163830000Y-59690000D02*
X163195000Y-59690000D01*
X170815000Y-63500000D02*
X170815000Y-60960000D01*
X177165000Y-53340000D02*
X178435000Y-54610000D01*
X164465000Y-53340000D02*
X177165000Y-53340000D01*
X178435000Y-54610000D02*
X178435000Y-55880000D01*
%TO.N,/g*%
X145415000Y-74295000D02*
X147320000Y-76200000D01*
X145415000Y-71120000D02*
X145415000Y-74295000D01*
%TO.N,+3V0*%
X125095000Y-91440000D02*
X136525000Y-91440000D01*
X171132500Y-94615000D02*
X173037500Y-92710000D01*
X173037500Y-92710000D02*
X181610000Y-92710000D01*
X124465000Y-91440000D02*
X124465000Y-90805000D01*
X136525000Y-91440000D02*
X137165000Y-90800000D01*
X125095000Y-91445000D02*
X124465000Y-92075000D01*
X124465000Y-92075000D02*
X124465000Y-91440000D01*
X125095000Y-91440000D02*
X125095000Y-91445000D01*
X124465000Y-90805000D02*
X124465000Y-88900000D01*
X165735000Y-94615000D02*
X171132500Y-94615000D01*
X124465000Y-90810000D02*
X125095000Y-91440000D01*
X164465000Y-93345000D02*
X165735000Y-94615000D01*
X124465000Y-96520000D02*
X124465000Y-92075000D01*
X137165000Y-90800000D02*
X137165000Y-88900000D01*
X124465000Y-91440000D02*
X125095000Y-91440000D01*
X124465000Y-90805000D02*
X124465000Y-90810000D01*
%TO.N,GND*%
X154305000Y-108490000D02*
X154210000Y-108490000D01*
X153035000Y-108490000D02*
X153130000Y-108490000D01*
X153670000Y-108490000D02*
X153035000Y-108490000D01*
X154305000Y-108490000D02*
X153670000Y-108490000D01*
%TO.N,/b*%
X128270000Y-69850000D02*
X130175000Y-67945000D01*
X130175000Y-67945000D02*
X130175000Y-63500000D01*
X128270000Y-76200000D02*
X128270000Y-69850000D01*
%TO.N,/e*%
X142240000Y-65405000D02*
X142240000Y-57785000D01*
X142240000Y-57785000D02*
X144145000Y-55880000D01*
X139700000Y-76200000D02*
X139700000Y-67945000D01*
X144145000Y-55880000D02*
X145415000Y-55880000D01*
X139700000Y-67945000D02*
X142240000Y-65405000D01*
%TO.N,/c*%
X132080000Y-74930000D02*
X130175000Y-73025000D01*
X132080000Y-76200000D02*
X132080000Y-74930000D01*
X130175000Y-73025000D02*
X130175000Y-71120000D01*
%TO.N,Net-(U1-Q4)*%
X134625000Y-88900000D02*
X134625000Y-85085000D01*
X134625000Y-85085000D02*
X135890000Y-83820000D01*
%TO.N,/d*%
X135890000Y-69850000D02*
X137795000Y-67945000D01*
X135890000Y-76200000D02*
X135890000Y-69850000D01*
X137795000Y-67945000D02*
X137795000Y-63500000D01*
%TO.N,/f*%
X143510000Y-76200000D02*
X143510000Y-69850000D01*
X145415000Y-67945000D02*
X145415000Y-63500000D01*
X143510000Y-69850000D02*
X145415000Y-67945000D01*
%TO.N,Net-(J2-Pin_1)*%
X160035000Y-103490000D02*
X158750000Y-102205000D01*
X158750000Y-102205000D02*
X158750000Y-100330000D01*
X175160000Y-103490000D02*
X162660000Y-103490000D01*
X179705000Y-95250000D02*
X181610000Y-95250000D01*
X172085000Y-96520000D02*
X158750000Y-96520000D01*
X173355000Y-95250000D02*
X172085000Y-96520000D01*
X158750000Y-100330000D02*
X158750000Y-96520000D01*
X179705000Y-95250000D02*
X173355000Y-95250000D01*
X160035000Y-103490000D02*
X162660000Y-103490000D01*
%TO.N,/DAT*%
X165100000Y-89852500D02*
X176847500Y-89852500D01*
X127000000Y-94615000D02*
X127005000Y-94620000D01*
X127005000Y-94620000D02*
X127005000Y-96520000D01*
X176847500Y-89852500D02*
X179070000Y-87630000D01*
X128905000Y-92710000D02*
X127000000Y-94615000D01*
X155575000Y-92710000D02*
X162242500Y-92710000D01*
X153670000Y-88900000D02*
X153670000Y-87630000D01*
X162242500Y-92710000D02*
X165100000Y-89852500D01*
X153670000Y-88900000D02*
X153670000Y-90805000D01*
X142240000Y-92710000D02*
X128905000Y-92710000D01*
X179070000Y-87630000D02*
X181610000Y-87630000D01*
X147955000Y-86995000D02*
X142240000Y-92710000D01*
X153670000Y-90805000D02*
X155575000Y-92710000D01*
X153035000Y-86995000D02*
X147955000Y-86995000D01*
X153670000Y-87630000D02*
X153035000Y-86995000D01*
%TO.N,/CLK*%
X156210000Y-86995000D02*
X156210000Y-88900000D01*
X156845000Y-91440000D02*
X161290000Y-91440000D01*
X175260000Y-88900000D02*
X179070000Y-85090000D01*
X147320000Y-85725000D02*
X144145000Y-88900000D01*
X144145000Y-88900000D02*
X139705000Y-88900000D01*
X154940000Y-85725000D02*
X147320000Y-85725000D01*
X161290000Y-91440000D02*
X163830000Y-88900000D01*
X156210000Y-86995000D02*
X154940000Y-85725000D01*
X179070000Y-85090000D02*
X181610000Y-85090000D01*
X163830000Y-88900000D02*
X175260000Y-88900000D01*
X156210000Y-88900000D02*
X156210000Y-90805000D01*
X156210000Y-90805000D02*
X156845000Y-91440000D01*
%TO.N,Net-(U1-Q5)*%
X132080000Y-83820000D02*
X132080000Y-88895000D01*
X132080000Y-88895000D02*
X132085000Y-88900000D01*
%TO.N,Net-(U1-Q7)*%
X127005000Y-86365000D02*
X124460000Y-83820000D01*
X127005000Y-88900000D02*
X127005000Y-86365000D01*
%TO.N,Net-(BZ1-+)*%
X163637615Y-87437615D02*
X162175230Y-88900000D01*
X163637615Y-87437615D02*
X168910000Y-87437615D01*
X168910000Y-87437615D02*
X168910000Y-85100000D01*
X162175230Y-88900000D02*
X158750000Y-88900000D01*
%TO.N,/VB*%
X133460000Y-101600000D02*
X137240000Y-101600000D01*
%TO.N,Net-(U1-Q6)*%
X129545000Y-88900000D02*
X129545000Y-85095000D01*
X129545000Y-85095000D02*
X128270000Y-83820000D01*
%TO.N,Net-(U1-Q0)*%
X129545000Y-95245000D02*
X130175000Y-94615000D01*
X129545000Y-96520000D02*
X129545000Y-95245000D01*
X141605000Y-94615000D02*
X143510000Y-96520000D01*
X130175000Y-94615000D02*
X141605000Y-94615000D01*
%TD*%
%TA.AperFunction,Conductor*%
%TO.N,GND*%
G36*
X143902256Y-52590185D02*
G01*
X143948011Y-52642989D01*
X143957955Y-52712147D01*
X143928930Y-52775703D01*
X143922898Y-52782181D01*
X141861899Y-54843181D01*
X141800576Y-54876666D01*
X141774218Y-54879500D01*
X141068546Y-54879500D01*
X141068541Y-54879499D01*
X140871460Y-54879499D01*
X140871455Y-54879500D01*
X134461870Y-54879500D01*
X134394831Y-54859815D01*
X134349076Y-54807011D01*
X134344164Y-54794505D01*
X134341478Y-54786400D01*
X134299814Y-54660666D01*
X134207712Y-54511344D01*
X134083656Y-54387288D01*
X133934334Y-54295186D01*
X133767797Y-54240001D01*
X133767795Y-54240000D01*
X133665010Y-54229500D01*
X131764998Y-54229500D01*
X131764981Y-54229501D01*
X131662203Y-54240000D01*
X131662200Y-54240001D01*
X131495668Y-54295185D01*
X131495663Y-54295187D01*
X131346345Y-54387287D01*
X131245380Y-54488252D01*
X131184057Y-54521736D01*
X131114365Y-54516752D01*
X131084816Y-54500889D01*
X131040051Y-54468366D01*
X131010671Y-54453396D01*
X130808576Y-54350422D01*
X130561493Y-54270140D01*
X130304902Y-54229500D01*
X130304897Y-54229500D01*
X130045103Y-54229500D01*
X130045098Y-54229500D01*
X129788506Y-54270140D01*
X129541423Y-54350422D01*
X129309945Y-54468368D01*
X129099774Y-54621066D01*
X129099768Y-54621071D01*
X128916071Y-54804768D01*
X128916066Y-54804774D01*
X128763368Y-55014945D01*
X128645422Y-55246423D01*
X128565140Y-55493506D01*
X128524500Y-55750097D01*
X128524500Y-56009902D01*
X128565140Y-56266493D01*
X128645422Y-56513576D01*
X128763368Y-56745054D01*
X128916066Y-56955225D01*
X128916069Y-56955229D01*
X129099771Y-57138931D01*
X129123384Y-57156086D01*
X129166050Y-57211414D01*
X129174500Y-57256405D01*
X129174500Y-59859217D01*
X129154815Y-59926256D01*
X129138181Y-59946898D01*
X123822220Y-65262859D01*
X123822218Y-65262861D01*
X123752538Y-65332540D01*
X123682859Y-65402219D01*
X123573371Y-65566079D01*
X123573364Y-65566092D01*
X123497950Y-65748160D01*
X123497947Y-65748170D01*
X123459500Y-65941456D01*
X123459500Y-74956400D01*
X123439815Y-75023439D01*
X123423181Y-75044081D01*
X123277343Y-75189918D01*
X123277339Y-75189923D01*
X123133896Y-75387357D01*
X123023097Y-75604812D01*
X123023096Y-75604814D01*
X123023096Y-75604815D01*
X122947679Y-75836924D01*
X122909500Y-76077973D01*
X122909500Y-76322027D01*
X122947679Y-76563076D01*
X123023096Y-76795185D01*
X123133382Y-77011635D01*
X123133896Y-77012642D01*
X123277339Y-77210076D01*
X123277343Y-77210081D01*
X123449918Y-77382656D01*
X123449923Y-77382660D01*
X123622136Y-77507779D01*
X123647361Y-77526106D01*
X123864815Y-77636904D01*
X124096924Y-77712321D01*
X124337973Y-77750500D01*
X124337974Y-77750500D01*
X124582026Y-77750500D01*
X124582027Y-77750500D01*
X124823076Y-77712321D01*
X125055185Y-77636904D01*
X125272639Y-77526106D01*
X125470083Y-77382655D01*
X125642655Y-77210083D01*
X125786106Y-77012639D01*
X125896904Y-76795185D01*
X125972321Y-76563076D01*
X126010500Y-76322027D01*
X126010500Y-76077973D01*
X125972321Y-75836924D01*
X125896904Y-75604815D01*
X125786106Y-75387361D01*
X125767779Y-75362136D01*
X125642660Y-75189923D01*
X125642656Y-75189918D01*
X125496819Y-75044081D01*
X125463334Y-74982758D01*
X125460500Y-74956400D01*
X125460500Y-66505782D01*
X125480185Y-66438743D01*
X125496819Y-66418101D01*
X126900179Y-65014741D01*
X128319674Y-63595245D01*
X128380995Y-63561762D01*
X128450687Y-63566746D01*
X128506620Y-63608618D01*
X128529826Y-63663530D01*
X128565140Y-63886493D01*
X128645422Y-64133576D01*
X128763368Y-64365054D01*
X128899770Y-64552795D01*
X128916069Y-64575229D01*
X129099771Y-64758931D01*
X129123384Y-64776086D01*
X129166050Y-64831414D01*
X129174500Y-64876405D01*
X129174500Y-67479217D01*
X129154815Y-67546256D01*
X129138181Y-67566898D01*
X128381978Y-68323101D01*
X127632221Y-69072858D01*
X127632218Y-69072861D01*
X127562538Y-69142540D01*
X127492859Y-69212219D01*
X127383371Y-69376079D01*
X127383364Y-69376092D01*
X127307950Y-69558160D01*
X127307947Y-69558170D01*
X127269500Y-69751456D01*
X127269500Y-74956400D01*
X127249815Y-75023439D01*
X127233181Y-75044081D01*
X127087343Y-75189918D01*
X127087339Y-75189923D01*
X126943896Y-75387357D01*
X126833097Y-75604812D01*
X126833096Y-75604814D01*
X126833096Y-75604815D01*
X126757679Y-75836924D01*
X126719500Y-76077973D01*
X126719500Y-76322027D01*
X126757679Y-76563076D01*
X126833096Y-76795185D01*
X126943382Y-77011635D01*
X126943896Y-77012642D01*
X127087339Y-77210076D01*
X127087343Y-77210081D01*
X127259918Y-77382656D01*
X127259923Y-77382660D01*
X127432136Y-77507779D01*
X127457361Y-77526106D01*
X127674815Y-77636904D01*
X127906924Y-77712321D01*
X128147973Y-77750500D01*
X128147974Y-77750500D01*
X128392026Y-77750500D01*
X128392027Y-77750500D01*
X128633076Y-77712321D01*
X128865185Y-77636904D01*
X129082639Y-77526106D01*
X129280083Y-77382655D01*
X129452655Y-77210083D01*
X129596106Y-77012639D01*
X129706904Y-76795185D01*
X129782321Y-76563076D01*
X129820500Y-76322027D01*
X129820500Y-76077973D01*
X129782321Y-75836924D01*
X129706904Y-75604815D01*
X129596106Y-75387361D01*
X129577779Y-75362136D01*
X129452660Y-75189923D01*
X129452656Y-75189918D01*
X129306819Y-75044081D01*
X129273334Y-74982758D01*
X129270500Y-74956400D01*
X129270500Y-73834784D01*
X129290185Y-73767745D01*
X129342989Y-73721990D01*
X129412147Y-73712046D01*
X129475703Y-73741071D01*
X129482180Y-73747101D01*
X129537218Y-73802139D01*
X129537221Y-73802141D01*
X129541559Y-73806479D01*
X130834094Y-75099014D01*
X130867579Y-75160337D01*
X130862595Y-75230029D01*
X130846731Y-75259580D01*
X130753896Y-75387357D01*
X130643097Y-75604812D01*
X130643096Y-75604814D01*
X130643096Y-75604815D01*
X130567679Y-75836924D01*
X130529500Y-76077973D01*
X130529500Y-76322027D01*
X130567679Y-76563076D01*
X130643096Y-76795185D01*
X130753382Y-77011635D01*
X130753896Y-77012642D01*
X130897339Y-77210076D01*
X130897343Y-77210081D01*
X131069918Y-77382656D01*
X131069923Y-77382660D01*
X131242136Y-77507779D01*
X131267361Y-77526106D01*
X131484815Y-77636904D01*
X131716924Y-77712321D01*
X131957973Y-77750500D01*
X131957974Y-77750500D01*
X132202026Y-77750500D01*
X132202027Y-77750500D01*
X132443076Y-77712321D01*
X132675185Y-77636904D01*
X132892639Y-77526106D01*
X133090083Y-77382655D01*
X133262655Y-77210083D01*
X133406106Y-77012639D01*
X133516904Y-76795185D01*
X133592321Y-76563076D01*
X133630500Y-76322027D01*
X133630500Y-76077973D01*
X133592321Y-75836924D01*
X133516904Y-75604815D01*
X133406106Y-75387361D01*
X133387779Y-75362136D01*
X133262660Y-75189923D01*
X133262656Y-75189918D01*
X133116819Y-75044081D01*
X133083334Y-74982758D01*
X133080500Y-74956400D01*
X133080500Y-74831456D01*
X133080499Y-74831454D01*
X133042052Y-74638171D01*
X133042051Y-74638167D01*
X133042051Y-74638165D01*
X133035376Y-74622051D01*
X133004137Y-74546632D01*
X132966632Y-74456086D01*
X132860857Y-74297782D01*
X132857139Y-74292217D01*
X132714686Y-74149764D01*
X132714655Y-74149735D01*
X131527722Y-72962802D01*
X131494237Y-72901479D01*
X131499221Y-72831787D01*
X131541093Y-72775854D01*
X131606557Y-72751437D01*
X131654407Y-72757415D01*
X131662203Y-72759999D01*
X131764991Y-72770500D01*
X133665008Y-72770499D01*
X133767797Y-72759999D01*
X133934334Y-72704814D01*
X134083656Y-72612712D01*
X134207712Y-72488656D01*
X134299814Y-72339334D01*
X134354999Y-72172797D01*
X134365500Y-72070009D01*
X134365499Y-70169992D01*
X134354999Y-70067203D01*
X134299814Y-69900666D01*
X134207712Y-69751344D01*
X134083656Y-69627288D01*
X133934334Y-69535186D01*
X133800495Y-69490836D01*
X133743051Y-69451063D01*
X133716228Y-69386547D01*
X133715500Y-69373130D01*
X133715500Y-65246869D01*
X133735185Y-65179830D01*
X133787989Y-65134075D01*
X133800486Y-65129166D01*
X133934334Y-65084814D01*
X134083656Y-64992712D01*
X134207712Y-64868656D01*
X134299814Y-64719334D01*
X134354999Y-64552797D01*
X134365500Y-64450009D01*
X134365499Y-62549992D01*
X134354999Y-62447203D01*
X134299814Y-62280666D01*
X134207712Y-62131344D01*
X134083656Y-62007288D01*
X133934334Y-61915186D01*
X133800495Y-61870836D01*
X133743051Y-61831063D01*
X133716228Y-61766547D01*
X133715500Y-61753130D01*
X133715500Y-57626869D01*
X133735185Y-57559830D01*
X133787989Y-57514075D01*
X133800486Y-57509166D01*
X133934334Y-57464814D01*
X134083656Y-57372712D01*
X134207712Y-57248656D01*
X134299814Y-57099334D01*
X134344164Y-56965494D01*
X134383936Y-56908051D01*
X134448451Y-56881228D01*
X134461869Y-56880500D01*
X139210500Y-56880500D01*
X139277539Y-56900185D01*
X139323294Y-56952989D01*
X139334500Y-57004500D01*
X139334500Y-61753130D01*
X139314815Y-61820169D01*
X139262011Y-61865924D01*
X139249505Y-61870836D01*
X139115666Y-61915186D01*
X139115663Y-61915187D01*
X138966345Y-62007287D01*
X138865380Y-62108252D01*
X138804057Y-62141736D01*
X138734365Y-62136752D01*
X138704816Y-62120889D01*
X138660051Y-62088366D01*
X138428576Y-61970422D01*
X138181493Y-61890140D01*
X137924902Y-61849500D01*
X137924897Y-61849500D01*
X137665103Y-61849500D01*
X137665098Y-61849500D01*
X137408506Y-61890140D01*
X137161423Y-61970422D01*
X136929945Y-62088368D01*
X136719774Y-62241066D01*
X136719768Y-62241071D01*
X136536071Y-62424768D01*
X136536066Y-62424774D01*
X136383368Y-62634945D01*
X136265422Y-62866423D01*
X136185140Y-63113506D01*
X136144500Y-63370097D01*
X136144500Y-63629902D01*
X136185140Y-63886493D01*
X136265422Y-64133576D01*
X136383368Y-64365054D01*
X136519770Y-64552795D01*
X136536069Y-64575229D01*
X136719771Y-64758931D01*
X136743384Y-64776086D01*
X136786050Y-64831414D01*
X136794500Y-64876405D01*
X136794500Y-67479217D01*
X136774815Y-67546256D01*
X136758181Y-67566898D01*
X136001978Y-68323101D01*
X135252221Y-69072858D01*
X135252218Y-69072861D01*
X135182538Y-69142540D01*
X135112859Y-69212219D01*
X135003371Y-69376079D01*
X135003364Y-69376092D01*
X134927950Y-69558160D01*
X134927947Y-69558170D01*
X134889500Y-69751456D01*
X134889500Y-74956400D01*
X134869815Y-75023439D01*
X134853181Y-75044081D01*
X134707343Y-75189918D01*
X134707339Y-75189923D01*
X134563896Y-75387357D01*
X134453097Y-75604812D01*
X134453096Y-75604814D01*
X134453096Y-75604815D01*
X134377679Y-75836924D01*
X134339500Y-76077973D01*
X134339500Y-76322027D01*
X134377679Y-76563076D01*
X134453096Y-76795185D01*
X134563382Y-77011635D01*
X134563896Y-77012642D01*
X134707339Y-77210076D01*
X134707343Y-77210081D01*
X134879918Y-77382656D01*
X134879923Y-77382660D01*
X135052136Y-77507779D01*
X135077361Y-77526106D01*
X135294815Y-77636904D01*
X135526924Y-77712321D01*
X135767973Y-77750500D01*
X135767974Y-77750500D01*
X136012026Y-77750500D01*
X136012027Y-77750500D01*
X136253076Y-77712321D01*
X136485185Y-77636904D01*
X136702639Y-77526106D01*
X136900083Y-77382655D01*
X137072655Y-77210083D01*
X137216106Y-77012639D01*
X137326904Y-76795185D01*
X137402321Y-76563076D01*
X137440500Y-76322027D01*
X137440500Y-76077973D01*
X137402321Y-75836924D01*
X137326904Y-75604815D01*
X137216106Y-75387361D01*
X137197779Y-75362136D01*
X137072660Y-75189923D01*
X137072656Y-75189918D01*
X136926819Y-75044081D01*
X136893334Y-74982758D01*
X136890500Y-74956400D01*
X136890500Y-70315781D01*
X136910185Y-70248742D01*
X136926814Y-70228105D01*
X138432778Y-68722141D01*
X138432782Y-68722139D01*
X138487821Y-68667100D01*
X138540015Y-68638601D01*
X138549142Y-68633617D01*
X138549143Y-68633617D01*
X138549145Y-68633616D01*
X138590005Y-68636539D01*
X138618834Y-68638601D01*
X138618835Y-68638601D01*
X138618836Y-68638602D01*
X138643062Y-68656738D01*
X138674767Y-68680473D01*
X138674769Y-68680475D01*
X138687671Y-68715070D01*
X138699184Y-68745937D01*
X138699500Y-68754783D01*
X138699500Y-74956400D01*
X138679815Y-75023439D01*
X138663181Y-75044081D01*
X138517343Y-75189918D01*
X138517339Y-75189923D01*
X138373896Y-75387357D01*
X138263097Y-75604812D01*
X138263096Y-75604814D01*
X138263096Y-75604815D01*
X138187679Y-75836924D01*
X138149500Y-76077973D01*
X138149500Y-76322027D01*
X138187679Y-76563076D01*
X138263096Y-76795185D01*
X138373382Y-77011635D01*
X138373896Y-77012642D01*
X138517339Y-77210076D01*
X138517343Y-77210081D01*
X138689918Y-77382656D01*
X138689923Y-77382660D01*
X138862136Y-77507779D01*
X138887361Y-77526106D01*
X139104815Y-77636904D01*
X139336924Y-77712321D01*
X139577973Y-77750500D01*
X139577974Y-77750500D01*
X139822026Y-77750500D01*
X139822027Y-77750500D01*
X140063076Y-77712321D01*
X140295185Y-77636904D01*
X140512639Y-77526106D01*
X140710083Y-77382655D01*
X140882655Y-77210083D01*
X141026106Y-77012639D01*
X141136904Y-76795185D01*
X141212321Y-76563076D01*
X141250500Y-76322027D01*
X141250500Y-76077973D01*
X141212321Y-75836924D01*
X141136904Y-75604815D01*
X141026106Y-75387361D01*
X141007779Y-75362136D01*
X140882660Y-75189923D01*
X140882656Y-75189918D01*
X140736819Y-75044081D01*
X140703334Y-74982758D01*
X140700500Y-74956400D01*
X140700500Y-68410782D01*
X140720185Y-68343743D01*
X140736819Y-68323101D01*
X143017136Y-66042785D01*
X143017136Y-66042784D01*
X143017139Y-66042782D01*
X143084843Y-65941456D01*
X143126631Y-65878916D01*
X143126636Y-65878906D01*
X143176911Y-65757528D01*
X143202051Y-65696835D01*
X143240500Y-65503541D01*
X143240500Y-58250782D01*
X143260185Y-58183743D01*
X143276819Y-58163101D01*
X143741082Y-57698838D01*
X144242424Y-57197495D01*
X144303745Y-57164012D01*
X144373436Y-57168996D01*
X144402981Y-57184855D01*
X144549949Y-57291634D01*
X144588126Y-57311086D01*
X144781423Y-57409577D01*
X144781425Y-57409577D01*
X144781428Y-57409579D01*
X145028507Y-57489860D01*
X145150384Y-57509163D01*
X145285098Y-57530500D01*
X145285103Y-57530500D01*
X145544902Y-57530500D01*
X145658298Y-57512539D01*
X145801493Y-57489860D01*
X146048572Y-57409579D01*
X146280051Y-57291634D01*
X146324815Y-57259110D01*
X146390618Y-57235631D01*
X146458672Y-57251455D01*
X146485380Y-57271748D01*
X146586344Y-57372712D01*
X146735666Y-57464814D01*
X146869505Y-57509164D01*
X146926949Y-57548936D01*
X146953772Y-57613451D01*
X146954500Y-57626869D01*
X146954500Y-61753130D01*
X146934815Y-61820169D01*
X146882011Y-61865924D01*
X146869505Y-61870836D01*
X146735666Y-61915186D01*
X146735663Y-61915187D01*
X146586345Y-62007287D01*
X146485380Y-62108252D01*
X146424057Y-62141736D01*
X146354365Y-62136752D01*
X146324816Y-62120889D01*
X146280051Y-62088366D01*
X146048576Y-61970422D01*
X145801493Y-61890140D01*
X145544902Y-61849500D01*
X145544897Y-61849500D01*
X145285103Y-61849500D01*
X145285098Y-61849500D01*
X145028506Y-61890140D01*
X144781423Y-61970422D01*
X144549945Y-62088368D01*
X144339774Y-62241066D01*
X144339768Y-62241071D01*
X144156071Y-62424768D01*
X144156066Y-62424774D01*
X144003368Y-62634945D01*
X143885422Y-62866423D01*
X143805140Y-63113506D01*
X143764500Y-63370097D01*
X143764500Y-63629902D01*
X143805140Y-63886493D01*
X143885422Y-64133576D01*
X144003368Y-64365054D01*
X144139770Y-64552795D01*
X144156069Y-64575229D01*
X144339771Y-64758931D01*
X144363384Y-64776086D01*
X144406050Y-64831414D01*
X144414500Y-64876405D01*
X144414500Y-67479217D01*
X144394815Y-67546256D01*
X144378181Y-67566898D01*
X143621978Y-68323101D01*
X142872221Y-69072858D01*
X142872218Y-69072861D01*
X142802538Y-69142540D01*
X142732859Y-69212219D01*
X142623371Y-69376079D01*
X142623364Y-69376092D01*
X142547950Y-69558160D01*
X142547947Y-69558170D01*
X142509500Y-69751456D01*
X142509500Y-74956400D01*
X142489815Y-75023439D01*
X142473181Y-75044081D01*
X142327343Y-75189918D01*
X142327339Y-75189923D01*
X142183896Y-75387357D01*
X142073097Y-75604812D01*
X142073096Y-75604814D01*
X142073096Y-75604815D01*
X141997679Y-75836924D01*
X141959500Y-76077973D01*
X141959500Y-76322027D01*
X141997679Y-76563076D01*
X142073096Y-76795185D01*
X142183382Y-77011635D01*
X142183896Y-77012642D01*
X142327339Y-77210076D01*
X142327343Y-77210081D01*
X142499918Y-77382656D01*
X142499923Y-77382660D01*
X142672136Y-77507779D01*
X142697361Y-77526106D01*
X142914815Y-77636904D01*
X143146924Y-77712321D01*
X143387973Y-77750500D01*
X143387974Y-77750500D01*
X143632026Y-77750500D01*
X143632027Y-77750500D01*
X143873076Y-77712321D01*
X144105185Y-77636904D01*
X144322639Y-77526106D01*
X144520083Y-77382655D01*
X144692655Y-77210083D01*
X144836106Y-77012639D01*
X144946904Y-76795185D01*
X145022321Y-76563076D01*
X145060500Y-76322027D01*
X145060500Y-76077973D01*
X145022321Y-75836924D01*
X144946904Y-75604815D01*
X144925244Y-75562306D01*
X144912349Y-75493638D01*
X144938625Y-75428898D01*
X144995731Y-75388640D01*
X145065537Y-75385648D01*
X145123411Y-75418331D01*
X145733181Y-76028101D01*
X145766666Y-76089424D01*
X145769500Y-76115782D01*
X145769500Y-76322027D01*
X145807679Y-76563076D01*
X145883096Y-76795185D01*
X145993382Y-77011635D01*
X145993896Y-77012642D01*
X146137339Y-77210076D01*
X146137343Y-77210081D01*
X146309918Y-77382656D01*
X146309923Y-77382660D01*
X146482136Y-77507779D01*
X146507361Y-77526106D01*
X146724815Y-77636904D01*
X146956924Y-77712321D01*
X147197973Y-77750500D01*
X147197974Y-77750500D01*
X147442026Y-77750500D01*
X147442027Y-77750500D01*
X147683076Y-77712321D01*
X147915185Y-77636904D01*
X148132639Y-77526106D01*
X148330083Y-77382655D01*
X148502655Y-77210083D01*
X148582228Y-77100560D01*
X148635182Y-77027675D01*
X148690511Y-76985009D01*
X148760125Y-76979030D01*
X148821920Y-77011635D01*
X148856277Y-77072474D01*
X148859500Y-77100560D01*
X148859500Y-82576400D01*
X148839815Y-82643439D01*
X148823181Y-82664081D01*
X148677681Y-82809581D01*
X148616358Y-82843066D01*
X148546666Y-82838082D01*
X148502319Y-82809581D01*
X148330081Y-82637343D01*
X148330076Y-82637339D01*
X148132642Y-82493896D01*
X148132641Y-82493895D01*
X148132639Y-82493894D01*
X147915185Y-82383096D01*
X147683076Y-82307679D01*
X147683074Y-82307678D01*
X147683072Y-82307678D01*
X147514769Y-82281021D01*
X147442027Y-82269500D01*
X147197973Y-82269500D01*
X147142093Y-82278350D01*
X146956927Y-82307678D01*
X146724812Y-82383097D01*
X146507357Y-82493896D01*
X146309923Y-82637339D01*
X146309918Y-82637343D01*
X146137343Y-82809918D01*
X146137339Y-82809923D01*
X145993896Y-83007357D01*
X145883097Y-83224812D01*
X145807678Y-83456927D01*
X145786182Y-83592649D01*
X145769500Y-83697973D01*
X145769500Y-83942027D01*
X145807679Y-84183076D01*
X145883096Y-84415185D01*
X145993241Y-84631358D01*
X145993896Y-84632642D01*
X146137339Y-84830076D01*
X146137343Y-84830081D01*
X146309920Y-85002658D01*
X146319499Y-85009617D01*
X146376356Y-85050926D01*
X146419023Y-85106254D01*
X146425003Y-85175868D01*
X146392398Y-85237663D01*
X146391153Y-85238925D01*
X143766899Y-87863181D01*
X143705576Y-87896666D01*
X143679218Y-87899500D01*
X141215184Y-87899500D01*
X141148145Y-87879815D01*
X141104699Y-87831795D01*
X141066059Y-87755961D01*
X141031106Y-87687361D01*
X140935454Y-87555707D01*
X140887660Y-87489923D01*
X140887656Y-87489918D01*
X140715081Y-87317343D01*
X140715076Y-87317339D01*
X140517642Y-87173896D01*
X140517641Y-87173895D01*
X140517639Y-87173894D01*
X140300185Y-87063096D01*
X140068076Y-86987679D01*
X140068074Y-86987678D01*
X140068072Y-86987678D01*
X139899769Y-86961021D01*
X139827027Y-86949500D01*
X139582973Y-86949500D01*
X139527093Y-86958350D01*
X139341927Y-86987678D01*
X139109812Y-87063097D01*
X138892357Y-87173896D01*
X138694923Y-87317339D01*
X138694918Y-87317343D01*
X138522681Y-87489581D01*
X138461358Y-87523066D01*
X138391666Y-87518082D01*
X138347319Y-87489581D01*
X138175081Y-87317343D01*
X138175076Y-87317339D01*
X137977642Y-87173896D01*
X137977641Y-87173895D01*
X137977639Y-87173894D01*
X137760185Y-87063096D01*
X137528076Y-86987679D01*
X137528074Y-86987678D01*
X137528072Y-86987678D01*
X137359769Y-86961021D01*
X137287027Y-86949500D01*
X137042973Y-86949500D01*
X136987093Y-86958350D01*
X136801927Y-86987678D01*
X136569812Y-87063097D01*
X136352357Y-87173896D01*
X136154923Y-87317339D01*
X136154918Y-87317343D01*
X135982681Y-87489581D01*
X135921358Y-87523066D01*
X135851666Y-87518082D01*
X135807319Y-87489581D01*
X135661819Y-87344081D01*
X135628334Y-87282758D01*
X135625500Y-87256400D01*
X135625500Y-85550782D01*
X135645185Y-85483743D01*
X135661819Y-85463101D01*
X135718101Y-85406819D01*
X135779424Y-85373334D01*
X135805782Y-85370500D01*
X136012026Y-85370500D01*
X136012027Y-85370500D01*
X136253076Y-85332321D01*
X136485185Y-85256904D01*
X136702639Y-85146106D01*
X136900083Y-85002655D01*
X137072655Y-84830083D01*
X137216106Y-84632639D01*
X137326904Y-84415185D01*
X137402321Y-84183076D01*
X137440500Y-83942027D01*
X137440500Y-83697973D01*
X138149500Y-83697973D01*
X138149500Y-83942027D01*
X138187679Y-84183076D01*
X138263096Y-84415185D01*
X138373241Y-84631358D01*
X138373896Y-84632642D01*
X138517339Y-84830076D01*
X138517343Y-84830081D01*
X138689918Y-85002656D01*
X138689923Y-85002660D01*
X138806308Y-85087218D01*
X138887361Y-85146106D01*
X139104815Y-85256904D01*
X139336924Y-85332321D01*
X139577973Y-85370500D01*
X139577974Y-85370500D01*
X139822026Y-85370500D01*
X139822027Y-85370500D01*
X140063076Y-85332321D01*
X140295185Y-85256904D01*
X140512639Y-85146106D01*
X140710083Y-85002655D01*
X140882655Y-84830083D01*
X141026106Y-84632639D01*
X141136904Y-84415185D01*
X141212321Y-84183076D01*
X141250500Y-83942027D01*
X141250500Y-83697973D01*
X141959500Y-83697973D01*
X141959500Y-83942027D01*
X141997679Y-84183076D01*
X142073096Y-84415185D01*
X142183241Y-84631358D01*
X142183896Y-84632642D01*
X142327339Y-84830076D01*
X142327343Y-84830081D01*
X142499918Y-85002656D01*
X142499923Y-85002660D01*
X142616308Y-85087218D01*
X142697361Y-85146106D01*
X142914815Y-85256904D01*
X143146924Y-85332321D01*
X143387973Y-85370500D01*
X143387974Y-85370500D01*
X143632026Y-85370500D01*
X143632027Y-85370500D01*
X143873076Y-85332321D01*
X144105185Y-85256904D01*
X144322639Y-85146106D01*
X144520083Y-85002655D01*
X144692655Y-84830083D01*
X144836106Y-84632639D01*
X144946904Y-84415185D01*
X145022321Y-84183076D01*
X145060500Y-83942027D01*
X145060500Y-83697973D01*
X145022321Y-83456924D01*
X144946904Y-83224815D01*
X144836106Y-83007361D01*
X144776111Y-82924785D01*
X144692660Y-82809923D01*
X144692656Y-82809918D01*
X144520081Y-82637343D01*
X144520076Y-82637339D01*
X144322642Y-82493896D01*
X144322641Y-82493895D01*
X144322639Y-82493894D01*
X144105185Y-82383096D01*
X143873076Y-82307679D01*
X143873074Y-82307678D01*
X143873072Y-82307678D01*
X143704769Y-82281021D01*
X143632027Y-82269500D01*
X143387973Y-82269500D01*
X143332093Y-82278350D01*
X143146927Y-82307678D01*
X142914812Y-82383097D01*
X142697357Y-82493896D01*
X142499923Y-82637339D01*
X142499918Y-82637343D01*
X142327343Y-82809918D01*
X142327339Y-82809923D01*
X142183896Y-83007357D01*
X142073097Y-83224812D01*
X141997678Y-83456927D01*
X141976182Y-83592649D01*
X141959500Y-83697973D01*
X141250500Y-83697973D01*
X141212321Y-83456924D01*
X141136904Y-83224815D01*
X141026106Y-83007361D01*
X140966111Y-82924785D01*
X140882660Y-82809923D01*
X140882656Y-82809918D01*
X140710081Y-82637343D01*
X140710076Y-82637339D01*
X140512642Y-82493896D01*
X140512641Y-82493895D01*
X140512639Y-82493894D01*
X140295185Y-82383096D01*
X140063076Y-82307679D01*
X140063074Y-82307678D01*
X140063072Y-82307678D01*
X139894769Y-82281021D01*
X139822027Y-82269500D01*
X139577973Y-82269500D01*
X139522093Y-82278350D01*
X139336927Y-82307678D01*
X139104812Y-82383097D01*
X138887357Y-82493896D01*
X138689923Y-82637339D01*
X138689918Y-82637343D01*
X138517343Y-82809918D01*
X138517339Y-82809923D01*
X138373896Y-83007357D01*
X138263097Y-83224812D01*
X138187678Y-83456927D01*
X138166182Y-83592649D01*
X138149500Y-83697973D01*
X137440500Y-83697973D01*
X137402321Y-83456924D01*
X137326904Y-83224815D01*
X137216106Y-83007361D01*
X137156111Y-82924785D01*
X137072660Y-82809923D01*
X137072656Y-82809918D01*
X136900081Y-82637343D01*
X136900076Y-82637339D01*
X136702642Y-82493896D01*
X136702641Y-82493895D01*
X136702639Y-82493894D01*
X136485185Y-82383096D01*
X136253076Y-82307679D01*
X136253074Y-82307678D01*
X136253072Y-82307678D01*
X136084769Y-82281021D01*
X136012027Y-82269500D01*
X135767973Y-82269500D01*
X135712093Y-82278350D01*
X135526927Y-82307678D01*
X135294812Y-82383097D01*
X135077357Y-82493896D01*
X134879923Y-82637339D01*
X134879918Y-82637343D01*
X134707343Y-82809918D01*
X134707339Y-82809923D01*
X134563896Y-83007357D01*
X134453097Y-83224812D01*
X134377678Y-83456927D01*
X134339500Y-83697973D01*
X134339500Y-83904217D01*
X134319815Y-83971256D01*
X134303181Y-83991898D01*
X133987221Y-84307858D01*
X133987218Y-84307861D01*
X133917538Y-84377540D01*
X133847859Y-84447219D01*
X133738371Y-84611080D01*
X133738366Y-84611089D01*
X133699722Y-84704384D01*
X133699712Y-84704409D01*
X133698792Y-84706632D01*
X133662949Y-84793164D01*
X133660162Y-84807174D01*
X133658257Y-84816747D01*
X133658256Y-84816752D01*
X133624500Y-84986456D01*
X133624500Y-87256400D01*
X133604815Y-87323439D01*
X133588181Y-87344081D01*
X133442681Y-87489581D01*
X133381358Y-87523066D01*
X133311666Y-87518082D01*
X133267319Y-87489581D01*
X133116819Y-87339081D01*
X133083334Y-87277758D01*
X133080500Y-87251400D01*
X133080500Y-85063600D01*
X133100185Y-84996561D01*
X133116819Y-84975919D01*
X133144878Y-84947860D01*
X133262655Y-84830083D01*
X133406106Y-84632639D01*
X133516904Y-84415185D01*
X133592321Y-84183076D01*
X133630500Y-83942027D01*
X133630500Y-83697973D01*
X133592321Y-83456924D01*
X133516904Y-83224815D01*
X133406106Y-83007361D01*
X133346111Y-82924785D01*
X133262660Y-82809923D01*
X133262656Y-82809918D01*
X133090081Y-82637343D01*
X133090076Y-82637339D01*
X132892642Y-82493896D01*
X132892641Y-82493895D01*
X132892639Y-82493894D01*
X132675185Y-82383096D01*
X132443076Y-82307679D01*
X132443074Y-82307678D01*
X132443072Y-82307678D01*
X132274769Y-82281021D01*
X132202027Y-82269500D01*
X131957973Y-82269500D01*
X131902093Y-82278350D01*
X131716927Y-82307678D01*
X131484812Y-82383097D01*
X131267357Y-82493896D01*
X131069923Y-82637339D01*
X131069918Y-82637343D01*
X130897343Y-82809918D01*
X130897339Y-82809923D01*
X130753896Y-83007357D01*
X130643097Y-83224812D01*
X130567678Y-83456927D01*
X130546182Y-83592649D01*
X130529500Y-83697973D01*
X130529500Y-83942027D01*
X130567679Y-84183076D01*
X130643096Y-84415185D01*
X130753241Y-84631358D01*
X130753896Y-84632642D01*
X130897339Y-84830076D01*
X130897343Y-84830081D01*
X131043181Y-84975919D01*
X131076666Y-85037242D01*
X131079500Y-85063600D01*
X131079500Y-87261400D01*
X131059815Y-87328439D01*
X131043181Y-87349081D01*
X130902681Y-87489581D01*
X130841358Y-87523066D01*
X130771666Y-87518082D01*
X130727319Y-87489581D01*
X130581819Y-87344081D01*
X130548334Y-87282758D01*
X130545500Y-87256400D01*
X130545500Y-84996458D01*
X130545499Y-84996455D01*
X130515779Y-84847041D01*
X130515778Y-84847040D01*
X130514054Y-84838369D01*
X130507051Y-84803164D01*
X130463305Y-84697553D01*
X130431632Y-84621086D01*
X130368340Y-84526362D01*
X130322140Y-84457219D01*
X130280106Y-84415185D01*
X130182782Y-84317861D01*
X130182781Y-84317860D01*
X130047993Y-84183072D01*
X129856819Y-83991898D01*
X129823334Y-83930575D01*
X129820500Y-83904217D01*
X129820500Y-83697973D01*
X129809947Y-83631344D01*
X129782321Y-83456924D01*
X129706904Y-83224815D01*
X129596106Y-83007361D01*
X129536111Y-82924785D01*
X129452660Y-82809923D01*
X129452656Y-82809918D01*
X129280081Y-82637343D01*
X129280076Y-82637339D01*
X129082642Y-82493896D01*
X129082641Y-82493895D01*
X129082639Y-82493894D01*
X128865185Y-82383096D01*
X128633076Y-82307679D01*
X128633074Y-82307678D01*
X128633072Y-82307678D01*
X128464769Y-82281021D01*
X128392027Y-82269500D01*
X128147973Y-82269500D01*
X128092093Y-82278350D01*
X127906927Y-82307678D01*
X127674812Y-82383097D01*
X127457357Y-82493896D01*
X127259923Y-82637339D01*
X127259918Y-82637343D01*
X127087343Y-82809918D01*
X127087339Y-82809923D01*
X126943896Y-83007357D01*
X126833097Y-83224812D01*
X126757678Y-83456927D01*
X126736182Y-83592649D01*
X126719500Y-83697973D01*
X126719500Y-83942027D01*
X126757679Y-84183076D01*
X126801474Y-84317862D01*
X126833097Y-84415188D01*
X126854754Y-84457693D01*
X126867649Y-84526362D01*
X126841372Y-84591102D01*
X126784265Y-84631358D01*
X126714459Y-84634350D01*
X126656587Y-84601667D01*
X126046819Y-83991898D01*
X126013334Y-83930575D01*
X126010500Y-83904217D01*
X126010500Y-83697973D01*
X125999947Y-83631344D01*
X125972321Y-83456924D01*
X125896904Y-83224815D01*
X125786106Y-83007361D01*
X125726111Y-82924785D01*
X125642660Y-82809923D01*
X125642656Y-82809918D01*
X125470081Y-82637343D01*
X125470076Y-82637339D01*
X125272642Y-82493896D01*
X125272641Y-82493895D01*
X125272639Y-82493894D01*
X125055185Y-82383096D01*
X124823076Y-82307679D01*
X124823074Y-82307678D01*
X124823072Y-82307678D01*
X124654769Y-82281021D01*
X124582027Y-82269500D01*
X124337973Y-82269500D01*
X124282093Y-82278350D01*
X124096927Y-82307678D01*
X123864812Y-82383097D01*
X123647357Y-82493896D01*
X123449923Y-82637339D01*
X123449918Y-82637343D01*
X123277343Y-82809918D01*
X123277339Y-82809923D01*
X123133896Y-83007357D01*
X123023097Y-83224812D01*
X122947678Y-83456927D01*
X122926182Y-83592649D01*
X122909500Y-83697973D01*
X122909500Y-83942027D01*
X122947679Y-84183076D01*
X123023096Y-84415185D01*
X123133241Y-84631358D01*
X123133896Y-84632642D01*
X123277339Y-84830076D01*
X123277343Y-84830081D01*
X123449918Y-85002656D01*
X123449923Y-85002660D01*
X123566308Y-85087218D01*
X123647361Y-85146106D01*
X123864815Y-85256904D01*
X124096924Y-85332321D01*
X124337973Y-85370500D01*
X124337974Y-85370500D01*
X124544218Y-85370500D01*
X124611257Y-85390185D01*
X124631899Y-85406819D01*
X125968181Y-86743101D01*
X126001666Y-86804424D01*
X126004500Y-86830782D01*
X126004500Y-87256400D01*
X125984815Y-87323439D01*
X125968181Y-87344081D01*
X125822681Y-87489581D01*
X125761358Y-87523066D01*
X125691666Y-87518082D01*
X125647319Y-87489581D01*
X125475081Y-87317343D01*
X125475076Y-87317339D01*
X125277642Y-87173896D01*
X125277641Y-87173895D01*
X125277639Y-87173894D01*
X125060185Y-87063096D01*
X124828076Y-86987679D01*
X124828074Y-86987678D01*
X124828072Y-86987678D01*
X124659769Y-86961021D01*
X124587027Y-86949500D01*
X124342973Y-86949500D01*
X124287093Y-86958350D01*
X124101927Y-86987678D01*
X123869812Y-87063097D01*
X123652357Y-87173896D01*
X123454923Y-87317339D01*
X123454918Y-87317343D01*
X123282343Y-87489918D01*
X123282339Y-87489923D01*
X123138896Y-87687357D01*
X123028097Y-87904812D01*
X122952678Y-88136927D01*
X122935659Y-88244383D01*
X122914500Y-88377973D01*
X122914500Y-89422027D01*
X122952679Y-89663076D01*
X123028096Y-89895185D01*
X123118282Y-90072186D01*
X123138896Y-90112642D01*
X123282339Y-90310076D01*
X123282343Y-90310081D01*
X123428181Y-90455919D01*
X123461666Y-90517242D01*
X123464500Y-90543600D01*
X123464500Y-94601421D01*
X123444815Y-94668460D01*
X123397913Y-94711329D01*
X123361594Y-94730301D01*
X123203890Y-94858890D01*
X123075304Y-95016590D01*
X123075302Y-95016593D01*
X123054485Y-95056446D01*
X122981089Y-95196954D01*
X122949367Y-95307820D01*
X122931821Y-95369144D01*
X122925114Y-95392583D01*
X122925113Y-95392586D01*
X122914500Y-95511966D01*
X122914500Y-97528028D01*
X122914501Y-97528034D01*
X122925113Y-97647415D01*
X122981089Y-97843045D01*
X122981090Y-97843048D01*
X122981091Y-97843049D01*
X123075302Y-98023407D01*
X123075304Y-98023409D01*
X123203890Y-98181109D01*
X123297803Y-98257684D01*
X123361593Y-98309698D01*
X123541951Y-98403909D01*
X123737582Y-98459886D01*
X123856963Y-98470500D01*
X125073036Y-98470499D01*
X125192418Y-98459886D01*
X125388049Y-98403909D01*
X125568407Y-98309698D01*
X125726109Y-98181109D01*
X125772061Y-98124754D01*
X125795350Y-98096192D01*
X125852970Y-98056674D01*
X125922809Y-98054582D01*
X125979133Y-98086871D01*
X125994918Y-98102656D01*
X125994923Y-98102660D01*
X126102897Y-98181107D01*
X126192361Y-98246106D01*
X126409815Y-98356904D01*
X126641924Y-98432321D01*
X126882973Y-98470500D01*
X126882974Y-98470500D01*
X127127026Y-98470500D01*
X127127027Y-98470500D01*
X127368076Y-98432321D01*
X127600185Y-98356904D01*
X127817639Y-98246106D01*
X128015083Y-98102655D01*
X128187319Y-97930419D01*
X128248642Y-97896934D01*
X128318334Y-97901918D01*
X128362681Y-97930419D01*
X128534918Y-98102656D01*
X128534923Y-98102660D01*
X128642897Y-98181107D01*
X128732361Y-98246106D01*
X128949815Y-98356904D01*
X129181924Y-98432321D01*
X129422973Y-98470500D01*
X129422974Y-98470500D01*
X129667026Y-98470500D01*
X129667027Y-98470500D01*
X129908076Y-98432321D01*
X130140185Y-98356904D01*
X130357639Y-98246106D01*
X130555083Y-98102655D01*
X130727319Y-97930419D01*
X130788642Y-97896934D01*
X130858334Y-97901918D01*
X130902681Y-97930419D01*
X131074918Y-98102656D01*
X131074923Y-98102660D01*
X131182897Y-98181107D01*
X131272361Y-98246106D01*
X131489815Y-98356904D01*
X131721924Y-98432321D01*
X131962973Y-98470500D01*
X131962974Y-98470500D01*
X132207026Y-98470500D01*
X132207027Y-98470500D01*
X132448076Y-98432321D01*
X132680185Y-98356904D01*
X132897639Y-98246106D01*
X133095083Y-98102655D01*
X133267319Y-97930419D01*
X133328642Y-97896934D01*
X133398334Y-97901918D01*
X133442681Y-97930419D01*
X133614918Y-98102656D01*
X133614923Y-98102660D01*
X133722897Y-98181107D01*
X133812361Y-98246106D01*
X134029815Y-98356904D01*
X134261924Y-98432321D01*
X134502973Y-98470500D01*
X134502974Y-98470500D01*
X134747026Y-98470500D01*
X134747027Y-98470500D01*
X134988076Y-98432321D01*
X135220185Y-98356904D01*
X135437639Y-98246106D01*
X135635083Y-98102655D01*
X135807319Y-97930419D01*
X135868642Y-97896934D01*
X135938334Y-97901918D01*
X135982681Y-97930419D01*
X136154918Y-98102656D01*
X136154923Y-98102660D01*
X136262897Y-98181107D01*
X136352361Y-98246106D01*
X136569815Y-98356904D01*
X136801924Y-98432321D01*
X137042973Y-98470500D01*
X137042974Y-98470500D01*
X137287026Y-98470500D01*
X137287027Y-98470500D01*
X137528076Y-98432321D01*
X137760185Y-98356904D01*
X137977639Y-98246106D01*
X138175083Y-98102655D01*
X138347655Y-97930083D01*
X138347657Y-97930079D01*
X138347660Y-97930077D01*
X138489499Y-97734851D01*
X138544828Y-97692185D01*
X138614442Y-97686206D01*
X138676237Y-97718811D01*
X138690135Y-97734850D01*
X138713417Y-97766895D01*
X138858104Y-97911582D01*
X139023650Y-98031859D01*
X139205968Y-98124754D01*
X139400578Y-98187988D01*
X139455000Y-98196607D01*
X139455000Y-96835686D01*
X139459394Y-96840080D01*
X139550606Y-96892741D01*
X139652339Y-96920000D01*
X139757661Y-96920000D01*
X139859394Y-96892741D01*
X139950606Y-96840080D01*
X139955000Y-96835686D01*
X139955000Y-98196606D01*
X140009421Y-98187988D01*
X140204031Y-98124754D01*
X140386349Y-98031859D01*
X140551894Y-97911582D01*
X140551895Y-97911582D01*
X140696582Y-97766895D01*
X140696582Y-97766894D01*
X140816859Y-97601349D01*
X140909755Y-97419031D01*
X140972990Y-97224417D01*
X141005000Y-97022317D01*
X141005000Y-96770000D01*
X140020686Y-96770000D01*
X140025080Y-96765606D01*
X140077741Y-96674394D01*
X140105000Y-96572661D01*
X140105000Y-96467339D01*
X140077741Y-96365606D01*
X140025080Y-96274394D01*
X140020686Y-96270000D01*
X141005000Y-96270000D01*
X141005000Y-96017682D01*
X140972989Y-95815581D01*
X140972989Y-95815578D01*
X140960720Y-95777818D01*
X140958725Y-95707977D01*
X140994805Y-95648144D01*
X141057506Y-95617316D01*
X141078651Y-95615500D01*
X141139218Y-95615500D01*
X141206257Y-95635185D01*
X141226899Y-95651819D01*
X141973181Y-96398101D01*
X142006666Y-96459424D01*
X142009500Y-96485782D01*
X142009500Y-96638097D01*
X142046446Y-96871368D01*
X142119433Y-97095996D01*
X142214756Y-97283076D01*
X142226657Y-97306433D01*
X142365483Y-97497510D01*
X142532490Y-97664517D01*
X142723567Y-97803343D01*
X142822991Y-97854002D01*
X142934003Y-97910566D01*
X142934005Y-97910566D01*
X142934008Y-97910568D01*
X142994063Y-97930081D01*
X143158631Y-97983553D01*
X143391903Y-98020500D01*
X143391908Y-98020500D01*
X143628097Y-98020500D01*
X143861368Y-97983553D01*
X143861974Y-97983356D01*
X144085992Y-97910568D01*
X144296433Y-97803343D01*
X144487510Y-97664517D01*
X144654517Y-97497510D01*
X144793343Y-97306433D01*
X144900568Y-97095992D01*
X144973553Y-96871368D01*
X144976858Y-96850499D01*
X145010500Y-96638097D01*
X145010500Y-96401902D01*
X144973553Y-96168631D01*
X144900566Y-95944003D01*
X144793342Y-95733566D01*
X144654517Y-95542490D01*
X144487510Y-95375483D01*
X144296433Y-95236657D01*
X144133397Y-95153586D01*
X144085996Y-95129433D01*
X143861368Y-95056446D01*
X143807871Y-95047973D01*
X145769500Y-95047973D01*
X145769500Y-95292027D01*
X145781021Y-95364769D01*
X145805528Y-95519500D01*
X145807679Y-95533076D01*
X145883096Y-95765185D01*
X145908772Y-95815578D01*
X145993896Y-95982642D01*
X146137339Y-96180076D01*
X146137343Y-96180081D01*
X146309918Y-96352656D01*
X146309923Y-96352660D01*
X146422457Y-96434420D01*
X146507361Y-96496106D01*
X146724815Y-96606904D01*
X146956924Y-96682321D01*
X147197973Y-96720500D01*
X147197974Y-96720500D01*
X147442026Y-96720500D01*
X147442027Y-96720500D01*
X147683076Y-96682321D01*
X147915185Y-96606904D01*
X148132639Y-96496106D01*
X148330083Y-96352655D01*
X148502655Y-96180083D01*
X148646106Y-95982639D01*
X148756904Y-95765185D01*
X148832321Y-95533076D01*
X148870500Y-95292027D01*
X148870500Y-95047973D01*
X148832321Y-94806924D01*
X148756904Y-94574815D01*
X148646106Y-94357361D01*
X148611724Y-94310038D01*
X148502660Y-94159923D01*
X148502656Y-94159918D01*
X148330081Y-93987343D01*
X148330076Y-93987339D01*
X148132642Y-93843896D01*
X148132641Y-93843895D01*
X148132639Y-93843894D01*
X147915185Y-93733096D01*
X147683076Y-93657679D01*
X147683074Y-93657678D01*
X147683072Y-93657678D01*
X147514769Y-93631021D01*
X147442027Y-93619500D01*
X147197973Y-93619500D01*
X147142093Y-93628350D01*
X146956927Y-93657678D01*
X146724812Y-93733097D01*
X146507357Y-93843896D01*
X146309923Y-93987339D01*
X146309918Y-93987343D01*
X146137343Y-94159918D01*
X146137339Y-94159923D01*
X145993896Y-94357357D01*
X145883097Y-94574812D01*
X145807678Y-94806927D01*
X145776710Y-95002449D01*
X145769500Y-95047973D01*
X143807871Y-95047973D01*
X143628097Y-95019500D01*
X143628092Y-95019500D01*
X143475782Y-95019500D01*
X143408743Y-94999815D01*
X143388101Y-94983181D01*
X142386479Y-93981559D01*
X142386475Y-93981552D01*
X142386470Y-93981548D01*
X142316479Y-93911557D01*
X142282994Y-93850234D01*
X142287978Y-93780542D01*
X142329850Y-93724609D01*
X142379968Y-93702259D01*
X142435188Y-93691275D01*
X142531836Y-93672051D01*
X142616852Y-93636836D01*
X142713914Y-93596632D01*
X142877782Y-93487139D01*
X143017139Y-93347782D01*
X143017139Y-93347780D01*
X143027347Y-93337573D01*
X143027348Y-93337570D01*
X145869323Y-90495596D01*
X145930642Y-90462114D01*
X146000334Y-90467098D01*
X146056267Y-90508970D01*
X146074931Y-90544961D01*
X146115244Y-90669031D01*
X146208141Y-90851350D01*
X146208147Y-90851359D01*
X146240523Y-90895921D01*
X146240524Y-90895922D01*
X146920000Y-90216446D01*
X146920000Y-90222661D01*
X146947259Y-90324394D01*
X146999920Y-90415606D01*
X147074394Y-90490080D01*
X147165606Y-90542741D01*
X147267339Y-90570000D01*
X147273553Y-90570000D01*
X146594076Y-91249474D01*
X146638650Y-91281859D01*
X146820968Y-91374755D01*
X147015582Y-91437990D01*
X147217683Y-91470000D01*
X147422317Y-91470000D01*
X147624417Y-91437990D01*
X147819031Y-91374755D01*
X148001349Y-91281859D01*
X148045921Y-91249474D01*
X147366447Y-90570000D01*
X147372661Y-90570000D01*
X147474394Y-90542741D01*
X147565606Y-90490080D01*
X147640080Y-90415606D01*
X147692741Y-90324394D01*
X147720000Y-90222661D01*
X147720000Y-90216448D01*
X148399474Y-90895922D01*
X148399474Y-90895921D01*
X148431859Y-90851349D01*
X148524755Y-90669031D01*
X148587990Y-90474417D01*
X148620000Y-90272317D01*
X148620000Y-90067682D01*
X148587990Y-89865582D01*
X148524755Y-89670968D01*
X148431859Y-89488650D01*
X148399474Y-89444077D01*
X148399474Y-89444076D01*
X147720000Y-90123551D01*
X147720000Y-90117339D01*
X147692741Y-90015606D01*
X147640080Y-89924394D01*
X147565606Y-89849920D01*
X147474394Y-89797259D01*
X147372661Y-89770000D01*
X147366446Y-89770000D01*
X148045921Y-89090524D01*
X148045921Y-89090523D01*
X148001359Y-89058147D01*
X148001350Y-89058141D01*
X147819029Y-88965244D01*
X147694962Y-88924932D01*
X147637286Y-88885494D01*
X147610088Y-88821136D01*
X147622003Y-88752289D01*
X147645594Y-88719326D01*
X148333102Y-88031819D01*
X148394425Y-87998334D01*
X148420783Y-87995500D01*
X149756349Y-87995500D01*
X149823388Y-88015185D01*
X149869143Y-88067989D01*
X149879087Y-88137147D01*
X149874280Y-88157818D01*
X149862010Y-88195578D01*
X149862010Y-88195581D01*
X149830000Y-88397682D01*
X149830000Y-88650000D01*
X150814314Y-88650000D01*
X150809920Y-88654394D01*
X150757259Y-88745606D01*
X150730000Y-88847339D01*
X150730000Y-88952661D01*
X150757259Y-89054394D01*
X150809920Y-89145606D01*
X150814314Y-89150000D01*
X149830000Y-89150000D01*
X149830000Y-89402317D01*
X149862009Y-89604417D01*
X149925244Y-89799031D01*
X150018140Y-89981349D01*
X150138417Y-90146894D01*
X150138417Y-90146895D01*
X150283104Y-90291582D01*
X150448650Y-90411859D01*
X150630968Y-90504754D01*
X150825578Y-90567988D01*
X150880000Y-90576607D01*
X150880000Y-89215686D01*
X150884394Y-89220080D01*
X150975606Y-89272741D01*
X151077339Y-89300000D01*
X151182661Y-89300000D01*
X151284394Y-89272741D01*
X151375606Y-89220080D01*
X151380000Y-89215686D01*
X151380000Y-90576606D01*
X151434421Y-90567988D01*
X151629031Y-90504754D01*
X151811349Y-90411859D01*
X151976894Y-90291582D01*
X151976895Y-90291582D01*
X152121585Y-90146892D01*
X152144863Y-90114852D01*
X152200192Y-90072186D01*
X152269805Y-90066205D01*
X152331601Y-90098810D01*
X152345500Y-90114851D01*
X152487339Y-90310076D01*
X152487343Y-90310081D01*
X152633181Y-90455919D01*
X152666666Y-90517242D01*
X152669500Y-90543600D01*
X152669500Y-90903541D01*
X152669500Y-90903542D01*
X152669499Y-90903542D01*
X152684002Y-90976447D01*
X152684600Y-90979452D01*
X152707949Y-91096836D01*
X152720301Y-91126656D01*
X152723791Y-91135082D01*
X152723793Y-91135089D01*
X152783364Y-91278907D01*
X152783371Y-91278920D01*
X152892860Y-91442781D01*
X152892863Y-91442785D01*
X153036537Y-91586459D01*
X153036559Y-91586479D01*
X154794735Y-93344655D01*
X154794764Y-93344686D01*
X154937217Y-93487139D01*
X155060872Y-93569762D01*
X155101086Y-93596632D01*
X155198148Y-93636836D01*
X155283164Y-93672051D01*
X155379812Y-93691275D01*
X155451681Y-93705571D01*
X155476458Y-93710500D01*
X155476459Y-93710500D01*
X162341042Y-93710500D01*
X162382470Y-93702259D01*
X162437688Y-93691275D01*
X162534336Y-93672051D01*
X162619352Y-93636836D01*
X162716414Y-93596632D01*
X162753046Y-93572154D01*
X162819720Y-93551278D01*
X162887101Y-93569762D01*
X162933791Y-93621740D01*
X162944408Y-93655859D01*
X162952678Y-93708073D01*
X162952679Y-93708076D01*
X163028096Y-93940185D01*
X163130461Y-94141089D01*
X163138896Y-94157642D01*
X163282339Y-94355076D01*
X163282343Y-94355081D01*
X163454918Y-94527656D01*
X163454923Y-94527660D01*
X163565061Y-94607679D01*
X163652361Y-94671106D01*
X163869815Y-94781904D01*
X164101924Y-94857321D01*
X164342973Y-94895500D01*
X164342974Y-94895500D01*
X164549218Y-94895500D01*
X164616257Y-94915185D01*
X164636899Y-94931819D01*
X164957858Y-95252778D01*
X164957861Y-95252782D01*
X165012436Y-95307357D01*
X165012899Y-95307820D01*
X165046383Y-95369144D01*
X165044291Y-95398385D01*
X165041398Y-95438834D01*
X165041397Y-95438835D01*
X165041397Y-95438836D01*
X164999525Y-95494768D01*
X164973884Y-95504331D01*
X164934062Y-95519184D01*
X164925216Y-95519500D01*
X160260184Y-95519500D01*
X160193145Y-95499815D01*
X160149699Y-95451795D01*
X160119302Y-95392139D01*
X160076106Y-95307361D01*
X159995889Y-95196951D01*
X159932660Y-95109923D01*
X159932656Y-95109918D01*
X159760081Y-94937343D01*
X159760076Y-94937339D01*
X159562642Y-94793896D01*
X159562641Y-94793895D01*
X159562639Y-94793894D01*
X159345185Y-94683096D01*
X159113076Y-94607679D01*
X159113074Y-94607678D01*
X159113072Y-94607678D01*
X158905565Y-94574812D01*
X158872027Y-94569500D01*
X158627973Y-94569500D01*
X158594435Y-94574812D01*
X158386927Y-94607678D01*
X158154812Y-94683097D01*
X157937357Y-94793896D01*
X157739923Y-94937339D01*
X157739918Y-94937343D01*
X157567681Y-95109581D01*
X157506358Y-95143066D01*
X157436666Y-95138082D01*
X157392319Y-95109581D01*
X157220081Y-94937343D01*
X157220076Y-94937339D01*
X157022642Y-94793896D01*
X157022641Y-94793895D01*
X157022639Y-94793894D01*
X156805185Y-94683096D01*
X156573076Y-94607679D01*
X156573074Y-94607678D01*
X156573072Y-94607678D01*
X156365565Y-94574812D01*
X156332027Y-94569500D01*
X156087973Y-94569500D01*
X156054435Y-94574812D01*
X155846927Y-94607678D01*
X155614812Y-94683097D01*
X155397357Y-94793896D01*
X155199923Y-94937339D01*
X155199918Y-94937343D01*
X155027681Y-95109581D01*
X154966358Y-95143066D01*
X154896666Y-95138082D01*
X154852319Y-95109581D01*
X154680081Y-94937343D01*
X154680076Y-94937339D01*
X154482642Y-94793896D01*
X154482641Y-94793895D01*
X154482639Y-94793894D01*
X154265185Y-94683096D01*
X154033076Y-94607679D01*
X154033074Y-94607678D01*
X154033072Y-94607678D01*
X153825565Y-94574812D01*
X153792027Y-94569500D01*
X153547973Y-94569500D01*
X153514435Y-94574812D01*
X153306927Y-94607678D01*
X153074812Y-94683097D01*
X152857357Y-94793896D01*
X152659920Y-94937341D01*
X152644130Y-94953131D01*
X152582806Y-94986614D01*
X152513114Y-94981628D01*
X152460349Y-94943807D01*
X152391111Y-94858892D01*
X152233409Y-94730304D01*
X152233410Y-94730304D01*
X152233407Y-94730302D01*
X152053049Y-94636091D01*
X152053048Y-94636090D01*
X152053045Y-94636089D01*
X151931883Y-94601421D01*
X151857418Y-94580114D01*
X151857415Y-94580113D01*
X151857413Y-94580113D01*
X151791102Y-94574217D01*
X151738037Y-94569500D01*
X151738032Y-94569500D01*
X150521971Y-94569500D01*
X150521965Y-94569500D01*
X150521964Y-94569501D01*
X150510316Y-94570536D01*
X150402584Y-94580113D01*
X150206954Y-94636089D01*
X150139924Y-94671103D01*
X150026593Y-94730302D01*
X150026591Y-94730303D01*
X150026590Y-94730304D01*
X149868890Y-94858890D01*
X149740304Y-95016590D01*
X149740302Y-95016593D01*
X149719485Y-95056446D01*
X149646089Y-95196954D01*
X149614367Y-95307820D01*
X149596821Y-95369144D01*
X149590114Y-95392583D01*
X149590113Y-95392586D01*
X149579500Y-95511966D01*
X149579500Y-97528028D01*
X149579501Y-97528034D01*
X149590113Y-97647415D01*
X149646089Y-97843045D01*
X149646090Y-97843048D01*
X149646091Y-97843049D01*
X149740302Y-98023407D01*
X149740304Y-98023409D01*
X149868890Y-98181109D01*
X149962803Y-98257684D01*
X150026593Y-98309698D01*
X150206951Y-98403909D01*
X150402582Y-98459886D01*
X150521963Y-98470500D01*
X151738036Y-98470499D01*
X151857418Y-98459886D01*
X152053049Y-98403909D01*
X152233407Y-98309698D01*
X152391109Y-98181109D01*
X152437061Y-98124754D01*
X152460350Y-98096192D01*
X152517970Y-98056674D01*
X152587809Y-98054582D01*
X152644133Y-98086871D01*
X152659918Y-98102656D01*
X152659923Y-98102660D01*
X152767897Y-98181107D01*
X152857361Y-98246106D01*
X153074815Y-98356904D01*
X153306924Y-98432321D01*
X153547973Y-98470500D01*
X153547974Y-98470500D01*
X153792026Y-98470500D01*
X153792027Y-98470500D01*
X154033076Y-98432321D01*
X154265185Y-98356904D01*
X154482639Y-98246106D01*
X154680083Y-98102655D01*
X154852319Y-97930419D01*
X154913642Y-97896934D01*
X154983334Y-97901918D01*
X155027681Y-97930419D01*
X155199918Y-98102656D01*
X155199923Y-98102660D01*
X155307897Y-98181107D01*
X155397361Y-98246106D01*
X155614815Y-98356904D01*
X155846924Y-98432321D01*
X156087973Y-98470500D01*
X156087974Y-98470500D01*
X156332026Y-98470500D01*
X156332027Y-98470500D01*
X156573076Y-98432321D01*
X156805185Y-98356904D01*
X157022639Y-98246106D01*
X157220083Y-98102655D01*
X157392320Y-97930417D01*
X157453641Y-97896934D01*
X157523332Y-97901918D01*
X157567680Y-97930418D01*
X157713182Y-98075920D01*
X157746666Y-98137241D01*
X157749500Y-98163600D01*
X157749500Y-99086400D01*
X157729815Y-99153439D01*
X157713181Y-99174081D01*
X157567343Y-99319918D01*
X157567339Y-99319923D01*
X157423896Y-99517357D01*
X157313097Y-99734812D01*
X157237678Y-99966927D01*
X157199500Y-100207973D01*
X157199500Y-100452026D01*
X157227205Y-100626951D01*
X157237679Y-100693076D01*
X157313096Y-100925185D01*
X157412346Y-101119975D01*
X157423896Y-101142642D01*
X157567339Y-101340076D01*
X157567343Y-101340081D01*
X157713181Y-101485919D01*
X157746666Y-101547242D01*
X157749500Y-101573600D01*
X157749500Y-102303544D01*
X157778104Y-102447345D01*
X157787946Y-102496828D01*
X157787949Y-102496837D01*
X157863364Y-102678907D01*
X157863371Y-102678920D01*
X157972859Y-102842780D01*
X157972860Y-102842781D01*
X157972861Y-102842782D01*
X158112218Y-102982139D01*
X158112219Y-102982139D01*
X158119286Y-102989206D01*
X158119285Y-102989206D01*
X158119288Y-102989208D01*
X159257860Y-104127781D01*
X159257861Y-104127782D01*
X159361000Y-104230921D01*
X159397219Y-104267140D01*
X159489572Y-104328848D01*
X159561086Y-104376632D01*
X159631471Y-104405786D01*
X159743164Y-104452051D01*
X159936454Y-104490499D01*
X159936457Y-104490500D01*
X159936459Y-104490500D01*
X160746038Y-104490500D01*
X160813077Y-104510185D01*
X160835349Y-104529623D01*
X160835762Y-104529211D01*
X161017345Y-104710794D01*
X161017350Y-104710798D01*
X161134367Y-104795815D01*
X161221155Y-104858870D01*
X161347553Y-104923273D01*
X161445616Y-104973239D01*
X161445618Y-104973239D01*
X161445621Y-104973241D01*
X161685215Y-105051090D01*
X161934038Y-105090500D01*
X161934039Y-105090500D01*
X163385961Y-105090500D01*
X163385962Y-105090500D01*
X163634785Y-105051090D01*
X163874379Y-104973241D01*
X164098845Y-104858870D01*
X164302656Y-104710793D01*
X164480793Y-104532656D01*
X164480793Y-104532655D01*
X164484238Y-104529211D01*
X164485312Y-104530285D01*
X164538180Y-104495775D01*
X164573962Y-104490500D01*
X173246038Y-104490500D01*
X173313077Y-104510185D01*
X173335349Y-104529623D01*
X173335762Y-104529211D01*
X173517345Y-104710794D01*
X173517350Y-104710798D01*
X173634367Y-104795815D01*
X173721155Y-104858870D01*
X173847553Y-104923273D01*
X173945616Y-104973239D01*
X173945618Y-104973239D01*
X173945621Y-104973241D01*
X174185215Y-105051090D01*
X174434038Y-105090500D01*
X174434039Y-105090500D01*
X175885961Y-105090500D01*
X175885962Y-105090500D01*
X176134785Y-105051090D01*
X176374379Y-104973241D01*
X176598845Y-104858870D01*
X176802656Y-104710793D01*
X176980793Y-104532656D01*
X177128870Y-104328845D01*
X177243241Y-104104379D01*
X177321090Y-103864785D01*
X177360500Y-103615962D01*
X177360500Y-103364038D01*
X177321090Y-103115215D01*
X177243241Y-102875621D01*
X177243239Y-102875618D01*
X177243239Y-102875616D01*
X177186744Y-102764740D01*
X177128870Y-102651155D01*
X177073262Y-102574617D01*
X177052230Y-102545668D01*
X176980798Y-102447350D01*
X176980794Y-102447345D01*
X176802654Y-102269205D01*
X176802649Y-102269201D01*
X176598848Y-102121132D01*
X176598847Y-102121131D01*
X176598845Y-102121130D01*
X176518172Y-102080025D01*
X176374383Y-102006760D01*
X176134785Y-101928910D01*
X175885962Y-101889500D01*
X174434038Y-101889500D01*
X174413039Y-101892826D01*
X174185214Y-101928910D01*
X173945616Y-102006760D01*
X173721151Y-102121132D01*
X173517350Y-102269201D01*
X173517345Y-102269205D01*
X173335762Y-102450789D01*
X173334687Y-102449714D01*
X173281820Y-102484225D01*
X173246038Y-102489500D01*
X169836916Y-102489500D01*
X169769877Y-102469815D01*
X169724122Y-102417011D01*
X169714178Y-102347853D01*
X169743203Y-102284297D01*
X169749235Y-102277819D01*
X169757853Y-102269201D01*
X169787553Y-102239501D01*
X169893996Y-102092994D01*
X169976211Y-101931639D01*
X170032171Y-101759409D01*
X170048533Y-101656103D01*
X170060500Y-101580551D01*
X170060500Y-101399448D01*
X170044019Y-101295397D01*
X170032171Y-101220591D01*
X169976211Y-101048361D01*
X169976211Y-101048360D01*
X169923339Y-100944595D01*
X169893996Y-100887006D01*
X169848299Y-100824109D01*
X169787558Y-100740505D01*
X169787554Y-100740500D01*
X169659499Y-100612445D01*
X169659494Y-100612441D01*
X169512997Y-100506006D01*
X169512996Y-100506005D01*
X169512994Y-100506004D01*
X169461300Y-100479664D01*
X169351639Y-100423788D01*
X169351636Y-100423787D01*
X169179410Y-100367829D01*
X169000551Y-100339500D01*
X169000546Y-100339500D01*
X168819454Y-100339500D01*
X168819449Y-100339500D01*
X168640589Y-100367829D01*
X168468363Y-100423787D01*
X168468360Y-100423788D01*
X168307002Y-100506006D01*
X168160505Y-100612441D01*
X168160500Y-100612445D01*
X168032445Y-100740500D01*
X168032441Y-100740505D01*
X167926006Y-100887002D01*
X167843788Y-101048360D01*
X167843787Y-101048363D01*
X167787829Y-101220589D01*
X167759500Y-101399448D01*
X167759500Y-101580551D01*
X167787829Y-101759410D01*
X167843787Y-101931636D01*
X167843788Y-101931639D01*
X167926006Y-102092997D01*
X168032441Y-102239494D01*
X168032445Y-102239499D01*
X168070765Y-102277819D01*
X168104250Y-102339142D01*
X168099266Y-102408834D01*
X168057394Y-102464767D01*
X167991930Y-102489184D01*
X167983084Y-102489500D01*
X164573962Y-102489500D01*
X164506923Y-102469815D01*
X164484650Y-102450376D01*
X164484238Y-102450789D01*
X164302654Y-102269205D01*
X164302649Y-102269201D01*
X164098848Y-102121132D01*
X164098847Y-102121131D01*
X164098845Y-102121130D01*
X164018172Y-102080025D01*
X163874383Y-102006760D01*
X163634785Y-101928910D01*
X163385962Y-101889500D01*
X161934038Y-101889500D01*
X161913039Y-101892826D01*
X161685214Y-101928910D01*
X161445616Y-102006760D01*
X161221151Y-102121132D01*
X161017350Y-102269201D01*
X161017345Y-102269205D01*
X160835762Y-102450789D01*
X160834687Y-102449714D01*
X160781820Y-102484225D01*
X160746038Y-102489500D01*
X160500783Y-102489500D01*
X160433744Y-102469815D01*
X160413102Y-102453181D01*
X159786819Y-101826898D01*
X159753334Y-101765575D01*
X159750500Y-101739217D01*
X159750500Y-101573600D01*
X159770185Y-101506561D01*
X159786819Y-101485919D01*
X159787480Y-101485258D01*
X159932655Y-101340083D01*
X160076106Y-101142639D01*
X160186904Y-100925185D01*
X160262321Y-100693076D01*
X160300500Y-100452027D01*
X160300500Y-100207973D01*
X160262321Y-99966924D01*
X160186904Y-99734815D01*
X160076106Y-99517361D01*
X160057779Y-99492136D01*
X159932660Y-99319923D01*
X159932656Y-99319918D01*
X159786819Y-99174081D01*
X159753334Y-99112758D01*
X159750500Y-99086400D01*
X159750500Y-98163600D01*
X159770185Y-98096561D01*
X159786819Y-98075919D01*
X159842238Y-98020500D01*
X159932655Y-97930083D01*
X160076106Y-97732639D01*
X160135538Y-97615995D01*
X160149699Y-97588205D01*
X160197674Y-97537409D01*
X160260184Y-97520500D01*
X172183543Y-97520500D01*
X172229019Y-97511453D01*
X172299118Y-97497510D01*
X172376836Y-97482051D01*
X172430165Y-97459961D01*
X172558914Y-97406632D01*
X172722782Y-97297139D01*
X172862139Y-97157782D01*
X172862140Y-97157779D01*
X172869206Y-97150714D01*
X172869208Y-97150710D01*
X173733101Y-96286819D01*
X173794424Y-96253334D01*
X173820782Y-96250500D01*
X179606459Y-96250500D01*
X179929699Y-96250500D01*
X179996738Y-96270185D01*
X180042493Y-96322989D01*
X180047403Y-96335492D01*
X180057382Y-96365606D01*
X180075185Y-96419331D01*
X180075187Y-96419336D01*
X180104796Y-96467339D01*
X180167288Y-96568656D01*
X180291344Y-96692712D01*
X180440666Y-96784814D01*
X180607203Y-96839999D01*
X180709991Y-96850500D01*
X182510008Y-96850499D01*
X182612797Y-96839999D01*
X182779334Y-96784814D01*
X182928656Y-96692712D01*
X183052712Y-96568656D01*
X183144814Y-96419334D01*
X183199999Y-96252797D01*
X183210500Y-96150009D01*
X183210499Y-94349992D01*
X183207758Y-94323164D01*
X183199999Y-94247203D01*
X183199998Y-94247200D01*
X183171077Y-94159923D01*
X183144814Y-94080666D01*
X183052712Y-93931344D01*
X182928656Y-93807288D01*
X182923871Y-93802503D01*
X182890386Y-93741180D01*
X182895370Y-93671488D01*
X182911235Y-93641936D01*
X182914941Y-93636836D01*
X182978870Y-93548845D01*
X183093241Y-93324379D01*
X183171090Y-93084785D01*
X183210500Y-92835962D01*
X183210500Y-92584038D01*
X183171090Y-92335215D01*
X183093241Y-92095621D01*
X183093239Y-92095618D01*
X183093239Y-92095616D01*
X183032525Y-91976459D01*
X182978870Y-91871155D01*
X182902054Y-91765426D01*
X182830798Y-91667350D01*
X182830794Y-91667345D01*
X182652654Y-91489205D01*
X182652649Y-91489201D01*
X182448846Y-91341130D01*
X182422977Y-91327949D01*
X182391592Y-91305146D01*
X181739408Y-90652962D01*
X181802993Y-90635925D01*
X181917007Y-90570099D01*
X182010099Y-90477007D01*
X182075925Y-90362993D01*
X182092962Y-90299408D01*
X182725270Y-90931717D01*
X182725270Y-90931716D01*
X182764622Y-90877554D01*
X182861095Y-90688217D01*
X182926757Y-90486130D01*
X182926757Y-90486127D01*
X182960000Y-90276246D01*
X182960000Y-90063753D01*
X182926757Y-89853872D01*
X182926757Y-89853869D01*
X182861095Y-89651782D01*
X182764624Y-89462449D01*
X182725270Y-89408282D01*
X182725269Y-89408282D01*
X182092962Y-90040590D01*
X182075925Y-89977007D01*
X182010099Y-89862993D01*
X181917007Y-89769901D01*
X181802993Y-89704075D01*
X181739409Y-89687037D01*
X182391590Y-89034854D01*
X182422976Y-89012050D01*
X182448845Y-88998870D01*
X182604894Y-88885494D01*
X182652650Y-88850798D01*
X182652652Y-88850795D01*
X182652656Y-88850793D01*
X182830793Y-88672656D01*
X182978870Y-88468845D01*
X183093241Y-88244379D01*
X183171090Y-88004785D01*
X183210500Y-87755962D01*
X183210500Y-87504038D01*
X183171090Y-87255215D01*
X183093241Y-87015621D01*
X183093239Y-87015618D01*
X183093239Y-87015616D01*
X183014775Y-86861623D01*
X182978870Y-86791155D01*
X182883925Y-86660474D01*
X182830798Y-86587350D01*
X182830794Y-86587345D01*
X182691130Y-86447681D01*
X182657645Y-86386358D01*
X182662629Y-86316666D01*
X182691130Y-86272319D01*
X182748714Y-86214735D01*
X182830793Y-86132656D01*
X182978870Y-85928845D01*
X183093241Y-85704379D01*
X183171090Y-85464785D01*
X183210500Y-85215962D01*
X183210500Y-84964038D01*
X183171090Y-84715215D01*
X183093241Y-84475621D01*
X183093239Y-84475618D01*
X183093239Y-84475616D01*
X183051747Y-84394184D01*
X182978870Y-84251155D01*
X182889355Y-84127948D01*
X182830798Y-84047350D01*
X182830794Y-84047345D01*
X182691130Y-83907681D01*
X182657645Y-83846358D01*
X182662629Y-83776666D01*
X182691130Y-83732319D01*
X182725476Y-83697973D01*
X182830793Y-83592656D01*
X182978870Y-83388845D01*
X183093241Y-83164379D01*
X183171090Y-82924785D01*
X183210500Y-82675962D01*
X183210500Y-82424038D01*
X183171090Y-82175215D01*
X183093241Y-81935621D01*
X183093239Y-81935618D01*
X183093239Y-81935616D01*
X183051747Y-81854184D01*
X182978870Y-81711155D01*
X182959952Y-81685117D01*
X182830798Y-81507350D01*
X182830794Y-81507345D01*
X182652654Y-81329205D01*
X182652649Y-81329201D01*
X182448848Y-81181132D01*
X182448847Y-81181131D01*
X182448845Y-81181130D01*
X182378747Y-81145413D01*
X182224383Y-81066760D01*
X181984785Y-80988910D01*
X181735962Y-80949500D01*
X181484038Y-80949500D01*
X181359626Y-80969205D01*
X181235214Y-80988910D01*
X180995616Y-81066760D01*
X180771151Y-81181132D01*
X180567350Y-81329201D01*
X180567345Y-81329205D01*
X180389205Y-81507345D01*
X180389201Y-81507350D01*
X180241132Y-81711151D01*
X180126760Y-81935616D01*
X180048910Y-82175214D01*
X180048910Y-82175215D01*
X180009500Y-82424038D01*
X180009500Y-82675962D01*
X180035967Y-82843066D01*
X180048910Y-82924785D01*
X180126760Y-83164383D01*
X180205413Y-83318747D01*
X180226433Y-83360001D01*
X180241132Y-83388848D01*
X180389201Y-83592649D01*
X180389205Y-83592654D01*
X180528870Y-83732319D01*
X180562355Y-83793642D01*
X180557371Y-83863334D01*
X180528975Y-83907576D01*
X180389207Y-84047344D01*
X180388308Y-84048580D01*
X180383824Y-84053076D01*
X180357219Y-84067644D01*
X180331820Y-84084225D01*
X180325143Y-84085209D01*
X180322542Y-84086634D01*
X180317759Y-84086297D01*
X180296038Y-84089500D01*
X178971459Y-84089500D01*
X178946323Y-84094500D01*
X178833960Y-84116849D01*
X178778163Y-84127948D01*
X178596088Y-84203366D01*
X178596079Y-84203371D01*
X178432219Y-84312859D01*
X178432215Y-84312862D01*
X174881899Y-87863181D01*
X174820576Y-87896666D01*
X174794218Y-87899500D01*
X170501234Y-87899500D01*
X170434195Y-87879815D01*
X170388440Y-87827011D01*
X170378496Y-87757853D01*
X170378761Y-87756102D01*
X170410500Y-87555712D01*
X170410500Y-87319517D01*
X170373553Y-87086246D01*
X170329121Y-86949500D01*
X170300568Y-86861623D01*
X170300566Y-86861619D01*
X170299062Y-86856990D01*
X170300445Y-86856540D01*
X170293671Y-86793538D01*
X170324945Y-86731058D01*
X170350601Y-86710016D01*
X170378656Y-86692712D01*
X170502712Y-86568656D01*
X170594814Y-86419334D01*
X170649999Y-86252797D01*
X170660500Y-86150009D01*
X170660499Y-84049992D01*
X170649999Y-83947203D01*
X170594814Y-83780666D01*
X170502712Y-83631344D01*
X170378656Y-83507288D01*
X170229334Y-83415186D01*
X170062797Y-83360001D01*
X170062795Y-83360000D01*
X169960010Y-83349500D01*
X167859998Y-83349500D01*
X167859981Y-83349501D01*
X167757203Y-83360000D01*
X167757200Y-83360001D01*
X167590668Y-83415185D01*
X167590663Y-83415187D01*
X167441342Y-83507289D01*
X167317289Y-83631342D01*
X167225187Y-83780663D01*
X167225186Y-83780666D01*
X167170001Y-83947203D01*
X167170001Y-83947204D01*
X167170000Y-83947204D01*
X167159500Y-84049983D01*
X167159500Y-86150001D01*
X167159501Y-86150018D01*
X167170000Y-86252796D01*
X167170002Y-86252801D01*
X167177063Y-86274109D01*
X167179466Y-86343937D01*
X167143736Y-86403980D01*
X167081216Y-86435173D01*
X167059358Y-86437115D01*
X163539069Y-86437115D01*
X163507006Y-86443491D01*
X163507007Y-86443492D01*
X163345785Y-86475561D01*
X163345779Y-86475563D01*
X163163703Y-86550981D01*
X163163694Y-86550986D01*
X162999834Y-86660474D01*
X162999830Y-86660477D01*
X161797129Y-87863181D01*
X161735806Y-87896666D01*
X161709448Y-87899500D01*
X160260184Y-87899500D01*
X160193145Y-87879815D01*
X160149699Y-87831795D01*
X160111059Y-87755961D01*
X160076106Y-87687361D01*
X159980454Y-87555707D01*
X159932660Y-87489923D01*
X159932656Y-87489918D01*
X159760081Y-87317343D01*
X159760076Y-87317339D01*
X159562642Y-87173896D01*
X159562641Y-87173895D01*
X159562639Y-87173894D01*
X159345185Y-87063096D01*
X159113076Y-86987679D01*
X159113074Y-86987678D01*
X159113072Y-86987678D01*
X158944769Y-86961021D01*
X158872027Y-86949500D01*
X158627973Y-86949500D01*
X158572093Y-86958350D01*
X158386927Y-86987678D01*
X158154812Y-87063097D01*
X157937357Y-87173896D01*
X157739923Y-87317339D01*
X157739918Y-87317343D01*
X157567681Y-87489581D01*
X157506358Y-87523066D01*
X157436666Y-87518082D01*
X157392319Y-87489581D01*
X157246819Y-87344081D01*
X157213334Y-87282758D01*
X157210500Y-87256400D01*
X157210500Y-86896457D01*
X157202559Y-86856540D01*
X157191275Y-86799812D01*
X157172051Y-86703164D01*
X157134137Y-86611632D01*
X157096632Y-86521086D01*
X157096628Y-86521080D01*
X156987139Y-86357217D01*
X156844686Y-86214764D01*
X156844655Y-86214735D01*
X155721479Y-85091559D01*
X155721459Y-85091537D01*
X155577785Y-84947863D01*
X155577781Y-84947860D01*
X155413920Y-84838371D01*
X155413907Y-84838364D01*
X155285176Y-84785042D01*
X155285167Y-84785039D01*
X155277952Y-84782051D01*
X155231836Y-84762949D01*
X155135188Y-84743724D01*
X155130894Y-84742870D01*
X155130891Y-84742869D01*
X155038544Y-84724500D01*
X155038541Y-84724500D01*
X151341650Y-84724500D01*
X151274611Y-84704815D01*
X151228856Y-84652011D01*
X151218912Y-84582853D01*
X151231165Y-84544205D01*
X151296904Y-84415185D01*
X151372321Y-84183076D01*
X151410500Y-83942027D01*
X151410500Y-83697973D01*
X151372321Y-83456924D01*
X151296904Y-83224815D01*
X151186106Y-83007361D01*
X151126111Y-82924785D01*
X151042660Y-82809923D01*
X151042656Y-82809918D01*
X150896819Y-82664081D01*
X150863334Y-82602758D01*
X150860500Y-82576400D01*
X150860500Y-75466456D01*
X150860499Y-75466454D01*
X150844765Y-75387357D01*
X150822051Y-75273165D01*
X150815376Y-75257051D01*
X150784137Y-75181632D01*
X150746632Y-75091086D01*
X150697360Y-75017345D01*
X150637139Y-74927217D01*
X150494686Y-74784764D01*
X150494655Y-74784735D01*
X148991819Y-73281899D01*
X148958334Y-73220576D01*
X148955500Y-73194218D01*
X148955500Y-72866869D01*
X148975185Y-72799830D01*
X149027989Y-72754075D01*
X149040486Y-72749166D01*
X149174334Y-72704814D01*
X149323656Y-72612712D01*
X149447712Y-72488656D01*
X149539814Y-72339334D01*
X149594999Y-72172797D01*
X149605500Y-72070009D01*
X149605499Y-70169992D01*
X149594999Y-70067203D01*
X149539814Y-69900666D01*
X149447712Y-69751344D01*
X149323656Y-69627288D01*
X149174334Y-69535186D01*
X149040495Y-69490836D01*
X148983051Y-69451063D01*
X148956228Y-69386547D01*
X148955500Y-69373130D01*
X148955500Y-65246869D01*
X148975185Y-65179830D01*
X149027989Y-65134075D01*
X149040486Y-65129166D01*
X149174334Y-65084814D01*
X149323656Y-64992712D01*
X149447712Y-64868656D01*
X149539814Y-64719334D01*
X149594999Y-64552797D01*
X149605500Y-64450009D01*
X149605499Y-62549992D01*
X149594999Y-62447203D01*
X149539814Y-62280666D01*
X149447712Y-62131344D01*
X149323656Y-62007288D01*
X149174334Y-61915186D01*
X149040495Y-61870836D01*
X148983051Y-61831063D01*
X148956228Y-61766547D01*
X148955500Y-61753130D01*
X148955500Y-57626869D01*
X148975185Y-57559830D01*
X149027989Y-57514075D01*
X149040486Y-57509166D01*
X149174334Y-57464814D01*
X149323656Y-57372712D01*
X149447712Y-57248656D01*
X149539814Y-57099334D01*
X149594999Y-56932797D01*
X149605500Y-56830009D01*
X149605499Y-54929992D01*
X149594999Y-54827203D01*
X149539814Y-54660666D01*
X149447712Y-54511344D01*
X149323656Y-54387288D01*
X149174334Y-54295186D01*
X149007797Y-54240001D01*
X149007794Y-54240000D01*
X148952867Y-54234389D01*
X148888175Y-54207993D01*
X148850910Y-54158486D01*
X148841632Y-54136086D01*
X148841629Y-54136081D01*
X148841628Y-54136079D01*
X148732139Y-53972218D01*
X148732136Y-53972214D01*
X148589686Y-53829764D01*
X148589655Y-53829735D01*
X147542101Y-52782181D01*
X147508616Y-52720858D01*
X147513600Y-52651166D01*
X147555472Y-52595233D01*
X147620936Y-52570816D01*
X147629782Y-52570500D01*
X163520217Y-52570500D01*
X163587256Y-52590185D01*
X163633011Y-52642989D01*
X163642955Y-52712147D01*
X163613930Y-52775703D01*
X163607898Y-52782181D01*
X162557221Y-53832858D01*
X162557218Y-53832861D01*
X162509891Y-53880188D01*
X162417859Y-53972219D01*
X162308371Y-54136079D01*
X162308363Y-54136093D01*
X162299087Y-54158488D01*
X162255244Y-54212890D01*
X162197132Y-54234389D01*
X162142201Y-54240001D01*
X162142200Y-54240001D01*
X161975668Y-54295185D01*
X161975663Y-54295187D01*
X161826345Y-54387287D01*
X161725380Y-54488252D01*
X161664057Y-54521736D01*
X161594365Y-54516752D01*
X161564816Y-54500889D01*
X161520051Y-54468366D01*
X161490671Y-54453396D01*
X161288576Y-54350422D01*
X161041493Y-54270140D01*
X160784902Y-54229500D01*
X160784897Y-54229500D01*
X160525103Y-54229500D01*
X160525098Y-54229500D01*
X160268506Y-54270140D01*
X160021423Y-54350422D01*
X159789945Y-54468368D01*
X159579774Y-54621066D01*
X159579768Y-54621071D01*
X159396071Y-54804768D01*
X159396066Y-54804774D01*
X159243368Y-55014945D01*
X159125422Y-55246423D01*
X159045140Y-55493506D01*
X159004500Y-55750097D01*
X159004500Y-56009902D01*
X159045140Y-56266493D01*
X159125422Y-56513576D01*
X159243368Y-56745054D01*
X159396066Y-56955225D01*
X159396069Y-56955229D01*
X159579771Y-57138931D01*
X159789949Y-57291634D01*
X159937411Y-57366770D01*
X160021423Y-57409577D01*
X160021425Y-57409577D01*
X160021428Y-57409579D01*
X160268507Y-57489860D01*
X160390384Y-57509163D01*
X160525098Y-57530500D01*
X160525103Y-57530500D01*
X160784902Y-57530500D01*
X160898298Y-57512539D01*
X161041493Y-57489860D01*
X161288572Y-57409579D01*
X161520051Y-57291634D01*
X161564815Y-57259110D01*
X161630618Y-57235631D01*
X161698672Y-57251455D01*
X161725380Y-57271748D01*
X161826344Y-57372712D01*
X161975666Y-57464814D01*
X162109505Y-57509164D01*
X162166949Y-57548936D01*
X162193772Y-57613451D01*
X162194500Y-57626869D01*
X162194500Y-61753130D01*
X162174815Y-61820169D01*
X162122011Y-61865924D01*
X162109505Y-61870836D01*
X161975666Y-61915186D01*
X161975663Y-61915187D01*
X161826345Y-62007287D01*
X161725380Y-62108252D01*
X161664057Y-62141736D01*
X161594365Y-62136752D01*
X161564816Y-62120889D01*
X161520051Y-62088366D01*
X161288576Y-61970422D01*
X161041493Y-61890140D01*
X160784902Y-61849500D01*
X160784897Y-61849500D01*
X160525103Y-61849500D01*
X160525098Y-61849500D01*
X160268506Y-61890140D01*
X160021423Y-61970422D01*
X159789945Y-62088368D01*
X159579774Y-62241066D01*
X159579768Y-62241071D01*
X159396071Y-62424768D01*
X159396066Y-62424774D01*
X159243368Y-62634945D01*
X159125422Y-62866423D01*
X159045140Y-63113506D01*
X159004500Y-63370097D01*
X159004500Y-63629902D01*
X159045140Y-63886493D01*
X159125422Y-64133576D01*
X159243368Y-64365054D01*
X159379770Y-64552795D01*
X159396069Y-64575229D01*
X159579771Y-64758931D01*
X159789949Y-64911634D01*
X159937411Y-64986770D01*
X160021423Y-65029577D01*
X160021425Y-65029577D01*
X160021428Y-65029579D01*
X160268507Y-65109860D01*
X160390384Y-65129163D01*
X160525098Y-65150500D01*
X160525103Y-65150500D01*
X160784902Y-65150500D01*
X160898298Y-65132539D01*
X161041493Y-65109860D01*
X161288572Y-65029579D01*
X161520051Y-64911634D01*
X161564815Y-64879110D01*
X161630618Y-64855631D01*
X161698672Y-64871455D01*
X161725380Y-64891748D01*
X161826344Y-64992712D01*
X161975666Y-65084814D01*
X162109505Y-65129164D01*
X162166949Y-65168936D01*
X162193772Y-65233451D01*
X162194500Y-65246869D01*
X162194500Y-69373130D01*
X162174815Y-69440169D01*
X162122011Y-69485924D01*
X162109505Y-69490836D01*
X161975666Y-69535186D01*
X161975663Y-69535187D01*
X161826345Y-69627287D01*
X161725380Y-69728252D01*
X161664057Y-69761736D01*
X161594365Y-69756752D01*
X161564816Y-69740889D01*
X161520051Y-69708366D01*
X161288576Y-69590422D01*
X161041493Y-69510140D01*
X160784902Y-69469500D01*
X160784897Y-69469500D01*
X160525103Y-69469500D01*
X160525098Y-69469500D01*
X160268506Y-69510140D01*
X160021423Y-69590422D01*
X159789945Y-69708368D01*
X159579774Y-69861066D01*
X159579768Y-69861071D01*
X159396071Y-70044768D01*
X159396066Y-70044774D01*
X159243368Y-70254945D01*
X159125422Y-70486423D01*
X159045140Y-70733506D01*
X159004500Y-70990097D01*
X159004500Y-71249902D01*
X159045140Y-71506493D01*
X159125422Y-71753576D01*
X159243368Y-71985054D01*
X159379770Y-72172795D01*
X159396069Y-72195229D01*
X159579771Y-72378931D01*
X159789949Y-72531634D01*
X159937411Y-72606770D01*
X160021423Y-72649577D01*
X160021425Y-72649577D01*
X160021428Y-72649579D01*
X160268507Y-72729860D01*
X160390384Y-72749163D01*
X160525098Y-72770500D01*
X160525103Y-72770500D01*
X160784902Y-72770500D01*
X160905258Y-72751437D01*
X161041493Y-72729860D01*
X161288572Y-72649579D01*
X161520051Y-72531634D01*
X161564815Y-72499110D01*
X161630618Y-72475631D01*
X161698672Y-72491455D01*
X161725380Y-72511748D01*
X161826344Y-72612712D01*
X161975666Y-72704814D01*
X162109505Y-72749164D01*
X162166949Y-72788936D01*
X162193772Y-72853451D01*
X162194500Y-72866869D01*
X162194500Y-73194217D01*
X162174815Y-73261256D01*
X162158181Y-73281898D01*
X160017220Y-75422859D01*
X160017218Y-75422861D01*
X159973625Y-75466454D01*
X159877859Y-75562219D01*
X159768371Y-75726080D01*
X159768364Y-75726093D01*
X159722458Y-75836924D01*
X159722458Y-75836925D01*
X159699625Y-75892049D01*
X159699624Y-75892052D01*
X159692948Y-75908167D01*
X159692947Y-75908171D01*
X159654500Y-76101454D01*
X159654500Y-82576400D01*
X159634815Y-82643439D01*
X159618181Y-82664081D01*
X159472343Y-82809918D01*
X159472339Y-82809923D01*
X159328896Y-83007357D01*
X159218097Y-83224812D01*
X159142678Y-83456927D01*
X159121182Y-83592649D01*
X159104500Y-83697973D01*
X159104500Y-83942027D01*
X159142679Y-84183076D01*
X159218096Y-84415185D01*
X159328241Y-84631358D01*
X159328896Y-84632642D01*
X159472339Y-84830076D01*
X159472343Y-84830081D01*
X159644918Y-85002656D01*
X159644923Y-85002660D01*
X159761308Y-85087218D01*
X159842361Y-85146106D01*
X160059815Y-85256904D01*
X160291924Y-85332321D01*
X160532973Y-85370500D01*
X160532974Y-85370500D01*
X160777026Y-85370500D01*
X160777027Y-85370500D01*
X161018076Y-85332321D01*
X161250185Y-85256904D01*
X161467639Y-85146106D01*
X161665083Y-85002655D01*
X161837655Y-84830083D01*
X161981106Y-84632639D01*
X162091904Y-84415185D01*
X162167321Y-84183076D01*
X162205500Y-83942027D01*
X162205500Y-83697973D01*
X162167321Y-83456924D01*
X162091904Y-83224815D01*
X161981106Y-83007361D01*
X161921111Y-82924785D01*
X161837660Y-82809923D01*
X161837656Y-82809918D01*
X161691819Y-82664081D01*
X161658334Y-82602758D01*
X161655500Y-82576400D01*
X161655500Y-76665782D01*
X161675185Y-76598743D01*
X161691819Y-76578101D01*
X163972136Y-74297785D01*
X163972136Y-74297784D01*
X163972139Y-74297782D01*
X164081631Y-74133915D01*
X164081632Y-74133914D01*
X164142464Y-73987051D01*
X164157051Y-73951836D01*
X164195500Y-73758541D01*
X164195500Y-73561460D01*
X164195500Y-72866869D01*
X164215185Y-72799830D01*
X164267989Y-72754075D01*
X164280486Y-72749166D01*
X164414334Y-72704814D01*
X164563656Y-72612712D01*
X164687712Y-72488656D01*
X164779814Y-72339334D01*
X164834999Y-72172797D01*
X164845500Y-72070009D01*
X164845499Y-70169992D01*
X164834999Y-70067203D01*
X164779814Y-69900666D01*
X164687712Y-69751344D01*
X164563656Y-69627288D01*
X164414334Y-69535186D01*
X164280495Y-69490836D01*
X164223051Y-69451063D01*
X164196228Y-69386547D01*
X164195500Y-69373130D01*
X164195500Y-65246869D01*
X164215185Y-65179830D01*
X164267989Y-65134075D01*
X164280486Y-65129166D01*
X164414334Y-65084814D01*
X164563656Y-64992712D01*
X164687712Y-64868656D01*
X164779814Y-64719334D01*
X164834999Y-64552797D01*
X164845500Y-64450009D01*
X164845499Y-62549992D01*
X164834999Y-62447203D01*
X164779814Y-62280666D01*
X164687712Y-62131344D01*
X164563656Y-62007288D01*
X164414334Y-61915186D01*
X164280495Y-61870836D01*
X164223051Y-61831063D01*
X164196228Y-61766547D01*
X164195500Y-61753130D01*
X164195500Y-60814500D01*
X164215185Y-60747461D01*
X164267989Y-60701706D01*
X164319500Y-60690500D01*
X169079218Y-60690500D01*
X169146257Y-60710185D01*
X169166899Y-60726819D01*
X169778181Y-61338101D01*
X169811666Y-61399424D01*
X169814500Y-61425782D01*
X169814500Y-61753130D01*
X169794815Y-61820169D01*
X169742011Y-61865924D01*
X169729505Y-61870836D01*
X169595666Y-61915186D01*
X169595663Y-61915187D01*
X169446345Y-62007287D01*
X169345380Y-62108252D01*
X169284057Y-62141736D01*
X169214365Y-62136752D01*
X169184816Y-62120889D01*
X169140051Y-62088366D01*
X168908576Y-61970422D01*
X168661493Y-61890140D01*
X168404902Y-61849500D01*
X168404897Y-61849500D01*
X168145103Y-61849500D01*
X168145098Y-61849500D01*
X167888506Y-61890140D01*
X167641423Y-61970422D01*
X167409945Y-62088368D01*
X167199774Y-62241066D01*
X167199768Y-62241071D01*
X167016071Y-62424768D01*
X167016066Y-62424774D01*
X166863368Y-62634945D01*
X166745422Y-62866423D01*
X166665140Y-63113506D01*
X166624500Y-63370097D01*
X166624500Y-63629902D01*
X166665140Y-63886493D01*
X166745422Y-64133576D01*
X166863368Y-64365054D01*
X166999770Y-64552795D01*
X167016069Y-64575229D01*
X167199771Y-64758931D01*
X167409949Y-64911634D01*
X167557411Y-64986770D01*
X167641423Y-65029577D01*
X167641425Y-65029577D01*
X167641428Y-65029579D01*
X167888507Y-65109860D01*
X168010384Y-65129163D01*
X168145098Y-65150500D01*
X168145103Y-65150500D01*
X168404902Y-65150500D01*
X168518298Y-65132539D01*
X168661493Y-65109860D01*
X168908572Y-65029579D01*
X169140051Y-64911634D01*
X169184815Y-64879110D01*
X169250618Y-64855631D01*
X169318672Y-64871455D01*
X169345380Y-64891748D01*
X169446344Y-64992712D01*
X169595666Y-65084814D01*
X169762203Y-65139999D01*
X169864991Y-65150500D01*
X171765008Y-65150499D01*
X171867797Y-65139999D01*
X172034334Y-65084814D01*
X172183656Y-64992712D01*
X172307712Y-64868656D01*
X172399814Y-64719334D01*
X172454999Y-64552797D01*
X172465500Y-64450009D01*
X172465499Y-62549992D01*
X172454999Y-62447203D01*
X172399814Y-62280666D01*
X172307712Y-62131344D01*
X172183656Y-62007288D01*
X172034334Y-61915186D01*
X171900495Y-61870836D01*
X171843051Y-61831063D01*
X171816228Y-61766547D01*
X171815500Y-61753130D01*
X171815500Y-60861456D01*
X171815499Y-60861454D01*
X171802172Y-60794455D01*
X171777051Y-60668165D01*
X171770376Y-60652051D01*
X171758820Y-60624153D01*
X171739137Y-60576632D01*
X171701635Y-60486093D01*
X171701634Y-60486092D01*
X171701632Y-60486086D01*
X171659843Y-60423544D01*
X171592139Y-60322217D01*
X171449686Y-60179764D01*
X171449655Y-60179735D01*
X170326479Y-59056559D01*
X170326459Y-59056537D01*
X170182785Y-58912863D01*
X170182781Y-58912860D01*
X170018920Y-58803371D01*
X170018907Y-58803364D01*
X169890176Y-58750042D01*
X169890167Y-58750039D01*
X169882952Y-58747051D01*
X169836836Y-58727949D01*
X169740188Y-58708724D01*
X169735894Y-58707870D01*
X169735891Y-58707869D01*
X169643544Y-58689500D01*
X169643541Y-58689500D01*
X164319500Y-58689500D01*
X164252461Y-58669815D01*
X164206706Y-58617011D01*
X164195500Y-58565500D01*
X164195500Y-57626869D01*
X164215185Y-57559830D01*
X164267989Y-57514075D01*
X164280486Y-57509166D01*
X164414334Y-57464814D01*
X164563656Y-57372712D01*
X164687712Y-57248656D01*
X164779814Y-57099334D01*
X164834999Y-56932797D01*
X164845500Y-56830009D01*
X164845499Y-54929992D01*
X164834999Y-54827203D01*
X164779814Y-54660666D01*
X164747141Y-54607695D01*
X164728702Y-54540304D01*
X164749625Y-54473641D01*
X164764993Y-54454925D01*
X164843102Y-54376817D01*
X164904425Y-54343334D01*
X164930782Y-54340500D01*
X174824309Y-54340500D01*
X174891348Y-54360185D01*
X174937103Y-54412989D01*
X174947047Y-54482147D01*
X174918022Y-54545703D01*
X174897194Y-54564818D01*
X174819774Y-54621066D01*
X174819768Y-54621071D01*
X174636071Y-54804768D01*
X174636066Y-54804774D01*
X174483368Y-55014945D01*
X174365422Y-55246423D01*
X174285140Y-55493506D01*
X174244500Y-55750097D01*
X174244500Y-56009902D01*
X174285140Y-56266493D01*
X174365422Y-56513576D01*
X174483368Y-56745054D01*
X174636066Y-56955225D01*
X174636069Y-56955229D01*
X174819771Y-57138931D01*
X175029949Y-57291634D01*
X175177411Y-57366770D01*
X175261423Y-57409577D01*
X175261425Y-57409577D01*
X175261428Y-57409579D01*
X175508507Y-57489860D01*
X175630384Y-57509163D01*
X175765098Y-57530500D01*
X175765103Y-57530500D01*
X176024902Y-57530500D01*
X176138298Y-57512539D01*
X176281493Y-57489860D01*
X176528572Y-57409579D01*
X176760051Y-57291634D01*
X176804815Y-57259110D01*
X176870618Y-57235631D01*
X176938672Y-57251455D01*
X176965380Y-57271748D01*
X177066344Y-57372712D01*
X177215666Y-57464814D01*
X177349505Y-57509164D01*
X177406949Y-57548936D01*
X177433772Y-57613451D01*
X177434500Y-57626869D01*
X177434500Y-61753130D01*
X177414815Y-61820169D01*
X177362011Y-61865924D01*
X177349505Y-61870836D01*
X177215666Y-61915186D01*
X177215663Y-61915187D01*
X177066345Y-62007287D01*
X176965380Y-62108252D01*
X176904057Y-62141736D01*
X176834365Y-62136752D01*
X176804816Y-62120889D01*
X176760051Y-62088366D01*
X176528576Y-61970422D01*
X176281493Y-61890140D01*
X176024902Y-61849500D01*
X176024897Y-61849500D01*
X175765103Y-61849500D01*
X175765098Y-61849500D01*
X175508506Y-61890140D01*
X175261423Y-61970422D01*
X175029945Y-62088368D01*
X174819774Y-62241066D01*
X174819768Y-62241071D01*
X174636071Y-62424768D01*
X174636066Y-62424774D01*
X174483368Y-62634945D01*
X174365422Y-62866423D01*
X174285140Y-63113506D01*
X174244500Y-63370097D01*
X174244500Y-63629902D01*
X174285140Y-63886493D01*
X174365422Y-64133576D01*
X174483368Y-64365054D01*
X174619770Y-64552795D01*
X174636069Y-64575229D01*
X174819771Y-64758931D01*
X175029949Y-64911634D01*
X175177411Y-64986770D01*
X175261423Y-65029577D01*
X175261425Y-65029577D01*
X175261428Y-65029579D01*
X175508507Y-65109860D01*
X175630384Y-65129163D01*
X175765098Y-65150500D01*
X175765103Y-65150500D01*
X176024902Y-65150500D01*
X176138298Y-65132539D01*
X176281493Y-65109860D01*
X176528572Y-65029579D01*
X176760051Y-64911634D01*
X176804815Y-64879110D01*
X176870618Y-64855631D01*
X176938672Y-64871455D01*
X176965380Y-64891748D01*
X177066344Y-64992712D01*
X177215666Y-65084814D01*
X177349505Y-65129164D01*
X177406949Y-65168936D01*
X177433772Y-65233451D01*
X177434500Y-65246869D01*
X177434500Y-69373130D01*
X177414815Y-69440169D01*
X177362011Y-69485924D01*
X177349505Y-69490836D01*
X177215666Y-69535186D01*
X177215663Y-69535187D01*
X177066345Y-69627287D01*
X176965380Y-69728252D01*
X176904057Y-69761736D01*
X176834365Y-69756752D01*
X176804816Y-69740889D01*
X176760051Y-69708366D01*
X176528576Y-69590422D01*
X176281493Y-69510140D01*
X176024902Y-69469500D01*
X176024897Y-69469500D01*
X175765103Y-69469500D01*
X175765098Y-69469500D01*
X175508506Y-69510140D01*
X175261423Y-69590422D01*
X175029945Y-69708368D01*
X174819774Y-69861066D01*
X174819768Y-69861071D01*
X174636071Y-70044768D01*
X174636066Y-70044774D01*
X174483368Y-70254945D01*
X174365422Y-70486423D01*
X174285140Y-70733506D01*
X174244500Y-70990097D01*
X174244500Y-71249902D01*
X174285140Y-71506493D01*
X174365422Y-71753576D01*
X174483368Y-71985054D01*
X174619770Y-72172795D01*
X174636069Y-72195229D01*
X174819771Y-72378931D01*
X175029949Y-72531634D01*
X175177411Y-72606770D01*
X175261423Y-72649577D01*
X175261425Y-72649577D01*
X175261428Y-72649579D01*
X175508507Y-72729860D01*
X175630384Y-72749163D01*
X175765098Y-72770500D01*
X175765103Y-72770500D01*
X176024902Y-72770500D01*
X176145258Y-72751437D01*
X176281493Y-72729860D01*
X176528572Y-72649579D01*
X176760051Y-72531634D01*
X176804815Y-72499110D01*
X176870618Y-72475631D01*
X176938672Y-72491455D01*
X176965380Y-72511748D01*
X177066344Y-72612712D01*
X177215666Y-72704814D01*
X177382203Y-72759999D01*
X177484991Y-72770500D01*
X179385008Y-72770499D01*
X179487797Y-72759999D01*
X179654334Y-72704814D01*
X179803656Y-72612712D01*
X179927712Y-72488656D01*
X180019814Y-72339334D01*
X180074999Y-72172797D01*
X180085500Y-72070009D01*
X180085499Y-70169992D01*
X180074999Y-70067203D01*
X180019814Y-69900666D01*
X179927712Y-69751344D01*
X179803656Y-69627288D01*
X179654334Y-69535186D01*
X179520495Y-69490836D01*
X179463051Y-69451063D01*
X179436228Y-69386547D01*
X179435500Y-69373130D01*
X179435500Y-65246869D01*
X179455185Y-65179830D01*
X179507989Y-65134075D01*
X179520486Y-65129166D01*
X179654334Y-65084814D01*
X179803656Y-64992712D01*
X179927712Y-64868656D01*
X180019814Y-64719334D01*
X180074999Y-64552797D01*
X180085500Y-64450009D01*
X180085499Y-62549992D01*
X180074999Y-62447203D01*
X180019814Y-62280666D01*
X179927712Y-62131344D01*
X179803656Y-62007288D01*
X179654334Y-61915186D01*
X179520495Y-61870836D01*
X179463051Y-61831063D01*
X179436228Y-61766547D01*
X179435500Y-61753130D01*
X179435500Y-57626869D01*
X179455185Y-57559830D01*
X179507989Y-57514075D01*
X179520486Y-57509166D01*
X179654334Y-57464814D01*
X179803656Y-57372712D01*
X179927712Y-57248656D01*
X180019814Y-57099334D01*
X180074999Y-56932797D01*
X180085500Y-56830009D01*
X180085499Y-55758712D01*
X182299500Y-55758712D01*
X182299500Y-56001288D01*
X182331162Y-56241789D01*
X182362554Y-56358944D01*
X182393947Y-56476104D01*
X182486773Y-56700205D01*
X182486776Y-56700212D01*
X182608064Y-56910289D01*
X182608066Y-56910292D01*
X182608067Y-56910293D01*
X182755733Y-57102736D01*
X182755739Y-57102743D01*
X182927256Y-57274260D01*
X182927263Y-57274266D01*
X183040321Y-57361018D01*
X183119711Y-57421936D01*
X183329788Y-57543224D01*
X183553900Y-57636054D01*
X183788211Y-57698838D01*
X183968586Y-57722584D01*
X184028711Y-57730500D01*
X184028712Y-57730500D01*
X184271289Y-57730500D01*
X184319388Y-57724167D01*
X184511789Y-57698838D01*
X184746100Y-57636054D01*
X184970212Y-57543224D01*
X185180289Y-57421936D01*
X185372738Y-57274265D01*
X185544265Y-57102738D01*
X185691936Y-56910289D01*
X185813224Y-56700212D01*
X185906054Y-56476100D01*
X185968838Y-56241789D01*
X186000500Y-56001288D01*
X186000500Y-55758712D01*
X185968838Y-55518211D01*
X185906054Y-55283900D01*
X185813224Y-55059788D01*
X185691936Y-54849711D01*
X185544265Y-54657262D01*
X185544260Y-54657256D01*
X185372743Y-54485739D01*
X185372736Y-54485733D01*
X185180293Y-54338067D01*
X185180292Y-54338066D01*
X185180289Y-54338064D01*
X184970212Y-54216776D01*
X184970205Y-54216773D01*
X184746104Y-54123947D01*
X184511785Y-54061161D01*
X184271289Y-54029500D01*
X184271288Y-54029500D01*
X184028712Y-54029500D01*
X184028711Y-54029500D01*
X183788214Y-54061161D01*
X183553895Y-54123947D01*
X183329794Y-54216773D01*
X183329785Y-54216777D01*
X183119706Y-54338067D01*
X182927263Y-54485733D01*
X182927256Y-54485739D01*
X182755739Y-54657256D01*
X182755733Y-54657263D01*
X182608067Y-54849706D01*
X182608064Y-54849710D01*
X182608064Y-54849711D01*
X182592502Y-54876666D01*
X182486777Y-55059785D01*
X182486773Y-55059794D01*
X182393947Y-55283895D01*
X182331161Y-55518214D01*
X182300634Y-55750097D01*
X182299500Y-55758712D01*
X180085499Y-55758712D01*
X180085499Y-54929992D01*
X180074999Y-54827203D01*
X180019814Y-54660666D01*
X179927712Y-54511344D01*
X179803656Y-54387288D01*
X179654334Y-54295186D01*
X179487797Y-54240001D01*
X179487794Y-54240000D01*
X179432867Y-54234389D01*
X179368175Y-54207993D01*
X179330910Y-54158486D01*
X179321632Y-54136086D01*
X179321629Y-54136081D01*
X179321628Y-54136079D01*
X179212139Y-53972218D01*
X179212136Y-53972214D01*
X179069686Y-53829764D01*
X179069655Y-53829735D01*
X178022101Y-52782181D01*
X177988616Y-52720858D01*
X177993600Y-52651166D01*
X178035472Y-52595233D01*
X178100936Y-52570816D01*
X178109782Y-52570500D01*
X185550116Y-52570500D01*
X185555956Y-52570638D01*
X185559731Y-52570816D01*
X185637835Y-52574498D01*
X185651374Y-52575886D01*
X185889344Y-52613577D01*
X185904522Y-52616969D01*
X186131154Y-52682812D01*
X186145806Y-52688087D01*
X186348273Y-52775703D01*
X186362386Y-52781810D01*
X186376259Y-52788878D01*
X186579398Y-52909014D01*
X186592266Y-52917759D01*
X186616565Y-52936607D01*
X186778746Y-53062408D01*
X186790426Y-53072706D01*
X186957292Y-53239572D01*
X186967590Y-53251252D01*
X187112235Y-53437726D01*
X187120988Y-53450606D01*
X187241119Y-53653738D01*
X187248188Y-53667612D01*
X187341909Y-53884186D01*
X187347184Y-53898838D01*
X187413027Y-54125473D01*
X187416424Y-54140670D01*
X187454111Y-54378615D01*
X187455500Y-54392170D01*
X187459362Y-54474042D01*
X187459500Y-54479885D01*
X187459500Y-111890113D01*
X187459362Y-111895956D01*
X187455500Y-111977828D01*
X187454111Y-111991383D01*
X187416424Y-112229328D01*
X187413027Y-112244525D01*
X187347184Y-112471160D01*
X187341909Y-112485812D01*
X187248188Y-112702386D01*
X187241119Y-112716260D01*
X187120988Y-112919392D01*
X187112235Y-112932272D01*
X186967590Y-113118746D01*
X186957292Y-113130426D01*
X186790426Y-113297292D01*
X186778746Y-113307590D01*
X186592272Y-113452235D01*
X186579392Y-113460988D01*
X186376260Y-113581119D01*
X186362386Y-113588188D01*
X186145806Y-113681911D01*
X186131154Y-113687186D01*
X185904532Y-113753026D01*
X185889335Y-113756423D01*
X185651383Y-113794111D01*
X185637828Y-113795500D01*
X185564089Y-113798978D01*
X185555954Y-113799362D01*
X185550114Y-113799500D01*
X123059886Y-113799500D01*
X123054045Y-113799362D01*
X123044155Y-113798895D01*
X122972170Y-113795500D01*
X122958615Y-113794111D01*
X122720670Y-113756424D01*
X122705473Y-113753027D01*
X122478838Y-113687184D01*
X122464186Y-113681909D01*
X122247612Y-113588188D01*
X122233738Y-113581119D01*
X122030606Y-113460988D01*
X122017726Y-113452235D01*
X121831252Y-113307590D01*
X121819572Y-113297292D01*
X121652706Y-113130426D01*
X121642408Y-113118746D01*
X121631494Y-113104676D01*
X121497759Y-112932266D01*
X121489014Y-112919398D01*
X121368878Y-112716259D01*
X121361810Y-112702386D01*
X121268087Y-112485806D01*
X121262812Y-112471154D01*
X121248763Y-112422796D01*
X121196969Y-112244522D01*
X121193577Y-112229344D01*
X121155886Y-111991374D01*
X121154498Y-111977835D01*
X121150638Y-111895954D01*
X121150500Y-111890114D01*
X121150500Y-110368711D01*
X122609500Y-110368711D01*
X122609500Y-110611288D01*
X122641161Y-110851785D01*
X122703947Y-111086104D01*
X122793639Y-111302639D01*
X122796776Y-111310212D01*
X122918064Y-111520289D01*
X122918066Y-111520292D01*
X122918067Y-111520293D01*
X123065733Y-111712736D01*
X123065739Y-111712743D01*
X123237256Y-111884260D01*
X123237263Y-111884266D01*
X123292828Y-111926902D01*
X123429711Y-112031936D01*
X123639788Y-112153224D01*
X123823520Y-112229328D01*
X123860225Y-112244532D01*
X123863900Y-112246054D01*
X124098211Y-112308838D01*
X124278586Y-112332584D01*
X124338711Y-112340500D01*
X124338712Y-112340500D01*
X124581289Y-112340500D01*
X124629388Y-112334167D01*
X124821789Y-112308838D01*
X125056100Y-112246054D01*
X125280212Y-112153224D01*
X125490289Y-112031936D01*
X125682738Y-111884265D01*
X125854265Y-111712738D01*
X126001936Y-111520289D01*
X126123224Y-111310212D01*
X126216054Y-111086100D01*
X126278838Y-110851789D01*
X126310500Y-110611288D01*
X126310500Y-110368712D01*
X126310403Y-110367973D01*
X129259500Y-110367973D01*
X129259500Y-110612026D01*
X129297678Y-110853072D01*
X129373097Y-111085187D01*
X129483896Y-111302642D01*
X129627339Y-111500076D01*
X129627343Y-111500081D01*
X129799918Y-111672656D01*
X129799923Y-111672660D01*
X129972136Y-111797779D01*
X129997361Y-111816106D01*
X130214815Y-111926904D01*
X130446924Y-112002321D01*
X130687973Y-112040500D01*
X130687974Y-112040500D01*
X130932026Y-112040500D01*
X130932027Y-112040500D01*
X131173076Y-112002321D01*
X131405185Y-111926904D01*
X131622639Y-111816106D01*
X131820083Y-111672655D01*
X131820082Y-111672655D01*
X131824025Y-111669791D01*
X131825077Y-111671238D01*
X131881805Y-111645802D01*
X131950894Y-111656221D01*
X132003382Y-111702338D01*
X132004064Y-111703430D01*
X132007288Y-111708656D01*
X132131344Y-111832712D01*
X132280666Y-111924814D01*
X132447203Y-111979999D01*
X132549991Y-111990500D01*
X134150008Y-111990499D01*
X134252797Y-111979999D01*
X134419334Y-111924814D01*
X134568656Y-111832712D01*
X134692712Y-111708656D01*
X134695850Y-111703567D01*
X134747795Y-111656841D01*
X134816757Y-111645615D01*
X134875119Y-111670969D01*
X134875975Y-111669792D01*
X135060412Y-111803792D01*
X135077361Y-111816106D01*
X135294815Y-111926904D01*
X135526924Y-112002321D01*
X135767973Y-112040500D01*
X135767974Y-112040500D01*
X136012026Y-112040500D01*
X136012027Y-112040500D01*
X136253076Y-112002321D01*
X136485185Y-111926904D01*
X136702639Y-111816106D01*
X136900083Y-111672655D01*
X137072655Y-111500083D01*
X137216106Y-111302639D01*
X137326904Y-111085185D01*
X137402321Y-110853076D01*
X137440500Y-110612027D01*
X137440500Y-110399448D01*
X167759500Y-110399448D01*
X167759500Y-110580551D01*
X167787829Y-110759410D01*
X167843787Y-110931636D01*
X167843788Y-110931639D01*
X167899664Y-111041300D01*
X167922493Y-111086104D01*
X167926006Y-111092997D01*
X168032441Y-111239494D01*
X168032445Y-111239499D01*
X168160500Y-111367554D01*
X168160505Y-111367558D01*
X168288287Y-111460396D01*
X168307006Y-111473996D01*
X168412484Y-111527740D01*
X168468360Y-111556211D01*
X168468363Y-111556212D01*
X168554476Y-111584191D01*
X168640591Y-111612171D01*
X168723429Y-111625291D01*
X168819449Y-111640500D01*
X168819454Y-111640500D01*
X169000551Y-111640500D01*
X169087259Y-111626765D01*
X169179409Y-111612171D01*
X169351639Y-111556211D01*
X169512994Y-111473996D01*
X169659501Y-111367553D01*
X169787553Y-111239501D01*
X169893996Y-111092994D01*
X169976211Y-110931639D01*
X170032171Y-110759409D01*
X170055514Y-110612027D01*
X170060500Y-110580551D01*
X170060500Y-110399449D01*
X170058061Y-110384052D01*
X170058061Y-110384051D01*
X170055631Y-110368711D01*
X182299500Y-110368711D01*
X182299500Y-110611288D01*
X182331161Y-110851785D01*
X182393947Y-111086104D01*
X182483639Y-111302639D01*
X182486776Y-111310212D01*
X182608064Y-111520289D01*
X182608066Y-111520292D01*
X182608067Y-111520293D01*
X182755733Y-111712736D01*
X182755739Y-111712743D01*
X182927256Y-111884260D01*
X182927263Y-111884266D01*
X182982828Y-111926902D01*
X183119711Y-112031936D01*
X183329788Y-112153224D01*
X183513520Y-112229328D01*
X183550225Y-112244532D01*
X183553900Y-112246054D01*
X183788211Y-112308838D01*
X183968586Y-112332584D01*
X184028711Y-112340500D01*
X184028712Y-112340500D01*
X184271289Y-112340500D01*
X184319388Y-112334167D01*
X184511789Y-112308838D01*
X184746100Y-112246054D01*
X184970212Y-112153224D01*
X185180289Y-112031936D01*
X185372738Y-111884265D01*
X185544265Y-111712738D01*
X185691936Y-111520289D01*
X185813224Y-111310212D01*
X185906054Y-111086100D01*
X185968838Y-110851789D01*
X186000500Y-110611288D01*
X186000500Y-110368712D01*
X185968838Y-110128211D01*
X185906054Y-109893900D01*
X185813224Y-109669788D01*
X185691936Y-109459711D01*
X185547397Y-109271344D01*
X185544266Y-109267263D01*
X185544260Y-109267256D01*
X185372743Y-109095739D01*
X185372736Y-109095733D01*
X185180293Y-108948067D01*
X185180292Y-108948066D01*
X185180289Y-108948064D01*
X184970212Y-108826776D01*
X184970198Y-108826770D01*
X184746104Y-108733947D01*
X184511785Y-108671161D01*
X184271289Y-108639500D01*
X184271288Y-108639500D01*
X184028712Y-108639500D01*
X184028711Y-108639500D01*
X183788214Y-108671161D01*
X183553895Y-108733947D01*
X183329794Y-108826773D01*
X183329785Y-108826777D01*
X183119706Y-108948067D01*
X182927263Y-109095733D01*
X182927256Y-109095739D01*
X182755739Y-109267256D01*
X182755733Y-109267263D01*
X182608067Y-109459706D01*
X182608064Y-109459710D01*
X182608064Y-109459711D01*
X182596395Y-109479923D01*
X182486777Y-109669785D01*
X182486773Y-109669794D01*
X182393947Y-109893895D01*
X182331161Y-110128214D01*
X182299500Y-110368711D01*
X170055631Y-110368711D01*
X170046112Y-110308613D01*
X170032171Y-110220591D01*
X169976211Y-110048361D01*
X169976211Y-110048360D01*
X169947740Y-109992484D01*
X169893996Y-109887006D01*
X169807283Y-109767655D01*
X169787558Y-109740505D01*
X169787554Y-109740500D01*
X169659499Y-109612445D01*
X169659494Y-109612441D01*
X169512997Y-109506006D01*
X169512996Y-109506005D01*
X169512994Y-109506004D01*
X169461300Y-109479664D01*
X169351639Y-109423788D01*
X169351636Y-109423787D01*
X169179410Y-109367829D01*
X169000551Y-109339500D01*
X169000546Y-109339500D01*
X168819454Y-109339500D01*
X168819449Y-109339500D01*
X168640589Y-109367829D01*
X168468363Y-109423787D01*
X168468360Y-109423788D01*
X168307002Y-109506006D01*
X168160505Y-109612441D01*
X168160500Y-109612445D01*
X168032445Y-109740500D01*
X168032441Y-109740505D01*
X167926006Y-109887002D01*
X167843788Y-110048360D01*
X167843787Y-110048363D01*
X167787829Y-110220589D01*
X167759500Y-110399448D01*
X137440500Y-110399448D01*
X137440500Y-110367973D01*
X137402321Y-110126924D01*
X137326904Y-109894815D01*
X137216106Y-109677361D01*
X137192318Y-109644620D01*
X137072660Y-109479923D01*
X137072656Y-109479918D01*
X136900081Y-109307343D01*
X136900076Y-109307339D01*
X136702642Y-109163896D01*
X136702641Y-109163895D01*
X136702639Y-109163894D01*
X136485185Y-109053096D01*
X136253076Y-108977679D01*
X136253074Y-108977678D01*
X136253072Y-108977678D01*
X136066173Y-108948076D01*
X136012027Y-108939500D01*
X135767973Y-108939500D01*
X135713903Y-108948064D01*
X135526927Y-108977678D01*
X135294812Y-109053097D01*
X135077357Y-109163896D01*
X134875975Y-109310208D01*
X134874928Y-109308767D01*
X134818153Y-109334202D01*
X134749068Y-109323760D01*
X134696595Y-109277625D01*
X134695852Y-109276435D01*
X134692711Y-109271343D01*
X134568657Y-109147289D01*
X134568656Y-109147288D01*
X134419334Y-109055186D01*
X134252797Y-109000001D01*
X134252795Y-109000000D01*
X134150010Y-108989500D01*
X132549998Y-108989500D01*
X132549981Y-108989501D01*
X132447203Y-109000000D01*
X132447200Y-109000001D01*
X132280668Y-109055185D01*
X132280663Y-109055187D01*
X132131342Y-109147289D01*
X132007288Y-109271343D01*
X132007284Y-109271349D01*
X132004141Y-109276444D01*
X131952190Y-109323165D01*
X131883226Y-109334382D01*
X131824882Y-109309027D01*
X131824025Y-109310208D01*
X131622642Y-109163896D01*
X131622641Y-109163895D01*
X131622639Y-109163894D01*
X131405185Y-109053096D01*
X131173076Y-108977679D01*
X131173074Y-108977678D01*
X131173072Y-108977678D01*
X130986173Y-108948076D01*
X130932027Y-108939500D01*
X130687973Y-108939500D01*
X130633903Y-108948064D01*
X130446927Y-108977678D01*
X130214812Y-109053097D01*
X129997357Y-109163896D01*
X129799923Y-109307339D01*
X129799918Y-109307343D01*
X129627343Y-109479918D01*
X129627339Y-109479923D01*
X129483896Y-109677357D01*
X129373097Y-109894812D01*
X129297678Y-110126927D01*
X129259500Y-110367973D01*
X126310403Y-110367973D01*
X126278838Y-110128211D01*
X126216054Y-109893900D01*
X126123224Y-109669788D01*
X126001936Y-109459711D01*
X125857397Y-109271344D01*
X125854266Y-109267263D01*
X125854260Y-109267256D01*
X125682743Y-109095739D01*
X125682736Y-109095733D01*
X125490293Y-108948067D01*
X125490292Y-108948066D01*
X125490289Y-108948064D01*
X125280212Y-108826776D01*
X125280200Y-108826770D01*
X125257812Y-108817497D01*
X125257811Y-108817497D01*
X125056104Y-108733947D01*
X124821785Y-108671161D01*
X124581289Y-108639500D01*
X124581288Y-108639500D01*
X124338712Y-108639500D01*
X124338711Y-108639500D01*
X124098214Y-108671161D01*
X123863895Y-108733947D01*
X123639794Y-108826773D01*
X123639785Y-108826777D01*
X123429706Y-108948067D01*
X123237263Y-109095733D01*
X123237256Y-109095739D01*
X123065739Y-109267256D01*
X123065733Y-109267263D01*
X122918067Y-109459706D01*
X122918064Y-109459710D01*
X122918064Y-109459711D01*
X122906395Y-109479923D01*
X122796777Y-109669785D01*
X122796773Y-109669794D01*
X122703947Y-109893895D01*
X122641161Y-110128214D01*
X122609500Y-110368711D01*
X121150500Y-110368711D01*
X121150500Y-108240000D01*
X160732769Y-108240000D01*
X162111518Y-108240000D01*
X162100889Y-108258409D01*
X162060000Y-108411009D01*
X162060000Y-108568991D01*
X162100889Y-108721591D01*
X162111518Y-108740000D01*
X160732769Y-108740000D01*
X160743242Y-108806126D01*
X160743242Y-108806129D01*
X160808904Y-109008217D01*
X160905379Y-109197557D01*
X161030272Y-109369459D01*
X161030276Y-109369464D01*
X161180535Y-109519723D01*
X161180540Y-109519727D01*
X161352442Y-109644620D01*
X161541782Y-109741095D01*
X161743870Y-109806757D01*
X161953754Y-109840000D01*
X162410000Y-109840000D01*
X162410000Y-109038482D01*
X162428409Y-109049111D01*
X162581009Y-109090000D01*
X162738991Y-109090000D01*
X162891591Y-109049111D01*
X162910000Y-109038482D01*
X162910000Y-109840000D01*
X163366246Y-109840000D01*
X163576127Y-109806757D01*
X163576130Y-109806757D01*
X163778217Y-109741095D01*
X163967557Y-109644620D01*
X164139459Y-109519727D01*
X164139464Y-109519723D01*
X164289723Y-109369464D01*
X164289727Y-109369459D01*
X164414620Y-109197557D01*
X164511095Y-109008217D01*
X164576757Y-108806129D01*
X164576757Y-108806126D01*
X164587231Y-108740000D01*
X163208482Y-108740000D01*
X163219111Y-108721591D01*
X163260000Y-108568991D01*
X163260000Y-108411009D01*
X163219111Y-108258409D01*
X163208482Y-108240000D01*
X164587231Y-108240000D01*
X173232769Y-108240000D01*
X174611518Y-108240000D01*
X174600889Y-108258409D01*
X174560000Y-108411009D01*
X174560000Y-108568991D01*
X174600889Y-108721591D01*
X174611518Y-108740000D01*
X173232769Y-108740000D01*
X173243242Y-108806126D01*
X173243242Y-108806129D01*
X173308904Y-109008217D01*
X173405379Y-109197557D01*
X173530272Y-109369459D01*
X173530276Y-109369464D01*
X173680535Y-109519723D01*
X173680540Y-109519727D01*
X173852442Y-109644620D01*
X174041782Y-109741095D01*
X174243870Y-109806757D01*
X174453754Y-109840000D01*
X174910000Y-109840000D01*
X174910000Y-109038482D01*
X174928409Y-109049111D01*
X175081009Y-109090000D01*
X175238991Y-109090000D01*
X175391591Y-109049111D01*
X175410000Y-109038482D01*
X175410000Y-109840000D01*
X175866246Y-109840000D01*
X176076127Y-109806757D01*
X176076130Y-109806757D01*
X176278217Y-109741095D01*
X176467557Y-109644620D01*
X176639459Y-109519727D01*
X176639464Y-109519723D01*
X176789723Y-109369464D01*
X176789727Y-109369459D01*
X176914620Y-109197557D01*
X177011095Y-109008217D01*
X177076757Y-108806129D01*
X177076757Y-108806126D01*
X177087231Y-108740000D01*
X175708482Y-108740000D01*
X175719111Y-108721591D01*
X175760000Y-108568991D01*
X175760000Y-108462973D01*
X177519500Y-108462973D01*
X177519500Y-108707027D01*
X177531021Y-108779769D01*
X177557677Y-108948067D01*
X177557679Y-108948076D01*
X177633096Y-109180185D01*
X177729538Y-109369464D01*
X177743896Y-109397642D01*
X177887339Y-109595076D01*
X177887343Y-109595081D01*
X178059918Y-109767656D01*
X178059923Y-109767660D01*
X178224185Y-109887002D01*
X178257361Y-109911106D01*
X178474815Y-110021904D01*
X178706924Y-110097321D01*
X178947973Y-110135500D01*
X178947974Y-110135500D01*
X179192026Y-110135500D01*
X179192027Y-110135500D01*
X179433076Y-110097321D01*
X179665185Y-110021904D01*
X179882639Y-109911106D01*
X180080083Y-109767655D01*
X180252655Y-109595083D01*
X180396106Y-109397639D01*
X180506904Y-109180185D01*
X180582321Y-108948076D01*
X180620500Y-108707027D01*
X180620500Y-108462973D01*
X180582321Y-108221924D01*
X180506904Y-107989815D01*
X180396106Y-107772361D01*
X180278537Y-107610540D01*
X180249792Y-107570975D01*
X180251239Y-107569922D01*
X180225803Y-107513195D01*
X180236222Y-107444106D01*
X180282339Y-107391618D01*
X180283568Y-107390850D01*
X180288656Y-107387712D01*
X180412712Y-107263656D01*
X180504814Y-107114334D01*
X180559999Y-106947797D01*
X180570500Y-106845009D01*
X180570499Y-105244992D01*
X180559999Y-105142203D01*
X180504814Y-104975666D01*
X180412712Y-104826344D01*
X180288656Y-104702288D01*
X180139334Y-104610186D01*
X179972797Y-104555001D01*
X179972795Y-104555000D01*
X179870016Y-104544500D01*
X179807308Y-104544500D01*
X179740269Y-104524815D01*
X179719627Y-104508181D01*
X179116448Y-103905000D01*
X179122661Y-103905000D01*
X179224394Y-103877741D01*
X179315606Y-103825080D01*
X179390080Y-103750606D01*
X179442741Y-103659394D01*
X179470000Y-103557661D01*
X179470000Y-103551448D01*
X180149474Y-104230922D01*
X180149474Y-104230921D01*
X180181859Y-104186349D01*
X180274755Y-104004031D01*
X180337990Y-103809417D01*
X180370000Y-103607317D01*
X180370000Y-103402682D01*
X180337990Y-103200582D01*
X180274755Y-103005968D01*
X180181859Y-102823650D01*
X180149474Y-102779077D01*
X180149474Y-102779076D01*
X179470000Y-103458551D01*
X179470000Y-103452339D01*
X179442741Y-103350606D01*
X179390080Y-103259394D01*
X179315606Y-103184920D01*
X179224394Y-103132259D01*
X179122661Y-103105000D01*
X179116446Y-103105000D01*
X179795922Y-102425524D01*
X179795921Y-102425523D01*
X179751359Y-102393147D01*
X179751350Y-102393141D01*
X179569031Y-102300244D01*
X179374417Y-102237009D01*
X179172317Y-102205000D01*
X178967683Y-102205000D01*
X178765582Y-102237009D01*
X178570968Y-102300244D01*
X178388644Y-102393143D01*
X178344077Y-102425523D01*
X178344077Y-102425524D01*
X179023554Y-103105000D01*
X179017339Y-103105000D01*
X178915606Y-103132259D01*
X178824394Y-103184920D01*
X178749920Y-103259394D01*
X178697259Y-103350606D01*
X178670000Y-103452339D01*
X178670000Y-103458553D01*
X177990524Y-102779077D01*
X177990523Y-102779077D01*
X177958143Y-102823644D01*
X177865244Y-103005968D01*
X177802009Y-103200582D01*
X177770000Y-103402682D01*
X177770000Y-103607317D01*
X177802009Y-103809417D01*
X177865244Y-104004031D01*
X177958141Y-104186350D01*
X177958147Y-104186359D01*
X177990523Y-104230921D01*
X177990524Y-104230922D01*
X178670000Y-103551446D01*
X178670000Y-103557661D01*
X178697259Y-103659394D01*
X178749920Y-103750606D01*
X178824394Y-103825080D01*
X178915606Y-103877741D01*
X179017339Y-103905000D01*
X179023553Y-103905000D01*
X178420370Y-104508181D01*
X178359047Y-104541666D01*
X178332691Y-104544500D01*
X178269999Y-104544500D01*
X178269980Y-104544501D01*
X178167203Y-104555000D01*
X178167200Y-104555001D01*
X178000668Y-104610185D01*
X178000663Y-104610187D01*
X177851342Y-104702289D01*
X177727289Y-104826342D01*
X177635187Y-104975663D01*
X177635186Y-104975666D01*
X177580001Y-105142203D01*
X177580001Y-105142204D01*
X177580000Y-105142204D01*
X177569500Y-105244983D01*
X177569500Y-106845001D01*
X177569501Y-106845018D01*
X177580000Y-106947796D01*
X177580001Y-106947799D01*
X177600613Y-107010000D01*
X177635186Y-107114334D01*
X177727288Y-107263656D01*
X177851344Y-107387712D01*
X177856432Y-107390850D01*
X177856435Y-107390852D01*
X177903160Y-107442799D01*
X177914384Y-107511762D01*
X177889029Y-107570118D01*
X177890208Y-107570975D01*
X177743896Y-107772357D01*
X177633097Y-107989812D01*
X177557678Y-108221927D01*
X177554816Y-108240000D01*
X177519500Y-108462973D01*
X175760000Y-108462973D01*
X175760000Y-108411009D01*
X175719111Y-108258409D01*
X175708482Y-108240000D01*
X177087231Y-108240000D01*
X177076757Y-108173873D01*
X177076757Y-108173870D01*
X177011095Y-107971782D01*
X176914620Y-107782442D01*
X176789727Y-107610540D01*
X176789723Y-107610535D01*
X176639464Y-107460276D01*
X176639459Y-107460272D01*
X176467557Y-107335379D01*
X176278217Y-107238904D01*
X176076129Y-107173242D01*
X175866246Y-107140000D01*
X175410000Y-107140000D01*
X175410000Y-107941517D01*
X175391591Y-107930889D01*
X175238991Y-107890000D01*
X175081009Y-107890000D01*
X174928409Y-107930889D01*
X174910000Y-107941517D01*
X174910000Y-107140000D01*
X174453754Y-107140000D01*
X174243872Y-107173242D01*
X174243869Y-107173242D01*
X174041782Y-107238904D01*
X173852442Y-107335379D01*
X173680540Y-107460272D01*
X173680535Y-107460276D01*
X173530276Y-107610535D01*
X173530272Y-107610540D01*
X173405379Y-107782442D01*
X173308904Y-107971782D01*
X173243242Y-108173870D01*
X173243242Y-108173873D01*
X173232769Y-108240000D01*
X164587231Y-108240000D01*
X164576757Y-108173873D01*
X164576757Y-108173870D01*
X164511095Y-107971782D01*
X164414620Y-107782442D01*
X164289727Y-107610540D01*
X164289723Y-107610535D01*
X164139464Y-107460276D01*
X164139459Y-107460272D01*
X163967557Y-107335379D01*
X163778217Y-107238904D01*
X163576129Y-107173242D01*
X163366246Y-107140000D01*
X162910000Y-107140000D01*
X162910000Y-107941517D01*
X162891591Y-107930889D01*
X162738991Y-107890000D01*
X162581009Y-107890000D01*
X162428409Y-107930889D01*
X162410000Y-107941517D01*
X162410000Y-107140000D01*
X161953754Y-107140000D01*
X161743872Y-107173242D01*
X161743869Y-107173242D01*
X161541782Y-107238904D01*
X161352442Y-107335379D01*
X161180540Y-107460272D01*
X161180535Y-107460276D01*
X161030276Y-107610535D01*
X161030272Y-107610540D01*
X160905379Y-107782442D01*
X160808904Y-107971782D01*
X160743242Y-108173870D01*
X160743242Y-108173873D01*
X160732769Y-108240000D01*
X121150500Y-108240000D01*
X121150500Y-105501577D01*
X123209500Y-105501577D01*
X123209500Y-105698422D01*
X123240290Y-105892826D01*
X123301117Y-106080029D01*
X123328558Y-106133884D01*
X123390476Y-106255405D01*
X123506172Y-106414646D01*
X123645354Y-106553828D01*
X123804595Y-106669524D01*
X123872749Y-106704250D01*
X123979970Y-106758882D01*
X123979972Y-106758882D01*
X123979975Y-106758884D01*
X124080317Y-106791487D01*
X124167173Y-106819709D01*
X124361578Y-106850500D01*
X124361583Y-106850500D01*
X124558422Y-106850500D01*
X124752826Y-106819709D01*
X124772218Y-106813408D01*
X124940025Y-106758884D01*
X125025625Y-106715269D01*
X132698282Y-106715269D01*
X132698282Y-106715270D01*
X132752449Y-106754624D01*
X132941782Y-106851095D01*
X133143870Y-106916757D01*
X133353754Y-106950000D01*
X133566246Y-106950000D01*
X133776127Y-106916757D01*
X133776130Y-106916757D01*
X133978217Y-106851095D01*
X134167554Y-106754622D01*
X134221716Y-106715270D01*
X134221717Y-106715270D01*
X133460000Y-105953554D01*
X132698282Y-106715269D01*
X125025625Y-106715269D01*
X125115405Y-106669524D01*
X125274646Y-106553828D01*
X125413828Y-106414646D01*
X125529524Y-106255405D01*
X125618884Y-106080025D01*
X125679709Y-105892826D01*
X125685680Y-105855125D01*
X125710500Y-105698422D01*
X125710500Y-105501580D01*
X125710499Y-105501574D01*
X125709260Y-105493753D01*
X132110000Y-105493753D01*
X132110000Y-105706246D01*
X132143242Y-105916127D01*
X132143242Y-105916130D01*
X132208904Y-106118217D01*
X132305375Y-106307550D01*
X132344728Y-106361716D01*
X133106446Y-105600000D01*
X133060368Y-105553922D01*
X133110000Y-105553922D01*
X133110000Y-105646078D01*
X133133852Y-105735095D01*
X133179930Y-105814905D01*
X133245095Y-105880070D01*
X133324905Y-105926148D01*
X133413922Y-105950000D01*
X133506078Y-105950000D01*
X133595095Y-105926148D01*
X133674905Y-105880070D01*
X133740070Y-105814905D01*
X133786148Y-105735095D01*
X133810000Y-105646078D01*
X133810000Y-105599999D01*
X133813554Y-105599999D01*
X133813554Y-105600001D01*
X134575270Y-106361717D01*
X134575270Y-106361716D01*
X134614622Y-106307554D01*
X134711095Y-106118217D01*
X134776757Y-105916130D01*
X134776757Y-105916127D01*
X134810000Y-105706246D01*
X134810000Y-105493753D01*
X134779091Y-105298603D01*
X134776789Y-105284071D01*
X135560000Y-105284071D01*
X135560000Y-105535928D01*
X135599397Y-105784669D01*
X135677219Y-106024184D01*
X135791557Y-106248583D01*
X135865748Y-106350697D01*
X135865748Y-106350698D01*
X136636212Y-105580234D01*
X136647482Y-105622292D01*
X136719890Y-105747708D01*
X136822292Y-105850110D01*
X136947708Y-105922518D01*
X136989765Y-105933787D01*
X136219300Y-106704250D01*
X136321416Y-106778442D01*
X136545815Y-106892780D01*
X136785330Y-106970602D01*
X137034072Y-107010000D01*
X137285928Y-107010000D01*
X137534669Y-106970602D01*
X137774184Y-106892780D01*
X137998575Y-106778446D01*
X137998581Y-106778442D01*
X138100697Y-106704250D01*
X138100698Y-106704250D01*
X137330234Y-105933787D01*
X137372292Y-105922518D01*
X137497708Y-105850110D01*
X137600110Y-105747708D01*
X137672518Y-105622292D01*
X137683787Y-105580234D01*
X138454250Y-106350698D01*
X138454250Y-106350697D01*
X138528442Y-106248581D01*
X138528446Y-106248575D01*
X138642780Y-106024184D01*
X138720602Y-105784669D01*
X138760000Y-105535928D01*
X138760000Y-105284071D01*
X138720602Y-105035330D01*
X138642780Y-104795815D01*
X138528443Y-104571418D01*
X138477982Y-104501965D01*
X142929500Y-104501965D01*
X142929500Y-106318034D01*
X142940113Y-106437414D01*
X142940113Y-106437416D01*
X142940114Y-106437419D01*
X142956636Y-106495160D01*
X142996089Y-106633046D01*
X142996090Y-106633049D01*
X142996091Y-106633050D01*
X143090302Y-106813408D01*
X143090304Y-106813410D01*
X143218890Y-106971109D01*
X143312803Y-107047685D01*
X143376592Y-107099698D01*
X143556950Y-107193909D01*
X143752581Y-107249886D01*
X143871962Y-107260500D01*
X143871968Y-107260500D01*
X145688032Y-107260500D01*
X145688038Y-107260500D01*
X145807419Y-107249886D01*
X146003050Y-107193909D01*
X146183408Y-107099698D01*
X146341109Y-106971109D01*
X146469698Y-106813408D01*
X146563909Y-106633050D01*
X146619886Y-106437419D01*
X146630500Y-106318038D01*
X146630500Y-104501962D01*
X146619886Y-104382581D01*
X146563909Y-104186950D01*
X146469698Y-104006592D01*
X146417685Y-103942803D01*
X146341109Y-103848890D01*
X146281831Y-103800556D01*
X146183408Y-103720302D01*
X146158337Y-103707206D01*
X152119500Y-103707206D01*
X152119500Y-104923268D01*
X152119501Y-104923274D01*
X152130113Y-105042655D01*
X152186089Y-105238285D01*
X152186090Y-105238288D01*
X152186091Y-105238289D01*
X152280302Y-105418647D01*
X152280304Y-105418649D01*
X152408890Y-105576349D01*
X152494407Y-105646078D01*
X152566593Y-105704938D01*
X152746951Y-105799149D01*
X152942582Y-105855126D01*
X153001009Y-105860320D01*
X153030378Y-105862932D01*
X153095411Y-105888476D01*
X153107078Y-105898764D01*
X153623554Y-106415240D01*
X153617339Y-106415240D01*
X153515606Y-106442499D01*
X153424394Y-106495160D01*
X153349920Y-106569634D01*
X153297259Y-106660846D01*
X153270000Y-106762579D01*
X153270000Y-106768793D01*
X152590524Y-106089317D01*
X152590523Y-106089317D01*
X152558143Y-106133884D01*
X152465244Y-106316208D01*
X152402009Y-106510822D01*
X152370000Y-106712922D01*
X152370000Y-106917557D01*
X152402009Y-107119657D01*
X152465244Y-107314271D01*
X152558141Y-107496590D01*
X152558147Y-107496599D01*
X152590523Y-107541161D01*
X152590524Y-107541162D01*
X153270000Y-106861686D01*
X153270000Y-106867901D01*
X153297259Y-106969634D01*
X153349920Y-107060846D01*
X153424394Y-107135320D01*
X153515606Y-107187981D01*
X153617339Y-107215240D01*
X153623553Y-107215240D01*
X152944076Y-107894714D01*
X152988650Y-107927099D01*
X153170968Y-108019995D01*
X153365582Y-108083230D01*
X153567683Y-108115240D01*
X153772317Y-108115240D01*
X153974417Y-108083230D01*
X154169031Y-108019995D01*
X154351349Y-107927099D01*
X154395921Y-107894714D01*
X153716447Y-107215240D01*
X153722661Y-107215240D01*
X153824394Y-107187981D01*
X153915606Y-107135320D01*
X153990080Y-107060846D01*
X154042741Y-106969634D01*
X154070000Y-106867901D01*
X154070000Y-106861688D01*
X154749474Y-107541162D01*
X154749474Y-107541161D01*
X154781859Y-107496589D01*
X154874755Y-107314271D01*
X154937990Y-107119657D01*
X154970000Y-106917557D01*
X154970000Y-106712922D01*
X154937990Y-106510822D01*
X154874755Y-106316208D01*
X154781859Y-106133890D01*
X154749474Y-106089317D01*
X154749474Y-106089316D01*
X154070000Y-106768791D01*
X154070000Y-106762579D01*
X154042741Y-106660846D01*
X153990080Y-106569634D01*
X153915606Y-106495160D01*
X153824394Y-106442499D01*
X153722661Y-106415240D01*
X153716444Y-106415240D01*
X154232923Y-105898762D01*
X154294246Y-105865277D01*
X154309613Y-105862931D01*
X154397418Y-105855126D01*
X154593049Y-105799149D01*
X154773407Y-105704938D01*
X154931109Y-105576349D01*
X155059698Y-105418647D01*
X155153909Y-105238289D01*
X155209886Y-105042658D01*
X155220500Y-104923277D01*
X155220499Y-103707204D01*
X155209886Y-103587822D01*
X155153909Y-103392191D01*
X155059698Y-103211833D01*
X154994814Y-103132259D01*
X154931109Y-103054130D01*
X154773409Y-102925544D01*
X154773410Y-102925544D01*
X154773407Y-102925542D01*
X154593049Y-102831331D01*
X154593048Y-102831330D01*
X154593045Y-102831329D01*
X154475829Y-102797790D01*
X154397418Y-102775354D01*
X154397415Y-102775353D01*
X154397413Y-102775353D01*
X154331102Y-102769457D01*
X154278037Y-102764740D01*
X154278032Y-102764740D01*
X153061971Y-102764740D01*
X153061965Y-102764740D01*
X153061964Y-102764741D01*
X153050316Y-102765776D01*
X152942584Y-102775353D01*
X152746954Y-102831329D01*
X152662172Y-102875616D01*
X152566593Y-102925542D01*
X152566591Y-102925543D01*
X152566590Y-102925544D01*
X152408890Y-103054130D01*
X152280304Y-103211830D01*
X152280302Y-103211833D01*
X152254537Y-103261158D01*
X152186089Y-103392194D01*
X152130114Y-103587823D01*
X152130113Y-103587826D01*
X152119500Y-103707206D01*
X146158337Y-103707206D01*
X146003050Y-103626091D01*
X146003049Y-103626090D01*
X146003046Y-103626089D01*
X145885830Y-103592550D01*
X145807419Y-103570114D01*
X145807416Y-103570113D01*
X145807414Y-103570113D01*
X145734632Y-103563642D01*
X145688038Y-103559500D01*
X143871962Y-103559500D01*
X143837015Y-103562607D01*
X143752585Y-103570113D01*
X143752582Y-103570113D01*
X143752581Y-103570114D01*
X143713375Y-103581332D01*
X143556953Y-103626089D01*
X143466771Y-103673196D01*
X143376592Y-103720302D01*
X143376590Y-103720303D01*
X143376589Y-103720304D01*
X143218890Y-103848890D01*
X143090304Y-104006589D01*
X142996089Y-104186953D01*
X142968538Y-104283242D01*
X142940770Y-104380291D01*
X142940114Y-104382582D01*
X142940113Y-104382585D01*
X142929500Y-104501965D01*
X138477982Y-104501965D01*
X138454250Y-104469301D01*
X138454250Y-104469300D01*
X137683787Y-105239764D01*
X137672518Y-105197708D01*
X137600110Y-105072292D01*
X137497708Y-104969890D01*
X137372292Y-104897482D01*
X137330232Y-104886212D01*
X138100698Y-104115748D01*
X137998583Y-104041557D01*
X137774184Y-103927219D01*
X137534669Y-103849397D01*
X137285928Y-103810000D01*
X137034072Y-103810000D01*
X136785330Y-103849397D01*
X136545815Y-103927219D01*
X136321413Y-104041559D01*
X136219301Y-104115747D01*
X136219300Y-104115748D01*
X136989765Y-104886212D01*
X136947708Y-104897482D01*
X136822292Y-104969890D01*
X136719890Y-105072292D01*
X136647482Y-105197708D01*
X136636212Y-105239765D01*
X135865748Y-104469300D01*
X135865747Y-104469301D01*
X135791559Y-104571413D01*
X135677219Y-104795815D01*
X135599397Y-105035330D01*
X135560000Y-105284071D01*
X134776789Y-105284071D01*
X134776757Y-105283872D01*
X134776757Y-105283869D01*
X134711095Y-105081782D01*
X134614624Y-104892449D01*
X134575270Y-104838282D01*
X134575269Y-104838282D01*
X133813554Y-105599999D01*
X133810000Y-105599999D01*
X133810000Y-105553922D01*
X133786148Y-105464905D01*
X133740070Y-105385095D01*
X133674905Y-105319930D01*
X133595095Y-105273852D01*
X133506078Y-105250000D01*
X133413922Y-105250000D01*
X133324905Y-105273852D01*
X133245095Y-105319930D01*
X133179930Y-105385095D01*
X133133852Y-105464905D01*
X133110000Y-105553922D01*
X133060368Y-105553922D01*
X132344728Y-104838282D01*
X132344727Y-104838282D01*
X132305380Y-104892439D01*
X132208904Y-105081782D01*
X132143242Y-105283869D01*
X132143242Y-105283872D01*
X132110000Y-105493753D01*
X125709260Y-105493753D01*
X125679709Y-105307173D01*
X125644141Y-105197708D01*
X125618884Y-105119975D01*
X125618882Y-105119972D01*
X125618882Y-105119970D01*
X125545354Y-104975663D01*
X125529524Y-104944595D01*
X125413828Y-104785354D01*
X125274646Y-104646172D01*
X125115405Y-104530476D01*
X125104295Y-104524815D01*
X125025618Y-104484727D01*
X132698282Y-104484727D01*
X132698282Y-104484728D01*
X133460000Y-105246446D01*
X133460001Y-105246446D01*
X134221716Y-104484728D01*
X134167550Y-104445375D01*
X133978217Y-104348904D01*
X133776133Y-104283243D01*
X133776124Y-104283241D01*
X133566246Y-104250000D01*
X133353754Y-104250000D01*
X133143872Y-104283242D01*
X133143869Y-104283242D01*
X132941782Y-104348904D01*
X132752439Y-104445380D01*
X132698282Y-104484727D01*
X125025618Y-104484727D01*
X124940029Y-104441117D01*
X124752826Y-104380290D01*
X124558422Y-104349500D01*
X124558417Y-104349500D01*
X124361583Y-104349500D01*
X124361578Y-104349500D01*
X124167173Y-104380290D01*
X123979970Y-104441117D01*
X123804594Y-104530476D01*
X123770839Y-104555001D01*
X123645354Y-104646172D01*
X123645352Y-104646174D01*
X123645351Y-104646174D01*
X123506174Y-104785351D01*
X123506174Y-104785352D01*
X123506172Y-104785354D01*
X123476391Y-104826344D01*
X123390476Y-104944594D01*
X123301117Y-105119970D01*
X123240290Y-105307173D01*
X123209500Y-105501577D01*
X121150500Y-105501577D01*
X121150500Y-101501577D01*
X123209500Y-101501577D01*
X123209500Y-101698422D01*
X123240290Y-101892826D01*
X123301117Y-102080029D01*
X123390476Y-102255405D01*
X123506172Y-102414646D01*
X123645354Y-102553828D01*
X123804595Y-102669524D01*
X123887455Y-102711743D01*
X123979970Y-102758882D01*
X123979972Y-102758882D01*
X123979975Y-102758884D01*
X124080317Y-102791487D01*
X124167173Y-102819709D01*
X124361578Y-102850500D01*
X124361583Y-102850500D01*
X124558422Y-102850500D01*
X124752826Y-102819709D01*
X124940025Y-102758884D01*
X125115405Y-102669524D01*
X125274646Y-102553828D01*
X125413828Y-102414646D01*
X125529524Y-102255405D01*
X125618884Y-102080025D01*
X125679709Y-101892826D01*
X125690151Y-101826898D01*
X125710500Y-101698422D01*
X125710500Y-101501577D01*
X125679709Y-101307173D01*
X125618882Y-101119970D01*
X125555466Y-100995509D01*
X125529523Y-100944594D01*
X125527614Y-100941966D01*
X131859500Y-100941966D01*
X131859500Y-102258028D01*
X131859501Y-102258034D01*
X131870113Y-102377415D01*
X131926089Y-102573045D01*
X131926090Y-102573048D01*
X131926091Y-102573049D01*
X132020302Y-102753407D01*
X132041232Y-102779076D01*
X132148890Y-102911109D01*
X132236002Y-102982139D01*
X132306593Y-103039698D01*
X132486951Y-103133909D01*
X132682582Y-103189886D01*
X132801963Y-103200500D01*
X134118036Y-103200499D01*
X134237418Y-103189886D01*
X134433049Y-103133909D01*
X134613407Y-103039698D01*
X134771109Y-102911109D01*
X134899698Y-102753407D01*
X134938614Y-102678907D01*
X134944788Y-102667088D01*
X134993275Y-102616781D01*
X135054696Y-102600500D01*
X135740104Y-102600500D01*
X135807143Y-102620185D01*
X135838480Y-102649014D01*
X135921079Y-102756659D01*
X135921085Y-102756666D01*
X136083330Y-102918911D01*
X136083338Y-102918918D01*
X136265382Y-103058607D01*
X136265385Y-103058608D01*
X136265388Y-103058611D01*
X136464112Y-103173344D01*
X136464117Y-103173346D01*
X136464123Y-103173349D01*
X136529672Y-103200500D01*
X136676113Y-103261158D01*
X136897762Y-103320548D01*
X137125266Y-103350500D01*
X137125273Y-103350500D01*
X137354727Y-103350500D01*
X137354734Y-103350500D01*
X137582238Y-103320548D01*
X137803887Y-103261158D01*
X138015888Y-103173344D01*
X138214612Y-103058611D01*
X138396661Y-102918919D01*
X138396665Y-102918914D01*
X138396670Y-102918911D01*
X138558911Y-102756670D01*
X138558914Y-102756665D01*
X138558919Y-102756661D01*
X138698611Y-102574612D01*
X138813344Y-102375888D01*
X138901158Y-102163887D01*
X138960548Y-101942238D01*
X138990500Y-101714734D01*
X138990500Y-101485266D01*
X138990499Y-101485258D01*
X140489500Y-101485258D01*
X140489500Y-101714741D01*
X140496193Y-101765575D01*
X140519452Y-101942238D01*
X140567386Y-102121132D01*
X140578842Y-102163887D01*
X140666650Y-102375876D01*
X140666657Y-102375890D01*
X140781392Y-102574617D01*
X140921081Y-102756661D01*
X140921089Y-102756670D01*
X141083330Y-102918911D01*
X141083338Y-102918918D01*
X141265382Y-103058607D01*
X141265385Y-103058608D01*
X141265388Y-103058611D01*
X141464112Y-103173344D01*
X141464117Y-103173346D01*
X141464123Y-103173349D01*
X141529672Y-103200500D01*
X141676113Y-103261158D01*
X141897762Y-103320548D01*
X142125266Y-103350500D01*
X142125273Y-103350500D01*
X142354727Y-103350500D01*
X142354734Y-103350500D01*
X142582238Y-103320548D01*
X142803887Y-103261158D01*
X143015888Y-103173344D01*
X143214612Y-103058611D01*
X143396661Y-102918919D01*
X143396665Y-102918914D01*
X143396670Y-102918911D01*
X143558911Y-102756670D01*
X143558914Y-102756665D01*
X143558919Y-102756661D01*
X143698611Y-102574612D01*
X143813344Y-102375888D01*
X143901158Y-102163887D01*
X143960548Y-101942238D01*
X143990500Y-101714734D01*
X143990500Y-101485266D01*
X143960548Y-101257762D01*
X143901158Y-101036113D01*
X143813344Y-100824112D01*
X143698611Y-100625388D01*
X143698608Y-100625385D01*
X143698607Y-100625382D01*
X143597764Y-100493962D01*
X143558919Y-100443339D01*
X143558918Y-100443338D01*
X143558911Y-100443330D01*
X143396670Y-100281089D01*
X143396661Y-100281081D01*
X143301386Y-100207973D01*
X149579500Y-100207973D01*
X149579500Y-100452026D01*
X149607205Y-100626951D01*
X149617679Y-100693076D01*
X149693096Y-100925185D01*
X149792346Y-101119975D01*
X149803896Y-101142642D01*
X149947339Y-101340076D01*
X149947343Y-101340081D01*
X150119918Y-101512656D01*
X150119923Y-101512660D01*
X150213361Y-101580546D01*
X150317361Y-101656106D01*
X150534815Y-101766904D01*
X150766924Y-101842321D01*
X151007973Y-101880500D01*
X151007974Y-101880500D01*
X151252026Y-101880500D01*
X151252027Y-101880500D01*
X151493076Y-101842321D01*
X151725185Y-101766904D01*
X151942639Y-101656106D01*
X152140083Y-101512655D01*
X152312655Y-101340083D01*
X152456106Y-101142639D01*
X152566904Y-100925185D01*
X152642321Y-100693076D01*
X152680500Y-100452027D01*
X152680500Y-100207973D01*
X152642321Y-99966924D01*
X152566904Y-99734815D01*
X152456106Y-99517361D01*
X152437779Y-99492136D01*
X152312660Y-99319923D01*
X152312656Y-99319918D01*
X152140081Y-99147343D01*
X152140076Y-99147339D01*
X151942642Y-99003896D01*
X151942641Y-99003895D01*
X151942639Y-99003894D01*
X151725185Y-98893096D01*
X151493076Y-98817679D01*
X151493074Y-98817678D01*
X151493072Y-98817678D01*
X151324769Y-98791021D01*
X151252027Y-98779500D01*
X151007973Y-98779500D01*
X150952093Y-98788350D01*
X150766927Y-98817678D01*
X150534812Y-98893097D01*
X150317357Y-99003896D01*
X150119923Y-99147339D01*
X150119918Y-99147343D01*
X149947343Y-99319918D01*
X149947339Y-99319923D01*
X149803896Y-99517357D01*
X149693097Y-99734812D01*
X149617678Y-99966927D01*
X149579500Y-100207973D01*
X143301386Y-100207973D01*
X143214617Y-100141392D01*
X143015890Y-100026657D01*
X143015876Y-100026650D01*
X142803887Y-99938842D01*
X142582238Y-99879452D01*
X142544215Y-99874446D01*
X142354741Y-99849500D01*
X142354734Y-99849500D01*
X142125266Y-99849500D01*
X142125258Y-99849500D01*
X141908715Y-99878009D01*
X141897762Y-99879452D01*
X141804076Y-99904554D01*
X141676112Y-99938842D01*
X141464123Y-100026650D01*
X141464109Y-100026657D01*
X141265382Y-100141392D01*
X141083338Y-100281081D01*
X140921081Y-100443338D01*
X140781392Y-100625382D01*
X140666657Y-100824109D01*
X140666650Y-100824123D01*
X140578842Y-101036112D01*
X140519453Y-101257759D01*
X140519451Y-101257770D01*
X140489500Y-101485258D01*
X138990499Y-101485258D01*
X138960548Y-101257762D01*
X138901158Y-101036113D01*
X138813344Y-100824112D01*
X138698611Y-100625388D01*
X138698608Y-100625385D01*
X138698607Y-100625382D01*
X138597764Y-100493962D01*
X138558919Y-100443339D01*
X138558918Y-100443338D01*
X138558911Y-100443330D01*
X138396670Y-100281089D01*
X138396661Y-100281081D01*
X138214617Y-100141392D01*
X138015890Y-100026657D01*
X138015876Y-100026650D01*
X137803887Y-99938842D01*
X137582238Y-99879452D01*
X137544215Y-99874446D01*
X137354741Y-99849500D01*
X137354734Y-99849500D01*
X137125266Y-99849500D01*
X137125258Y-99849500D01*
X136908715Y-99878009D01*
X136897762Y-99879452D01*
X136804076Y-99904554D01*
X136676112Y-99938842D01*
X136464123Y-100026650D01*
X136464109Y-100026657D01*
X136265382Y-100141392D01*
X136083338Y-100281081D01*
X136083330Y-100281089D01*
X135921085Y-100443333D01*
X135921079Y-100443340D01*
X135838480Y-100550986D01*
X135782052Y-100592189D01*
X135740104Y-100599500D01*
X135054696Y-100599500D01*
X134987657Y-100579815D01*
X134944788Y-100532912D01*
X134899699Y-100446595D01*
X134899698Y-100446593D01*
X134812375Y-100339500D01*
X134771109Y-100288890D01*
X134613409Y-100160304D01*
X134613410Y-100160304D01*
X134613407Y-100160302D01*
X134433049Y-100066091D01*
X134433048Y-100066090D01*
X134433045Y-100066089D01*
X134295233Y-100026657D01*
X134237418Y-100010114D01*
X134237415Y-100010113D01*
X134237413Y-100010113D01*
X134171102Y-100004217D01*
X134118037Y-99999500D01*
X134118032Y-99999500D01*
X132801971Y-99999500D01*
X132801965Y-99999500D01*
X132801964Y-99999501D01*
X132790316Y-100000536D01*
X132682584Y-100010113D01*
X132486954Y-100066089D01*
X132396772Y-100113196D01*
X132306593Y-100160302D01*
X132306591Y-100160303D01*
X132306590Y-100160304D01*
X132148890Y-100288890D01*
X132020304Y-100446590D01*
X131926089Y-100626954D01*
X131870114Y-100822583D01*
X131870113Y-100822586D01*
X131859500Y-100941966D01*
X125527614Y-100941966D01*
X125413828Y-100785354D01*
X125274646Y-100646172D01*
X125115405Y-100530476D01*
X125067376Y-100506004D01*
X124940029Y-100441117D01*
X124752826Y-100380290D01*
X124558422Y-100349500D01*
X124558417Y-100349500D01*
X124361583Y-100349500D01*
X124361578Y-100349500D01*
X124167173Y-100380290D01*
X123979970Y-100441117D01*
X123804594Y-100530476D01*
X123736686Y-100579815D01*
X123645354Y-100646172D01*
X123645352Y-100646174D01*
X123645351Y-100646174D01*
X123506174Y-100785351D01*
X123506174Y-100785352D01*
X123506172Y-100785354D01*
X123479121Y-100822586D01*
X123390476Y-100944594D01*
X123301117Y-101119970D01*
X123240290Y-101307173D01*
X123209500Y-101501577D01*
X121150500Y-101501577D01*
X121150500Y-59970295D01*
X124734285Y-59970295D01*
X124734285Y-60065533D01*
X124734430Y-60067006D01*
X124734398Y-60067861D01*
X124734433Y-60068564D01*
X124734427Y-60069079D01*
X124735077Y-60077576D01*
X124737147Y-60085840D01*
X124737318Y-60086336D01*
X124738128Y-60089232D01*
X124738133Y-60089249D01*
X124738134Y-60089250D01*
X124783870Y-60226459D01*
X124785756Y-60232115D01*
X124791748Y-60245535D01*
X124792265Y-60246347D01*
X124794033Y-60249207D01*
X124794542Y-60250056D01*
X124803873Y-60261426D01*
X125035585Y-60493138D01*
X125069070Y-60554461D01*
X125064086Y-60624153D01*
X125022214Y-60680086D01*
X124956750Y-60704503D01*
X124947904Y-60704819D01*
X124809285Y-60704819D01*
X124794653Y-60706260D01*
X124794651Y-60706260D01*
X124794648Y-60706261D01*
X124767615Y-60717459D01*
X124746926Y-60738148D01*
X124746923Y-60738152D01*
X124735727Y-60765182D01*
X124735726Y-60765188D01*
X124735726Y-60794449D01*
X124735727Y-60794455D01*
X124746923Y-60821485D01*
X124746926Y-60821489D01*
X124767615Y-60842178D01*
X124767616Y-60842178D01*
X124767617Y-60842179D01*
X124794653Y-60853378D01*
X124809285Y-60854819D01*
X124809289Y-60854819D01*
X125428328Y-60854819D01*
X125428332Y-60854819D01*
X125442964Y-60853378D01*
X125448441Y-60851108D01*
X125450883Y-60850098D01*
X125450885Y-60850096D01*
X125470000Y-60842180D01*
X125490692Y-60821487D01*
X125501891Y-60794451D01*
X125501891Y-60765188D01*
X125490693Y-60738151D01*
X125481365Y-60726786D01*
X125481362Y-60726783D01*
X125481358Y-60726778D01*
X124943155Y-60188575D01*
X124913199Y-60140105D01*
X124890648Y-60072450D01*
X124884285Y-60033239D01*
X124884285Y-60017272D01*
X124897376Y-59961818D01*
X124901699Y-59953173D01*
X124903978Y-59948615D01*
X124909544Y-59937482D01*
X124932772Y-59905255D01*
X124934721Y-59903306D01*
X124966948Y-59880078D01*
X124991284Y-59867910D01*
X125046738Y-59854819D01*
X125190879Y-59854819D01*
X125246330Y-59867908D01*
X125270671Y-59880079D01*
X125302893Y-59903303D01*
X125327680Y-59928090D01*
X125339045Y-59937417D01*
X125357675Y-59945134D01*
X125366078Y-59948615D01*
X125366079Y-59948615D01*
X125366081Y-59948616D01*
X125366082Y-59948616D01*
X125395343Y-59948616D01*
X125395344Y-59948616D01*
X125422380Y-59937417D01*
X125443073Y-59916724D01*
X125454272Y-59889688D01*
X125454272Y-59860425D01*
X125443073Y-59833389D01*
X125433746Y-59822024D01*
X125433740Y-59822018D01*
X125433736Y-59822013D01*
X125386132Y-59774410D01*
X125386127Y-59774405D01*
X125380377Y-59769686D01*
X125379078Y-59768188D01*
X125376825Y-59766770D01*
X125374767Y-59765081D01*
X125369456Y-59761895D01*
X125369294Y-59761853D01*
X125366640Y-59760359D01*
X125366638Y-59760358D01*
X125366635Y-59760356D01*
X125271397Y-59712737D01*
X125271396Y-59712736D01*
X125271389Y-59712733D01*
X125257665Y-59707482D01*
X125256696Y-59707267D01*
X125253416Y-59706493D01*
X125252489Y-59706260D01*
X125252488Y-59706260D01*
X125237856Y-59704819D01*
X124999761Y-59704819D01*
X124999759Y-59704819D01*
X124991113Y-59705670D01*
X124991111Y-59705670D01*
X124985129Y-59706260D01*
X124982640Y-59707290D01*
X124979951Y-59707482D01*
X124966220Y-59712737D01*
X124870982Y-59760356D01*
X124866740Y-59763024D01*
X124864734Y-59763950D01*
X124860561Y-59766453D01*
X124854106Y-59771989D01*
X124853737Y-59772367D01*
X124851492Y-59774401D01*
X124803879Y-59822014D01*
X124803871Y-59822024D01*
X124799152Y-59827773D01*
X124797654Y-59829073D01*
X124796234Y-59831327D01*
X124794542Y-59833390D01*
X124791281Y-59838828D01*
X124791321Y-59838851D01*
X124789833Y-59841494D01*
X124742198Y-59936763D01*
X124738995Y-59945134D01*
X124738994Y-59945137D01*
X124736948Y-59950486D01*
X124736757Y-59953173D01*
X124735726Y-59955663D01*
X124734285Y-59970295D01*
X121150500Y-59970295D01*
X121150500Y-55758712D01*
X122609500Y-55758712D01*
X122609500Y-56001288D01*
X122641162Y-56241789D01*
X122672554Y-56358944D01*
X122703947Y-56476104D01*
X122796773Y-56700205D01*
X122796776Y-56700212D01*
X122918064Y-56910289D01*
X122918066Y-56910292D01*
X122918067Y-56910293D01*
X123065733Y-57102736D01*
X123065739Y-57102743D01*
X123237256Y-57274260D01*
X123237263Y-57274266D01*
X123350321Y-57361018D01*
X123429711Y-57421936D01*
X123639788Y-57543224D01*
X123863900Y-57636054D01*
X124098211Y-57698838D01*
X124278586Y-57722584D01*
X124338711Y-57730500D01*
X124338712Y-57730500D01*
X124581289Y-57730500D01*
X124629388Y-57724167D01*
X124821789Y-57698838D01*
X125056100Y-57636054D01*
X125280212Y-57543224D01*
X125490289Y-57421936D01*
X125682738Y-57274265D01*
X125854265Y-57102738D01*
X126001936Y-56910289D01*
X126123224Y-56700212D01*
X126216054Y-56476100D01*
X126278838Y-56241789D01*
X126310500Y-56001288D01*
X126310500Y-55758712D01*
X126278838Y-55518211D01*
X126216054Y-55283900D01*
X126123224Y-55059788D01*
X126001936Y-54849711D01*
X125854265Y-54657262D01*
X125854260Y-54657256D01*
X125682743Y-54485739D01*
X125682736Y-54485733D01*
X125490293Y-54338067D01*
X125490292Y-54338066D01*
X125490289Y-54338064D01*
X125280212Y-54216776D01*
X125280205Y-54216773D01*
X125056104Y-54123947D01*
X124821785Y-54061161D01*
X124581289Y-54029500D01*
X124581288Y-54029500D01*
X124338712Y-54029500D01*
X124338711Y-54029500D01*
X124098214Y-54061161D01*
X123863895Y-54123947D01*
X123639794Y-54216773D01*
X123639785Y-54216777D01*
X123429706Y-54338067D01*
X123237263Y-54485733D01*
X123237256Y-54485739D01*
X123065739Y-54657256D01*
X123065733Y-54657263D01*
X122918067Y-54849706D01*
X122918064Y-54849710D01*
X122918064Y-54849711D01*
X122902502Y-54876666D01*
X122796777Y-55059785D01*
X122796773Y-55059794D01*
X122703947Y-55283895D01*
X122641161Y-55518214D01*
X122610634Y-55750097D01*
X122609500Y-55758712D01*
X121150500Y-55758712D01*
X121150500Y-54479884D01*
X121150638Y-54474044D01*
X121151540Y-54454918D01*
X121154499Y-54392162D01*
X121155885Y-54378626D01*
X121193577Y-54140650D01*
X121196968Y-54125479D01*
X121262813Y-53898838D01*
X121268087Y-53884192D01*
X121290300Y-53832861D01*
X121361813Y-53667604D01*
X121368875Y-53653745D01*
X121489019Y-53450592D01*
X121497753Y-53437739D01*
X121642414Y-53251244D01*
X121652698Y-53239580D01*
X121819580Y-53072698D01*
X121831244Y-53062414D01*
X122017739Y-52917753D01*
X122030592Y-52909019D01*
X122233745Y-52788875D01*
X122247604Y-52781813D01*
X122464192Y-52688086D01*
X122478838Y-52682814D01*
X122705473Y-52616971D01*
X122720661Y-52613575D01*
X122958627Y-52575885D01*
X122972163Y-52574499D01*
X123050295Y-52570814D01*
X123054044Y-52570638D01*
X123059884Y-52570500D01*
X143835217Y-52570500D01*
X143902256Y-52590185D01*
G37*
%TD.AperFunction*%
%TA.AperFunction,Conductor*%
G36*
X180363077Y-88650185D02*
G01*
X180385349Y-88669623D01*
X180385762Y-88669211D01*
X180567345Y-88850794D01*
X180567350Y-88850798D01*
X180768614Y-88997024D01*
X180771155Y-88998870D01*
X180797020Y-89012049D01*
X180828406Y-89034852D01*
X181480591Y-89687037D01*
X181417007Y-89704075D01*
X181302993Y-89769901D01*
X181209901Y-89862993D01*
X181144075Y-89977007D01*
X181127037Y-90040591D01*
X180494728Y-89408282D01*
X180494727Y-89408282D01*
X180455380Y-89462439D01*
X180358904Y-89651782D01*
X180293242Y-89853869D01*
X180293242Y-89853872D01*
X180260000Y-90063753D01*
X180260000Y-90276246D01*
X180293242Y-90486127D01*
X180293242Y-90486130D01*
X180358904Y-90688217D01*
X180455375Y-90877550D01*
X180494728Y-90931716D01*
X181127037Y-90299408D01*
X181144075Y-90362993D01*
X181209901Y-90477007D01*
X181302993Y-90570099D01*
X181417007Y-90635925D01*
X181480591Y-90652962D01*
X180828405Y-91305147D01*
X180797021Y-91327950D01*
X180771151Y-91341131D01*
X180567350Y-91489201D01*
X180567345Y-91489205D01*
X180385762Y-91670789D01*
X180384687Y-91669714D01*
X180331820Y-91704225D01*
X180296038Y-91709500D01*
X172938957Y-91709500D01*
X172862395Y-91724729D01*
X172862381Y-91724732D01*
X172859086Y-91725388D01*
X172745664Y-91747949D01*
X172711619Y-91762051D01*
X172703477Y-91765423D01*
X172703467Y-91765426D01*
X172563592Y-91823364D01*
X172563579Y-91823371D01*
X172399719Y-91932859D01*
X172356120Y-91976459D01*
X172260361Y-92072218D01*
X172260358Y-92072221D01*
X171496618Y-92835962D01*
X170754399Y-93578181D01*
X170693076Y-93611666D01*
X170666718Y-93614500D01*
X170611508Y-93614500D01*
X170544469Y-93594815D01*
X170498714Y-93542011D01*
X170488770Y-93472853D01*
X170496947Y-93443047D01*
X170536407Y-93347782D01*
X170571158Y-93263887D01*
X170630548Y-93042238D01*
X170660500Y-92814734D01*
X170660500Y-92585266D01*
X170630548Y-92357762D01*
X170571158Y-92136113D01*
X170486968Y-91932861D01*
X170483349Y-91924123D01*
X170483346Y-91924117D01*
X170483344Y-91924112D01*
X170368611Y-91725388D01*
X170368608Y-91725385D01*
X170368607Y-91725382D01*
X170228918Y-91543338D01*
X170228911Y-91543330D01*
X170066670Y-91381089D01*
X170066661Y-91381081D01*
X169884617Y-91241392D01*
X169685888Y-91126656D01*
X169685876Y-91126650D01*
X169601162Y-91091561D01*
X169546758Y-91047720D01*
X169524693Y-90981426D01*
X169541972Y-90913727D01*
X169593109Y-90866116D01*
X169648614Y-90853000D01*
X176946042Y-90853000D01*
X176977066Y-90846828D01*
X177042688Y-90833775D01*
X177139336Y-90814551D01*
X177192665Y-90792461D01*
X177321414Y-90739132D01*
X177485282Y-90629639D01*
X177624639Y-90490282D01*
X177624639Y-90490280D01*
X177634847Y-90480073D01*
X177634848Y-90480070D01*
X179448102Y-88666819D01*
X179509425Y-88633334D01*
X179535783Y-88630500D01*
X180296038Y-88630500D01*
X180363077Y-88650185D01*
G37*
%TD.AperFunction*%
%TD*%
M02*
