%TF.GenerationSoftware,KiCad,Pcbnew,10.0.6*%
%TF.CreationDate,2026-09-22T11:20:05+02:00*%
%TF.ProjectId,pdice-02_temp,70646963-652d-4303-925f-74656d702e6b,rev?*%
%TF.SameCoordinates,Original*%
%TF.FileFunction,Legend,Top*%
%TF.FilePolarity,Positive*%
%FSLAX46Y46*%
G04 Gerber Fmt 4.6, Leading zero omitted, Abs format (unit mm)*
G04 Created by KiCad (PCBNEW 10.0.6) date 2026-09-22 11:20:05*
%MOMM*%
%LPD*%
G01*
G04 APERTURE LIST*
%ADD10C,0.250000*%
%ADD11C,0.150000*%
%ADD12C,0.100000*%
%ADD13C,0.120000*%
%ADD14C,0.200000*%
G04 APERTURE END LIST*
D10*
X137025000Y-55205000D02*
X137025000Y-55205000D01*
G75*
G02*
X139025000Y-53205000I2000000J0D01*
G01*
X174665000Y-53205000D01*
G75*
G02*
X176665000Y-55205000I0J-2000000D01*
G01*
X176665000Y-106085000D01*
G75*
G02*
X174665000Y-108085000I-2000000J0D01*
G01*
X139025000Y-108085000D01*
G75*
G02*
X137025000Y-106085000I0J2000000D01*
G01*
X137025000Y-55205000D01*
D11*
X141605000Y-90170000D02*
X142240000Y-89535000D01*
X141605000Y-90170000D02*
X142240000Y-90805000D01*
X142240000Y-89535000D02*
X142240000Y-90805000D01*
D10*
X142845000Y-54865000D02*
X161845000Y-54865000D01*
X161845000Y-72865000D01*
X142845000Y-72865000D01*
X142845000Y-54865000D01*
D12*
X147385000Y-80645000D02*
G75*
G02*
X142305000Y-80645000I-2540000J0D01*
G01*
X142305000Y-80645000D02*
G75*
G02*
X147385000Y-80645000I2540000J0D01*
G01*
X171385000Y-80645000D02*
G75*
G02*
X166305000Y-80645000I-2540000J0D01*
G01*
X166305000Y-80645000D02*
G75*
G02*
X171385000Y-80645000I2540000J0D01*
G01*
D13*
X154200855Y-94525713D02*
X153400855Y-94525713D01*
X153400855Y-94525713D02*
X153400855Y-94220951D01*
X153400855Y-94220951D02*
X153438950Y-94144761D01*
X153438950Y-94144761D02*
X153477045Y-94106666D01*
X153477045Y-94106666D02*
X153553236Y-94068570D01*
X153553236Y-94068570D02*
X153667521Y-94068570D01*
X153667521Y-94068570D02*
X153743712Y-94106666D01*
X153743712Y-94106666D02*
X153781807Y-94144761D01*
X153781807Y-94144761D02*
X153819902Y-94220951D01*
X153819902Y-94220951D02*
X153819902Y-94525713D01*
X154200855Y-93725713D02*
X153400855Y-93725713D01*
X154124664Y-92887618D02*
X154162760Y-92925714D01*
X154162760Y-92925714D02*
X154200855Y-93039999D01*
X154200855Y-93039999D02*
X154200855Y-93116190D01*
X154200855Y-93116190D02*
X154162760Y-93230476D01*
X154162760Y-93230476D02*
X154086569Y-93306666D01*
X154086569Y-93306666D02*
X154010379Y-93344761D01*
X154010379Y-93344761D02*
X153857998Y-93382857D01*
X153857998Y-93382857D02*
X153743712Y-93382857D01*
X153743712Y-93382857D02*
X153591331Y-93344761D01*
X153591331Y-93344761D02*
X153515140Y-93306666D01*
X153515140Y-93306666D02*
X153438950Y-93230476D01*
X153438950Y-93230476D02*
X153400855Y-93116190D01*
X153400855Y-93116190D02*
X153400855Y-93039999D01*
X153400855Y-93039999D02*
X153438950Y-92925714D01*
X153438950Y-92925714D02*
X153477045Y-92887618D01*
X154200855Y-92125714D02*
X154200855Y-92582857D01*
X154200855Y-92354285D02*
X153400855Y-92354285D01*
X153400855Y-92354285D02*
X153515140Y-92430476D01*
X153515140Y-92430476D02*
X153591331Y-92506666D01*
X153591331Y-92506666D02*
X153629426Y-92582857D01*
X153477045Y-91820952D02*
X153438950Y-91782856D01*
X153438950Y-91782856D02*
X153400855Y-91706666D01*
X153400855Y-91706666D02*
X153400855Y-91516190D01*
X153400855Y-91516190D02*
X153438950Y-91439999D01*
X153438950Y-91439999D02*
X153477045Y-91401904D01*
X153477045Y-91401904D02*
X153553236Y-91363809D01*
X153553236Y-91363809D02*
X153629426Y-91363809D01*
X153629426Y-91363809D02*
X153743712Y-91401904D01*
X153743712Y-91401904D02*
X154200855Y-91859047D01*
X154200855Y-91859047D02*
X154200855Y-91363809D01*
X154124664Y-89954284D02*
X154162760Y-89992380D01*
X154162760Y-89992380D02*
X154200855Y-90106665D01*
X154200855Y-90106665D02*
X154200855Y-90182856D01*
X154200855Y-90182856D02*
X154162760Y-90297142D01*
X154162760Y-90297142D02*
X154086569Y-90373332D01*
X154086569Y-90373332D02*
X154010379Y-90411427D01*
X154010379Y-90411427D02*
X153857998Y-90449523D01*
X153857998Y-90449523D02*
X153743712Y-90449523D01*
X153743712Y-90449523D02*
X153591331Y-90411427D01*
X153591331Y-90411427D02*
X153515140Y-90373332D01*
X153515140Y-90373332D02*
X153438950Y-90297142D01*
X153438950Y-90297142D02*
X153400855Y-90182856D01*
X153400855Y-90182856D02*
X153400855Y-90106665D01*
X153400855Y-90106665D02*
X153438950Y-89992380D01*
X153438950Y-89992380D02*
X153477045Y-89954284D01*
X154200855Y-89611427D02*
X153400855Y-89611427D01*
X153400855Y-89611427D02*
X153400855Y-89306665D01*
X153400855Y-89306665D02*
X153438950Y-89230475D01*
X153438950Y-89230475D02*
X153477045Y-89192380D01*
X153477045Y-89192380D02*
X153553236Y-89154284D01*
X153553236Y-89154284D02*
X153667521Y-89154284D01*
X153667521Y-89154284D02*
X153743712Y-89192380D01*
X153743712Y-89192380D02*
X153781807Y-89230475D01*
X153781807Y-89230475D02*
X153819902Y-89306665D01*
X153819902Y-89306665D02*
X153819902Y-89611427D01*
X153400855Y-88811427D02*
X154048474Y-88811427D01*
X154048474Y-88811427D02*
X154124664Y-88773332D01*
X154124664Y-88773332D02*
X154162760Y-88735237D01*
X154162760Y-88735237D02*
X154200855Y-88659046D01*
X154200855Y-88659046D02*
X154200855Y-88506665D01*
X154200855Y-88506665D02*
X154162760Y-88430475D01*
X154162760Y-88430475D02*
X154124664Y-88392380D01*
X154124664Y-88392380D02*
X154048474Y-88354284D01*
X154048474Y-88354284D02*
X153400855Y-88354284D01*
D11*
X143446548Y-56271366D02*
X144208453Y-56271366D01*
X143827500Y-56652319D02*
X143827500Y-55890414D01*
X143446548Y-62303866D02*
X144208453Y-62303866D01*
X143827500Y-62684819D02*
X143827500Y-61922914D01*
X143446548Y-68018866D02*
X144208453Y-68018866D01*
X143827500Y-68399819D02*
X143827500Y-67637914D01*
X149479048Y-62303866D02*
X150240953Y-62303866D01*
X149860000Y-62684819D02*
X149860000Y-61922914D01*
X155511548Y-56271366D02*
X156273453Y-56271366D01*
X155892500Y-56652319D02*
X155892500Y-55890414D01*
X155511548Y-62303866D02*
X156273453Y-62303866D01*
X155892500Y-62684819D02*
X155892500Y-61922914D01*
X155511548Y-68336366D02*
X156273453Y-68336366D01*
X155892500Y-68717319D02*
X155892500Y-67955414D01*
D14*
X169279673Y-106132219D02*
X169279673Y-106941742D01*
X169279673Y-106941742D02*
X169327292Y-107036980D01*
X169327292Y-107036980D02*
X169374911Y-107084600D01*
X169374911Y-107084600D02*
X169470149Y-107132219D01*
X169470149Y-107132219D02*
X169660625Y-107132219D01*
X169660625Y-107132219D02*
X169755863Y-107084600D01*
X169755863Y-107084600D02*
X169803482Y-107036980D01*
X169803482Y-107036980D02*
X169851101Y-106941742D01*
X169851101Y-106941742D02*
X169851101Y-106132219D01*
X170279673Y-107084600D02*
X170422530Y-107132219D01*
X170422530Y-107132219D02*
X170660625Y-107132219D01*
X170660625Y-107132219D02*
X170755863Y-107084600D01*
X170755863Y-107084600D02*
X170803482Y-107036980D01*
X170803482Y-107036980D02*
X170851101Y-106941742D01*
X170851101Y-106941742D02*
X170851101Y-106846504D01*
X170851101Y-106846504D02*
X170803482Y-106751266D01*
X170803482Y-106751266D02*
X170755863Y-106703647D01*
X170755863Y-106703647D02*
X170660625Y-106656028D01*
X170660625Y-106656028D02*
X170470149Y-106608409D01*
X170470149Y-106608409D02*
X170374911Y-106560790D01*
X170374911Y-106560790D02*
X170327292Y-106513171D01*
X170327292Y-106513171D02*
X170279673Y-106417933D01*
X170279673Y-106417933D02*
X170279673Y-106322695D01*
X170279673Y-106322695D02*
X170327292Y-106227457D01*
X170327292Y-106227457D02*
X170374911Y-106179838D01*
X170374911Y-106179838D02*
X170470149Y-106132219D01*
X170470149Y-106132219D02*
X170708244Y-106132219D01*
X170708244Y-106132219D02*
X170851101Y-106179838D01*
X171613006Y-106608409D02*
X171755863Y-106656028D01*
X171755863Y-106656028D02*
X171803482Y-106703647D01*
X171803482Y-106703647D02*
X171851101Y-106798885D01*
X171851101Y-106798885D02*
X171851101Y-106941742D01*
X171851101Y-106941742D02*
X171803482Y-107036980D01*
X171803482Y-107036980D02*
X171755863Y-107084600D01*
X171755863Y-107084600D02*
X171660625Y-107132219D01*
X171660625Y-107132219D02*
X171279673Y-107132219D01*
X171279673Y-107132219D02*
X171279673Y-106132219D01*
X171279673Y-106132219D02*
X171613006Y-106132219D01*
X171613006Y-106132219D02*
X171708244Y-106179838D01*
X171708244Y-106179838D02*
X171755863Y-106227457D01*
X171755863Y-106227457D02*
X171803482Y-106322695D01*
X171803482Y-106322695D02*
X171803482Y-106417933D01*
X171803482Y-106417933D02*
X171755863Y-106513171D01*
X171755863Y-106513171D02*
X171708244Y-106560790D01*
X171708244Y-106560790D02*
X171613006Y-106608409D01*
X171613006Y-106608409D02*
X171279673Y-106608409D01*
X154415802Y-106608409D02*
X154558659Y-106656028D01*
X154558659Y-106656028D02*
X154606278Y-106703647D01*
X154606278Y-106703647D02*
X154653897Y-106798885D01*
X154653897Y-106798885D02*
X154653897Y-106941742D01*
X154653897Y-106941742D02*
X154606278Y-107036980D01*
X154606278Y-107036980D02*
X154558659Y-107084600D01*
X154558659Y-107084600D02*
X154463421Y-107132219D01*
X154463421Y-107132219D02*
X154082469Y-107132219D01*
X154082469Y-107132219D02*
X154082469Y-106132219D01*
X154082469Y-106132219D02*
X154415802Y-106132219D01*
X154415802Y-106132219D02*
X154511040Y-106179838D01*
X154511040Y-106179838D02*
X154558659Y-106227457D01*
X154558659Y-106227457D02*
X154606278Y-106322695D01*
X154606278Y-106322695D02*
X154606278Y-106417933D01*
X154606278Y-106417933D02*
X154558659Y-106513171D01*
X154558659Y-106513171D02*
X154511040Y-106560790D01*
X154511040Y-106560790D02*
X154415802Y-106608409D01*
X154415802Y-106608409D02*
X154082469Y-106608409D01*
X155034850Y-106846504D02*
X155511040Y-106846504D01*
X154939612Y-107132219D02*
X155272945Y-106132219D01*
X155272945Y-106132219D02*
X155606278Y-107132219D01*
X155796755Y-106132219D02*
X156368183Y-106132219D01*
X156082469Y-107132219D02*
X156082469Y-106132219D01*
X170317219Y-88606190D02*
X170317219Y-88415714D01*
X170317219Y-88415714D02*
X170364838Y-88320476D01*
X170364838Y-88320476D02*
X170460076Y-88225238D01*
X170460076Y-88225238D02*
X170650552Y-88177619D01*
X170650552Y-88177619D02*
X170983885Y-88177619D01*
X170983885Y-88177619D02*
X171174361Y-88225238D01*
X171174361Y-88225238D02*
X171269600Y-88320476D01*
X171269600Y-88320476D02*
X171317219Y-88415714D01*
X171317219Y-88415714D02*
X171317219Y-88606190D01*
X171317219Y-88606190D02*
X171269600Y-88701428D01*
X171269600Y-88701428D02*
X171174361Y-88796666D01*
X171174361Y-88796666D02*
X170983885Y-88844285D01*
X170983885Y-88844285D02*
X170650552Y-88844285D01*
X170650552Y-88844285D02*
X170460076Y-88796666D01*
X170460076Y-88796666D02*
X170364838Y-88701428D01*
X170364838Y-88701428D02*
X170317219Y-88606190D01*
X171317219Y-87749047D02*
X170317219Y-87749047D01*
X170317219Y-87749047D02*
X170317219Y-87368095D01*
X170317219Y-87368095D02*
X170364838Y-87272857D01*
X170364838Y-87272857D02*
X170412457Y-87225238D01*
X170412457Y-87225238D02*
X170507695Y-87177619D01*
X170507695Y-87177619D02*
X170650552Y-87177619D01*
X170650552Y-87177619D02*
X170745790Y-87225238D01*
X170745790Y-87225238D02*
X170793409Y-87272857D01*
X170793409Y-87272857D02*
X170841028Y-87368095D01*
X170841028Y-87368095D02*
X170841028Y-87749047D01*
X170317219Y-86891904D02*
X170317219Y-86320476D01*
X171317219Y-86606190D02*
X170317219Y-86606190D01*
X140947752Y-54174522D02*
X139947752Y-54412617D01*
X139947752Y-54412617D02*
X140662038Y-54603093D01*
X140662038Y-54603093D02*
X139947752Y-54793569D01*
X139947752Y-54793569D02*
X140947752Y-55031665D01*
X139995372Y-55793569D02*
X139947752Y-55698331D01*
X139947752Y-55698331D02*
X139947752Y-55507855D01*
X139947752Y-55507855D02*
X139995372Y-55412617D01*
X139995372Y-55412617D02*
X140090610Y-55364998D01*
X140090610Y-55364998D02*
X140471562Y-55364998D01*
X140471562Y-55364998D02*
X140566800Y-55412617D01*
X140566800Y-55412617D02*
X140614419Y-55507855D01*
X140614419Y-55507855D02*
X140614419Y-55698331D01*
X140614419Y-55698331D02*
X140566800Y-55793569D01*
X140566800Y-55793569D02*
X140471562Y-55841188D01*
X140471562Y-55841188D02*
X140376324Y-55841188D01*
X140376324Y-55841188D02*
X140281086Y-55364998D01*
X139995372Y-56650712D02*
X139947752Y-56555474D01*
X139947752Y-56555474D02*
X139947752Y-56364998D01*
X139947752Y-56364998D02*
X139995372Y-56269760D01*
X139995372Y-56269760D02*
X140090610Y-56222141D01*
X140090610Y-56222141D02*
X140471562Y-56222141D01*
X140471562Y-56222141D02*
X140566800Y-56269760D01*
X140566800Y-56269760D02*
X140614419Y-56364998D01*
X140614419Y-56364998D02*
X140614419Y-56555474D01*
X140614419Y-56555474D02*
X140566800Y-56650712D01*
X140566800Y-56650712D02*
X140471562Y-56698331D01*
X140471562Y-56698331D02*
X140376324Y-56698331D01*
X140376324Y-56698331D02*
X140281086Y-56222141D01*
X139947752Y-57126903D02*
X140947752Y-57126903D01*
X140328705Y-57222141D02*
X139947752Y-57507855D01*
X140614419Y-57507855D02*
X140233467Y-57126903D01*
X139995372Y-58317379D02*
X139947752Y-58222141D01*
X139947752Y-58222141D02*
X139947752Y-58031665D01*
X139947752Y-58031665D02*
X139995372Y-57936427D01*
X139995372Y-57936427D02*
X140090610Y-57888808D01*
X140090610Y-57888808D02*
X140471562Y-57888808D01*
X140471562Y-57888808D02*
X140566800Y-57936427D01*
X140566800Y-57936427D02*
X140614419Y-58031665D01*
X140614419Y-58031665D02*
X140614419Y-58222141D01*
X140614419Y-58222141D02*
X140566800Y-58317379D01*
X140566800Y-58317379D02*
X140471562Y-58364998D01*
X140471562Y-58364998D02*
X140376324Y-58364998D01*
X140376324Y-58364998D02*
X140281086Y-57888808D01*
X140614419Y-58793570D02*
X139947752Y-58793570D01*
X140519181Y-58793570D02*
X140566800Y-58841189D01*
X140566800Y-58841189D02*
X140614419Y-58936427D01*
X140614419Y-58936427D02*
X140614419Y-59079284D01*
X140614419Y-59079284D02*
X140566800Y-59174522D01*
X140566800Y-59174522D02*
X140471562Y-59222141D01*
X140471562Y-59222141D02*
X139947752Y-59222141D01*
X139947752Y-60126903D02*
X140947752Y-60126903D01*
X139995372Y-60126903D02*
X139947752Y-60031665D01*
X139947752Y-60031665D02*
X139947752Y-59841189D01*
X139947752Y-59841189D02*
X139995372Y-59745951D01*
X139995372Y-59745951D02*
X140042991Y-59698332D01*
X140042991Y-59698332D02*
X140138229Y-59650713D01*
X140138229Y-59650713D02*
X140423943Y-59650713D01*
X140423943Y-59650713D02*
X140519181Y-59698332D01*
X140519181Y-59698332D02*
X140566800Y-59745951D01*
X140566800Y-59745951D02*
X140614419Y-59841189D01*
X140614419Y-59841189D02*
X140614419Y-60031665D01*
X140614419Y-60031665D02*
X140566800Y-60126903D01*
X140614419Y-61269761D02*
X139947752Y-61507856D01*
X139947752Y-61507856D02*
X140614419Y-61745951D01*
X139947752Y-62555475D02*
X140471562Y-62555475D01*
X140471562Y-62555475D02*
X140566800Y-62507856D01*
X140566800Y-62507856D02*
X140614419Y-62412618D01*
X140614419Y-62412618D02*
X140614419Y-62222142D01*
X140614419Y-62222142D02*
X140566800Y-62126904D01*
X139995372Y-62555475D02*
X139947752Y-62460237D01*
X139947752Y-62460237D02*
X139947752Y-62222142D01*
X139947752Y-62222142D02*
X139995372Y-62126904D01*
X139995372Y-62126904D02*
X140090610Y-62079285D01*
X140090610Y-62079285D02*
X140185848Y-62079285D01*
X140185848Y-62079285D02*
X140281086Y-62126904D01*
X140281086Y-62126904D02*
X140328705Y-62222142D01*
X140328705Y-62222142D02*
X140328705Y-62460237D01*
X140328705Y-62460237D02*
X140376324Y-62555475D01*
X140614419Y-63031666D02*
X139947752Y-63031666D01*
X140519181Y-63031666D02*
X140566800Y-63079285D01*
X140566800Y-63079285D02*
X140614419Y-63174523D01*
X140614419Y-63174523D02*
X140614419Y-63317380D01*
X140614419Y-63317380D02*
X140566800Y-63412618D01*
X140566800Y-63412618D02*
X140471562Y-63460237D01*
X140471562Y-63460237D02*
X139947752Y-63460237D01*
X139947752Y-65126904D02*
X140947752Y-65126904D01*
X139995372Y-65126904D02*
X139947752Y-65031666D01*
X139947752Y-65031666D02*
X139947752Y-64841190D01*
X139947752Y-64841190D02*
X139995372Y-64745952D01*
X139995372Y-64745952D02*
X140042991Y-64698333D01*
X140042991Y-64698333D02*
X140138229Y-64650714D01*
X140138229Y-64650714D02*
X140423943Y-64650714D01*
X140423943Y-64650714D02*
X140519181Y-64698333D01*
X140519181Y-64698333D02*
X140566800Y-64745952D01*
X140566800Y-64745952D02*
X140614419Y-64841190D01*
X140614419Y-64841190D02*
X140614419Y-65031666D01*
X140614419Y-65031666D02*
X140566800Y-65126904D01*
X139995372Y-65984047D02*
X139947752Y-65888809D01*
X139947752Y-65888809D02*
X139947752Y-65698333D01*
X139947752Y-65698333D02*
X139995372Y-65603095D01*
X139995372Y-65603095D02*
X140090610Y-65555476D01*
X140090610Y-65555476D02*
X140471562Y-65555476D01*
X140471562Y-65555476D02*
X140566800Y-65603095D01*
X140566800Y-65603095D02*
X140614419Y-65698333D01*
X140614419Y-65698333D02*
X140614419Y-65888809D01*
X140614419Y-65888809D02*
X140566800Y-65984047D01*
X140566800Y-65984047D02*
X140471562Y-66031666D01*
X140471562Y-66031666D02*
X140376324Y-66031666D01*
X140376324Y-66031666D02*
X140281086Y-65555476D01*
X140947752Y-67126905D02*
X139947752Y-67365000D01*
X139947752Y-67365000D02*
X140662038Y-67555476D01*
X140662038Y-67555476D02*
X139947752Y-67745952D01*
X139947752Y-67745952D02*
X140947752Y-67984048D01*
X139995372Y-68745952D02*
X139947752Y-68650714D01*
X139947752Y-68650714D02*
X139947752Y-68460238D01*
X139947752Y-68460238D02*
X139995372Y-68365000D01*
X139995372Y-68365000D02*
X140090610Y-68317381D01*
X140090610Y-68317381D02*
X140471562Y-68317381D01*
X140471562Y-68317381D02*
X140566800Y-68365000D01*
X140566800Y-68365000D02*
X140614419Y-68460238D01*
X140614419Y-68460238D02*
X140614419Y-68650714D01*
X140614419Y-68650714D02*
X140566800Y-68745952D01*
X140566800Y-68745952D02*
X140471562Y-68793571D01*
X140471562Y-68793571D02*
X140376324Y-68793571D01*
X140376324Y-68793571D02*
X140281086Y-68317381D01*
X140614419Y-69079286D02*
X140614419Y-69460238D01*
X140947752Y-69222143D02*
X140090610Y-69222143D01*
X140090610Y-69222143D02*
X139995372Y-69269762D01*
X139995372Y-69269762D02*
X139947752Y-69365000D01*
X139947752Y-69365000D02*
X139947752Y-69460238D01*
X139995372Y-70174524D02*
X139947752Y-70079286D01*
X139947752Y-70079286D02*
X139947752Y-69888810D01*
X139947752Y-69888810D02*
X139995372Y-69793572D01*
X139995372Y-69793572D02*
X140090610Y-69745953D01*
X140090610Y-69745953D02*
X140471562Y-69745953D01*
X140471562Y-69745953D02*
X140566800Y-69793572D01*
X140566800Y-69793572D02*
X140614419Y-69888810D01*
X140614419Y-69888810D02*
X140614419Y-70079286D01*
X140614419Y-70079286D02*
X140566800Y-70174524D01*
X140566800Y-70174524D02*
X140471562Y-70222143D01*
X140471562Y-70222143D02*
X140376324Y-70222143D01*
X140376324Y-70222143D02*
X140281086Y-69745953D01*
X140614419Y-70650715D02*
X139947752Y-70650715D01*
X140519181Y-70650715D02*
X140566800Y-70698334D01*
X140566800Y-70698334D02*
X140614419Y-70793572D01*
X140614419Y-70793572D02*
X140614419Y-70936429D01*
X140614419Y-70936429D02*
X140566800Y-71031667D01*
X140566800Y-71031667D02*
X140471562Y-71079286D01*
X140471562Y-71079286D02*
X139947752Y-71079286D01*
X139995372Y-71507858D02*
X139947752Y-71603096D01*
X139947752Y-71603096D02*
X139947752Y-71793572D01*
X139947752Y-71793572D02*
X139995372Y-71888810D01*
X139995372Y-71888810D02*
X140090610Y-71936429D01*
X140090610Y-71936429D02*
X140138229Y-71936429D01*
X140138229Y-71936429D02*
X140233467Y-71888810D01*
X140233467Y-71888810D02*
X140281086Y-71793572D01*
X140281086Y-71793572D02*
X140281086Y-71650715D01*
X140281086Y-71650715D02*
X140328705Y-71555477D01*
X140328705Y-71555477D02*
X140423943Y-71507858D01*
X140423943Y-71507858D02*
X140471562Y-71507858D01*
X140471562Y-71507858D02*
X140566800Y-71555477D01*
X140566800Y-71555477D02*
X140614419Y-71650715D01*
X140614419Y-71650715D02*
X140614419Y-71793572D01*
X140614419Y-71793572D02*
X140566800Y-71888810D01*
X139995372Y-72793572D02*
X139947752Y-72698334D01*
X139947752Y-72698334D02*
X139947752Y-72507858D01*
X139947752Y-72507858D02*
X139995372Y-72412620D01*
X139995372Y-72412620D02*
X140042991Y-72365001D01*
X140042991Y-72365001D02*
X140138229Y-72317382D01*
X140138229Y-72317382D02*
X140423943Y-72317382D01*
X140423943Y-72317382D02*
X140519181Y-72365001D01*
X140519181Y-72365001D02*
X140566800Y-72412620D01*
X140566800Y-72412620D02*
X140614419Y-72507858D01*
X140614419Y-72507858D02*
X140614419Y-72698334D01*
X140614419Y-72698334D02*
X140566800Y-72793572D01*
X139947752Y-73222144D02*
X140947752Y-73222144D01*
X139947752Y-73650715D02*
X140471562Y-73650715D01*
X140471562Y-73650715D02*
X140566800Y-73603096D01*
X140566800Y-73603096D02*
X140614419Y-73507858D01*
X140614419Y-73507858D02*
X140614419Y-73365001D01*
X140614419Y-73365001D02*
X140566800Y-73269763D01*
X140566800Y-73269763D02*
X140519181Y-73222144D01*
X139947752Y-74555477D02*
X140471562Y-74555477D01*
X140471562Y-74555477D02*
X140566800Y-74507858D01*
X140566800Y-74507858D02*
X140614419Y-74412620D01*
X140614419Y-74412620D02*
X140614419Y-74222144D01*
X140614419Y-74222144D02*
X140566800Y-74126906D01*
X139995372Y-74555477D02*
X139947752Y-74460239D01*
X139947752Y-74460239D02*
X139947752Y-74222144D01*
X139947752Y-74222144D02*
X139995372Y-74126906D01*
X139995372Y-74126906D02*
X140090610Y-74079287D01*
X140090610Y-74079287D02*
X140185848Y-74079287D01*
X140185848Y-74079287D02*
X140281086Y-74126906D01*
X140281086Y-74126906D02*
X140328705Y-74222144D01*
X140328705Y-74222144D02*
X140328705Y-74460239D01*
X140328705Y-74460239D02*
X140376324Y-74555477D01*
X140614419Y-75031668D02*
X139614419Y-75031668D01*
X140566800Y-75031668D02*
X140614419Y-75126906D01*
X140614419Y-75126906D02*
X140614419Y-75317382D01*
X140614419Y-75317382D02*
X140566800Y-75412620D01*
X140566800Y-75412620D02*
X140519181Y-75460239D01*
X140519181Y-75460239D02*
X140423943Y-75507858D01*
X140423943Y-75507858D02*
X140138229Y-75507858D01*
X140138229Y-75507858D02*
X140042991Y-75460239D01*
X140042991Y-75460239D02*
X139995372Y-75412620D01*
X139995372Y-75412620D02*
X139947752Y-75317382D01*
X139947752Y-75317382D02*
X139947752Y-75126906D01*
X139947752Y-75126906D02*
X139995372Y-75031668D01*
X139242570Y-54460236D02*
X139290189Y-54507855D01*
X139290189Y-54507855D02*
X139337808Y-54603093D01*
X139337808Y-54603093D02*
X139337808Y-54841188D01*
X139337808Y-54841188D02*
X139290189Y-54936426D01*
X139290189Y-54936426D02*
X139242570Y-54984045D01*
X139242570Y-54984045D02*
X139147332Y-55031664D01*
X139147332Y-55031664D02*
X139052094Y-55031664D01*
X139052094Y-55031664D02*
X138909237Y-54984045D01*
X138909237Y-54984045D02*
X138337808Y-54412617D01*
X138337808Y-54412617D02*
X138337808Y-55031664D01*
X139337808Y-55650712D02*
X139337808Y-55745950D01*
X139337808Y-55745950D02*
X139290189Y-55841188D01*
X139290189Y-55841188D02*
X139242570Y-55888807D01*
X139242570Y-55888807D02*
X139147332Y-55936426D01*
X139147332Y-55936426D02*
X138956856Y-55984045D01*
X138956856Y-55984045D02*
X138718761Y-55984045D01*
X138718761Y-55984045D02*
X138528285Y-55936426D01*
X138528285Y-55936426D02*
X138433047Y-55888807D01*
X138433047Y-55888807D02*
X138385428Y-55841188D01*
X138385428Y-55841188D02*
X138337808Y-55745950D01*
X138337808Y-55745950D02*
X138337808Y-55650712D01*
X138337808Y-55650712D02*
X138385428Y-55555474D01*
X138385428Y-55555474D02*
X138433047Y-55507855D01*
X138433047Y-55507855D02*
X138528285Y-55460236D01*
X138528285Y-55460236D02*
X138718761Y-55412617D01*
X138718761Y-55412617D02*
X138956856Y-55412617D01*
X138956856Y-55412617D02*
X139147332Y-55460236D01*
X139147332Y-55460236D02*
X139242570Y-55507855D01*
X139242570Y-55507855D02*
X139290189Y-55555474D01*
X139290189Y-55555474D02*
X139337808Y-55650712D01*
X139242570Y-56364998D02*
X139290189Y-56412617D01*
X139290189Y-56412617D02*
X139337808Y-56507855D01*
X139337808Y-56507855D02*
X139337808Y-56745950D01*
X139337808Y-56745950D02*
X139290189Y-56841188D01*
X139290189Y-56841188D02*
X139242570Y-56888807D01*
X139242570Y-56888807D02*
X139147332Y-56936426D01*
X139147332Y-56936426D02*
X139052094Y-56936426D01*
X139052094Y-56936426D02*
X138909237Y-56888807D01*
X138909237Y-56888807D02*
X138337808Y-56317379D01*
X138337808Y-56317379D02*
X138337808Y-56936426D01*
X139337808Y-57793569D02*
X139337808Y-57603093D01*
X139337808Y-57603093D02*
X139290189Y-57507855D01*
X139290189Y-57507855D02*
X139242570Y-57460236D01*
X139242570Y-57460236D02*
X139099713Y-57364998D01*
X139099713Y-57364998D02*
X138909237Y-57317379D01*
X138909237Y-57317379D02*
X138528285Y-57317379D01*
X138528285Y-57317379D02*
X138433047Y-57364998D01*
X138433047Y-57364998D02*
X138385428Y-57412617D01*
X138385428Y-57412617D02*
X138337808Y-57507855D01*
X138337808Y-57507855D02*
X138337808Y-57698331D01*
X138337808Y-57698331D02*
X138385428Y-57793569D01*
X138385428Y-57793569D02*
X138433047Y-57841188D01*
X138433047Y-57841188D02*
X138528285Y-57888807D01*
X138528285Y-57888807D02*
X138766380Y-57888807D01*
X138766380Y-57888807D02*
X138861618Y-57841188D01*
X138861618Y-57841188D02*
X138909237Y-57793569D01*
X138909237Y-57793569D02*
X138956856Y-57698331D01*
X138956856Y-57698331D02*
X138956856Y-57507855D01*
X138956856Y-57507855D02*
X138909237Y-57412617D01*
X138909237Y-57412617D02*
X138861618Y-57364998D01*
X138861618Y-57364998D02*
X138766380Y-57317379D01*
X138861618Y-60603094D02*
X138861618Y-60936427D01*
X138337808Y-61079284D02*
X138337808Y-60603094D01*
X138337808Y-60603094D02*
X139337808Y-60603094D01*
X139337808Y-60603094D02*
X139337808Y-61079284D01*
X138337808Y-61650713D02*
X138385428Y-61555475D01*
X138385428Y-61555475D02*
X138480666Y-61507856D01*
X138480666Y-61507856D02*
X139337808Y-61507856D01*
X138385428Y-62412618D02*
X138337808Y-62317380D01*
X138337808Y-62317380D02*
X138337808Y-62126904D01*
X138337808Y-62126904D02*
X138385428Y-62031666D01*
X138385428Y-62031666D02*
X138480666Y-61984047D01*
X138480666Y-61984047D02*
X138861618Y-61984047D01*
X138861618Y-61984047D02*
X138956856Y-62031666D01*
X138956856Y-62031666D02*
X139004475Y-62126904D01*
X139004475Y-62126904D02*
X139004475Y-62317380D01*
X139004475Y-62317380D02*
X138956856Y-62412618D01*
X138956856Y-62412618D02*
X138861618Y-62460237D01*
X138861618Y-62460237D02*
X138766380Y-62460237D01*
X138766380Y-62460237D02*
X138671142Y-61984047D01*
X138337808Y-62888809D02*
X139337808Y-62888809D01*
X138718761Y-62984047D02*
X138337808Y-63269761D01*
X139004475Y-63269761D02*
X138623523Y-62888809D01*
X139004475Y-63555476D02*
X139004475Y-63936428D01*
X139337808Y-63698333D02*
X138480666Y-63698333D01*
X138480666Y-63698333D02*
X138385428Y-63745952D01*
X138385428Y-63745952D02*
X138337808Y-63841190D01*
X138337808Y-63841190D02*
X138337808Y-63936428D01*
X138337808Y-64269762D02*
X139004475Y-64269762D01*
X138813999Y-64269762D02*
X138909237Y-64317381D01*
X138909237Y-64317381D02*
X138956856Y-64365000D01*
X138956856Y-64365000D02*
X139004475Y-64460238D01*
X139004475Y-64460238D02*
X139004475Y-64555476D01*
X138337808Y-65031667D02*
X138385428Y-64936429D01*
X138385428Y-64936429D02*
X138433047Y-64888810D01*
X138433047Y-64888810D02*
X138528285Y-64841191D01*
X138528285Y-64841191D02*
X138813999Y-64841191D01*
X138813999Y-64841191D02*
X138909237Y-64888810D01*
X138909237Y-64888810D02*
X138956856Y-64936429D01*
X138956856Y-64936429D02*
X139004475Y-65031667D01*
X139004475Y-65031667D02*
X139004475Y-65174524D01*
X139004475Y-65174524D02*
X138956856Y-65269762D01*
X138956856Y-65269762D02*
X138909237Y-65317381D01*
X138909237Y-65317381D02*
X138813999Y-65365000D01*
X138813999Y-65365000D02*
X138528285Y-65365000D01*
X138528285Y-65365000D02*
X138433047Y-65317381D01*
X138433047Y-65317381D02*
X138385428Y-65269762D01*
X138385428Y-65269762D02*
X138337808Y-65174524D01*
X138337808Y-65174524D02*
X138337808Y-65031667D01*
X139004475Y-65793572D02*
X138337808Y-65793572D01*
X138909237Y-65793572D02*
X138956856Y-65841191D01*
X138956856Y-65841191D02*
X139004475Y-65936429D01*
X139004475Y-65936429D02*
X139004475Y-66079286D01*
X139004475Y-66079286D02*
X138956856Y-66174524D01*
X138956856Y-66174524D02*
X138861618Y-66222143D01*
X138861618Y-66222143D02*
X138337808Y-66222143D01*
X138337808Y-66698334D02*
X139004475Y-66698334D01*
X139337808Y-66698334D02*
X139290189Y-66650715D01*
X139290189Y-66650715D02*
X139242570Y-66698334D01*
X139242570Y-66698334D02*
X139290189Y-66745953D01*
X139290189Y-66745953D02*
X139337808Y-66698334D01*
X139337808Y-66698334D02*
X139242570Y-66698334D01*
X138385428Y-67603095D02*
X138337808Y-67507857D01*
X138337808Y-67507857D02*
X138337808Y-67317381D01*
X138337808Y-67317381D02*
X138385428Y-67222143D01*
X138385428Y-67222143D02*
X138433047Y-67174524D01*
X138433047Y-67174524D02*
X138528285Y-67126905D01*
X138528285Y-67126905D02*
X138813999Y-67126905D01*
X138813999Y-67126905D02*
X138909237Y-67174524D01*
X138909237Y-67174524D02*
X138956856Y-67222143D01*
X138956856Y-67222143D02*
X139004475Y-67317381D01*
X139004475Y-67317381D02*
X139004475Y-67507857D01*
X139004475Y-67507857D02*
X138956856Y-67603095D01*
X138337808Y-68460238D02*
X138861618Y-68460238D01*
X138861618Y-68460238D02*
X138956856Y-68412619D01*
X138956856Y-68412619D02*
X139004475Y-68317381D01*
X139004475Y-68317381D02*
X139004475Y-68126905D01*
X139004475Y-68126905D02*
X138956856Y-68031667D01*
X138385428Y-68460238D02*
X138337808Y-68365000D01*
X138337808Y-68365000D02*
X138337808Y-68126905D01*
X138337808Y-68126905D02*
X138385428Y-68031667D01*
X138385428Y-68031667D02*
X138480666Y-67984048D01*
X138480666Y-67984048D02*
X138575904Y-67984048D01*
X138575904Y-67984048D02*
X138671142Y-68031667D01*
X138671142Y-68031667D02*
X138718761Y-68126905D01*
X138718761Y-68126905D02*
X138718761Y-68365000D01*
X138718761Y-68365000D02*
X138766380Y-68460238D01*
X138861618Y-70031667D02*
X138813999Y-70174524D01*
X138813999Y-70174524D02*
X138766380Y-70222143D01*
X138766380Y-70222143D02*
X138671142Y-70269762D01*
X138671142Y-70269762D02*
X138528285Y-70269762D01*
X138528285Y-70269762D02*
X138433047Y-70222143D01*
X138433047Y-70222143D02*
X138385428Y-70174524D01*
X138385428Y-70174524D02*
X138337808Y-70079286D01*
X138337808Y-70079286D02*
X138337808Y-69698334D01*
X138337808Y-69698334D02*
X139337808Y-69698334D01*
X139337808Y-69698334D02*
X139337808Y-70031667D01*
X139337808Y-70031667D02*
X139290189Y-70126905D01*
X139290189Y-70126905D02*
X139242570Y-70174524D01*
X139242570Y-70174524D02*
X139147332Y-70222143D01*
X139147332Y-70222143D02*
X139052094Y-70222143D01*
X139052094Y-70222143D02*
X138956856Y-70174524D01*
X138956856Y-70174524D02*
X138909237Y-70126905D01*
X138909237Y-70126905D02*
X138861618Y-70031667D01*
X138861618Y-70031667D02*
X138861618Y-69698334D01*
X138385428Y-71079286D02*
X138337808Y-70984048D01*
X138337808Y-70984048D02*
X138337808Y-70793572D01*
X138337808Y-70793572D02*
X138385428Y-70698334D01*
X138385428Y-70698334D02*
X138480666Y-70650715D01*
X138480666Y-70650715D02*
X138861618Y-70650715D01*
X138861618Y-70650715D02*
X138956856Y-70698334D01*
X138956856Y-70698334D02*
X139004475Y-70793572D01*
X139004475Y-70793572D02*
X139004475Y-70984048D01*
X139004475Y-70984048D02*
X138956856Y-71079286D01*
X138956856Y-71079286D02*
X138861618Y-71126905D01*
X138861618Y-71126905D02*
X138766380Y-71126905D01*
X138766380Y-71126905D02*
X138671142Y-70650715D01*
X139385428Y-70793572D02*
X139242570Y-70936429D01*
X139004475Y-71412620D02*
X139004475Y-71793572D01*
X139337808Y-71555477D02*
X138480666Y-71555477D01*
X138480666Y-71555477D02*
X138385428Y-71603096D01*
X138385428Y-71603096D02*
X138337808Y-71698334D01*
X138337808Y-71698334D02*
X138337808Y-71793572D01*
X138337808Y-72555477D02*
X138861618Y-72555477D01*
X138861618Y-72555477D02*
X138956856Y-72507858D01*
X138956856Y-72507858D02*
X139004475Y-72412620D01*
X139004475Y-72412620D02*
X139004475Y-72222144D01*
X139004475Y-72222144D02*
X138956856Y-72126906D01*
X138385428Y-72555477D02*
X138337808Y-72460239D01*
X138337808Y-72460239D02*
X138337808Y-72222144D01*
X138337808Y-72222144D02*
X138385428Y-72126906D01*
X138385428Y-72126906D02*
X138480666Y-72079287D01*
X138480666Y-72079287D02*
X138575904Y-72079287D01*
X138575904Y-72079287D02*
X138671142Y-72126906D01*
X138671142Y-72126906D02*
X138718761Y-72222144D01*
X138718761Y-72222144D02*
X138718761Y-72460239D01*
X138718761Y-72460239D02*
X138766380Y-72555477D01*
X139337808Y-73650716D02*
X138337808Y-73984049D01*
X138337808Y-73984049D02*
X139337808Y-74317382D01*
X139337808Y-74650716D02*
X138528285Y-74650716D01*
X138528285Y-74650716D02*
X138433047Y-74698335D01*
X138433047Y-74698335D02*
X138385428Y-74745954D01*
X138385428Y-74745954D02*
X138337808Y-74841192D01*
X138337808Y-74841192D02*
X138337808Y-75031668D01*
X138337808Y-75031668D02*
X138385428Y-75126906D01*
X138385428Y-75126906D02*
X138433047Y-75174525D01*
X138433047Y-75174525D02*
X138528285Y-75222144D01*
X138528285Y-75222144D02*
X139337808Y-75222144D01*
X142055280Y-83304286D02*
X143055280Y-83304286D01*
X143055280Y-83304286D02*
X143055280Y-83685238D01*
X143055280Y-83685238D02*
X143007661Y-83780476D01*
X143007661Y-83780476D02*
X142960042Y-83828095D01*
X142960042Y-83828095D02*
X142864804Y-83875714D01*
X142864804Y-83875714D02*
X142721947Y-83875714D01*
X142721947Y-83875714D02*
X142626709Y-83828095D01*
X142626709Y-83828095D02*
X142579090Y-83780476D01*
X142579090Y-83780476D02*
X142531471Y-83685238D01*
X142531471Y-83685238D02*
X142531471Y-83304286D01*
X142055280Y-84875714D02*
X142531471Y-84542381D01*
X142055280Y-84304286D02*
X143055280Y-84304286D01*
X143055280Y-84304286D02*
X143055280Y-84685238D01*
X143055280Y-84685238D02*
X143007661Y-84780476D01*
X143007661Y-84780476D02*
X142960042Y-84828095D01*
X142960042Y-84828095D02*
X142864804Y-84875714D01*
X142864804Y-84875714D02*
X142721947Y-84875714D01*
X142721947Y-84875714D02*
X142626709Y-84828095D01*
X142626709Y-84828095D02*
X142579090Y-84780476D01*
X142579090Y-84780476D02*
X142531471Y-84685238D01*
X142531471Y-84685238D02*
X142531471Y-84304286D01*
X143055280Y-85494762D02*
X143055280Y-85685238D01*
X143055280Y-85685238D02*
X143007661Y-85780476D01*
X143007661Y-85780476D02*
X142912423Y-85875714D01*
X142912423Y-85875714D02*
X142721947Y-85923333D01*
X142721947Y-85923333D02*
X142388614Y-85923333D01*
X142388614Y-85923333D02*
X142198138Y-85875714D01*
X142198138Y-85875714D02*
X142102900Y-85780476D01*
X142102900Y-85780476D02*
X142055280Y-85685238D01*
X142055280Y-85685238D02*
X142055280Y-85494762D01*
X142055280Y-85494762D02*
X142102900Y-85399524D01*
X142102900Y-85399524D02*
X142198138Y-85304286D01*
X142198138Y-85304286D02*
X142388614Y-85256667D01*
X142388614Y-85256667D02*
X142721947Y-85256667D01*
X142721947Y-85256667D02*
X142912423Y-85304286D01*
X142912423Y-85304286D02*
X143007661Y-85399524D01*
X143007661Y-85399524D02*
X143055280Y-85494762D01*
X143007661Y-86875714D02*
X143055280Y-86780476D01*
X143055280Y-86780476D02*
X143055280Y-86637619D01*
X143055280Y-86637619D02*
X143007661Y-86494762D01*
X143007661Y-86494762D02*
X142912423Y-86399524D01*
X142912423Y-86399524D02*
X142817185Y-86351905D01*
X142817185Y-86351905D02*
X142626709Y-86304286D01*
X142626709Y-86304286D02*
X142483852Y-86304286D01*
X142483852Y-86304286D02*
X142293376Y-86351905D01*
X142293376Y-86351905D02*
X142198138Y-86399524D01*
X142198138Y-86399524D02*
X142102900Y-86494762D01*
X142102900Y-86494762D02*
X142055280Y-86637619D01*
X142055280Y-86637619D02*
X142055280Y-86732857D01*
X142055280Y-86732857D02*
X142102900Y-86875714D01*
X142102900Y-86875714D02*
X142150519Y-86923333D01*
X142150519Y-86923333D02*
X142483852Y-86923333D01*
X142483852Y-86923333D02*
X142483852Y-86732857D01*
D13*
X151303855Y-80417380D02*
X150922902Y-80684047D01*
X151303855Y-80874523D02*
X150503855Y-80874523D01*
X150503855Y-80874523D02*
X150503855Y-80569761D01*
X150503855Y-80569761D02*
X150541950Y-80493571D01*
X150541950Y-80493571D02*
X150580045Y-80455476D01*
X150580045Y-80455476D02*
X150656236Y-80417380D01*
X150656236Y-80417380D02*
X150770521Y-80417380D01*
X150770521Y-80417380D02*
X150846712Y-80455476D01*
X150846712Y-80455476D02*
X150884807Y-80493571D01*
X150884807Y-80493571D02*
X150922902Y-80569761D01*
X150922902Y-80569761D02*
X150922902Y-80874523D01*
X151303855Y-80074523D02*
X150503855Y-80074523D01*
X150503855Y-80074523D02*
X151303855Y-79617380D01*
X151303855Y-79617380D02*
X150503855Y-79617380D01*
X150580045Y-79274524D02*
X150541950Y-79236428D01*
X150541950Y-79236428D02*
X150503855Y-79160238D01*
X150503855Y-79160238D02*
X150503855Y-78969762D01*
X150503855Y-78969762D02*
X150541950Y-78893571D01*
X150541950Y-78893571D02*
X150580045Y-78855476D01*
X150580045Y-78855476D02*
X150656236Y-78817381D01*
X150656236Y-78817381D02*
X150732426Y-78817381D01*
X150732426Y-78817381D02*
X150846712Y-78855476D01*
X150846712Y-78855476D02*
X151303855Y-79312619D01*
X151303855Y-79312619D02*
X151303855Y-78817381D01*
X152901667Y-100935164D02*
X152863571Y-100973260D01*
X152863571Y-100973260D02*
X152749286Y-101011355D01*
X152749286Y-101011355D02*
X152673095Y-101011355D01*
X152673095Y-101011355D02*
X152558809Y-100973260D01*
X152558809Y-100973260D02*
X152482619Y-100897069D01*
X152482619Y-100897069D02*
X152444524Y-100820879D01*
X152444524Y-100820879D02*
X152406428Y-100668498D01*
X152406428Y-100668498D02*
X152406428Y-100554212D01*
X152406428Y-100554212D02*
X152444524Y-100401831D01*
X152444524Y-100401831D02*
X152482619Y-100325640D01*
X152482619Y-100325640D02*
X152558809Y-100249450D01*
X152558809Y-100249450D02*
X152673095Y-100211355D01*
X152673095Y-100211355D02*
X152749286Y-100211355D01*
X152749286Y-100211355D02*
X152863571Y-100249450D01*
X152863571Y-100249450D02*
X152901667Y-100287545D01*
X153206428Y-100287545D02*
X153244524Y-100249450D01*
X153244524Y-100249450D02*
X153320714Y-100211355D01*
X153320714Y-100211355D02*
X153511190Y-100211355D01*
X153511190Y-100211355D02*
X153587381Y-100249450D01*
X153587381Y-100249450D02*
X153625476Y-100287545D01*
X153625476Y-100287545D02*
X153663571Y-100363736D01*
X153663571Y-100363736D02*
X153663571Y-100439926D01*
X153663571Y-100439926D02*
X153625476Y-100554212D01*
X153625476Y-100554212D02*
X153168333Y-101011355D01*
X153168333Y-101011355D02*
X153663571Y-101011355D01*
D11*
X175919200Y-70431667D02*
X175957295Y-70317381D01*
X175957295Y-70317381D02*
X175957295Y-70126905D01*
X175957295Y-70126905D02*
X175919200Y-70050714D01*
X175919200Y-70050714D02*
X175881104Y-70012619D01*
X175881104Y-70012619D02*
X175804914Y-69974524D01*
X175804914Y-69974524D02*
X175728723Y-69974524D01*
X175728723Y-69974524D02*
X175652533Y-70012619D01*
X175652533Y-70012619D02*
X175614438Y-70050714D01*
X175614438Y-70050714D02*
X175576342Y-70126905D01*
X175576342Y-70126905D02*
X175538247Y-70279286D01*
X175538247Y-70279286D02*
X175500152Y-70355476D01*
X175500152Y-70355476D02*
X175462057Y-70393571D01*
X175462057Y-70393571D02*
X175385866Y-70431667D01*
X175385866Y-70431667D02*
X175309676Y-70431667D01*
X175309676Y-70431667D02*
X175233485Y-70393571D01*
X175233485Y-70393571D02*
X175195390Y-70355476D01*
X175195390Y-70355476D02*
X175157295Y-70279286D01*
X175157295Y-70279286D02*
X175157295Y-70088809D01*
X175157295Y-70088809D02*
X175195390Y-69974524D01*
X175157295Y-69707857D02*
X175957295Y-69517381D01*
X175957295Y-69517381D02*
X175385866Y-69365000D01*
X175385866Y-69365000D02*
X175957295Y-69212619D01*
X175957295Y-69212619D02*
X175157295Y-69022143D01*
X175157295Y-68793571D02*
X175157295Y-68298333D01*
X175157295Y-68298333D02*
X175462057Y-68564999D01*
X175462057Y-68564999D02*
X175462057Y-68450714D01*
X175462057Y-68450714D02*
X175500152Y-68374523D01*
X175500152Y-68374523D02*
X175538247Y-68336428D01*
X175538247Y-68336428D02*
X175614438Y-68298333D01*
X175614438Y-68298333D02*
X175804914Y-68298333D01*
X175804914Y-68298333D02*
X175881104Y-68336428D01*
X175881104Y-68336428D02*
X175919200Y-68374523D01*
X175919200Y-68374523D02*
X175957295Y-68450714D01*
X175957295Y-68450714D02*
X175957295Y-68679285D01*
X175957295Y-68679285D02*
X175919200Y-68755476D01*
X175919200Y-68755476D02*
X175881104Y-68793571D01*
D13*
X162711667Y-98478855D02*
X162445000Y-98097902D01*
X162254524Y-98478855D02*
X162254524Y-97678855D01*
X162254524Y-97678855D02*
X162559286Y-97678855D01*
X162559286Y-97678855D02*
X162635476Y-97716950D01*
X162635476Y-97716950D02*
X162673571Y-97755045D01*
X162673571Y-97755045D02*
X162711667Y-97831236D01*
X162711667Y-97831236D02*
X162711667Y-97945521D01*
X162711667Y-97945521D02*
X162673571Y-98021712D01*
X162673571Y-98021712D02*
X162635476Y-98059807D01*
X162635476Y-98059807D02*
X162559286Y-98097902D01*
X162559286Y-98097902D02*
X162254524Y-98097902D01*
X162978333Y-97678855D02*
X163473571Y-97678855D01*
X163473571Y-97678855D02*
X163206905Y-97983617D01*
X163206905Y-97983617D02*
X163321190Y-97983617D01*
X163321190Y-97983617D02*
X163397381Y-98021712D01*
X163397381Y-98021712D02*
X163435476Y-98059807D01*
X163435476Y-98059807D02*
X163473571Y-98135998D01*
X163473571Y-98135998D02*
X163473571Y-98326474D01*
X163473571Y-98326474D02*
X163435476Y-98402664D01*
X163435476Y-98402664D02*
X163397381Y-98440760D01*
X163397381Y-98440760D02*
X163321190Y-98478855D01*
X163321190Y-98478855D02*
X163092619Y-98478855D01*
X163092619Y-98478855D02*
X163016428Y-98440760D01*
X163016428Y-98440760D02*
X162978333Y-98402664D01*
X140850582Y-93977761D02*
X140964868Y-94015856D01*
X140964868Y-94015856D02*
X141155344Y-94015856D01*
X141155344Y-94015856D02*
X141231535Y-93977761D01*
X141231535Y-93977761D02*
X141269630Y-93939665D01*
X141269630Y-93939665D02*
X141307725Y-93863475D01*
X141307725Y-93863475D02*
X141307725Y-93787284D01*
X141307725Y-93787284D02*
X141269630Y-93711094D01*
X141269630Y-93711094D02*
X141231535Y-93672999D01*
X141231535Y-93672999D02*
X141155344Y-93634903D01*
X141155344Y-93634903D02*
X141002963Y-93596808D01*
X141002963Y-93596808D02*
X140926773Y-93558713D01*
X140926773Y-93558713D02*
X140888678Y-93520618D01*
X140888678Y-93520618D02*
X140850582Y-93444427D01*
X140850582Y-93444427D02*
X140850582Y-93368237D01*
X140850582Y-93368237D02*
X140888678Y-93292046D01*
X140888678Y-93292046D02*
X140926773Y-93253951D01*
X140926773Y-93253951D02*
X141002963Y-93215856D01*
X141002963Y-93215856D02*
X141193440Y-93215856D01*
X141193440Y-93215856D02*
X141307725Y-93253951D01*
X141574392Y-93215856D02*
X141764868Y-94015856D01*
X141764868Y-94015856D02*
X141917249Y-93444427D01*
X141917249Y-93444427D02*
X142069630Y-94015856D01*
X142069630Y-94015856D02*
X142260107Y-93215856D01*
X142526773Y-93292046D02*
X142564869Y-93253951D01*
X142564869Y-93253951D02*
X142641059Y-93215856D01*
X142641059Y-93215856D02*
X142831535Y-93215856D01*
X142831535Y-93215856D02*
X142907726Y-93253951D01*
X142907726Y-93253951D02*
X142945821Y-93292046D01*
X142945821Y-93292046D02*
X142983916Y-93368237D01*
X142983916Y-93368237D02*
X142983916Y-93444427D01*
X142983916Y-93444427D02*
X142945821Y-93558713D01*
X142945821Y-93558713D02*
X142488678Y-94015856D01*
X142488678Y-94015856D02*
X142983916Y-94015856D01*
X166097024Y-74341355D02*
X166097024Y-73541355D01*
X166097024Y-73541355D02*
X166287500Y-73541355D01*
X166287500Y-73541355D02*
X166401786Y-73579450D01*
X166401786Y-73579450D02*
X166477976Y-73655640D01*
X166477976Y-73655640D02*
X166516071Y-73731831D01*
X166516071Y-73731831D02*
X166554167Y-73884212D01*
X166554167Y-73884212D02*
X166554167Y-73998498D01*
X166554167Y-73998498D02*
X166516071Y-74150879D01*
X166516071Y-74150879D02*
X166477976Y-74227069D01*
X166477976Y-74227069D02*
X166401786Y-74303260D01*
X166401786Y-74303260D02*
X166287500Y-74341355D01*
X166287500Y-74341355D02*
X166097024Y-74341355D01*
X166858928Y-73617545D02*
X166897024Y-73579450D01*
X166897024Y-73579450D02*
X166973214Y-73541355D01*
X166973214Y-73541355D02*
X167163690Y-73541355D01*
X167163690Y-73541355D02*
X167239881Y-73579450D01*
X167239881Y-73579450D02*
X167277976Y-73617545D01*
X167277976Y-73617545D02*
X167316071Y-73693736D01*
X167316071Y-73693736D02*
X167316071Y-73769926D01*
X167316071Y-73769926D02*
X167277976Y-73884212D01*
X167277976Y-73884212D02*
X166820833Y-74341355D01*
X166820833Y-74341355D02*
X167316071Y-74341355D01*
X164754524Y-98728855D02*
X164754524Y-97928855D01*
X164754524Y-97928855D02*
X164945000Y-97928855D01*
X164945000Y-97928855D02*
X165059286Y-97966950D01*
X165059286Y-97966950D02*
X165135476Y-98043140D01*
X165135476Y-98043140D02*
X165173571Y-98119331D01*
X165173571Y-98119331D02*
X165211667Y-98271712D01*
X165211667Y-98271712D02*
X165211667Y-98385998D01*
X165211667Y-98385998D02*
X165173571Y-98538379D01*
X165173571Y-98538379D02*
X165135476Y-98614569D01*
X165135476Y-98614569D02*
X165059286Y-98690760D01*
X165059286Y-98690760D02*
X164945000Y-98728855D01*
X164945000Y-98728855D02*
X164754524Y-98728855D01*
X165973571Y-98728855D02*
X165516428Y-98728855D01*
X165745000Y-98728855D02*
X165745000Y-97928855D01*
X165745000Y-97928855D02*
X165668809Y-98043140D01*
X165668809Y-98043140D02*
X165592619Y-98119331D01*
X165592619Y-98119331D02*
X165516428Y-98157426D01*
X167824167Y-93899355D02*
X167557500Y-93518402D01*
X167367024Y-93899355D02*
X167367024Y-93099355D01*
X167367024Y-93099355D02*
X167671786Y-93099355D01*
X167671786Y-93099355D02*
X167747976Y-93137450D01*
X167747976Y-93137450D02*
X167786071Y-93175545D01*
X167786071Y-93175545D02*
X167824167Y-93251736D01*
X167824167Y-93251736D02*
X167824167Y-93366021D01*
X167824167Y-93366021D02*
X167786071Y-93442212D01*
X167786071Y-93442212D02*
X167747976Y-93480307D01*
X167747976Y-93480307D02*
X167671786Y-93518402D01*
X167671786Y-93518402D02*
X167367024Y-93518402D01*
X168586071Y-93899355D02*
X168128928Y-93899355D01*
X168357500Y-93899355D02*
X168357500Y-93099355D01*
X168357500Y-93099355D02*
X168281309Y-93213640D01*
X168281309Y-93213640D02*
X168205119Y-93289831D01*
X168205119Y-93289831D02*
X168128928Y-93327926D01*
X168482737Y-56562307D02*
X168597023Y-56600402D01*
X168597023Y-56600402D02*
X168635118Y-56638498D01*
X168635118Y-56638498D02*
X168673214Y-56714688D01*
X168673214Y-56714688D02*
X168673214Y-56828974D01*
X168673214Y-56828974D02*
X168635118Y-56905164D01*
X168635118Y-56905164D02*
X168597023Y-56943260D01*
X168597023Y-56943260D02*
X168520833Y-56981355D01*
X168520833Y-56981355D02*
X168216071Y-56981355D01*
X168216071Y-56981355D02*
X168216071Y-56181355D01*
X168216071Y-56181355D02*
X168482737Y-56181355D01*
X168482737Y-56181355D02*
X168558928Y-56219450D01*
X168558928Y-56219450D02*
X168597023Y-56257545D01*
X168597023Y-56257545D02*
X168635118Y-56333736D01*
X168635118Y-56333736D02*
X168635118Y-56409926D01*
X168635118Y-56409926D02*
X168597023Y-56486117D01*
X168597023Y-56486117D02*
X168558928Y-56524212D01*
X168558928Y-56524212D02*
X168482737Y-56562307D01*
X168482737Y-56562307D02*
X168216071Y-56562307D01*
X168939880Y-56181355D02*
X169473214Y-56181355D01*
X169473214Y-56181355D02*
X168939880Y-56981355D01*
X168939880Y-56981355D02*
X169473214Y-56981355D01*
X170197023Y-56981355D02*
X169739880Y-56981355D01*
X169968452Y-56981355D02*
X169968452Y-56181355D01*
X169968452Y-56181355D02*
X169892261Y-56295640D01*
X169892261Y-56295640D02*
X169816071Y-56371831D01*
X169816071Y-56371831D02*
X169739880Y-56409926D01*
D11*
X164996548Y-61351366D02*
X165758453Y-61351366D01*
X165377500Y-61732319D02*
X165377500Y-60970414D01*
D13*
X167824167Y-95486855D02*
X167557500Y-95105902D01*
X167367024Y-95486855D02*
X167367024Y-94686855D01*
X167367024Y-94686855D02*
X167671786Y-94686855D01*
X167671786Y-94686855D02*
X167747976Y-94724950D01*
X167747976Y-94724950D02*
X167786071Y-94763045D01*
X167786071Y-94763045D02*
X167824167Y-94839236D01*
X167824167Y-94839236D02*
X167824167Y-94953521D01*
X167824167Y-94953521D02*
X167786071Y-95029712D01*
X167786071Y-95029712D02*
X167747976Y-95067807D01*
X167747976Y-95067807D02*
X167671786Y-95105902D01*
X167671786Y-95105902D02*
X167367024Y-95105902D01*
X168128928Y-94763045D02*
X168167024Y-94724950D01*
X168167024Y-94724950D02*
X168243214Y-94686855D01*
X168243214Y-94686855D02*
X168433690Y-94686855D01*
X168433690Y-94686855D02*
X168509881Y-94724950D01*
X168509881Y-94724950D02*
X168547976Y-94763045D01*
X168547976Y-94763045D02*
X168586071Y-94839236D01*
X168586071Y-94839236D02*
X168586071Y-94915426D01*
X168586071Y-94915426D02*
X168547976Y-95029712D01*
X168547976Y-95029712D02*
X168090833Y-95486855D01*
X168090833Y-95486855D02*
X168586071Y-95486855D01*
X172453333Y-102751355D02*
X172453333Y-103322783D01*
X172453333Y-103322783D02*
X172415238Y-103437069D01*
X172415238Y-103437069D02*
X172339047Y-103513260D01*
X172339047Y-103513260D02*
X172224762Y-103551355D01*
X172224762Y-103551355D02*
X172148571Y-103551355D01*
X172796190Y-102827545D02*
X172834286Y-102789450D01*
X172834286Y-102789450D02*
X172910476Y-102751355D01*
X172910476Y-102751355D02*
X173100952Y-102751355D01*
X173100952Y-102751355D02*
X173177143Y-102789450D01*
X173177143Y-102789450D02*
X173215238Y-102827545D01*
X173215238Y-102827545D02*
X173253333Y-102903736D01*
X173253333Y-102903736D02*
X173253333Y-102979926D01*
X173253333Y-102979926D02*
X173215238Y-103094212D01*
X173215238Y-103094212D02*
X172758095Y-103551355D01*
X172758095Y-103551355D02*
X173253333Y-103551355D01*
X160070833Y-101989307D02*
X159804167Y-101989307D01*
X159804167Y-102408355D02*
X159804167Y-101608355D01*
X159804167Y-101608355D02*
X160185119Y-101608355D01*
X160908928Y-102408355D02*
X160451785Y-102408355D01*
X160680357Y-102408355D02*
X160680357Y-101608355D01*
X160680357Y-101608355D02*
X160604166Y-101722640D01*
X160604166Y-101722640D02*
X160527976Y-101798831D01*
X160527976Y-101798831D02*
X160451785Y-101836926D01*
X151303855Y-76417380D02*
X150922902Y-76684047D01*
X151303855Y-76874523D02*
X150503855Y-76874523D01*
X150503855Y-76874523D02*
X150503855Y-76569761D01*
X150503855Y-76569761D02*
X150541950Y-76493571D01*
X150541950Y-76493571D02*
X150580045Y-76455476D01*
X150580045Y-76455476D02*
X150656236Y-76417380D01*
X150656236Y-76417380D02*
X150770521Y-76417380D01*
X150770521Y-76417380D02*
X150846712Y-76455476D01*
X150846712Y-76455476D02*
X150884807Y-76493571D01*
X150884807Y-76493571D02*
X150922902Y-76569761D01*
X150922902Y-76569761D02*
X150922902Y-76874523D01*
X151303855Y-76074523D02*
X150503855Y-76074523D01*
X150503855Y-76074523D02*
X151303855Y-75617380D01*
X151303855Y-75617380D02*
X150503855Y-75617380D01*
X151303855Y-74817381D02*
X151303855Y-75274524D01*
X151303855Y-75045952D02*
X150503855Y-75045952D01*
X150503855Y-75045952D02*
X150618140Y-75122143D01*
X150618140Y-75122143D02*
X150694331Y-75198333D01*
X150694331Y-75198333D02*
X150732426Y-75274524D01*
X161528332Y-107690760D02*
X161642618Y-107728855D01*
X161642618Y-107728855D02*
X161833094Y-107728855D01*
X161833094Y-107728855D02*
X161909285Y-107690760D01*
X161909285Y-107690760D02*
X161947380Y-107652664D01*
X161947380Y-107652664D02*
X161985475Y-107576474D01*
X161985475Y-107576474D02*
X161985475Y-107500283D01*
X161985475Y-107500283D02*
X161947380Y-107424093D01*
X161947380Y-107424093D02*
X161909285Y-107385998D01*
X161909285Y-107385998D02*
X161833094Y-107347902D01*
X161833094Y-107347902D02*
X161680713Y-107309807D01*
X161680713Y-107309807D02*
X161604523Y-107271712D01*
X161604523Y-107271712D02*
X161566428Y-107233617D01*
X161566428Y-107233617D02*
X161528332Y-107157426D01*
X161528332Y-107157426D02*
X161528332Y-107081236D01*
X161528332Y-107081236D02*
X161566428Y-107005045D01*
X161566428Y-107005045D02*
X161604523Y-106966950D01*
X161604523Y-106966950D02*
X161680713Y-106928855D01*
X161680713Y-106928855D02*
X161871190Y-106928855D01*
X161871190Y-106928855D02*
X161985475Y-106966950D01*
X162252142Y-106928855D02*
X162442618Y-107728855D01*
X162442618Y-107728855D02*
X162594999Y-107157426D01*
X162594999Y-107157426D02*
X162747380Y-107728855D01*
X162747380Y-107728855D02*
X162937857Y-106928855D01*
X163661666Y-107728855D02*
X163204523Y-107728855D01*
X163433095Y-107728855D02*
X163433095Y-106928855D01*
X163433095Y-106928855D02*
X163356904Y-107043140D01*
X163356904Y-107043140D02*
X163280714Y-107119331D01*
X163280714Y-107119331D02*
X163204523Y-107157426D01*
X153854167Y-98395164D02*
X153816071Y-98433260D01*
X153816071Y-98433260D02*
X153701786Y-98471355D01*
X153701786Y-98471355D02*
X153625595Y-98471355D01*
X153625595Y-98471355D02*
X153511309Y-98433260D01*
X153511309Y-98433260D02*
X153435119Y-98357069D01*
X153435119Y-98357069D02*
X153397024Y-98280879D01*
X153397024Y-98280879D02*
X153358928Y-98128498D01*
X153358928Y-98128498D02*
X153358928Y-98014212D01*
X153358928Y-98014212D02*
X153397024Y-97861831D01*
X153397024Y-97861831D02*
X153435119Y-97785640D01*
X153435119Y-97785640D02*
X153511309Y-97709450D01*
X153511309Y-97709450D02*
X153625595Y-97671355D01*
X153625595Y-97671355D02*
X153701786Y-97671355D01*
X153701786Y-97671355D02*
X153816071Y-97709450D01*
X153816071Y-97709450D02*
X153854167Y-97747545D01*
X154616071Y-98471355D02*
X154158928Y-98471355D01*
X154387500Y-98471355D02*
X154387500Y-97671355D01*
X154387500Y-97671355D02*
X154311309Y-97785640D01*
X154311309Y-97785640D02*
X154235119Y-97861831D01*
X154235119Y-97861831D02*
X154158928Y-97899926D01*
X166554167Y-77198855D02*
X166287500Y-76817902D01*
X166097024Y-77198855D02*
X166097024Y-76398855D01*
X166097024Y-76398855D02*
X166401786Y-76398855D01*
X166401786Y-76398855D02*
X166477976Y-76436950D01*
X166477976Y-76436950D02*
X166516071Y-76475045D01*
X166516071Y-76475045D02*
X166554167Y-76551236D01*
X166554167Y-76551236D02*
X166554167Y-76665521D01*
X166554167Y-76665521D02*
X166516071Y-76741712D01*
X166516071Y-76741712D02*
X166477976Y-76779807D01*
X166477976Y-76779807D02*
X166401786Y-76817902D01*
X166401786Y-76817902D02*
X166097024Y-76817902D01*
X167239881Y-76665521D02*
X167239881Y-77198855D01*
X167049405Y-76360760D02*
X166858928Y-76932188D01*
X166858928Y-76932188D02*
X167354167Y-76932188D01*
X151963855Y-92049523D02*
X152611474Y-92049523D01*
X152611474Y-92049523D02*
X152687664Y-92011428D01*
X152687664Y-92011428D02*
X152725760Y-91973333D01*
X152725760Y-91973333D02*
X152763855Y-91897142D01*
X152763855Y-91897142D02*
X152763855Y-91744761D01*
X152763855Y-91744761D02*
X152725760Y-91668571D01*
X152725760Y-91668571D02*
X152687664Y-91630476D01*
X152687664Y-91630476D02*
X152611474Y-91592380D01*
X152611474Y-91592380D02*
X151963855Y-91592380D01*
X152763855Y-90792381D02*
X152763855Y-91249524D01*
X152763855Y-91020952D02*
X151963855Y-91020952D01*
X151963855Y-91020952D02*
X152078140Y-91097143D01*
X152078140Y-91097143D02*
X152154331Y-91173333D01*
X152154331Y-91173333D02*
X152192426Y-91249524D01*
X160235476Y-83701355D02*
X160235476Y-84348974D01*
X160235476Y-84348974D02*
X160273571Y-84425164D01*
X160273571Y-84425164D02*
X160311666Y-84463260D01*
X160311666Y-84463260D02*
X160387857Y-84501355D01*
X160387857Y-84501355D02*
X160540238Y-84501355D01*
X160540238Y-84501355D02*
X160616428Y-84463260D01*
X160616428Y-84463260D02*
X160654523Y-84425164D01*
X160654523Y-84425164D02*
X160692619Y-84348974D01*
X160692619Y-84348974D02*
X160692619Y-83701355D01*
X161035475Y-83777545D02*
X161073571Y-83739450D01*
X161073571Y-83739450D02*
X161149761Y-83701355D01*
X161149761Y-83701355D02*
X161340237Y-83701355D01*
X161340237Y-83701355D02*
X161416428Y-83739450D01*
X161416428Y-83739450D02*
X161454523Y-83777545D01*
X161454523Y-83777545D02*
X161492618Y-83853736D01*
X161492618Y-83853736D02*
X161492618Y-83929926D01*
X161492618Y-83929926D02*
X161454523Y-84044212D01*
X161454523Y-84044212D02*
X160997380Y-84501355D01*
X160997380Y-84501355D02*
X161492618Y-84501355D01*
%TO.C,D3*%
X147610000Y-56737500D02*
X147610000Y-56581500D01*
X147610000Y-59053500D02*
X147610000Y-58897500D01*
X144378563Y-56737500D02*
G75*
G02*
X147610000Y-56581984I1671437J-1080000D01*
G01*
X145009039Y-56737500D02*
G75*
G02*
X147090961Y-56737500I1040961J-1080000D01*
G01*
X147090961Y-58897500D02*
G75*
G02*
X145009039Y-58897500I-1040961J1080000D01*
G01*
X147610000Y-59053016D02*
G75*
G02*
X144378563Y-58897500I-1560000J1235516D01*
G01*
%TO.C,RN2*%
X152345000Y-78185000D02*
X153345000Y-78185000D01*
X152345000Y-81545000D02*
X153345000Y-81545000D01*
%TO.C,C2*%
X154610000Y-101602500D02*
X158530000Y-101602500D01*
X158530000Y-99692500D02*
X154610000Y-99692500D01*
X158530000Y-101602500D02*
X158530000Y-99692500D01*
%TO.C,D7*%
X159675000Y-56705000D02*
X159675000Y-56549000D01*
X159675000Y-59021000D02*
X159675000Y-58865000D01*
X156443563Y-56705000D02*
G75*
G02*
X159675000Y-56549484I1671437J-1080000D01*
G01*
X157074039Y-56705000D02*
G75*
G02*
X159155961Y-56705000I1040961J-1080000D01*
G01*
X159155961Y-58865000D02*
G75*
G02*
X157074039Y-58865000I-1040961J1080000D01*
G01*
X159675000Y-59020516D02*
G75*
G02*
X156443563Y-58865000I-1560000J1235516D01*
G01*
%TO.C,D5*%
X147579257Y-68737500D02*
X147579257Y-68581500D01*
X147579257Y-71053500D02*
X147579257Y-70897500D01*
X144347820Y-68737500D02*
G75*
G02*
X147579257Y-68581984I1671437J-1080000D01*
G01*
X144978296Y-68737500D02*
G75*
G02*
X147060218Y-68737500I1040961J-1080000D01*
G01*
X147060218Y-70897500D02*
G75*
G02*
X144978296Y-70897500I-1040961J1080000D01*
G01*
X147579257Y-71053016D02*
G75*
G02*
X144347820Y-70897500I-1560000J1235516D01*
G01*
%TO.C,SW3*%
X171990000Y-71035000D02*
X175990000Y-71035000D01*
X175990000Y-82635000D01*
X171990000Y-82635000D01*
X171990000Y-71035000D01*
%TO.C,D6*%
X153642500Y-62737500D02*
X153642500Y-62581500D01*
X153642500Y-65053500D02*
X153642500Y-64897500D01*
X150411063Y-62737500D02*
G75*
G02*
X153642500Y-62581984I1671437J-1080000D01*
G01*
X151041539Y-62737500D02*
G75*
G02*
X153123461Y-62737500I1040961J-1080000D01*
G01*
X153123461Y-64897500D02*
G75*
G02*
X151041539Y-64897500I-1040961J1080000D01*
G01*
X153642500Y-65053016D02*
G75*
G02*
X150411063Y-64897500I-1560000J1235516D01*
G01*
%TO.C,J1*%
X138320000Y-89595000D02*
X138320000Y-76785000D01*
X141080000Y-76785000D02*
X138320000Y-76785000D01*
X141080000Y-89595000D02*
X138320000Y-89595000D01*
X141080000Y-89595000D02*
X141080000Y-76785000D01*
X141080000Y-90865000D02*
X141080000Y-92245000D01*
X141080000Y-92245000D02*
X139700000Y-92245000D01*
%TO.C,R3*%
X160100242Y-97585000D02*
X160574758Y-97585000D01*
X160100242Y-98630000D02*
X160574758Y-98630000D01*
%TO.C,SW2*%
X139305000Y-94537500D02*
X139305000Y-97047500D01*
X139305000Y-94537500D02*
X151525000Y-94537500D01*
X139305000Y-99347500D02*
X139305000Y-101947500D01*
X139305000Y-104247500D02*
X139305000Y-106757500D01*
X151525000Y-94537500D02*
X151525000Y-97047500D01*
X151525000Y-99347500D02*
X151525000Y-101947500D01*
X151525000Y-104247500D02*
X151525000Y-106757500D01*
X151525000Y-106757500D02*
X139305000Y-106757500D01*
%TO.C,D2*%
X167667500Y-73067500D02*
X167717500Y-73067500D01*
X167667500Y-74887500D02*
X167667500Y-73067500D01*
X168667500Y-74887500D02*
X167667500Y-74887500D01*
X168837500Y-73067500D02*
X169617500Y-73067500D01*
X170737500Y-73067500D02*
X170787500Y-73067500D01*
X170787500Y-73067500D02*
X170787500Y-74887500D01*
X170787500Y-74887500D02*
X169787500Y-74887500D01*
X169607500Y-72527500D02*
X169277500Y-72767500D01*
X169277500Y-72287500D01*
X169607500Y-72527500D01*
G36*
X169607500Y-72527500D02*
G01*
X169277500Y-72767500D01*
X169277500Y-72287500D01*
X169607500Y-72527500D01*
G37*
%TO.C,D4*%
X147610000Y-62737500D02*
X147610000Y-62581500D01*
X147610000Y-65053500D02*
X147610000Y-64897500D01*
X144378563Y-62737500D02*
G75*
G02*
X147610000Y-62581984I1671437J-1080000D01*
G01*
X145009039Y-62737500D02*
G75*
G02*
X147090961Y-62737500I1040961J-1080000D01*
G01*
X147090961Y-64897500D02*
G75*
G02*
X145009039Y-64897500I-1040961J1080000D01*
G01*
X147610000Y-65053016D02*
G75*
G02*
X144378563Y-64897500I-1560000J1235516D01*
G01*
%TO.C,D1*%
X162225000Y-98997500D02*
X162225000Y-102297500D01*
X162225000Y-98997500D02*
X167735000Y-98997500D01*
X162225000Y-102297500D02*
X167735000Y-102297500D01*
%TO.C,R1*%
X168131258Y-96061000D02*
X167656742Y-96061000D01*
X168131258Y-97106000D02*
X167656742Y-97106000D01*
%TO.C,BZ1*%
X175687500Y-63817500D02*
G75*
G02*
X162687500Y-63817500I-6500000J0D01*
G01*
X162687500Y-63817500D02*
G75*
G02*
X175687500Y-63817500I6500000J0D01*
G01*
%TO.C,D8*%
X159675000Y-62737500D02*
X159675000Y-62581500D01*
X159675000Y-65053500D02*
X159675000Y-64897500D01*
X156443563Y-62737500D02*
G75*
G02*
X159675000Y-62581984I1671437J-1080000D01*
G01*
X157074039Y-62737500D02*
G75*
G02*
X159155961Y-62737500I1040961J-1080000D01*
G01*
X159155961Y-64897500D02*
G75*
G02*
X157074039Y-64897500I-1040961J1080000D01*
G01*
X159675000Y-65053016D02*
G75*
G02*
X156443563Y-64897500I-1560000J1235516D01*
G01*
%TO.C,R2*%
X168131258Y-97585000D02*
X167656742Y-97585000D01*
X168131258Y-98630000D02*
X167656742Y-98630000D01*
%TO.C,D9*%
X159675000Y-68770000D02*
X159675000Y-68614000D01*
X159675000Y-71086000D02*
X159675000Y-70930000D01*
X156443563Y-68770000D02*
G75*
G02*
X159675000Y-68614484I1671437J-1080000D01*
G01*
X157074039Y-68770000D02*
G75*
G02*
X159155961Y-68770000I1040961J-1080000D01*
G01*
X159155961Y-70930000D02*
G75*
G02*
X157074039Y-70930000I-1040961J1080000D01*
G01*
X159675000Y-71085516D02*
G75*
G02*
X156443563Y-70930000I-1560000J1235516D01*
G01*
%TO.C,J2*%
X173536800Y-92825900D02*
X171836800Y-92825900D01*
X173536800Y-102165900D02*
X171836800Y-102165900D01*
%TO.C,F1*%
X160596078Y-99937500D02*
X160078922Y-99937500D01*
X160596078Y-101357500D02*
X160078922Y-101357500D01*
%TO.C,RN1*%
X153345000Y-74185000D02*
X152345000Y-74185000D01*
X153345000Y-77545000D02*
X152345000Y-77545000D01*
%TO.C,J3*%
X172292500Y-83710000D02*
X173672500Y-83710000D01*
X172292500Y-85090000D02*
X172292500Y-83710000D01*
X172292500Y-86360000D02*
X172292500Y-91550000D01*
X172292500Y-86360000D02*
X175052500Y-86360000D01*
X172292500Y-91550000D02*
X175052500Y-91550000D01*
X175052500Y-86360000D02*
X175052500Y-91550000D01*
%TO.C,SW1*%
X156760000Y-102457500D02*
X168360000Y-102457500D01*
X168360000Y-106457500D01*
X156760000Y-106457500D01*
X156760000Y-102457500D01*
%TO.C,C1*%
X156350580Y-97597500D02*
X156069420Y-97597500D01*
X156350580Y-98617500D02*
X156069420Y-98617500D01*
%TO.C,R4*%
X168990242Y-76312500D02*
X169464758Y-76312500D01*
X168990242Y-77357500D02*
X169464758Y-77357500D01*
%TO.C,U1*%
X154880000Y-89190000D02*
X154880000Y-90440000D01*
X154880000Y-92440000D02*
X154880000Y-93690000D01*
X154880000Y-93690000D02*
X165160000Y-93690000D01*
X165160000Y-89190000D02*
X154880000Y-89190000D01*
X165160000Y-93690000D02*
X165160000Y-89190000D01*
X154820000Y-86190000D02*
X165220000Y-86190000D01*
X165220000Y-96690000D01*
X154820000Y-96690000D01*
X154820000Y-86190000D01*
X154880000Y-90440000D02*
G75*
G02*
X154880000Y-92440000I0J-1000000D01*
G01*
%TO.C,U2*%
X158785000Y-74305000D02*
X162905000Y-74305000D01*
X158785000Y-74370000D02*
X158785000Y-74305000D01*
X158785000Y-83175000D02*
X158785000Y-83110000D01*
X162905000Y-74305000D02*
X162905000Y-74370000D01*
X162905000Y-83110000D02*
X162905000Y-83175000D01*
X162905000Y-83175000D02*
X158785000Y-83175000D01*
X163445000Y-83110000D02*
X163685000Y-83440000D01*
X163205000Y-83440000D01*
X163445000Y-83110000D01*
G36*
X163685000Y-83440000D02*
G01*
X163205000Y-83440000D01*
X163445000Y-83110000D01*
X163685000Y-83440000D01*
G37*
%TD*%
M02*
