%TF.GenerationSoftware,KiCad,Pcbnew,10.0.6*%
%TF.CreationDate,2026-10-02T15:37:49+02:00*%
%TF.ProjectId,pdice-04,70646963-652d-4303-942e-6b696361645f,rev?*%
%TF.SameCoordinates,Original*%
%TF.FileFunction,Soldermask,Bot*%
%TF.FilePolarity,Negative*%
%FSLAX46Y46*%
G04 Gerber Fmt 4.6, Leading zero omitted, Abs format (unit mm)*
G04 Created by KiCad (PCBNEW 10.0.6) date 2026-10-02 15:37:49*
%MOMM*%
%LPD*%
G01*
G04 APERTURE LIST*
G04 Aperture macros list*
%AMRoundRect*
0 Rectangle with rounded corners*
0 $1 Rounding radius*
0 $2 $3 $4 $5 $6 $7 $8 $9 X,Y pos of 4 corners*
0 Add a 4 corners polygon primitive as box body*
4,1,4,$2,$3,$4,$5,$6,$7,$8,$9,$2,$3,0*
0 Add four circle primitives for the rounded corners*
1,1,$1+$1,$2,$3*
1,1,$1+$1,$4,$5*
1,1,$1+$1,$6,$7*
1,1,$1+$1,$8,$9*
0 Add four rect primitives between the rounded corners*
20,1,$1+$1,$2,$3,$4,$5,0*
20,1,$1+$1,$4,$5,$6,$7,0*
20,1,$1+$1,$6,$7,$8,$9,0*
20,1,$1+$1,$8,$9,$2,$3,0*%
G04 Aperture macros list end*
%ADD10R,1.800000X1.800000*%
%ADD11C,1.800000*%
%ADD12C,2.000000*%
%ADD13R,2.000000X2.000000*%
%ADD14R,1.700000X1.700000*%
%ADD15C,1.700000*%
%ADD16O,2.900000X1.700000*%
%ADD17R,2.500000X2.500000*%
%ADD18C,2.500000*%
%ADD19O,1.700000X1.100000*%
%ADD20RoundRect,0.250000X0.550000X-0.950000X0.550000X0.950000X-0.550000X0.950000X-0.550000X-0.950000X0*%
%ADD21O,1.600000X2.400000*%
%ADD22C,2.540000*%
G04 APERTURE END LIST*
D10*
%TO.C,D3*%
X147320000Y-57817500D03*
D11*
X144780000Y-57817500D03*
%TD*%
D10*
%TO.C,D7*%
X159385000Y-57785000D03*
D11*
X156845000Y-57785000D03*
%TD*%
D10*
%TO.C,D5*%
X147289257Y-69817500D03*
D11*
X144749257Y-69817500D03*
%TD*%
D12*
%TO.C,SW3*%
X173990000Y-74335000D03*
D13*
X173990000Y-76835000D03*
D12*
X173990000Y-79335000D03*
%TD*%
D10*
%TO.C,D6*%
X153352500Y-63817500D03*
D11*
X150812500Y-63817500D03*
%TD*%
D14*
%TO.C,J1*%
X139700000Y-90865000D03*
D15*
X139700000Y-88325000D03*
X139700000Y-85785000D03*
X139700000Y-83245000D03*
X139700000Y-80705000D03*
X139700000Y-78165000D03*
%TD*%
D11*
%TO.C,SW2*%
X145415000Y-96147500D03*
X145415000Y-105147500D03*
D16*
X139165000Y-98147500D03*
X151665000Y-98147500D03*
X139165000Y-103147500D03*
X151665000Y-103147500D03*
%TD*%
D10*
%TO.C,D4*%
X147320000Y-63817500D03*
D11*
X144780000Y-63817500D03*
%TD*%
D17*
%TO.C,BZ1*%
X166687500Y-63817500D03*
D18*
X171687500Y-63817500D03*
%TD*%
D10*
%TO.C,D8*%
X159385000Y-63817500D03*
D11*
X156845000Y-63817500D03*
%TD*%
D10*
%TO.C,D9*%
X159385000Y-69850000D03*
D11*
X156845000Y-69850000D03*
%TD*%
D19*
%TO.C,J2*%
X170786800Y-101815900D03*
X174586800Y-101815900D03*
X170786800Y-93175900D03*
X174586800Y-93175900D03*
%TD*%
D14*
%TO.C,J3*%
X173672500Y-85090000D03*
D15*
X173672500Y-87630000D03*
X173672500Y-90170000D03*
%TD*%
D12*
%TO.C,SW1*%
X160060000Y-104457500D03*
D13*
X162560000Y-104457500D03*
D12*
X165060000Y-104457500D03*
%TD*%
D20*
%TO.C,U1*%
X156210000Y-95250000D03*
D21*
X158750000Y-95250000D03*
X161290000Y-95250000D03*
X163830000Y-95250000D03*
X163830000Y-87630000D03*
X161290000Y-87630000D03*
X158750000Y-87630000D03*
X156210000Y-87630000D03*
%TD*%
D22*
%TO.C,BAT1*%
X168845000Y-80645000D03*
X144845000Y-80645000D03*
X168845000Y-104365000D03*
X156145000Y-104365000D03*
%TD*%
M02*
