M48
; DRILL file KiCad 10.0.6 date 2026-10-02T15:37:52
; FORMAT={-:-/ absolute / metric / decimal}
; #@! TF.CreationDate,2026-10-02T15:37:52+02:00
; #@! TF.GenerationSoftware,Kicad,Pcbnew,10.0.6
; #@! TF.FileFunction,Plated,1,2,PTH
FMAT,2
METRIC
; #@! TA.AperFunction,Plated,PTH,ViaDrill
T1C0.500
; #@! TA.AperFunction,Plated,PTH,ComponentDrill
T2C0.600
; #@! TA.AperFunction,Plated,PTH,ComponentDrill
T3C0.800
; #@! TA.AperFunction,Plated,PTH,ComponentDrill
T4C0.900
; #@! TA.AperFunction,Plated,PTH,ComponentDrill
T5C1.000
; #@! TA.AperFunction,Plated,PTH,ComponentDrill
T6C1.200
%
G90
G05
T1
X156.422Y-75.942
X157.48Y-85.725
X162.56Y-85.725
X166.052Y-87.63
X166.37Y-74.93
T3
X156.21Y-87.63
X156.21Y-95.25
X158.75Y-87.63
X158.75Y-95.25
X161.29Y-87.63
X161.29Y-95.25
X163.83Y-87.63
X163.83Y-95.25
T4
X144.749Y-69.817
X144.78Y-57.817
X144.78Y-63.817
X147.289Y-69.817
X147.32Y-57.817
X147.32Y-63.817
X150.812Y-63.817
X153.352Y-63.817
X156.845Y-57.785
X156.845Y-63.817
X156.845Y-69.85
X159.385Y-57.785
X159.385Y-63.817
X159.385Y-69.85
T5
X139.7Y-78.165
X139.7Y-80.705
X139.7Y-83.245
X139.7Y-85.785
X139.7Y-88.325
X139.7Y-90.865
X156.145Y-104.365
X160.06Y-104.457
X162.56Y-104.457
X165.06Y-104.457
X166.688Y-63.817
X168.845Y-104.365
X171.688Y-63.817
X173.672Y-85.09
X173.672Y-87.63
X173.672Y-90.17
X173.99Y-74.335
X173.99Y-76.835
X173.99Y-79.335
T6
X139.165Y-98.147
X139.165Y-103.147
X151.665Y-98.147
X151.665Y-103.147
T2
G00X170.487Y-93.176
M15
G01X171.087Y-93.176
M16
G05
G00X170.487Y-101.816
M15
G01X171.087Y-101.816
M16
G05
G00X174.287Y-93.176
M15
G01X174.887Y-93.176
M16
G05
G00X174.287Y-101.816
M15
G01X174.887Y-101.816
M16
G05
M30
