%TF.GenerationSoftware,KiCad,Pcbnew,10.0.6*%
%TF.CreationDate,2026-10-02T15:37:49+02:00*%
%TF.ProjectId,pdice-04,70646963-652d-4303-942e-6b696361645f,rev?*%
%TF.SameCoordinates,Original*%
%TF.FileFunction,Soldermask,Top*%
%TF.FilePolarity,Negative*%
%FSLAX46Y46*%
G04 Gerber Fmt 4.6, Leading zero omitted, Abs format (unit mm)*
G04 Created by KiCad (PCBNEW 10.0.6) date 2026-10-02 15:37:49*
%MOMM*%
%LPD*%
G01*
G04 APERTURE LIST*
G04 Aperture macros list*
%AMRoundRect*
0 Rectangle with rounded corners*
0 $1 Rounding radius*
0 $2 $3 $4 $5 $6 $7 $8 $9 X,Y pos of 4 corners*
0 Add a 4 corners polygon primitive as box body*
4,1,4,$2,$3,$4,$5,$6,$7,$8,$9,$2,$3,0*
0 Add four circle primitives for the rounded corners*
1,1,$1+$1,$2,$3*
1,1,$1+$1,$4,$5*
1,1,$1+$1,$6,$7*
1,1,$1+$1,$8,$9*
0 Add four rect primitives between the rounded corners*
20,1,$1+$1,$2,$3,$4,$5,0*
20,1,$1+$1,$4,$5,$6,$7,0*
20,1,$1+$1,$6,$7,$8,$9,0*
20,1,$1+$1,$8,$9,$2,$3,0*%
G04 Aperture macros list end*
%ADD10C,0.010000*%
%ADD11R,1.800000X1.800000*%
%ADD12C,1.800000*%
%ADD13R,0.700000X0.640000*%
%ADD14R,0.700000X0.500000*%
%ADD15RoundRect,0.250000X0.457500X0.445000X-0.457500X0.445000X-0.457500X-0.445000X0.457500X-0.445000X0*%
%ADD16C,2.000000*%
%ADD17R,2.000000X2.000000*%
%ADD18R,1.700000X1.700000*%
%ADD19C,1.700000*%
%ADD20RoundRect,0.200000X-0.200000X-0.275000X0.200000X-0.275000X0.200000X0.275000X-0.200000X0.275000X0*%
%ADD21O,2.900000X1.700000*%
%ADD22RoundRect,0.150000X-0.150000X0.512500X-0.150000X-0.512500X0.150000X-0.512500X0.150000X0.512500X0*%
%ADD23RoundRect,0.250000X-1.000000X-0.650000X1.000000X-0.650000X1.000000X0.650000X-1.000000X0.650000X0*%
%ADD24RoundRect,0.200000X0.200000X0.275000X-0.200000X0.275000X-0.200000X-0.275000X0.200000X-0.275000X0*%
%ADD25R,2.500000X2.500000*%
%ADD26C,2.500000*%
%ADD27RoundRect,0.175000X0.425000X-0.175000X0.425000X0.175000X-0.425000X0.175000X-0.425000X-0.175000X0*%
%ADD28RoundRect,0.190000X-0.410000X0.190000X-0.410000X-0.190000X0.410000X-0.190000X0.410000X0.190000X0*%
%ADD29RoundRect,0.200000X-0.400000X0.200000X-0.400000X-0.200000X0.400000X-0.200000X0.400000X0.200000X0*%
%ADD30RoundRect,0.175000X-0.425000X0.175000X-0.425000X-0.175000X0.425000X-0.175000X0.425000X0.175000X0*%
%ADD31RoundRect,0.190000X0.410000X-0.190000X0.410000X0.190000X-0.410000X0.190000X-0.410000X-0.190000X0*%
%ADD32RoundRect,0.200000X0.400000X-0.200000X0.400000X0.200000X-0.400000X0.200000X-0.400000X-0.200000X0*%
%ADD33O,1.700000X1.100000*%
%ADD34RoundRect,0.243750X0.243750X0.456250X-0.243750X0.456250X-0.243750X-0.456250X0.243750X-0.456250X0*%
%ADD35RoundRect,0.225000X0.225000X0.250000X-0.225000X0.250000X-0.225000X-0.250000X0.225000X-0.250000X0*%
%ADD36RoundRect,0.250000X0.550000X-0.950000X0.550000X0.950000X-0.550000X0.950000X-0.550000X-0.950000X0*%
%ADD37O,1.600000X2.400000*%
%ADD38RoundRect,0.150000X0.825000X0.150000X-0.825000X0.150000X-0.825000X-0.150000X0.825000X-0.150000X0*%
%ADD39C,2.540000*%
G04 APERTURE END LIST*
D10*
%TO.C,LOGO1*%
X146024550Y-89147918D02*
X146043650Y-89159182D01*
X146066946Y-89178926D01*
X146076904Y-89195567D01*
X146071856Y-89237131D01*
X146051606Y-89266656D01*
X146021944Y-89280651D01*
X145988658Y-89275624D01*
X145968357Y-89261042D01*
X145950018Y-89227315D01*
X145953508Y-89191026D01*
X145977831Y-89160762D01*
X145980150Y-89159182D01*
X146005006Y-89145744D01*
X146024550Y-89147918D01*
G36*
X146024550Y-89147918D02*
G01*
X146043650Y-89159182D01*
X146066946Y-89178926D01*
X146076904Y-89195567D01*
X146071856Y-89237131D01*
X146051606Y-89266656D01*
X146021944Y-89280651D01*
X145988658Y-89275624D01*
X145968357Y-89261042D01*
X145950018Y-89227315D01*
X145953508Y-89191026D01*
X145977831Y-89160762D01*
X145980150Y-89159182D01*
X146005006Y-89145744D01*
X146024550Y-89147918D01*
G37*
X149211375Y-90650066D02*
X149258077Y-90658998D01*
X149295162Y-90674289D01*
X149334451Y-90700779D01*
X149380362Y-90740341D01*
X149425338Y-90785559D01*
X149461820Y-90829018D01*
X149477721Y-90853411D01*
X149490003Y-90869413D01*
X149509697Y-90877839D01*
X149544060Y-90880940D01*
X149567229Y-90881200D01*
X149704865Y-90892301D01*
X149833803Y-90924543D01*
X149951821Y-90976330D01*
X150056696Y-91046068D01*
X150146204Y-91132162D01*
X150218124Y-91233019D01*
X150270231Y-91347043D01*
X150285053Y-91396077D01*
X150299867Y-91483657D01*
X150303904Y-91584355D01*
X150297312Y-91688357D01*
X150280239Y-91785850D01*
X150279109Y-91790393D01*
X150234077Y-91926605D01*
X150172758Y-92043523D01*
X150095252Y-92141009D01*
X150001662Y-92218927D01*
X149931667Y-92259304D01*
X149802061Y-92309209D01*
X149665236Y-92335641D01*
X149522617Y-92339007D01*
X149375624Y-92319719D01*
X149225680Y-92278187D01*
X149074210Y-92214820D01*
X148922634Y-92130030D01*
X148772376Y-92024226D01*
X148624858Y-91897818D01*
X148601776Y-91875873D01*
X148489098Y-91767252D01*
X148526717Y-91870331D01*
X148545264Y-91925928D01*
X148562922Y-91989575D01*
X148580415Y-92064656D01*
X148598468Y-92154553D01*
X148617806Y-92262652D01*
X148639153Y-92392334D01*
X148641017Y-92404044D01*
X148659872Y-92510973D01*
X148679715Y-92595469D01*
X148702232Y-92660488D01*
X148729110Y-92708988D01*
X148762034Y-92743924D01*
X148802692Y-92768254D01*
X148852770Y-92784935D01*
X148859132Y-92786479D01*
X148923281Y-92805414D01*
X148977636Y-92828751D01*
X149016601Y-92853731D01*
X149032403Y-92871966D01*
X149047503Y-92916477D01*
X149052789Y-92974817D01*
X149048396Y-93050713D01*
X149040972Y-93107554D01*
X149025142Y-93191761D01*
X149001553Y-93283357D01*
X148969287Y-93384899D01*
X148927424Y-93498944D01*
X148875046Y-93628050D01*
X148811233Y-93774773D01*
X148762833Y-93881575D01*
X148717641Y-93980000D01*
X148197592Y-93980000D01*
X148166695Y-93938725D01*
X148121733Y-93865783D01*
X148095070Y-93793526D01*
X148087473Y-93725971D01*
X148099708Y-93667133D01*
X148110867Y-93646104D01*
X148132849Y-93623425D01*
X148163420Y-93613081D01*
X148206110Y-93615148D01*
X148264451Y-93629702D01*
X148325608Y-93650698D01*
X148391798Y-93673876D01*
X148440320Y-93686519D01*
X148476709Y-93688421D01*
X148506503Y-93679377D01*
X148535239Y-93659181D01*
X148553654Y-93642225D01*
X148611177Y-93571371D01*
X148657398Y-93484052D01*
X148689271Y-93387824D01*
X148703750Y-93290244D01*
X148704300Y-93268467D01*
X148702056Y-93239989D01*
X148692807Y-93217924D01*
X148672777Y-93199507D01*
X148638188Y-93181972D01*
X148585264Y-93162556D01*
X148539200Y-93147603D01*
X148438732Y-93111967D01*
X148355854Y-93072863D01*
X148282779Y-93025660D01*
X148211723Y-92965728D01*
X148177250Y-92932287D01*
X148123626Y-92875315D01*
X148075056Y-92816134D01*
X148030032Y-92751851D01*
X147987046Y-92679572D01*
X147944589Y-92596403D01*
X147901153Y-92499450D01*
X147855231Y-92385820D01*
X147805313Y-92252618D01*
X147766371Y-92143870D01*
X147736208Y-92059425D01*
X147705490Y-91975216D01*
X147676383Y-91897050D01*
X147651050Y-91830738D01*
X147631659Y-91782087D01*
X147630252Y-91778709D01*
X147584129Y-91668527D01*
X147518739Y-91726401D01*
X147308518Y-91906560D01*
X147109400Y-92064963D01*
X146920465Y-92202224D01*
X146740795Y-92318960D01*
X146569468Y-92415789D01*
X146405565Y-92493326D01*
X146327542Y-92524517D01*
X146284518Y-92542653D01*
X146257126Y-92561764D01*
X146244106Y-92586548D01*
X146244198Y-92621700D01*
X146256140Y-92671916D01*
X146273413Y-92726192D01*
X146299338Y-92793864D01*
X146328046Y-92843458D01*
X146364970Y-92882160D01*
X146415543Y-92917154D01*
X146419676Y-92919616D01*
X146450338Y-92940956D01*
X146473050Y-92966212D01*
X146488944Y-92999337D01*
X146499147Y-93044283D01*
X146504790Y-93105006D01*
X146507002Y-93185457D01*
X146507180Y-93225861D01*
X146501853Y-93391033D01*
X146485020Y-93539280D01*
X146455452Y-93676905D01*
X146411923Y-93810210D01*
X146377018Y-93894275D01*
X146338699Y-93980000D01*
X145799146Y-93980000D01*
X145750648Y-93887925D01*
X145718287Y-93813793D01*
X145702132Y-93747314D01*
X145701805Y-93691176D01*
X145716933Y-93648073D01*
X145747137Y-93620694D01*
X145789235Y-93611700D01*
X145819129Y-93615745D01*
X145864904Y-93626556D01*
X145918597Y-93642148D01*
X145942050Y-93649800D01*
X145995526Y-93666719D01*
X146043289Y-93679768D01*
X146077930Y-93687007D01*
X146087307Y-93687852D01*
X146133797Y-93676809D01*
X146179082Y-93648146D01*
X146214013Y-93608367D01*
X146222716Y-93591577D01*
X146234027Y-93551910D01*
X146241270Y-93501603D01*
X146244185Y-93448502D01*
X146242513Y-93400453D01*
X146235993Y-93365302D01*
X146230557Y-93354672D01*
X146213221Y-93341176D01*
X146178480Y-93319374D01*
X146131595Y-93292425D01*
X146084682Y-93267074D01*
X145994708Y-93215367D01*
X145915496Y-93159185D01*
X145843216Y-93094682D01*
X145774037Y-93018014D01*
X145704127Y-92925336D01*
X145629657Y-92812803D01*
X145625533Y-92806249D01*
X145555771Y-92695131D01*
X145509000Y-92768246D01*
X145458586Y-92855033D01*
X145416424Y-92946588D01*
X145379487Y-93050217D01*
X145350865Y-93149734D01*
X145308518Y-93283700D01*
X145251655Y-93416667D01*
X145233729Y-93452950D01*
X145199046Y-93523680D01*
X145159430Y-93608084D01*
X145119434Y-93696270D01*
X145083607Y-93778348D01*
X145078883Y-93789500D01*
X145001248Y-93973650D01*
X144700566Y-93977053D01*
X144399885Y-93980457D01*
X144380876Y-93951445D01*
X144355687Y-93901757D01*
X144336945Y-93842900D01*
X144325451Y-93781319D01*
X144322005Y-93723457D01*
X144327405Y-93675758D01*
X144342453Y-93644665D01*
X144342757Y-93644357D01*
X144375568Y-93628464D01*
X144426759Y-93625765D01*
X144493118Y-93636076D01*
X144565050Y-93656982D01*
X144646425Y-93679103D01*
X144713592Y-93683337D01*
X144770496Y-93669559D01*
X144805840Y-93649486D01*
X144838096Y-93618794D01*
X144864995Y-93574782D01*
X144888217Y-93513726D01*
X144909442Y-93431898D01*
X144914479Y-93408500D01*
X144922920Y-93352012D01*
X144929664Y-93274478D01*
X144934705Y-93180194D01*
X144938040Y-93073455D01*
X144939666Y-92958560D01*
X144939579Y-92839803D01*
X144937775Y-92721483D01*
X144934251Y-92607894D01*
X144929003Y-92503334D01*
X144922028Y-92412100D01*
X144915368Y-92352816D01*
X144891986Y-92179782D01*
X144953468Y-92122844D01*
X144980642Y-92097947D01*
X145023147Y-92059338D01*
X145077398Y-92010257D01*
X145139810Y-91953945D01*
X145206799Y-91893642D01*
X145243550Y-91860617D01*
X145472150Y-91655328D01*
X145475838Y-91757214D01*
X145478678Y-91804472D01*
X145482968Y-91840084D01*
X145487912Y-91858048D01*
X145489360Y-91859100D01*
X145500943Y-91851064D01*
X145529372Y-91828239D01*
X145572364Y-91792547D01*
X145627637Y-91745911D01*
X145692909Y-91690253D01*
X145765898Y-91627497D01*
X145825186Y-91576186D01*
X146151179Y-91293272D01*
X146266527Y-91277563D01*
X146341311Y-91265952D01*
X146423257Y-91250295D01*
X146515617Y-91229823D01*
X146621641Y-91203763D01*
X146744582Y-91171346D01*
X146887689Y-91131802D01*
X146919950Y-91122706D01*
X147048407Y-91086880D01*
X147156564Y-91058042D01*
X147248323Y-91035472D01*
X147327584Y-91018448D01*
X147398249Y-91006248D01*
X147464219Y-90998150D01*
X147529395Y-90993432D01*
X147597679Y-90991372D01*
X147631150Y-90991119D01*
X147765911Y-90995442D01*
X147883182Y-91010240D01*
X147989352Y-91037338D01*
X148090812Y-91078559D01*
X148193952Y-91135730D01*
X148238782Y-91164584D01*
X148277278Y-91191775D01*
X148319274Y-91224759D01*
X148367019Y-91265593D01*
X148422764Y-91316335D01*
X148488757Y-91379042D01*
X148567248Y-91455771D01*
X148660488Y-91548578D01*
X148678900Y-91567038D01*
X148781688Y-91669469D01*
X148869622Y-91755214D01*
X148945124Y-91826201D01*
X149010620Y-91884361D01*
X149068533Y-91931623D01*
X149121288Y-91969918D01*
X149171308Y-92001175D01*
X149221020Y-92027323D01*
X149272845Y-92050294D01*
X149299058Y-92060709D01*
X149427714Y-92099621D01*
X149550634Y-92115413D01*
X149666425Y-92108290D01*
X149773691Y-92078458D01*
X149871037Y-92026124D01*
X149943536Y-91965510D01*
X150015423Y-91879483D01*
X150064661Y-91786516D01*
X150092390Y-91683508D01*
X150099752Y-91567356D01*
X150098908Y-91542848D01*
X150082287Y-91430664D01*
X150044382Y-91331666D01*
X149985838Y-91246885D01*
X149907302Y-91177347D01*
X149846900Y-91141347D01*
X149778995Y-91113700D01*
X149698363Y-91090964D01*
X149617293Y-91076116D01*
X149560413Y-91071920D01*
X149524596Y-91074608D01*
X149504538Y-91086001D01*
X149494021Y-91103427D01*
X149469908Y-91141562D01*
X149431709Y-91186530D01*
X149386478Y-91231083D01*
X149341267Y-91267975D01*
X149320980Y-91281221D01*
X149234515Y-91317372D01*
X149141679Y-91331385D01*
X149047035Y-91324050D01*
X148955148Y-91296154D01*
X148870581Y-91248486D01*
X148807427Y-91192535D01*
X148749286Y-91117818D01*
X148710373Y-91038247D01*
X148688184Y-90947460D01*
X148681163Y-90871675D01*
X148679980Y-90820627D01*
X148681182Y-90780784D01*
X148684490Y-90757718D01*
X148687042Y-90754200D01*
X148700163Y-90762720D01*
X148726505Y-90785667D01*
X148761722Y-90819125D01*
X148786982Y-90844314D01*
X148851787Y-90906277D01*
X148908933Y-90951195D01*
X148964840Y-90983160D01*
X149025932Y-91006267D01*
X149053043Y-91013889D01*
X149108331Y-91027450D01*
X149143697Y-91032832D01*
X149163534Y-91029195D01*
X149172237Y-91015702D01*
X149174199Y-90991516D01*
X149174200Y-90990786D01*
X149172713Y-90964971D01*
X149163852Y-90951196D01*
X149141010Y-90943973D01*
X149112901Y-90939840D01*
X149040904Y-90921491D01*
X148964690Y-90887322D01*
X148894742Y-90842228D01*
X148882100Y-90832055D01*
X148837650Y-90794757D01*
X148867329Y-90762959D01*
X148894031Y-90740417D01*
X148934377Y-90713019D01*
X148975279Y-90689122D01*
X149021004Y-90666369D01*
X149058956Y-90653679D01*
X149100677Y-90648274D01*
X149148800Y-90647334D01*
X149211375Y-90650066D01*
G36*
X149211375Y-90650066D02*
G01*
X149258077Y-90658998D01*
X149295162Y-90674289D01*
X149334451Y-90700779D01*
X149380362Y-90740341D01*
X149425338Y-90785559D01*
X149461820Y-90829018D01*
X149477721Y-90853411D01*
X149490003Y-90869413D01*
X149509697Y-90877839D01*
X149544060Y-90880940D01*
X149567229Y-90881200D01*
X149704865Y-90892301D01*
X149833803Y-90924543D01*
X149951821Y-90976330D01*
X150056696Y-91046068D01*
X150146204Y-91132162D01*
X150218124Y-91233019D01*
X150270231Y-91347043D01*
X150285053Y-91396077D01*
X150299867Y-91483657D01*
X150303904Y-91584355D01*
X150297312Y-91688357D01*
X150280239Y-91785850D01*
X150279109Y-91790393D01*
X150234077Y-91926605D01*
X150172758Y-92043523D01*
X150095252Y-92141009D01*
X150001662Y-92218927D01*
X149931667Y-92259304D01*
X149802061Y-92309209D01*
X149665236Y-92335641D01*
X149522617Y-92339007D01*
X149375624Y-92319719D01*
X149225680Y-92278187D01*
X149074210Y-92214820D01*
X148922634Y-92130030D01*
X148772376Y-92024226D01*
X148624858Y-91897818D01*
X148601776Y-91875873D01*
X148489098Y-91767252D01*
X148526717Y-91870331D01*
X148545264Y-91925928D01*
X148562922Y-91989575D01*
X148580415Y-92064656D01*
X148598468Y-92154553D01*
X148617806Y-92262652D01*
X148639153Y-92392334D01*
X148641017Y-92404044D01*
X148659872Y-92510973D01*
X148679715Y-92595469D01*
X148702232Y-92660488D01*
X148729110Y-92708988D01*
X148762034Y-92743924D01*
X148802692Y-92768254D01*
X148852770Y-92784935D01*
X148859132Y-92786479D01*
X148923281Y-92805414D01*
X148977636Y-92828751D01*
X149016601Y-92853731D01*
X149032403Y-92871966D01*
X149047503Y-92916477D01*
X149052789Y-92974817D01*
X149048396Y-93050713D01*
X149040972Y-93107554D01*
X149025142Y-93191761D01*
X149001553Y-93283357D01*
X148969287Y-93384899D01*
X148927424Y-93498944D01*
X148875046Y-93628050D01*
X148811233Y-93774773D01*
X148762833Y-93881575D01*
X148717641Y-93980000D01*
X148197592Y-93980000D01*
X148166695Y-93938725D01*
X148121733Y-93865783D01*
X148095070Y-93793526D01*
X148087473Y-93725971D01*
X148099708Y-93667133D01*
X148110867Y-93646104D01*
X148132849Y-93623425D01*
X148163420Y-93613081D01*
X148206110Y-93615148D01*
X148264451Y-93629702D01*
X148325608Y-93650698D01*
X148391798Y-93673876D01*
X148440320Y-93686519D01*
X148476709Y-93688421D01*
X148506503Y-93679377D01*
X148535239Y-93659181D01*
X148553654Y-93642225D01*
X148611177Y-93571371D01*
X148657398Y-93484052D01*
X148689271Y-93387824D01*
X148703750Y-93290244D01*
X148704300Y-93268467D01*
X148702056Y-93239989D01*
X148692807Y-93217924D01*
X148672777Y-93199507D01*
X148638188Y-93181972D01*
X148585264Y-93162556D01*
X148539200Y-93147603D01*
X148438732Y-93111967D01*
X148355854Y-93072863D01*
X148282779Y-93025660D01*
X148211723Y-92965728D01*
X148177250Y-92932287D01*
X148123626Y-92875315D01*
X148075056Y-92816134D01*
X148030032Y-92751851D01*
X147987046Y-92679572D01*
X147944589Y-92596403D01*
X147901153Y-92499450D01*
X147855231Y-92385820D01*
X147805313Y-92252618D01*
X147766371Y-92143870D01*
X147736208Y-92059425D01*
X147705490Y-91975216D01*
X147676383Y-91897050D01*
X147651050Y-91830738D01*
X147631659Y-91782087D01*
X147630252Y-91778709D01*
X147584129Y-91668527D01*
X147518739Y-91726401D01*
X147308518Y-91906560D01*
X147109400Y-92064963D01*
X146920465Y-92202224D01*
X146740795Y-92318960D01*
X146569468Y-92415789D01*
X146405565Y-92493326D01*
X146327542Y-92524517D01*
X146284518Y-92542653D01*
X146257126Y-92561764D01*
X146244106Y-92586548D01*
X146244198Y-92621700D01*
X146256140Y-92671916D01*
X146273413Y-92726192D01*
X146299338Y-92793864D01*
X146328046Y-92843458D01*
X146364970Y-92882160D01*
X146415543Y-92917154D01*
X146419676Y-92919616D01*
X146450338Y-92940956D01*
X146473050Y-92966212D01*
X146488944Y-92999337D01*
X146499147Y-93044283D01*
X146504790Y-93105006D01*
X146507002Y-93185457D01*
X146507180Y-93225861D01*
X146501853Y-93391033D01*
X146485020Y-93539280D01*
X146455452Y-93676905D01*
X146411923Y-93810210D01*
X146377018Y-93894275D01*
X146338699Y-93980000D01*
X145799146Y-93980000D01*
X145750648Y-93887925D01*
X145718287Y-93813793D01*
X145702132Y-93747314D01*
X145701805Y-93691176D01*
X145716933Y-93648073D01*
X145747137Y-93620694D01*
X145789235Y-93611700D01*
X145819129Y-93615745D01*
X145864904Y-93626556D01*
X145918597Y-93642148D01*
X145942050Y-93649800D01*
X145995526Y-93666719D01*
X146043289Y-93679768D01*
X146077930Y-93687007D01*
X146087307Y-93687852D01*
X146133797Y-93676809D01*
X146179082Y-93648146D01*
X146214013Y-93608367D01*
X146222716Y-93591577D01*
X146234027Y-93551910D01*
X146241270Y-93501603D01*
X146244185Y-93448502D01*
X146242513Y-93400453D01*
X146235993Y-93365302D01*
X146230557Y-93354672D01*
X146213221Y-93341176D01*
X146178480Y-93319374D01*
X146131595Y-93292425D01*
X146084682Y-93267074D01*
X145994708Y-93215367D01*
X145915496Y-93159185D01*
X145843216Y-93094682D01*
X145774037Y-93018014D01*
X145704127Y-92925336D01*
X145629657Y-92812803D01*
X145625533Y-92806249D01*
X145555771Y-92695131D01*
X145509000Y-92768246D01*
X145458586Y-92855033D01*
X145416424Y-92946588D01*
X145379487Y-93050217D01*
X145350865Y-93149734D01*
X145308518Y-93283700D01*
X145251655Y-93416667D01*
X145233729Y-93452950D01*
X145199046Y-93523680D01*
X145159430Y-93608084D01*
X145119434Y-93696270D01*
X145083607Y-93778348D01*
X145078883Y-93789500D01*
X145001248Y-93973650D01*
X144700566Y-93977053D01*
X144399885Y-93980457D01*
X144380876Y-93951445D01*
X144355687Y-93901757D01*
X144336945Y-93842900D01*
X144325451Y-93781319D01*
X144322005Y-93723457D01*
X144327405Y-93675758D01*
X144342453Y-93644665D01*
X144342757Y-93644357D01*
X144375568Y-93628464D01*
X144426759Y-93625765D01*
X144493118Y-93636076D01*
X144565050Y-93656982D01*
X144646425Y-93679103D01*
X144713592Y-93683337D01*
X144770496Y-93669559D01*
X144805840Y-93649486D01*
X144838096Y-93618794D01*
X144864995Y-93574782D01*
X144888217Y-93513726D01*
X144909442Y-93431898D01*
X144914479Y-93408500D01*
X144922920Y-93352012D01*
X144929664Y-93274478D01*
X144934705Y-93180194D01*
X144938040Y-93073455D01*
X144939666Y-92958560D01*
X144939579Y-92839803D01*
X144937775Y-92721483D01*
X144934251Y-92607894D01*
X144929003Y-92503334D01*
X144922028Y-92412100D01*
X144915368Y-92352816D01*
X144891986Y-92179782D01*
X144953468Y-92122844D01*
X144980642Y-92097947D01*
X145023147Y-92059338D01*
X145077398Y-92010257D01*
X145139810Y-91953945D01*
X145206799Y-91893642D01*
X145243550Y-91860617D01*
X145472150Y-91655328D01*
X145475838Y-91757214D01*
X145478678Y-91804472D01*
X145482968Y-91840084D01*
X145487912Y-91858048D01*
X145489360Y-91859100D01*
X145500943Y-91851064D01*
X145529372Y-91828239D01*
X145572364Y-91792547D01*
X145627637Y-91745911D01*
X145692909Y-91690253D01*
X145765898Y-91627497D01*
X145825186Y-91576186D01*
X146151179Y-91293272D01*
X146266527Y-91277563D01*
X146341311Y-91265952D01*
X146423257Y-91250295D01*
X146515617Y-91229823D01*
X146621641Y-91203763D01*
X146744582Y-91171346D01*
X146887689Y-91131802D01*
X146919950Y-91122706D01*
X147048407Y-91086880D01*
X147156564Y-91058042D01*
X147248323Y-91035472D01*
X147327584Y-91018448D01*
X147398249Y-91006248D01*
X147464219Y-90998150D01*
X147529395Y-90993432D01*
X147597679Y-90991372D01*
X147631150Y-90991119D01*
X147765911Y-90995442D01*
X147883182Y-91010240D01*
X147989352Y-91037338D01*
X148090812Y-91078559D01*
X148193952Y-91135730D01*
X148238782Y-91164584D01*
X148277278Y-91191775D01*
X148319274Y-91224759D01*
X148367019Y-91265593D01*
X148422764Y-91316335D01*
X148488757Y-91379042D01*
X148567248Y-91455771D01*
X148660488Y-91548578D01*
X148678900Y-91567038D01*
X148781688Y-91669469D01*
X148869622Y-91755214D01*
X148945124Y-91826201D01*
X149010620Y-91884361D01*
X149068533Y-91931623D01*
X149121288Y-91969918D01*
X149171308Y-92001175D01*
X149221020Y-92027323D01*
X149272845Y-92050294D01*
X149299058Y-92060709D01*
X149427714Y-92099621D01*
X149550634Y-92115413D01*
X149666425Y-92108290D01*
X149773691Y-92078458D01*
X149871037Y-92026124D01*
X149943536Y-91965510D01*
X150015423Y-91879483D01*
X150064661Y-91786516D01*
X150092390Y-91683508D01*
X150099752Y-91567356D01*
X150098908Y-91542848D01*
X150082287Y-91430664D01*
X150044382Y-91331666D01*
X149985838Y-91246885D01*
X149907302Y-91177347D01*
X149846900Y-91141347D01*
X149778995Y-91113700D01*
X149698363Y-91090964D01*
X149617293Y-91076116D01*
X149560413Y-91071920D01*
X149524596Y-91074608D01*
X149504538Y-91086001D01*
X149494021Y-91103427D01*
X149469908Y-91141562D01*
X149431709Y-91186530D01*
X149386478Y-91231083D01*
X149341267Y-91267975D01*
X149320980Y-91281221D01*
X149234515Y-91317372D01*
X149141679Y-91331385D01*
X149047035Y-91324050D01*
X148955148Y-91296154D01*
X148870581Y-91248486D01*
X148807427Y-91192535D01*
X148749286Y-91117818D01*
X148710373Y-91038247D01*
X148688184Y-90947460D01*
X148681163Y-90871675D01*
X148679980Y-90820627D01*
X148681182Y-90780784D01*
X148684490Y-90757718D01*
X148687042Y-90754200D01*
X148700163Y-90762720D01*
X148726505Y-90785667D01*
X148761722Y-90819125D01*
X148786982Y-90844314D01*
X148851787Y-90906277D01*
X148908933Y-90951195D01*
X148964840Y-90983160D01*
X149025932Y-91006267D01*
X149053043Y-91013889D01*
X149108331Y-91027450D01*
X149143697Y-91032832D01*
X149163534Y-91029195D01*
X149172237Y-91015702D01*
X149174199Y-90991516D01*
X149174200Y-90990786D01*
X149172713Y-90964971D01*
X149163852Y-90951196D01*
X149141010Y-90943973D01*
X149112901Y-90939840D01*
X149040904Y-90921491D01*
X148964690Y-90887322D01*
X148894742Y-90842228D01*
X148882100Y-90832055D01*
X148837650Y-90794757D01*
X148867329Y-90762959D01*
X148894031Y-90740417D01*
X148934377Y-90713019D01*
X148975279Y-90689122D01*
X149021004Y-90666369D01*
X149058956Y-90653679D01*
X149100677Y-90648274D01*
X149148800Y-90647334D01*
X149211375Y-90650066D01*
G37*
X147393383Y-82536940D02*
X147443187Y-82557405D01*
X147486070Y-82596391D01*
X147500818Y-82614980D01*
X147520050Y-82651611D01*
X147538798Y-82705883D01*
X147555174Y-82770077D01*
X147567286Y-82836473D01*
X147573244Y-82897353D01*
X147573552Y-82911950D01*
X147572882Y-82939163D01*
X147569984Y-82964741D01*
X147563506Y-82991127D01*
X147552098Y-83020763D01*
X147534410Y-83056093D01*
X147509092Y-83099561D01*
X147474794Y-83153609D01*
X147430165Y-83220680D01*
X147373856Y-83303218D01*
X147304515Y-83403666D01*
X147291130Y-83422994D01*
X147174263Y-83594238D01*
X147072285Y-83749385D01*
X146983408Y-83891495D01*
X146905847Y-84023631D01*
X146837814Y-84148852D01*
X146777522Y-84270222D01*
X146723186Y-84390802D01*
X146714789Y-84410550D01*
X146671931Y-84512150D01*
X146719740Y-84460830D01*
X146745911Y-84432414D01*
X146784388Y-84390226D01*
X146830506Y-84339398D01*
X146879604Y-84285060D01*
X146892877Y-84270330D01*
X146943011Y-84216027D01*
X147002142Y-84154222D01*
X147067630Y-84087463D01*
X147136834Y-84018294D01*
X147207114Y-83949264D01*
X147275831Y-83882919D01*
X147340345Y-83821804D01*
X147398015Y-83768468D01*
X147446201Y-83725455D01*
X147482264Y-83695312D01*
X147503563Y-83680587D01*
X147504846Y-83680035D01*
X147568010Y-83666470D01*
X147622839Y-83676874D01*
X147669156Y-83711161D01*
X147706786Y-83769243D01*
X147712127Y-83781058D01*
X147733339Y-83836821D01*
X147745586Y-83888227D01*
X147747795Y-83938143D01*
X147738892Y-83989435D01*
X147717804Y-84044969D01*
X147683457Y-84107613D01*
X147634779Y-84180233D01*
X147570695Y-84265697D01*
X147495065Y-84360780D01*
X147369975Y-84518577D01*
X147258028Y-84667057D01*
X147153514Y-84813922D01*
X147092563Y-84903623D01*
X147059405Y-84954015D01*
X147022010Y-85012144D01*
X146982609Y-85074385D01*
X146943434Y-85137115D01*
X146906717Y-85196711D01*
X146874689Y-85249550D01*
X146849583Y-85292007D01*
X146833631Y-85320460D01*
X146829063Y-85331284D01*
X146829143Y-85331299D01*
X146838386Y-85322270D01*
X146860638Y-85297759D01*
X146892451Y-85261627D01*
X146926211Y-85222593D01*
X146977567Y-85165730D01*
X147038855Y-85102286D01*
X147100534Y-85041985D01*
X147131876Y-85013043D01*
X147190196Y-84963025D01*
X147235764Y-84930408D01*
X147272600Y-84913519D01*
X147304725Y-84910684D01*
X147336160Y-84920230D01*
X147344655Y-84924501D01*
X147367476Y-84944977D01*
X147395360Y-84981384D01*
X147423555Y-85026224D01*
X147447313Y-85071999D01*
X147461125Y-85108341D01*
X147464455Y-85132828D01*
X147461616Y-85163177D01*
X147451741Y-85201291D01*
X147433961Y-85249074D01*
X147407412Y-85308428D01*
X147371226Y-85381258D01*
X147324536Y-85469465D01*
X147266476Y-85574953D01*
X147196178Y-85699626D01*
X147174487Y-85737700D01*
X147105358Y-85859140D01*
X147037821Y-85978389D01*
X146973417Y-86092684D01*
X146913689Y-86199264D01*
X146860177Y-86295368D01*
X146814425Y-86378236D01*
X146777972Y-86445107D01*
X146752362Y-86493219D01*
X146749009Y-86499700D01*
X146741524Y-86515248D01*
X146740919Y-86520639D01*
X146749154Y-86513947D01*
X146768188Y-86493245D01*
X146799983Y-86456608D01*
X146837190Y-86413042D01*
X146905887Y-86338011D01*
X146965237Y-86285683D01*
X147016232Y-86255561D01*
X147059867Y-86247148D01*
X147097137Y-86259948D01*
X147114156Y-86274636D01*
X147146107Y-86324257D01*
X147168067Y-86390058D01*
X147179176Y-86464521D01*
X147178576Y-86540124D01*
X147165408Y-86609347D01*
X147155408Y-86635852D01*
X147142367Y-86661753D01*
X147118714Y-86705915D01*
X147086518Y-86764590D01*
X147047846Y-86834031D01*
X147004767Y-86910491D01*
X146973171Y-86966052D01*
X146908758Y-87079431D01*
X146855360Y-87174930D01*
X146810999Y-87256495D01*
X146773697Y-87328073D01*
X146741478Y-87393609D01*
X146712364Y-87457049D01*
X146684376Y-87522340D01*
X146655538Y-87593427D01*
X146643603Y-87623650D01*
X146614518Y-87699399D01*
X146585149Y-87778868D01*
X146556727Y-87858391D01*
X146530486Y-87934301D01*
X146507658Y-88002931D01*
X146489476Y-88060615D01*
X146477172Y-88103685D01*
X146471980Y-88128475D01*
X146472426Y-88132859D01*
X146482078Y-88125859D01*
X146503944Y-88102390D01*
X146534776Y-88066134D01*
X146571196Y-88020936D01*
X146653263Y-87918838D01*
X146723411Y-87836592D01*
X146783367Y-87772626D01*
X146834860Y-87725370D01*
X146879618Y-87693253D01*
X146919371Y-87674705D01*
X146955845Y-87668155D01*
X146959514Y-87668100D01*
X147003142Y-87676660D01*
X147042013Y-87704209D01*
X147079761Y-87753548D01*
X147087986Y-87767110D01*
X147106305Y-87801730D01*
X147116846Y-87833848D01*
X147121586Y-87872701D01*
X147122499Y-87927524D01*
X147122494Y-87928450D01*
X147121627Y-87961146D01*
X147118797Y-87992882D01*
X147113088Y-88026064D01*
X147103590Y-88063094D01*
X147089389Y-88106375D01*
X147069573Y-88158313D01*
X147043228Y-88221310D01*
X147009441Y-88297771D01*
X146967301Y-88390099D01*
X146915893Y-88500698D01*
X146859654Y-88620600D01*
X146818395Y-88708401D01*
X146780534Y-88789071D01*
X146747452Y-88859662D01*
X146720529Y-88917225D01*
X146701144Y-88958812D01*
X146690678Y-88981473D01*
X146689333Y-88984493D01*
X146695691Y-88994771D01*
X146725796Y-88997897D01*
X146729979Y-88997811D01*
X146765612Y-89001286D01*
X146792833Y-89018162D01*
X146810240Y-89037299D01*
X146843750Y-89078112D01*
X146966073Y-88934574D01*
X147104026Y-88777298D01*
X147245769Y-88623178D01*
X147986750Y-88623178D01*
X148119198Y-88525350D01*
X150202900Y-88525350D01*
X150209250Y-88531700D01*
X150215600Y-88525350D01*
X150209250Y-88519000D01*
X150202900Y-88525350D01*
X148119198Y-88525350D01*
X148183600Y-88477782D01*
X148261964Y-88420299D01*
X148349417Y-88356804D01*
X148437713Y-88293244D01*
X148518610Y-88235562D01*
X148558250Y-88207593D01*
X148858216Y-88000422D01*
X149164224Y-87795564D01*
X149474234Y-87594185D01*
X149786207Y-87397454D01*
X150098100Y-87206536D01*
X150144222Y-87179150D01*
X152019000Y-87179150D01*
X152025350Y-87185500D01*
X152031700Y-87179150D01*
X152025350Y-87172800D01*
X152019000Y-87179150D01*
X150144222Y-87179150D01*
X150165610Y-87166450D01*
X152057100Y-87166450D01*
X152063450Y-87172800D01*
X152069800Y-87166450D01*
X152063450Y-87160100D01*
X152057100Y-87166450D01*
X150165610Y-87166450D01*
X150407875Y-87022600D01*
X150713492Y-86846812D01*
X151012909Y-86680338D01*
X151304086Y-86524347D01*
X151584984Y-86380005D01*
X151853563Y-86248480D01*
X151900776Y-86226650D01*
X152971500Y-86226650D01*
X152977850Y-86233000D01*
X152984200Y-86226650D01*
X152977850Y-86220300D01*
X152971500Y-86226650D01*
X151900776Y-86226650D01*
X151928243Y-86213950D01*
X153009600Y-86213950D01*
X153015950Y-86220300D01*
X153022300Y-86213950D01*
X153015950Y-86207600D01*
X153009600Y-86213950D01*
X151928243Y-86213950D01*
X152107781Y-86130937D01*
X152345599Y-86028545D01*
X152421751Y-85997632D01*
X152478794Y-85974480D01*
X152525799Y-85954669D01*
X152558537Y-85940039D01*
X152572780Y-85932428D01*
X152573013Y-85931879D01*
X152559151Y-85933240D01*
X152524736Y-85941377D01*
X152473374Y-85955218D01*
X152408668Y-85973692D01*
X152334223Y-85995728D01*
X152253645Y-86020256D01*
X152170537Y-86046204D01*
X152088506Y-86072502D01*
X152011155Y-86098079D01*
X151993600Y-86104020D01*
X151570020Y-86260663D01*
X151146846Y-86442043D01*
X150725129Y-86647507D01*
X150305926Y-86876400D01*
X149890289Y-87128069D01*
X149479273Y-87401859D01*
X149073933Y-87697117D01*
X148675322Y-88013188D01*
X148284495Y-88349418D01*
X148093861Y-88523464D01*
X147986750Y-88623178D01*
X147245769Y-88623178D01*
X147259250Y-88608521D01*
X147428375Y-88431540D01*
X147608026Y-88249655D01*
X147794834Y-88066164D01*
X147985426Y-87884363D01*
X148176430Y-87707552D01*
X148364475Y-87539028D01*
X148546188Y-87382090D01*
X148596484Y-87339829D01*
X149037861Y-86985443D01*
X149496045Y-86644642D01*
X149967613Y-86319676D01*
X150449137Y-86012794D01*
X150604035Y-85921850D01*
X152590500Y-85921850D01*
X152596850Y-85928200D01*
X152603200Y-85921850D01*
X152596850Y-85915500D01*
X152590500Y-85921850D01*
X150604035Y-85921850D01*
X150937195Y-85726246D01*
X151428359Y-85462281D01*
X151523992Y-85413850D01*
X152704800Y-85413850D01*
X152711150Y-85420200D01*
X152717500Y-85413850D01*
X152711150Y-85407500D01*
X152704800Y-85413850D01*
X151523992Y-85413850D01*
X151546720Y-85402340D01*
X151834645Y-85261464D01*
X152105738Y-85135522D01*
X152362787Y-85023315D01*
X152608579Y-84923645D01*
X152845901Y-84835313D01*
X152946100Y-84800497D01*
X153030054Y-84772108D01*
X153094764Y-84750934D01*
X153144996Y-84735911D01*
X153185518Y-84725973D01*
X153221098Y-84720054D01*
X153256503Y-84717088D01*
X153296500Y-84716012D01*
X153324972Y-84715828D01*
X153384137Y-84715903D01*
X153423574Y-84717464D01*
X153448956Y-84721744D01*
X153465952Y-84729973D01*
X153480234Y-84743383D01*
X153486897Y-84750983D01*
X153511175Y-84797036D01*
X153519555Y-84854730D01*
X153513064Y-84916768D01*
X153492733Y-84975854D01*
X153459591Y-85024691D01*
X153446576Y-85036857D01*
X153423740Y-85051834D01*
X153381322Y-85075931D01*
X153322688Y-85107382D01*
X153251207Y-85144420D01*
X153170245Y-85185278D01*
X153083169Y-85228190D01*
X153066113Y-85236478D01*
X152981375Y-85277791D01*
X152904818Y-85315571D01*
X152839218Y-85348411D01*
X152787351Y-85374905D01*
X152751992Y-85393646D01*
X152735918Y-85403227D01*
X152735274Y-85404107D01*
X152748681Y-85403327D01*
X152782964Y-85398188D01*
X152834107Y-85389380D01*
X152898093Y-85377593D01*
X152966955Y-85364297D01*
X153105776Y-85338554D01*
X153263013Y-85312184D01*
X153431734Y-85286214D01*
X153605009Y-85261670D01*
X153775906Y-85239576D01*
X153930350Y-85221727D01*
X154005770Y-85214996D01*
X154094377Y-85209380D01*
X154192298Y-85204911D01*
X154295659Y-85201622D01*
X154400588Y-85199546D01*
X154503210Y-85198715D01*
X154599653Y-85199161D01*
X154686044Y-85200917D01*
X154758510Y-85204015D01*
X154813177Y-85208489D01*
X154845142Y-85214055D01*
X154893726Y-85230631D01*
X154923686Y-85249465D01*
X154939354Y-85276815D01*
X154945066Y-85318938D01*
X154945477Y-85358904D01*
X154939215Y-85439106D01*
X154920862Y-85500247D01*
X154888509Y-85546537D01*
X154845470Y-85579198D01*
X154825637Y-85590054D01*
X154803956Y-85599729D01*
X154777155Y-85609057D01*
X154741956Y-85618869D01*
X154695086Y-85629998D01*
X154633270Y-85643274D01*
X154553232Y-85659529D01*
X154451696Y-85679596D01*
X154445043Y-85680902D01*
X154183304Y-85743377D01*
X153913220Y-85829755D01*
X153851267Y-85852498D01*
X153806353Y-85869991D01*
X153746985Y-85894042D01*
X153676307Y-85923292D01*
X153597462Y-85956385D01*
X153513595Y-85991962D01*
X153427848Y-86028667D01*
X153343364Y-86065141D01*
X153263289Y-86100028D01*
X153190764Y-86131970D01*
X153128934Y-86159609D01*
X153080943Y-86181588D01*
X153049932Y-86196549D01*
X153039047Y-86203136D01*
X153039091Y-86203224D01*
X153052232Y-86201772D01*
X153085370Y-86194859D01*
X153133944Y-86183519D01*
X153193395Y-86168787D01*
X153213794Y-86163571D01*
X153372730Y-86125359D01*
X153523938Y-86094344D01*
X153663353Y-86071210D01*
X153786912Y-86056645D01*
X153877361Y-86051497D01*
X153938366Y-86050644D01*
X153979283Y-86051485D01*
X154005409Y-86054914D01*
X154022042Y-86061825D01*
X154034480Y-86073114D01*
X154039286Y-86078831D01*
X154059127Y-86121644D01*
X154063343Y-86176605D01*
X154053070Y-86236780D01*
X154029444Y-86295233D01*
X153996096Y-86342388D01*
X153975950Y-86360986D01*
X153949501Y-86378504D01*
X153912649Y-86396901D01*
X153861293Y-86418137D01*
X153791335Y-86444172D01*
X153758900Y-86455775D01*
X153604439Y-86512410D01*
X153430243Y-86579540D01*
X153239149Y-86656016D01*
X153033997Y-86740688D01*
X152817624Y-86832408D01*
X152657865Y-86901561D01*
X152561961Y-86943398D01*
X152468398Y-86984167D01*
X152381122Y-87022153D01*
X152304082Y-87055638D01*
X152241225Y-87082906D01*
X152196498Y-87102240D01*
X152187114Y-87106275D01*
X152141547Y-87126619D01*
X152107229Y-87143455D01*
X152089064Y-87154302D01*
X152087555Y-87156688D01*
X152101455Y-87156098D01*
X152133362Y-87149657D01*
X152176918Y-87138687D01*
X152186140Y-87136158D01*
X152351813Y-87095649D01*
X152535920Y-87060543D01*
X152731877Y-87031852D01*
X152933101Y-87010584D01*
X153066750Y-87001039D01*
X153131713Y-86997618D01*
X153176603Y-86996474D01*
X153206684Y-86998140D01*
X153227224Y-87003148D01*
X153243487Y-87012032D01*
X153254075Y-87019991D01*
X153280364Y-87054990D01*
X153289580Y-87105660D01*
X153281826Y-87173308D01*
X153269636Y-87220692D01*
X153253593Y-87265162D01*
X153232296Y-87303588D01*
X153203289Y-87337314D01*
X153164112Y-87367679D01*
X153112308Y-87396024D01*
X153045420Y-87423693D01*
X152960988Y-87452024D01*
X152856556Y-87482361D01*
X152729665Y-87516043D01*
X152727247Y-87516666D01*
X152425166Y-87598486D01*
X152138809Y-87684787D01*
X151862228Y-87777767D01*
X151589474Y-87879623D01*
X151314597Y-87992554D01*
X151031650Y-88118756D01*
X150799800Y-88228655D01*
X150700577Y-88277082D01*
X150605383Y-88324103D01*
X150516528Y-88368527D01*
X150436322Y-88409162D01*
X150367075Y-88444819D01*
X150311097Y-88474304D01*
X150270699Y-88496427D01*
X150248192Y-88509997D01*
X150245884Y-88513823D01*
X150247350Y-88513502D01*
X150268136Y-88508024D01*
X150308466Y-88497269D01*
X150363354Y-88482571D01*
X150427819Y-88465264D01*
X150460701Y-88456421D01*
X150730017Y-88388279D01*
X151006685Y-88326493D01*
X151286638Y-88271671D01*
X151565808Y-88224425D01*
X151840127Y-88185362D01*
X152105528Y-88155094D01*
X152357942Y-88134230D01*
X152593302Y-88123380D01*
X152692100Y-88121929D01*
X152794721Y-88122823D01*
X152874458Y-88127317D01*
X152933730Y-88136815D01*
X152974956Y-88152724D01*
X153000556Y-88176449D01*
X153012951Y-88209395D01*
X153014561Y-88252967D01*
X153008292Y-88305551D01*
X153001819Y-88342499D01*
X152993865Y-88374970D01*
X152982677Y-88403764D01*
X152966497Y-88429679D01*
X152943570Y-88453515D01*
X152912140Y-88476072D01*
X152870453Y-88498147D01*
X152816751Y-88520540D01*
X152749279Y-88544051D01*
X152666282Y-88569478D01*
X152566004Y-88597620D01*
X152446689Y-88629277D01*
X152306581Y-88665248D01*
X152143925Y-88706332D01*
X152107751Y-88715429D01*
X151906512Y-88766278D01*
X151727431Y-88812106D01*
X151567919Y-88853613D01*
X151425387Y-88891501D01*
X151297248Y-88926471D01*
X151180912Y-88959224D01*
X151073791Y-88990463D01*
X150973296Y-89020887D01*
X150926800Y-89035362D01*
X150854403Y-89058610D01*
X150777049Y-89084332D01*
X150698315Y-89111240D01*
X150621780Y-89138045D01*
X150551025Y-89163461D01*
X150489627Y-89186198D01*
X150441166Y-89204971D01*
X150409222Y-89218490D01*
X150397373Y-89225468D01*
X150397476Y-89225810D01*
X150410997Y-89225620D01*
X150445048Y-89221951D01*
X150495084Y-89215377D01*
X150556560Y-89206472D01*
X150585098Y-89202113D01*
X150673823Y-89190506D01*
X150770296Y-89181589D01*
X150870344Y-89175395D01*
X150969795Y-89171960D01*
X151064475Y-89171317D01*
X151150212Y-89173501D01*
X151222835Y-89178545D01*
X151278169Y-89186485D01*
X151309803Y-89196166D01*
X151354100Y-89229956D01*
X151377644Y-89277460D01*
X151380907Y-89339734D01*
X151379543Y-89351405D01*
X151356662Y-89436419D01*
X151314010Y-89506769D01*
X151252852Y-89560581D01*
X151228925Y-89574338D01*
X151208055Y-89583697D01*
X151182543Y-89592023D01*
X151149266Y-89599827D01*
X151105104Y-89607622D01*
X151046932Y-89615920D01*
X150971628Y-89625234D01*
X150876070Y-89636075D01*
X150806150Y-89643695D01*
X150684867Y-89658153D01*
X150568429Y-89675154D01*
X150452801Y-89695607D01*
X150333946Y-89720421D01*
X150207829Y-89750506D01*
X150070412Y-89786773D01*
X149917661Y-89830130D01*
X149745539Y-89881487D01*
X149729583Y-89886343D01*
X149453117Y-89970593D01*
X149491118Y-89993702D01*
X149526483Y-90027476D01*
X149539416Y-90070843D01*
X149530200Y-90122026D01*
X149499116Y-90179250D01*
X149452998Y-90234117D01*
X149387683Y-90292128D01*
X149320972Y-90330637D01*
X149246006Y-90352415D01*
X149155927Y-90360235D01*
X149140620Y-90360375D01*
X148937442Y-90369275D01*
X148739394Y-90394930D01*
X148550344Y-90436426D01*
X148374160Y-90492850D01*
X148214711Y-90563291D01*
X148163878Y-90590912D01*
X148096279Y-90627734D01*
X148044551Y-90650490D01*
X148004113Y-90660177D01*
X147970380Y-90657789D01*
X147938773Y-90644321D01*
X147933287Y-90641005D01*
X147890228Y-90600117D01*
X147859450Y-90542802D01*
X147842291Y-90475555D01*
X147840088Y-90404871D01*
X147854177Y-90337244D01*
X147865365Y-90311139D01*
X147888354Y-90274731D01*
X147923067Y-90233474D01*
X147970517Y-90186622D01*
X148031713Y-90133430D01*
X148107668Y-90073153D01*
X148199393Y-90005045D01*
X148307898Y-89928362D01*
X148434196Y-89842357D01*
X148579297Y-89746286D01*
X148744213Y-89639404D01*
X148929954Y-89520965D01*
X148983700Y-89486976D01*
X149066176Y-89434778D01*
X149142602Y-89386182D01*
X149210074Y-89343052D01*
X149265688Y-89307251D01*
X149306541Y-89280644D01*
X149329727Y-89265095D01*
X149332950Y-89262754D01*
X149342804Y-89253740D01*
X149339564Y-89251942D01*
X149322035Y-89257915D01*
X149289026Y-89272214D01*
X149239343Y-89295396D01*
X149171795Y-89328016D01*
X149085188Y-89370631D01*
X148978331Y-89423795D01*
X148856700Y-89484717D01*
X148609409Y-89611276D01*
X148383513Y-89732174D01*
X148176137Y-89849245D01*
X147984406Y-89964326D01*
X147805447Y-90079250D01*
X147636385Y-90195852D01*
X147474345Y-90315968D01*
X147316454Y-90441432D01*
X147186650Y-90550811D01*
X147126695Y-90601763D01*
X147067995Y-90650176D01*
X147015460Y-90692104D01*
X146973996Y-90723603D01*
X146955969Y-90736187D01*
X146879533Y-90776691D01*
X146809626Y-90795295D01*
X146748146Y-90792417D01*
X146696991Y-90768476D01*
X146658058Y-90723892D01*
X146634741Y-90665300D01*
X146615701Y-90598129D01*
X146596886Y-90553674D01*
X146575635Y-90529412D01*
X146549287Y-90522822D01*
X146515182Y-90531385D01*
X146500200Y-90537827D01*
X146476069Y-90549593D01*
X146452534Y-90562983D01*
X146426817Y-90580196D01*
X146396141Y-90603428D01*
X146357730Y-90634880D01*
X146308806Y-90676750D01*
X146246592Y-90731235D01*
X146168310Y-90800535D01*
X146168015Y-90800797D01*
X146101860Y-90859278D01*
X146036249Y-90916845D01*
X145975670Y-90969589D01*
X145924616Y-91013602D01*
X145887575Y-91044977D01*
X145884900Y-91047198D01*
X145856892Y-91071053D01*
X145813589Y-91108792D01*
X145757181Y-91158452D01*
X145689857Y-91218068D01*
X145613807Y-91285674D01*
X145531221Y-91359307D01*
X145444290Y-91437001D01*
X145355203Y-91516793D01*
X145266149Y-91596716D01*
X145179320Y-91674806D01*
X145096905Y-91749099D01*
X145021094Y-91817630D01*
X144954077Y-91878433D01*
X144898044Y-91929546D01*
X144855184Y-91969001D01*
X144827689Y-91994835D01*
X144819061Y-92003427D01*
X144795931Y-92025673D01*
X144779283Y-92036653D01*
X144777786Y-92036900D01*
X144773248Y-92025134D01*
X144769751Y-91993563D01*
X144767784Y-91947775D01*
X144767528Y-91919425D01*
X144767757Y-91801950D01*
X144821503Y-91757723D01*
X144842857Y-91739392D01*
X144880618Y-91706154D01*
X144932376Y-91660162D01*
X144995722Y-91603571D01*
X145068245Y-91538535D01*
X145147534Y-91467207D01*
X145231182Y-91391741D01*
X145246725Y-91377695D01*
X145618200Y-91041892D01*
X145618200Y-90815334D01*
X145557875Y-90866828D01*
X145528494Y-90892544D01*
X145484920Y-90931506D01*
X145431593Y-90979702D01*
X145372957Y-91033121D01*
X145326100Y-91076103D01*
X145154650Y-91233885D01*
X145150981Y-91119763D01*
X145150792Y-91051701D01*
X145155254Y-91006618D01*
X145162491Y-90987352D01*
X145175241Y-90974973D01*
X145204820Y-90947822D01*
X145248987Y-90907910D01*
X145305503Y-90857243D01*
X145372127Y-90797830D01*
X145446620Y-90731680D01*
X145524935Y-90662397D01*
X145872199Y-90355730D01*
X145872200Y-90028664D01*
X145872556Y-89940131D01*
X145873561Y-89860236D01*
X145875115Y-89792409D01*
X145877119Y-89740083D01*
X145879476Y-89706689D01*
X145881774Y-89695681D01*
X145896820Y-89692862D01*
X145933210Y-89688446D01*
X145986966Y-89682844D01*
X146054111Y-89676466D01*
X146130669Y-89669723D01*
X146145299Y-89668488D01*
X146224866Y-89661502D01*
X146297369Y-89654533D01*
X146358391Y-89648056D01*
X146403513Y-89642542D01*
X146428319Y-89638464D01*
X146429854Y-89638055D01*
X146435924Y-89633226D01*
X146427552Y-89625695D01*
X146402596Y-89614602D01*
X146358917Y-89599087D01*
X146294374Y-89578291D01*
X146236179Y-89560299D01*
X146165309Y-89538144D01*
X146103648Y-89517953D01*
X146054994Y-89501045D01*
X146023146Y-89488740D01*
X146011900Y-89482397D01*
X146022457Y-89472716D01*
X146050349Y-89455686D01*
X146089902Y-89434720D01*
X146096697Y-89431345D01*
X146147604Y-89408281D01*
X146190084Y-89395531D01*
X146236673Y-89390180D01*
X146277672Y-89389280D01*
X146336744Y-89391133D01*
X146382895Y-89398829D01*
X146428386Y-89414883D01*
X146450012Y-89424614D01*
X146494546Y-89447487D01*
X146533317Y-89470899D01*
X146554456Y-89486836D01*
X146574817Y-89503818D01*
X146585227Y-89503296D01*
X146590837Y-89492296D01*
X146594211Y-89462980D01*
X146590786Y-89419713D01*
X146582107Y-89372532D01*
X146569719Y-89331475D01*
X146564204Y-89319267D01*
X146518002Y-89257403D01*
X146490844Y-89236550D01*
X149364700Y-89236550D01*
X149371050Y-89242900D01*
X149377400Y-89236550D01*
X150355300Y-89236550D01*
X150361650Y-89242900D01*
X150368000Y-89236550D01*
X150361650Y-89230200D01*
X150355300Y-89236550D01*
X149377400Y-89236550D01*
X149371050Y-89230200D01*
X149364700Y-89236550D01*
X146490844Y-89236550D01*
X146452082Y-89206787D01*
X146370470Y-89169644D01*
X146277191Y-89148201D01*
X146249621Y-89145320D01*
X146176529Y-89134779D01*
X146108416Y-89112910D01*
X146069050Y-89095235D01*
X146016912Y-89072771D01*
X145964624Y-89054666D01*
X145923246Y-89044735D01*
X145922221Y-89044594D01*
X145840987Y-89044586D01*
X145754106Y-89063158D01*
X145670631Y-89098174D01*
X145653571Y-89107904D01*
X145584497Y-89149499D01*
X145504476Y-89069091D01*
X145416063Y-88993605D01*
X145334003Y-88945347D01*
X145268499Y-88915840D01*
X145219242Y-88897637D01*
X145187905Y-88891197D01*
X145176160Y-88896976D01*
X145177207Y-88902529D01*
X145184350Y-88919451D01*
X145199633Y-88955260D01*
X145221153Y-89005512D01*
X145247009Y-89065764D01*
X145262257Y-89101248D01*
X145288785Y-89163748D01*
X145310943Y-89217475D01*
X145327113Y-89258386D01*
X145335680Y-89282438D01*
X145336518Y-89287080D01*
X145323543Y-89284938D01*
X145291493Y-89276345D01*
X145245440Y-89262733D01*
X145199495Y-89248420D01*
X145145493Y-89231792D01*
X145101108Y-89219165D01*
X145071447Y-89211925D01*
X145061643Y-89211022D01*
X145066912Y-89222469D01*
X145084694Y-89250705D01*
X145112517Y-89292012D01*
X145147910Y-89342672D01*
X145166023Y-89368053D01*
X145204503Y-89422182D01*
X145237048Y-89469023D01*
X145261041Y-89504727D01*
X145273867Y-89525447D01*
X145275300Y-89528836D01*
X145269008Y-89542613D01*
X145252027Y-89572934D01*
X145227199Y-89614847D01*
X145206571Y-89648594D01*
X145099804Y-89839528D01*
X145003999Y-90047611D01*
X144921711Y-90266027D01*
X144855493Y-90487956D01*
X144807899Y-90706582D01*
X144805916Y-90718118D01*
X144793644Y-90800453D01*
X144782541Y-90893582D01*
X144773011Y-90991951D01*
X144765456Y-91090002D01*
X144760277Y-91182180D01*
X144757879Y-91262929D01*
X144758662Y-91326693D01*
X144760218Y-91348958D01*
X144763081Y-91393851D01*
X144760989Y-91418433D01*
X144756032Y-91421835D01*
X144746488Y-91407043D01*
X144729930Y-91372003D01*
X144707804Y-91320414D01*
X144681557Y-91255978D01*
X144652632Y-91182395D01*
X144622478Y-91103366D01*
X144592538Y-91022591D01*
X144564260Y-90943771D01*
X144539089Y-90870608D01*
X144530389Y-90844292D01*
X144406559Y-90423711D01*
X144307487Y-89997961D01*
X144233263Y-89567938D01*
X144183982Y-89134542D01*
X144159735Y-88698670D01*
X144160616Y-88261218D01*
X144164192Y-88201173D01*
X145375644Y-88201173D01*
X145419157Y-88239378D01*
X145450551Y-88272797D01*
X145475052Y-88308885D01*
X145479381Y-88317927D01*
X145490913Y-88344083D01*
X145497455Y-88348469D01*
X145503664Y-88332811D01*
X145505251Y-88327511D01*
X145512428Y-88303736D01*
X145525248Y-88261584D01*
X145541909Y-88206962D01*
X145557166Y-88157050D01*
X146456400Y-88157050D01*
X146462750Y-88163400D01*
X146469100Y-88157050D01*
X146462750Y-88150700D01*
X146456400Y-88157050D01*
X145557166Y-88157050D01*
X145560612Y-88145779D01*
X145561050Y-88144350D01*
X145611945Y-87989364D01*
X145672316Y-87824175D01*
X145738082Y-87659295D01*
X145805164Y-87505239D01*
X145828411Y-87455375D01*
X145856216Y-87396275D01*
X145879159Y-87346254D01*
X145895455Y-87309303D01*
X145903319Y-87289417D01*
X145903621Y-87287100D01*
X145894843Y-87296803D01*
X145874084Y-87323435D01*
X145844160Y-87363284D01*
X145807887Y-87412633D01*
X145795290Y-87429975D01*
X145688541Y-87584595D01*
X145596950Y-87734194D01*
X145515002Y-87888508D01*
X145437183Y-88057274D01*
X145428295Y-88077940D01*
X145375644Y-88201173D01*
X144164192Y-88201173D01*
X144173151Y-88050778D01*
X144656355Y-88050778D01*
X144656930Y-88060179D01*
X144658594Y-88060439D01*
X144663566Y-88047410D01*
X144675168Y-88012891D01*
X144692511Y-87959654D01*
X144714706Y-87890470D01*
X144740862Y-87808110D01*
X144770091Y-87715346D01*
X144798900Y-87623292D01*
X144899193Y-87305438D01*
X144994756Y-87010200D01*
X145086373Y-86735400D01*
X145174829Y-86478859D01*
X145260910Y-86238400D01*
X145345399Y-86011843D01*
X145429082Y-85797012D01*
X145512743Y-85591728D01*
X145597167Y-85393813D01*
X145624641Y-85331300D01*
X145701561Y-85162136D01*
X145784389Y-84988324D01*
X145870689Y-84814570D01*
X145958027Y-84645580D01*
X146043968Y-84486062D01*
X146126076Y-84340721D01*
X146201918Y-84214264D01*
X146205403Y-84208679D01*
X146245162Y-84144842D01*
X146272175Y-84100582D01*
X146287325Y-84074041D01*
X146291498Y-84063363D01*
X146285576Y-84066691D01*
X146270445Y-84082168D01*
X146260459Y-84093050D01*
X146229199Y-84129714D01*
X146186770Y-84182739D01*
X146136528Y-84247646D01*
X146081830Y-84319959D01*
X146026032Y-84395200D01*
X145972490Y-84468893D01*
X145924560Y-84536559D01*
X145889166Y-84588350D01*
X145669863Y-84939586D01*
X145468963Y-85306885D01*
X145287342Y-85687929D01*
X145125872Y-86080402D01*
X144985427Y-86481986D01*
X144866879Y-86890364D01*
X144771101Y-87303220D01*
X144698968Y-87718235D01*
X144692593Y-87763350D01*
X144679183Y-87861172D01*
X144669139Y-87936342D01*
X144662175Y-87991344D01*
X144658009Y-88028661D01*
X144656355Y-88050778D01*
X144173151Y-88050778D01*
X144186715Y-87823086D01*
X144202698Y-87661750D01*
X144257020Y-87271486D01*
X144334123Y-86878620D01*
X144432718Y-86488090D01*
X144551513Y-86104835D01*
X144689221Y-85733794D01*
X144734964Y-85623400D01*
X144915317Y-85228898D01*
X145114347Y-84850794D01*
X145333369Y-84486943D01*
X145573698Y-84135204D01*
X145836648Y-83793434D01*
X145918554Y-83694413D01*
X145957492Y-83649907D01*
X146011423Y-83590915D01*
X146077207Y-83520734D01*
X146151702Y-83442664D01*
X146231770Y-83360003D01*
X146314268Y-83276049D01*
X146374084Y-83215980D01*
X146509287Y-83082985D01*
X146630452Y-82968138D01*
X146739522Y-82869844D01*
X146838438Y-82786506D01*
X146929142Y-82716529D01*
X147013575Y-82658317D01*
X147093679Y-82610274D01*
X147141952Y-82584930D01*
X147198376Y-82558203D01*
X147241313Y-82541943D01*
X147279164Y-82533725D01*
X147320328Y-82531125D01*
X147328593Y-82531067D01*
X147393383Y-82536940D01*
G36*
X147393383Y-82536940D02*
G01*
X147443187Y-82557405D01*
X147486070Y-82596391D01*
X147500818Y-82614980D01*
X147520050Y-82651611D01*
X147538798Y-82705883D01*
X147555174Y-82770077D01*
X147567286Y-82836473D01*
X147573244Y-82897353D01*
X147573552Y-82911950D01*
X147572882Y-82939163D01*
X147569984Y-82964741D01*
X147563506Y-82991127D01*
X147552098Y-83020763D01*
X147534410Y-83056093D01*
X147509092Y-83099561D01*
X147474794Y-83153609D01*
X147430165Y-83220680D01*
X147373856Y-83303218D01*
X147304515Y-83403666D01*
X147291130Y-83422994D01*
X147174263Y-83594238D01*
X147072285Y-83749385D01*
X146983408Y-83891495D01*
X146905847Y-84023631D01*
X146837814Y-84148852D01*
X146777522Y-84270222D01*
X146723186Y-84390802D01*
X146714789Y-84410550D01*
X146671931Y-84512150D01*
X146719740Y-84460830D01*
X146745911Y-84432414D01*
X146784388Y-84390226D01*
X146830506Y-84339398D01*
X146879604Y-84285060D01*
X146892877Y-84270330D01*
X146943011Y-84216027D01*
X147002142Y-84154222D01*
X147067630Y-84087463D01*
X147136834Y-84018294D01*
X147207114Y-83949264D01*
X147275831Y-83882919D01*
X147340345Y-83821804D01*
X147398015Y-83768468D01*
X147446201Y-83725455D01*
X147482264Y-83695312D01*
X147503563Y-83680587D01*
X147504846Y-83680035D01*
X147568010Y-83666470D01*
X147622839Y-83676874D01*
X147669156Y-83711161D01*
X147706786Y-83769243D01*
X147712127Y-83781058D01*
X147733339Y-83836821D01*
X147745586Y-83888227D01*
X147747795Y-83938143D01*
X147738892Y-83989435D01*
X147717804Y-84044969D01*
X147683457Y-84107613D01*
X147634779Y-84180233D01*
X147570695Y-84265697D01*
X147495065Y-84360780D01*
X147369975Y-84518577D01*
X147258028Y-84667057D01*
X147153514Y-84813922D01*
X147092563Y-84903623D01*
X147059405Y-84954015D01*
X147022010Y-85012144D01*
X146982609Y-85074385D01*
X146943434Y-85137115D01*
X146906717Y-85196711D01*
X146874689Y-85249550D01*
X146849583Y-85292007D01*
X146833631Y-85320460D01*
X146829063Y-85331284D01*
X146829143Y-85331299D01*
X146838386Y-85322270D01*
X146860638Y-85297759D01*
X146892451Y-85261627D01*
X146926211Y-85222593D01*
X146977567Y-85165730D01*
X147038855Y-85102286D01*
X147100534Y-85041985D01*
X147131876Y-85013043D01*
X147190196Y-84963025D01*
X147235764Y-84930408D01*
X147272600Y-84913519D01*
X147304725Y-84910684D01*
X147336160Y-84920230D01*
X147344655Y-84924501D01*
X147367476Y-84944977D01*
X147395360Y-84981384D01*
X147423555Y-85026224D01*
X147447313Y-85071999D01*
X147461125Y-85108341D01*
X147464455Y-85132828D01*
X147461616Y-85163177D01*
X147451741Y-85201291D01*
X147433961Y-85249074D01*
X147407412Y-85308428D01*
X147371226Y-85381258D01*
X147324536Y-85469465D01*
X147266476Y-85574953D01*
X147196178Y-85699626D01*
X147174487Y-85737700D01*
X147105358Y-85859140D01*
X147037821Y-85978389D01*
X146973417Y-86092684D01*
X146913689Y-86199264D01*
X146860177Y-86295368D01*
X146814425Y-86378236D01*
X146777972Y-86445107D01*
X146752362Y-86493219D01*
X146749009Y-86499700D01*
X146741524Y-86515248D01*
X146740919Y-86520639D01*
X146749154Y-86513947D01*
X146768188Y-86493245D01*
X146799983Y-86456608D01*
X146837190Y-86413042D01*
X146905887Y-86338011D01*
X146965237Y-86285683D01*
X147016232Y-86255561D01*
X147059867Y-86247148D01*
X147097137Y-86259948D01*
X147114156Y-86274636D01*
X147146107Y-86324257D01*
X147168067Y-86390058D01*
X147179176Y-86464521D01*
X147178576Y-86540124D01*
X147165408Y-86609347D01*
X147155408Y-86635852D01*
X147142367Y-86661753D01*
X147118714Y-86705915D01*
X147086518Y-86764590D01*
X147047846Y-86834031D01*
X147004767Y-86910491D01*
X146973171Y-86966052D01*
X146908758Y-87079431D01*
X146855360Y-87174930D01*
X146810999Y-87256495D01*
X146773697Y-87328073D01*
X146741478Y-87393609D01*
X146712364Y-87457049D01*
X146684376Y-87522340D01*
X146655538Y-87593427D01*
X146643603Y-87623650D01*
X146614518Y-87699399D01*
X146585149Y-87778868D01*
X146556727Y-87858391D01*
X146530486Y-87934301D01*
X146507658Y-88002931D01*
X146489476Y-88060615D01*
X146477172Y-88103685D01*
X146471980Y-88128475D01*
X146472426Y-88132859D01*
X146482078Y-88125859D01*
X146503944Y-88102390D01*
X146534776Y-88066134D01*
X146571196Y-88020936D01*
X146653263Y-87918838D01*
X146723411Y-87836592D01*
X146783367Y-87772626D01*
X146834860Y-87725370D01*
X146879618Y-87693253D01*
X146919371Y-87674705D01*
X146955845Y-87668155D01*
X146959514Y-87668100D01*
X147003142Y-87676660D01*
X147042013Y-87704209D01*
X147079761Y-87753548D01*
X147087986Y-87767110D01*
X147106305Y-87801730D01*
X147116846Y-87833848D01*
X147121586Y-87872701D01*
X147122499Y-87927524D01*
X147122494Y-87928450D01*
X147121627Y-87961146D01*
X147118797Y-87992882D01*
X147113088Y-88026064D01*
X147103590Y-88063094D01*
X147089389Y-88106375D01*
X147069573Y-88158313D01*
X147043228Y-88221310D01*
X147009441Y-88297771D01*
X146967301Y-88390099D01*
X146915893Y-88500698D01*
X146859654Y-88620600D01*
X146818395Y-88708401D01*
X146780534Y-88789071D01*
X146747452Y-88859662D01*
X146720529Y-88917225D01*
X146701144Y-88958812D01*
X146690678Y-88981473D01*
X146689333Y-88984493D01*
X146695691Y-88994771D01*
X146725796Y-88997897D01*
X146729979Y-88997811D01*
X146765612Y-89001286D01*
X146792833Y-89018162D01*
X146810240Y-89037299D01*
X146843750Y-89078112D01*
X146966073Y-88934574D01*
X147104026Y-88777298D01*
X147245769Y-88623178D01*
X147986750Y-88623178D01*
X148119198Y-88525350D01*
X150202900Y-88525350D01*
X150209250Y-88531700D01*
X150215600Y-88525350D01*
X150209250Y-88519000D01*
X150202900Y-88525350D01*
X148119198Y-88525350D01*
X148183600Y-88477782D01*
X148261964Y-88420299D01*
X148349417Y-88356804D01*
X148437713Y-88293244D01*
X148518610Y-88235562D01*
X148558250Y-88207593D01*
X148858216Y-88000422D01*
X149164224Y-87795564D01*
X149474234Y-87594185D01*
X149786207Y-87397454D01*
X150098100Y-87206536D01*
X150144222Y-87179150D01*
X152019000Y-87179150D01*
X152025350Y-87185500D01*
X152031700Y-87179150D01*
X152025350Y-87172800D01*
X152019000Y-87179150D01*
X150144222Y-87179150D01*
X150165610Y-87166450D01*
X152057100Y-87166450D01*
X152063450Y-87172800D01*
X152069800Y-87166450D01*
X152063450Y-87160100D01*
X152057100Y-87166450D01*
X150165610Y-87166450D01*
X150407875Y-87022600D01*
X150713492Y-86846812D01*
X151012909Y-86680338D01*
X151304086Y-86524347D01*
X151584984Y-86380005D01*
X151853563Y-86248480D01*
X151900776Y-86226650D01*
X152971500Y-86226650D01*
X152977850Y-86233000D01*
X152984200Y-86226650D01*
X152977850Y-86220300D01*
X152971500Y-86226650D01*
X151900776Y-86226650D01*
X151928243Y-86213950D01*
X153009600Y-86213950D01*
X153015950Y-86220300D01*
X153022300Y-86213950D01*
X153015950Y-86207600D01*
X153009600Y-86213950D01*
X151928243Y-86213950D01*
X152107781Y-86130937D01*
X152345599Y-86028545D01*
X152421751Y-85997632D01*
X152478794Y-85974480D01*
X152525799Y-85954669D01*
X152558537Y-85940039D01*
X152572780Y-85932428D01*
X152573013Y-85931879D01*
X152559151Y-85933240D01*
X152524736Y-85941377D01*
X152473374Y-85955218D01*
X152408668Y-85973692D01*
X152334223Y-85995728D01*
X152253645Y-86020256D01*
X152170537Y-86046204D01*
X152088506Y-86072502D01*
X152011155Y-86098079D01*
X151993600Y-86104020D01*
X151570020Y-86260663D01*
X151146846Y-86442043D01*
X150725129Y-86647507D01*
X150305926Y-86876400D01*
X149890289Y-87128069D01*
X149479273Y-87401859D01*
X149073933Y-87697117D01*
X148675322Y-88013188D01*
X148284495Y-88349418D01*
X148093861Y-88523464D01*
X147986750Y-88623178D01*
X147245769Y-88623178D01*
X147259250Y-88608521D01*
X147428375Y-88431540D01*
X147608026Y-88249655D01*
X147794834Y-88066164D01*
X147985426Y-87884363D01*
X148176430Y-87707552D01*
X148364475Y-87539028D01*
X148546188Y-87382090D01*
X148596484Y-87339829D01*
X149037861Y-86985443D01*
X149496045Y-86644642D01*
X149967613Y-86319676D01*
X150449137Y-86012794D01*
X150604035Y-85921850D01*
X152590500Y-85921850D01*
X152596850Y-85928200D01*
X152603200Y-85921850D01*
X152596850Y-85915500D01*
X152590500Y-85921850D01*
X150604035Y-85921850D01*
X150937195Y-85726246D01*
X151428359Y-85462281D01*
X151523992Y-85413850D01*
X152704800Y-85413850D01*
X152711150Y-85420200D01*
X152717500Y-85413850D01*
X152711150Y-85407500D01*
X152704800Y-85413850D01*
X151523992Y-85413850D01*
X151546720Y-85402340D01*
X151834645Y-85261464D01*
X152105738Y-85135522D01*
X152362787Y-85023315D01*
X152608579Y-84923645D01*
X152845901Y-84835313D01*
X152946100Y-84800497D01*
X153030054Y-84772108D01*
X153094764Y-84750934D01*
X153144996Y-84735911D01*
X153185518Y-84725973D01*
X153221098Y-84720054D01*
X153256503Y-84717088D01*
X153296500Y-84716012D01*
X153324972Y-84715828D01*
X153384137Y-84715903D01*
X153423574Y-84717464D01*
X153448956Y-84721744D01*
X153465952Y-84729973D01*
X153480234Y-84743383D01*
X153486897Y-84750983D01*
X153511175Y-84797036D01*
X153519555Y-84854730D01*
X153513064Y-84916768D01*
X153492733Y-84975854D01*
X153459591Y-85024691D01*
X153446576Y-85036857D01*
X153423740Y-85051834D01*
X153381322Y-85075931D01*
X153322688Y-85107382D01*
X153251207Y-85144420D01*
X153170245Y-85185278D01*
X153083169Y-85228190D01*
X153066113Y-85236478D01*
X152981375Y-85277791D01*
X152904818Y-85315571D01*
X152839218Y-85348411D01*
X152787351Y-85374905D01*
X152751992Y-85393646D01*
X152735918Y-85403227D01*
X152735274Y-85404107D01*
X152748681Y-85403327D01*
X152782964Y-85398188D01*
X152834107Y-85389380D01*
X152898093Y-85377593D01*
X152966955Y-85364297D01*
X153105776Y-85338554D01*
X153263013Y-85312184D01*
X153431734Y-85286214D01*
X153605009Y-85261670D01*
X153775906Y-85239576D01*
X153930350Y-85221727D01*
X154005770Y-85214996D01*
X154094377Y-85209380D01*
X154192298Y-85204911D01*
X154295659Y-85201622D01*
X154400588Y-85199546D01*
X154503210Y-85198715D01*
X154599653Y-85199161D01*
X154686044Y-85200917D01*
X154758510Y-85204015D01*
X154813177Y-85208489D01*
X154845142Y-85214055D01*
X154893726Y-85230631D01*
X154923686Y-85249465D01*
X154939354Y-85276815D01*
X154945066Y-85318938D01*
X154945477Y-85358904D01*
X154939215Y-85439106D01*
X154920862Y-85500247D01*
X154888509Y-85546537D01*
X154845470Y-85579198D01*
X154825637Y-85590054D01*
X154803956Y-85599729D01*
X154777155Y-85609057D01*
X154741956Y-85618869D01*
X154695086Y-85629998D01*
X154633270Y-85643274D01*
X154553232Y-85659529D01*
X154451696Y-85679596D01*
X154445043Y-85680902D01*
X154183304Y-85743377D01*
X153913220Y-85829755D01*
X153851267Y-85852498D01*
X153806353Y-85869991D01*
X153746985Y-85894042D01*
X153676307Y-85923292D01*
X153597462Y-85956385D01*
X153513595Y-85991962D01*
X153427848Y-86028667D01*
X153343364Y-86065141D01*
X153263289Y-86100028D01*
X153190764Y-86131970D01*
X153128934Y-86159609D01*
X153080943Y-86181588D01*
X153049932Y-86196549D01*
X153039047Y-86203136D01*
X153039091Y-86203224D01*
X153052232Y-86201772D01*
X153085370Y-86194859D01*
X153133944Y-86183519D01*
X153193395Y-86168787D01*
X153213794Y-86163571D01*
X153372730Y-86125359D01*
X153523938Y-86094344D01*
X153663353Y-86071210D01*
X153786912Y-86056645D01*
X153877361Y-86051497D01*
X153938366Y-86050644D01*
X153979283Y-86051485D01*
X154005409Y-86054914D01*
X154022042Y-86061825D01*
X154034480Y-86073114D01*
X154039286Y-86078831D01*
X154059127Y-86121644D01*
X154063343Y-86176605D01*
X154053070Y-86236780D01*
X154029444Y-86295233D01*
X153996096Y-86342388D01*
X153975950Y-86360986D01*
X153949501Y-86378504D01*
X153912649Y-86396901D01*
X153861293Y-86418137D01*
X153791335Y-86444172D01*
X153758900Y-86455775D01*
X153604439Y-86512410D01*
X153430243Y-86579540D01*
X153239149Y-86656016D01*
X153033997Y-86740688D01*
X152817624Y-86832408D01*
X152657865Y-86901561D01*
X152561961Y-86943398D01*
X152468398Y-86984167D01*
X152381122Y-87022153D01*
X152304082Y-87055638D01*
X152241225Y-87082906D01*
X152196498Y-87102240D01*
X152187114Y-87106275D01*
X152141547Y-87126619D01*
X152107229Y-87143455D01*
X152089064Y-87154302D01*
X152087555Y-87156688D01*
X152101455Y-87156098D01*
X152133362Y-87149657D01*
X152176918Y-87138687D01*
X152186140Y-87136158D01*
X152351813Y-87095649D01*
X152535920Y-87060543D01*
X152731877Y-87031852D01*
X152933101Y-87010584D01*
X153066750Y-87001039D01*
X153131713Y-86997618D01*
X153176603Y-86996474D01*
X153206684Y-86998140D01*
X153227224Y-87003148D01*
X153243487Y-87012032D01*
X153254075Y-87019991D01*
X153280364Y-87054990D01*
X153289580Y-87105660D01*
X153281826Y-87173308D01*
X153269636Y-87220692D01*
X153253593Y-87265162D01*
X153232296Y-87303588D01*
X153203289Y-87337314D01*
X153164112Y-87367679D01*
X153112308Y-87396024D01*
X153045420Y-87423693D01*
X152960988Y-87452024D01*
X152856556Y-87482361D01*
X152729665Y-87516043D01*
X152727247Y-87516666D01*
X152425166Y-87598486D01*
X152138809Y-87684787D01*
X151862228Y-87777767D01*
X151589474Y-87879623D01*
X151314597Y-87992554D01*
X151031650Y-88118756D01*
X150799800Y-88228655D01*
X150700577Y-88277082D01*
X150605383Y-88324103D01*
X150516528Y-88368527D01*
X150436322Y-88409162D01*
X150367075Y-88444819D01*
X150311097Y-88474304D01*
X150270699Y-88496427D01*
X150248192Y-88509997D01*
X150245884Y-88513823D01*
X150247350Y-88513502D01*
X150268136Y-88508024D01*
X150308466Y-88497269D01*
X150363354Y-88482571D01*
X150427819Y-88465264D01*
X150460701Y-88456421D01*
X150730017Y-88388279D01*
X151006685Y-88326493D01*
X151286638Y-88271671D01*
X151565808Y-88224425D01*
X151840127Y-88185362D01*
X152105528Y-88155094D01*
X152357942Y-88134230D01*
X152593302Y-88123380D01*
X152692100Y-88121929D01*
X152794721Y-88122823D01*
X152874458Y-88127317D01*
X152933730Y-88136815D01*
X152974956Y-88152724D01*
X153000556Y-88176449D01*
X153012951Y-88209395D01*
X153014561Y-88252967D01*
X153008292Y-88305551D01*
X153001819Y-88342499D01*
X152993865Y-88374970D01*
X152982677Y-88403764D01*
X152966497Y-88429679D01*
X152943570Y-88453515D01*
X152912140Y-88476072D01*
X152870453Y-88498147D01*
X152816751Y-88520540D01*
X152749279Y-88544051D01*
X152666282Y-88569478D01*
X152566004Y-88597620D01*
X152446689Y-88629277D01*
X152306581Y-88665248D01*
X152143925Y-88706332D01*
X152107751Y-88715429D01*
X151906512Y-88766278D01*
X151727431Y-88812106D01*
X151567919Y-88853613D01*
X151425387Y-88891501D01*
X151297248Y-88926471D01*
X151180912Y-88959224D01*
X151073791Y-88990463D01*
X150973296Y-89020887D01*
X150926800Y-89035362D01*
X150854403Y-89058610D01*
X150777049Y-89084332D01*
X150698315Y-89111240D01*
X150621780Y-89138045D01*
X150551025Y-89163461D01*
X150489627Y-89186198D01*
X150441166Y-89204971D01*
X150409222Y-89218490D01*
X150397373Y-89225468D01*
X150397476Y-89225810D01*
X150410997Y-89225620D01*
X150445048Y-89221951D01*
X150495084Y-89215377D01*
X150556560Y-89206472D01*
X150585098Y-89202113D01*
X150673823Y-89190506D01*
X150770296Y-89181589D01*
X150870344Y-89175395D01*
X150969795Y-89171960D01*
X151064475Y-89171317D01*
X151150212Y-89173501D01*
X151222835Y-89178545D01*
X151278169Y-89186485D01*
X151309803Y-89196166D01*
X151354100Y-89229956D01*
X151377644Y-89277460D01*
X151380907Y-89339734D01*
X151379543Y-89351405D01*
X151356662Y-89436419D01*
X151314010Y-89506769D01*
X151252852Y-89560581D01*
X151228925Y-89574338D01*
X151208055Y-89583697D01*
X151182543Y-89592023D01*
X151149266Y-89599827D01*
X151105104Y-89607622D01*
X151046932Y-89615920D01*
X150971628Y-89625234D01*
X150876070Y-89636075D01*
X150806150Y-89643695D01*
X150684867Y-89658153D01*
X150568429Y-89675154D01*
X150452801Y-89695607D01*
X150333946Y-89720421D01*
X150207829Y-89750506D01*
X150070412Y-89786773D01*
X149917661Y-89830130D01*
X149745539Y-89881487D01*
X149729583Y-89886343D01*
X149453117Y-89970593D01*
X149491118Y-89993702D01*
X149526483Y-90027476D01*
X149539416Y-90070843D01*
X149530200Y-90122026D01*
X149499116Y-90179250D01*
X149452998Y-90234117D01*
X149387683Y-90292128D01*
X149320972Y-90330637D01*
X149246006Y-90352415D01*
X149155927Y-90360235D01*
X149140620Y-90360375D01*
X148937442Y-90369275D01*
X148739394Y-90394930D01*
X148550344Y-90436426D01*
X148374160Y-90492850D01*
X148214711Y-90563291D01*
X148163878Y-90590912D01*
X148096279Y-90627734D01*
X148044551Y-90650490D01*
X148004113Y-90660177D01*
X147970380Y-90657789D01*
X147938773Y-90644321D01*
X147933287Y-90641005D01*
X147890228Y-90600117D01*
X147859450Y-90542802D01*
X147842291Y-90475555D01*
X147840088Y-90404871D01*
X147854177Y-90337244D01*
X147865365Y-90311139D01*
X147888354Y-90274731D01*
X147923067Y-90233474D01*
X147970517Y-90186622D01*
X148031713Y-90133430D01*
X148107668Y-90073153D01*
X148199393Y-90005045D01*
X148307898Y-89928362D01*
X148434196Y-89842357D01*
X148579297Y-89746286D01*
X148744213Y-89639404D01*
X148929954Y-89520965D01*
X148983700Y-89486976D01*
X149066176Y-89434778D01*
X149142602Y-89386182D01*
X149210074Y-89343052D01*
X149265688Y-89307251D01*
X149306541Y-89280644D01*
X149329727Y-89265095D01*
X149332950Y-89262754D01*
X149342804Y-89253740D01*
X149339564Y-89251942D01*
X149322035Y-89257915D01*
X149289026Y-89272214D01*
X149239343Y-89295396D01*
X149171795Y-89328016D01*
X149085188Y-89370631D01*
X148978331Y-89423795D01*
X148856700Y-89484717D01*
X148609409Y-89611276D01*
X148383513Y-89732174D01*
X148176137Y-89849245D01*
X147984406Y-89964326D01*
X147805447Y-90079250D01*
X147636385Y-90195852D01*
X147474345Y-90315968D01*
X147316454Y-90441432D01*
X147186650Y-90550811D01*
X147126695Y-90601763D01*
X147067995Y-90650176D01*
X147015460Y-90692104D01*
X146973996Y-90723603D01*
X146955969Y-90736187D01*
X146879533Y-90776691D01*
X146809626Y-90795295D01*
X146748146Y-90792417D01*
X146696991Y-90768476D01*
X146658058Y-90723892D01*
X146634741Y-90665300D01*
X146615701Y-90598129D01*
X146596886Y-90553674D01*
X146575635Y-90529412D01*
X146549287Y-90522822D01*
X146515182Y-90531385D01*
X146500200Y-90537827D01*
X146476069Y-90549593D01*
X146452534Y-90562983D01*
X146426817Y-90580196D01*
X146396141Y-90603428D01*
X146357730Y-90634880D01*
X146308806Y-90676750D01*
X146246592Y-90731235D01*
X146168310Y-90800535D01*
X146168015Y-90800797D01*
X146101860Y-90859278D01*
X146036249Y-90916845D01*
X145975670Y-90969589D01*
X145924616Y-91013602D01*
X145887575Y-91044977D01*
X145884900Y-91047198D01*
X145856892Y-91071053D01*
X145813589Y-91108792D01*
X145757181Y-91158452D01*
X145689857Y-91218068D01*
X145613807Y-91285674D01*
X145531221Y-91359307D01*
X145444290Y-91437001D01*
X145355203Y-91516793D01*
X145266149Y-91596716D01*
X145179320Y-91674806D01*
X145096905Y-91749099D01*
X145021094Y-91817630D01*
X144954077Y-91878433D01*
X144898044Y-91929546D01*
X144855184Y-91969001D01*
X144827689Y-91994835D01*
X144819061Y-92003427D01*
X144795931Y-92025673D01*
X144779283Y-92036653D01*
X144777786Y-92036900D01*
X144773248Y-92025134D01*
X144769751Y-91993563D01*
X144767784Y-91947775D01*
X144767528Y-91919425D01*
X144767757Y-91801950D01*
X144821503Y-91757723D01*
X144842857Y-91739392D01*
X144880618Y-91706154D01*
X144932376Y-91660162D01*
X144995722Y-91603571D01*
X145068245Y-91538535D01*
X145147534Y-91467207D01*
X145231182Y-91391741D01*
X145246725Y-91377695D01*
X145618200Y-91041892D01*
X145618200Y-90815334D01*
X145557875Y-90866828D01*
X145528494Y-90892544D01*
X145484920Y-90931506D01*
X145431593Y-90979702D01*
X145372957Y-91033121D01*
X145326100Y-91076103D01*
X145154650Y-91233885D01*
X145150981Y-91119763D01*
X145150792Y-91051701D01*
X145155254Y-91006618D01*
X145162491Y-90987352D01*
X145175241Y-90974973D01*
X145204820Y-90947822D01*
X145248987Y-90907910D01*
X145305503Y-90857243D01*
X145372127Y-90797830D01*
X145446620Y-90731680D01*
X145524935Y-90662397D01*
X145872199Y-90355730D01*
X145872200Y-90028664D01*
X145872556Y-89940131D01*
X145873561Y-89860236D01*
X145875115Y-89792409D01*
X145877119Y-89740083D01*
X145879476Y-89706689D01*
X145881774Y-89695681D01*
X145896820Y-89692862D01*
X145933210Y-89688446D01*
X145986966Y-89682844D01*
X146054111Y-89676466D01*
X146130669Y-89669723D01*
X146145299Y-89668488D01*
X146224866Y-89661502D01*
X146297369Y-89654533D01*
X146358391Y-89648056D01*
X146403513Y-89642542D01*
X146428319Y-89638464D01*
X146429854Y-89638055D01*
X146435924Y-89633226D01*
X146427552Y-89625695D01*
X146402596Y-89614602D01*
X146358917Y-89599087D01*
X146294374Y-89578291D01*
X146236179Y-89560299D01*
X146165309Y-89538144D01*
X146103648Y-89517953D01*
X146054994Y-89501045D01*
X146023146Y-89488740D01*
X146011900Y-89482397D01*
X146022457Y-89472716D01*
X146050349Y-89455686D01*
X146089902Y-89434720D01*
X146096697Y-89431345D01*
X146147604Y-89408281D01*
X146190084Y-89395531D01*
X146236673Y-89390180D01*
X146277672Y-89389280D01*
X146336744Y-89391133D01*
X146382895Y-89398829D01*
X146428386Y-89414883D01*
X146450012Y-89424614D01*
X146494546Y-89447487D01*
X146533317Y-89470899D01*
X146554456Y-89486836D01*
X146574817Y-89503818D01*
X146585227Y-89503296D01*
X146590837Y-89492296D01*
X146594211Y-89462980D01*
X146590786Y-89419713D01*
X146582107Y-89372532D01*
X146569719Y-89331475D01*
X146564204Y-89319267D01*
X146518002Y-89257403D01*
X146490844Y-89236550D01*
X149364700Y-89236550D01*
X149371050Y-89242900D01*
X149377400Y-89236550D01*
X150355300Y-89236550D01*
X150361650Y-89242900D01*
X150368000Y-89236550D01*
X150361650Y-89230200D01*
X150355300Y-89236550D01*
X149377400Y-89236550D01*
X149371050Y-89230200D01*
X149364700Y-89236550D01*
X146490844Y-89236550D01*
X146452082Y-89206787D01*
X146370470Y-89169644D01*
X146277191Y-89148201D01*
X146249621Y-89145320D01*
X146176529Y-89134779D01*
X146108416Y-89112910D01*
X146069050Y-89095235D01*
X146016912Y-89072771D01*
X145964624Y-89054666D01*
X145923246Y-89044735D01*
X145922221Y-89044594D01*
X145840987Y-89044586D01*
X145754106Y-89063158D01*
X145670631Y-89098174D01*
X145653571Y-89107904D01*
X145584497Y-89149499D01*
X145504476Y-89069091D01*
X145416063Y-88993605D01*
X145334003Y-88945347D01*
X145268499Y-88915840D01*
X145219242Y-88897637D01*
X145187905Y-88891197D01*
X145176160Y-88896976D01*
X145177207Y-88902529D01*
X145184350Y-88919451D01*
X145199633Y-88955260D01*
X145221153Y-89005512D01*
X145247009Y-89065764D01*
X145262257Y-89101248D01*
X145288785Y-89163748D01*
X145310943Y-89217475D01*
X145327113Y-89258386D01*
X145335680Y-89282438D01*
X145336518Y-89287080D01*
X145323543Y-89284938D01*
X145291493Y-89276345D01*
X145245440Y-89262733D01*
X145199495Y-89248420D01*
X145145493Y-89231792D01*
X145101108Y-89219165D01*
X145071447Y-89211925D01*
X145061643Y-89211022D01*
X145066912Y-89222469D01*
X145084694Y-89250705D01*
X145112517Y-89292012D01*
X145147910Y-89342672D01*
X145166023Y-89368053D01*
X145204503Y-89422182D01*
X145237048Y-89469023D01*
X145261041Y-89504727D01*
X145273867Y-89525447D01*
X145275300Y-89528836D01*
X145269008Y-89542613D01*
X145252027Y-89572934D01*
X145227199Y-89614847D01*
X145206571Y-89648594D01*
X145099804Y-89839528D01*
X145003999Y-90047611D01*
X144921711Y-90266027D01*
X144855493Y-90487956D01*
X144807899Y-90706582D01*
X144805916Y-90718118D01*
X144793644Y-90800453D01*
X144782541Y-90893582D01*
X144773011Y-90991951D01*
X144765456Y-91090002D01*
X144760277Y-91182180D01*
X144757879Y-91262929D01*
X144758662Y-91326693D01*
X144760218Y-91348958D01*
X144763081Y-91393851D01*
X144760989Y-91418433D01*
X144756032Y-91421835D01*
X144746488Y-91407043D01*
X144729930Y-91372003D01*
X144707804Y-91320414D01*
X144681557Y-91255978D01*
X144652632Y-91182395D01*
X144622478Y-91103366D01*
X144592538Y-91022591D01*
X144564260Y-90943771D01*
X144539089Y-90870608D01*
X144530389Y-90844292D01*
X144406559Y-90423711D01*
X144307487Y-89997961D01*
X144233263Y-89567938D01*
X144183982Y-89134542D01*
X144159735Y-88698670D01*
X144160616Y-88261218D01*
X144164192Y-88201173D01*
X145375644Y-88201173D01*
X145419157Y-88239378D01*
X145450551Y-88272797D01*
X145475052Y-88308885D01*
X145479381Y-88317927D01*
X145490913Y-88344083D01*
X145497455Y-88348469D01*
X145503664Y-88332811D01*
X145505251Y-88327511D01*
X145512428Y-88303736D01*
X145525248Y-88261584D01*
X145541909Y-88206962D01*
X145557166Y-88157050D01*
X146456400Y-88157050D01*
X146462750Y-88163400D01*
X146469100Y-88157050D01*
X146462750Y-88150700D01*
X146456400Y-88157050D01*
X145557166Y-88157050D01*
X145560612Y-88145779D01*
X145561050Y-88144350D01*
X145611945Y-87989364D01*
X145672316Y-87824175D01*
X145738082Y-87659295D01*
X145805164Y-87505239D01*
X145828411Y-87455375D01*
X145856216Y-87396275D01*
X145879159Y-87346254D01*
X145895455Y-87309303D01*
X145903319Y-87289417D01*
X145903621Y-87287100D01*
X145894843Y-87296803D01*
X145874084Y-87323435D01*
X145844160Y-87363284D01*
X145807887Y-87412633D01*
X145795290Y-87429975D01*
X145688541Y-87584595D01*
X145596950Y-87734194D01*
X145515002Y-87888508D01*
X145437183Y-88057274D01*
X145428295Y-88077940D01*
X145375644Y-88201173D01*
X144164192Y-88201173D01*
X144173151Y-88050778D01*
X144656355Y-88050778D01*
X144656930Y-88060179D01*
X144658594Y-88060439D01*
X144663566Y-88047410D01*
X144675168Y-88012891D01*
X144692511Y-87959654D01*
X144714706Y-87890470D01*
X144740862Y-87808110D01*
X144770091Y-87715346D01*
X144798900Y-87623292D01*
X144899193Y-87305438D01*
X144994756Y-87010200D01*
X145086373Y-86735400D01*
X145174829Y-86478859D01*
X145260910Y-86238400D01*
X145345399Y-86011843D01*
X145429082Y-85797012D01*
X145512743Y-85591728D01*
X145597167Y-85393813D01*
X145624641Y-85331300D01*
X145701561Y-85162136D01*
X145784389Y-84988324D01*
X145870689Y-84814570D01*
X145958027Y-84645580D01*
X146043968Y-84486062D01*
X146126076Y-84340721D01*
X146201918Y-84214264D01*
X146205403Y-84208679D01*
X146245162Y-84144842D01*
X146272175Y-84100582D01*
X146287325Y-84074041D01*
X146291498Y-84063363D01*
X146285576Y-84066691D01*
X146270445Y-84082168D01*
X146260459Y-84093050D01*
X146229199Y-84129714D01*
X146186770Y-84182739D01*
X146136528Y-84247646D01*
X146081830Y-84319959D01*
X146026032Y-84395200D01*
X145972490Y-84468893D01*
X145924560Y-84536559D01*
X145889166Y-84588350D01*
X145669863Y-84939586D01*
X145468963Y-85306885D01*
X145287342Y-85687929D01*
X145125872Y-86080402D01*
X144985427Y-86481986D01*
X144866879Y-86890364D01*
X144771101Y-87303220D01*
X144698968Y-87718235D01*
X144692593Y-87763350D01*
X144679183Y-87861172D01*
X144669139Y-87936342D01*
X144662175Y-87991344D01*
X144658009Y-88028661D01*
X144656355Y-88050778D01*
X144173151Y-88050778D01*
X144186715Y-87823086D01*
X144202698Y-87661750D01*
X144257020Y-87271486D01*
X144334123Y-86878620D01*
X144432718Y-86488090D01*
X144551513Y-86104835D01*
X144689221Y-85733794D01*
X144734964Y-85623400D01*
X144915317Y-85228898D01*
X145114347Y-84850794D01*
X145333369Y-84486943D01*
X145573698Y-84135204D01*
X145836648Y-83793434D01*
X145918554Y-83694413D01*
X145957492Y-83649907D01*
X146011423Y-83590915D01*
X146077207Y-83520734D01*
X146151702Y-83442664D01*
X146231770Y-83360003D01*
X146314268Y-83276049D01*
X146374084Y-83215980D01*
X146509287Y-83082985D01*
X146630452Y-82968138D01*
X146739522Y-82869844D01*
X146838438Y-82786506D01*
X146929142Y-82716529D01*
X147013575Y-82658317D01*
X147093679Y-82610274D01*
X147141952Y-82584930D01*
X147198376Y-82558203D01*
X147241313Y-82541943D01*
X147279164Y-82533725D01*
X147320328Y-82531125D01*
X147328593Y-82531067D01*
X147393383Y-82536940D01*
G37*
%TD*%
D11*
%TO.C,D3*%
X147320000Y-57817500D03*
D12*
X144780000Y-57817500D03*
%TD*%
D13*
%TO.C,RN2*%
X153545000Y-81135000D03*
D14*
X153545000Y-80265000D03*
X153545000Y-79465000D03*
D13*
X153545000Y-78595000D03*
X152145000Y-78595000D03*
D14*
X152145000Y-79465000D03*
X152145000Y-80265000D03*
D13*
X152145000Y-81135000D03*
%TD*%
D15*
%TO.C,C2*%
X157562500Y-100647500D03*
X154857500Y-100647500D03*
%TD*%
D11*
%TO.C,D7*%
X159385000Y-57785000D03*
D12*
X156845000Y-57785000D03*
%TD*%
D11*
%TO.C,D5*%
X147289257Y-69817500D03*
D12*
X144749257Y-69817500D03*
%TD*%
D16*
%TO.C,SW3*%
X173990000Y-74335000D03*
D17*
X173990000Y-76835000D03*
D16*
X173990000Y-79335000D03*
%TD*%
D11*
%TO.C,D6*%
X153352500Y-63817500D03*
D12*
X150812500Y-63817500D03*
%TD*%
D18*
%TO.C,J1*%
X139700000Y-90865000D03*
D19*
X139700000Y-88325000D03*
X139700000Y-85785000D03*
X139700000Y-83245000D03*
X139700000Y-80705000D03*
X139700000Y-78165000D03*
%TD*%
D20*
%TO.C,R3*%
X159512500Y-98107500D03*
X161162500Y-98107500D03*
%TD*%
D12*
%TO.C,SW2*%
X145415000Y-96147500D03*
X145415000Y-105147500D03*
D21*
X139165000Y-98147500D03*
X151665000Y-98147500D03*
X139165000Y-103147500D03*
X151665000Y-103147500D03*
%TD*%
D22*
%TO.C,D2*%
X170177500Y-72840000D03*
X168277500Y-72840000D03*
X169227500Y-75115000D03*
%TD*%
D11*
%TO.C,D4*%
X147320000Y-63817500D03*
D12*
X144780000Y-63817500D03*
%TD*%
D23*
%TO.C,D1*%
X163735000Y-100647500D03*
X167735000Y-100647500D03*
%TD*%
D24*
%TO.C,R1*%
X168719000Y-96583500D03*
X167069000Y-96583500D03*
%TD*%
D25*
%TO.C,BZ1*%
X166687500Y-63817500D03*
D26*
X171687500Y-63817500D03*
%TD*%
D11*
%TO.C,D8*%
X159385000Y-63817500D03*
D12*
X156845000Y-63817500D03*
%TD*%
D24*
%TO.C,R2*%
X168719000Y-98107500D03*
X167069000Y-98107500D03*
%TD*%
D11*
%TO.C,D9*%
X159385000Y-69850000D03*
D12*
X156845000Y-69850000D03*
%TD*%
D27*
%TO.C,J2*%
X170706800Y-97995900D03*
D28*
X170706800Y-95975900D03*
D29*
X170706800Y-94745900D03*
D30*
X170706800Y-96995900D03*
D31*
X170706800Y-99015900D03*
D32*
X170706800Y-100245900D03*
D33*
X170786800Y-101815900D03*
X174586800Y-101815900D03*
X170786800Y-93175900D03*
X174586800Y-93175900D03*
%TD*%
D34*
%TO.C,F1*%
X161275000Y-100647500D03*
X159400000Y-100647500D03*
%TD*%
D13*
%TO.C,RN1*%
X152145000Y-74595000D03*
D14*
X152145000Y-75465000D03*
X152145000Y-76265000D03*
D13*
X152145000Y-77135000D03*
X153545000Y-77135000D03*
D14*
X153545000Y-76265000D03*
X153545000Y-75465000D03*
D13*
X153545000Y-74595000D03*
%TD*%
D18*
%TO.C,J3*%
X173672500Y-85090000D03*
D19*
X173672500Y-87630000D03*
X173672500Y-90170000D03*
%TD*%
D16*
%TO.C,SW1*%
X160060000Y-104457500D03*
D17*
X162560000Y-104457500D03*
D16*
X165060000Y-104457500D03*
%TD*%
D35*
%TO.C,C1*%
X156985000Y-98107500D03*
X155435000Y-98107500D03*
%TD*%
D20*
%TO.C,R4*%
X168402500Y-76835000D03*
X170052500Y-76835000D03*
%TD*%
D36*
%TO.C,U1*%
X156210000Y-95250000D03*
D37*
X158750000Y-95250000D03*
X161290000Y-95250000D03*
X163830000Y-95250000D03*
X163830000Y-87630000D03*
X161290000Y-87630000D03*
X158750000Y-87630000D03*
X156210000Y-87630000D03*
%TD*%
D38*
%TO.C,U2*%
X163320000Y-82550000D03*
X163320000Y-81280000D03*
X163320000Y-80010000D03*
X163320000Y-78740000D03*
X163320000Y-77470000D03*
X163320000Y-76200000D03*
X163320000Y-74930000D03*
X158370000Y-74930000D03*
X158370000Y-76200000D03*
X158370000Y-77470000D03*
X158370000Y-78740000D03*
X158370000Y-80010000D03*
X158370000Y-81280000D03*
X158370000Y-82550000D03*
%TD*%
D39*
%TO.C,BAT1*%
X168845000Y-80645000D03*
X144845000Y-80645000D03*
X168845000Y-104365000D03*
X156145000Y-104365000D03*
%TD*%
M02*
