%TF.GenerationSoftware,KiCad,Pcbnew,10.0.6*%
%TF.CreationDate,2026-10-02T15:37:49+02:00*%
%TF.ProjectId,pdice-04,70646963-652d-4303-942e-6b696361645f,rev?*%
%TF.SameCoordinates,Original*%
%TF.FileFunction,Legend,Bot*%
%TF.FilePolarity,Positive*%
%FSLAX46Y46*%
G04 Gerber Fmt 4.6, Leading zero omitted, Abs format (unit mm)*
G04 Created by KiCad (PCBNEW 10.0.6) date 2026-10-02 15:37:49*
%MOMM*%
%LPD*%
G01*
G04 APERTURE LIST*
%ADD10C,0.250000*%
%ADD11C,0.150000*%
%ADD12C,0.100000*%
%ADD13C,0.120000*%
G04 APERTURE END LIST*
D10*
X137025000Y-55205000D02*
X137025000Y-55205000D01*
G75*
G02*
X139025000Y-53205000I2000000J0D01*
G01*
X174665000Y-53205000D01*
G75*
G02*
X176665000Y-55205000I0J-2000000D01*
G01*
X176665000Y-106085000D01*
G75*
G02*
X174665000Y-108085000I-2000000J0D01*
G01*
X139025000Y-108085000D01*
G75*
G02*
X137025000Y-106085000I0J2000000D01*
G01*
X137025000Y-55205000D01*
D11*
X171529173Y-85033247D02*
X171414887Y-85071342D01*
X171414887Y-85071342D02*
X171376792Y-85109438D01*
X171376792Y-85109438D02*
X171338696Y-85185628D01*
X171338696Y-85185628D02*
X171338696Y-85299914D01*
X171338696Y-85299914D02*
X171376792Y-85376104D01*
X171376792Y-85376104D02*
X171414887Y-85414200D01*
X171414887Y-85414200D02*
X171491077Y-85452295D01*
X171491077Y-85452295D02*
X171795839Y-85452295D01*
X171795839Y-85452295D02*
X171795839Y-84652295D01*
X171795839Y-84652295D02*
X171529173Y-84652295D01*
X171529173Y-84652295D02*
X171452982Y-84690390D01*
X171452982Y-84690390D02*
X171414887Y-84728485D01*
X171414887Y-84728485D02*
X171376792Y-84804676D01*
X171376792Y-84804676D02*
X171376792Y-84880866D01*
X171376792Y-84880866D02*
X171414887Y-84957057D01*
X171414887Y-84957057D02*
X171452982Y-84995152D01*
X171452982Y-84995152D02*
X171529173Y-85033247D01*
X171529173Y-85033247D02*
X171795839Y-85033247D01*
X170995839Y-84652295D02*
X170995839Y-85299914D01*
X170995839Y-85299914D02*
X170957744Y-85376104D01*
X170957744Y-85376104D02*
X170919649Y-85414200D01*
X170919649Y-85414200D02*
X170843458Y-85452295D01*
X170843458Y-85452295D02*
X170691077Y-85452295D01*
X170691077Y-85452295D02*
X170614887Y-85414200D01*
X170614887Y-85414200D02*
X170576792Y-85376104D01*
X170576792Y-85376104D02*
X170538696Y-85299914D01*
X170538696Y-85299914D02*
X170538696Y-84652295D01*
X170233935Y-84652295D02*
X169700601Y-84652295D01*
X169700601Y-84652295D02*
X170233935Y-85452295D01*
X170233935Y-85452295D02*
X169700601Y-85452295D01*
X169472030Y-84652295D02*
X168938696Y-84652295D01*
X168938696Y-84652295D02*
X169472030Y-85452295D01*
X169472030Y-85452295D02*
X168938696Y-85452295D01*
X171643458Y-87192295D02*
X171491077Y-87192295D01*
X171491077Y-87192295D02*
X171414887Y-87230390D01*
X171414887Y-87230390D02*
X171338696Y-87306580D01*
X171338696Y-87306580D02*
X171300601Y-87458961D01*
X171300601Y-87458961D02*
X171300601Y-87725628D01*
X171300601Y-87725628D02*
X171338696Y-87878009D01*
X171338696Y-87878009D02*
X171414887Y-87954200D01*
X171414887Y-87954200D02*
X171491077Y-87992295D01*
X171491077Y-87992295D02*
X171643458Y-87992295D01*
X171643458Y-87992295D02*
X171719649Y-87954200D01*
X171719649Y-87954200D02*
X171795839Y-87878009D01*
X171795839Y-87878009D02*
X171833935Y-87725628D01*
X171833935Y-87725628D02*
X171833935Y-87458961D01*
X171833935Y-87458961D02*
X171795839Y-87306580D01*
X171795839Y-87306580D02*
X171719649Y-87230390D01*
X171719649Y-87230390D02*
X171643458Y-87192295D01*
X170957744Y-87992295D02*
X170957744Y-87192295D01*
X170957744Y-87192295D02*
X170652982Y-87192295D01*
X170652982Y-87192295D02*
X170576792Y-87230390D01*
X170576792Y-87230390D02*
X170538697Y-87268485D01*
X170538697Y-87268485D02*
X170500601Y-87344676D01*
X170500601Y-87344676D02*
X170500601Y-87458961D01*
X170500601Y-87458961D02*
X170538697Y-87535152D01*
X170538697Y-87535152D02*
X170576792Y-87573247D01*
X170576792Y-87573247D02*
X170652982Y-87611342D01*
X170652982Y-87611342D02*
X170957744Y-87611342D01*
X170272030Y-87192295D02*
X169814887Y-87192295D01*
X170043459Y-87992295D02*
X170043459Y-87192295D01*
X171376792Y-89770390D02*
X171452982Y-89732295D01*
X171452982Y-89732295D02*
X171567268Y-89732295D01*
X171567268Y-89732295D02*
X171681554Y-89770390D01*
X171681554Y-89770390D02*
X171757744Y-89846580D01*
X171757744Y-89846580D02*
X171795839Y-89922771D01*
X171795839Y-89922771D02*
X171833935Y-90075152D01*
X171833935Y-90075152D02*
X171833935Y-90189438D01*
X171833935Y-90189438D02*
X171795839Y-90341819D01*
X171795839Y-90341819D02*
X171757744Y-90418009D01*
X171757744Y-90418009D02*
X171681554Y-90494200D01*
X171681554Y-90494200D02*
X171567268Y-90532295D01*
X171567268Y-90532295D02*
X171491077Y-90532295D01*
X171491077Y-90532295D02*
X171376792Y-90494200D01*
X171376792Y-90494200D02*
X171338696Y-90456104D01*
X171338696Y-90456104D02*
X171338696Y-90189438D01*
X171338696Y-90189438D02*
X171491077Y-90189438D01*
X170995839Y-90532295D02*
X170995839Y-89732295D01*
X170995839Y-89732295D02*
X170538696Y-90532295D01*
X170538696Y-90532295D02*
X170538696Y-89732295D01*
X170157744Y-90532295D02*
X170157744Y-89732295D01*
X170157744Y-89732295D02*
X169967268Y-89732295D01*
X169967268Y-89732295D02*
X169852982Y-89770390D01*
X169852982Y-89770390D02*
X169776792Y-89846580D01*
X169776792Y-89846580D02*
X169738697Y-89922771D01*
X169738697Y-89922771D02*
X169700601Y-90075152D01*
X169700601Y-90075152D02*
X169700601Y-90189438D01*
X169700601Y-90189438D02*
X169738697Y-90341819D01*
X169738697Y-90341819D02*
X169776792Y-90418009D01*
X169776792Y-90418009D02*
X169852982Y-90494200D01*
X169852982Y-90494200D02*
X169967268Y-90532295D01*
X169967268Y-90532295D02*
X170157744Y-90532295D01*
X143265588Y-76879795D02*
X143646540Y-76879795D01*
X143646540Y-76879795D02*
X143646540Y-76079795D01*
X143113207Y-76079795D02*
X142846540Y-76879795D01*
X142846540Y-76879795D02*
X142579874Y-76079795D01*
X142313207Y-76879795D02*
X142313207Y-76079795D01*
X142313207Y-76079795D02*
X142008445Y-76079795D01*
X142008445Y-76079795D02*
X141932255Y-76117890D01*
X141932255Y-76117890D02*
X141894160Y-76155985D01*
X141894160Y-76155985D02*
X141856064Y-76232176D01*
X141856064Y-76232176D02*
X141856064Y-76346461D01*
X141856064Y-76346461D02*
X141894160Y-76422652D01*
X141894160Y-76422652D02*
X141932255Y-76460747D01*
X141932255Y-76460747D02*
X142008445Y-76498842D01*
X142008445Y-76498842D02*
X142313207Y-76498842D01*
X143913207Y-78467295D02*
X143913207Y-77667295D01*
X143913207Y-77667295D02*
X143608445Y-77667295D01*
X143608445Y-77667295D02*
X143532255Y-77705390D01*
X143532255Y-77705390D02*
X143494160Y-77743485D01*
X143494160Y-77743485D02*
X143456064Y-77819676D01*
X143456064Y-77819676D02*
X143456064Y-77933961D01*
X143456064Y-77933961D02*
X143494160Y-78010152D01*
X143494160Y-78010152D02*
X143532255Y-78048247D01*
X143532255Y-78048247D02*
X143608445Y-78086342D01*
X143608445Y-78086342D02*
X143913207Y-78086342D01*
X142694160Y-77705390D02*
X142770350Y-77667295D01*
X142770350Y-77667295D02*
X142884636Y-77667295D01*
X142884636Y-77667295D02*
X142998922Y-77705390D01*
X142998922Y-77705390D02*
X143075112Y-77781580D01*
X143075112Y-77781580D02*
X143113207Y-77857771D01*
X143113207Y-77857771D02*
X143151303Y-78010152D01*
X143151303Y-78010152D02*
X143151303Y-78124438D01*
X143151303Y-78124438D02*
X143113207Y-78276819D01*
X143113207Y-78276819D02*
X143075112Y-78353009D01*
X143075112Y-78353009D02*
X142998922Y-78429200D01*
X142998922Y-78429200D02*
X142884636Y-78467295D01*
X142884636Y-78467295D02*
X142808445Y-78467295D01*
X142808445Y-78467295D02*
X142694160Y-78429200D01*
X142694160Y-78429200D02*
X142656064Y-78391104D01*
X142656064Y-78391104D02*
X142656064Y-78124438D01*
X142656064Y-78124438D02*
X142808445Y-78124438D01*
X141856064Y-78391104D02*
X141894160Y-78429200D01*
X141894160Y-78429200D02*
X142008445Y-78467295D01*
X142008445Y-78467295D02*
X142084636Y-78467295D01*
X142084636Y-78467295D02*
X142198922Y-78429200D01*
X142198922Y-78429200D02*
X142275112Y-78353009D01*
X142275112Y-78353009D02*
X142313207Y-78276819D01*
X142313207Y-78276819D02*
X142351303Y-78124438D01*
X142351303Y-78124438D02*
X142351303Y-78010152D01*
X142351303Y-78010152D02*
X142313207Y-77857771D01*
X142313207Y-77857771D02*
X142275112Y-77781580D01*
X142275112Y-77781580D02*
X142198922Y-77705390D01*
X142198922Y-77705390D02*
X142084636Y-77667295D01*
X142084636Y-77667295D02*
X142008445Y-77667295D01*
X142008445Y-77667295D02*
X141894160Y-77705390D01*
X141894160Y-77705390D02*
X141856064Y-77743485D01*
X143913207Y-83547295D02*
X143913207Y-82747295D01*
X143913207Y-82747295D02*
X143608445Y-82747295D01*
X143608445Y-82747295D02*
X143532255Y-82785390D01*
X143532255Y-82785390D02*
X143494160Y-82823485D01*
X143494160Y-82823485D02*
X143456064Y-82899676D01*
X143456064Y-82899676D02*
X143456064Y-83013961D01*
X143456064Y-83013961D02*
X143494160Y-83090152D01*
X143494160Y-83090152D02*
X143532255Y-83128247D01*
X143532255Y-83128247D02*
X143608445Y-83166342D01*
X143608445Y-83166342D02*
X143913207Y-83166342D01*
X142694160Y-82785390D02*
X142770350Y-82747295D01*
X142770350Y-82747295D02*
X142884636Y-82747295D01*
X142884636Y-82747295D02*
X142998922Y-82785390D01*
X142998922Y-82785390D02*
X143075112Y-82861580D01*
X143075112Y-82861580D02*
X143113207Y-82937771D01*
X143113207Y-82937771D02*
X143151303Y-83090152D01*
X143151303Y-83090152D02*
X143151303Y-83204438D01*
X143151303Y-83204438D02*
X143113207Y-83356819D01*
X143113207Y-83356819D02*
X143075112Y-83433009D01*
X143075112Y-83433009D02*
X142998922Y-83509200D01*
X142998922Y-83509200D02*
X142884636Y-83547295D01*
X142884636Y-83547295D02*
X142808445Y-83547295D01*
X142808445Y-83547295D02*
X142694160Y-83509200D01*
X142694160Y-83509200D02*
X142656064Y-83471104D01*
X142656064Y-83471104D02*
X142656064Y-83204438D01*
X142656064Y-83204438D02*
X142808445Y-83204438D01*
X142313207Y-83547295D02*
X142313207Y-82747295D01*
X142313207Y-82747295D02*
X142122731Y-82747295D01*
X142122731Y-82747295D02*
X142008445Y-82785390D01*
X142008445Y-82785390D02*
X141932255Y-82861580D01*
X141932255Y-82861580D02*
X141894160Y-82937771D01*
X141894160Y-82937771D02*
X141856064Y-83090152D01*
X141856064Y-83090152D02*
X141856064Y-83204438D01*
X141856064Y-83204438D02*
X141894160Y-83356819D01*
X141894160Y-83356819D02*
X141932255Y-83433009D01*
X141932255Y-83433009D02*
X142008445Y-83509200D01*
X142008445Y-83509200D02*
X142122731Y-83547295D01*
X142122731Y-83547295D02*
X142313207Y-83547295D01*
X143532255Y-84690390D02*
X143608445Y-84652295D01*
X143608445Y-84652295D02*
X143722731Y-84652295D01*
X143722731Y-84652295D02*
X143837017Y-84690390D01*
X143837017Y-84690390D02*
X143913207Y-84766580D01*
X143913207Y-84766580D02*
X143951302Y-84842771D01*
X143951302Y-84842771D02*
X143989398Y-84995152D01*
X143989398Y-84995152D02*
X143989398Y-85109438D01*
X143989398Y-85109438D02*
X143951302Y-85261819D01*
X143951302Y-85261819D02*
X143913207Y-85338009D01*
X143913207Y-85338009D02*
X143837017Y-85414200D01*
X143837017Y-85414200D02*
X143722731Y-85452295D01*
X143722731Y-85452295D02*
X143646540Y-85452295D01*
X143646540Y-85452295D02*
X143532255Y-85414200D01*
X143532255Y-85414200D02*
X143494159Y-85376104D01*
X143494159Y-85376104D02*
X143494159Y-85109438D01*
X143494159Y-85109438D02*
X143646540Y-85109438D01*
X143151302Y-85452295D02*
X143151302Y-84652295D01*
X143151302Y-84652295D02*
X142694159Y-85452295D01*
X142694159Y-85452295D02*
X142694159Y-84652295D01*
X142313207Y-85452295D02*
X142313207Y-84652295D01*
X142313207Y-84652295D02*
X142122731Y-84652295D01*
X142122731Y-84652295D02*
X142008445Y-84690390D01*
X142008445Y-84690390D02*
X141932255Y-84766580D01*
X141932255Y-84766580D02*
X141894160Y-84842771D01*
X141894160Y-84842771D02*
X141856064Y-84995152D01*
X141856064Y-84995152D02*
X141856064Y-85109438D01*
X141856064Y-85109438D02*
X141894160Y-85261819D01*
X141894160Y-85261819D02*
X141932255Y-85338009D01*
X141932255Y-85338009D02*
X142008445Y-85414200D01*
X142008445Y-85414200D02*
X142122731Y-85452295D01*
X142122731Y-85452295D02*
X142313207Y-85452295D01*
X143913207Y-87192295D02*
X143646540Y-87992295D01*
X143646540Y-87992295D02*
X143379874Y-87192295D01*
X143113207Y-87992295D02*
X143113207Y-87192295D01*
X143113207Y-87192295D02*
X142922731Y-87192295D01*
X142922731Y-87192295D02*
X142808445Y-87230390D01*
X142808445Y-87230390D02*
X142732255Y-87306580D01*
X142732255Y-87306580D02*
X142694160Y-87382771D01*
X142694160Y-87382771D02*
X142656064Y-87535152D01*
X142656064Y-87535152D02*
X142656064Y-87649438D01*
X142656064Y-87649438D02*
X142694160Y-87801819D01*
X142694160Y-87801819D02*
X142732255Y-87878009D01*
X142732255Y-87878009D02*
X142808445Y-87954200D01*
X142808445Y-87954200D02*
X142922731Y-87992295D01*
X142922731Y-87992295D02*
X143113207Y-87992295D01*
X142313207Y-87992295D02*
X142313207Y-87192295D01*
X142313207Y-87192295D02*
X142122731Y-87192295D01*
X142122731Y-87192295D02*
X142008445Y-87230390D01*
X142008445Y-87230390D02*
X141932255Y-87306580D01*
X141932255Y-87306580D02*
X141894160Y-87382771D01*
X141894160Y-87382771D02*
X141856064Y-87535152D01*
X141856064Y-87535152D02*
X141856064Y-87649438D01*
X141856064Y-87649438D02*
X141894160Y-87801819D01*
X141894160Y-87801819D02*
X141932255Y-87878009D01*
X141932255Y-87878009D02*
X142008445Y-87954200D01*
X142008445Y-87954200D02*
X142122731Y-87992295D01*
X142122731Y-87992295D02*
X142313207Y-87992295D01*
X143913207Y-89732295D02*
X143646540Y-90532295D01*
X143646540Y-90532295D02*
X143379874Y-89732295D01*
X143113207Y-90532295D02*
X143113207Y-89732295D01*
X143113207Y-89732295D02*
X142808445Y-89732295D01*
X142808445Y-89732295D02*
X142732255Y-89770390D01*
X142732255Y-89770390D02*
X142694160Y-89808485D01*
X142694160Y-89808485D02*
X142656064Y-89884676D01*
X142656064Y-89884676D02*
X142656064Y-89998961D01*
X142656064Y-89998961D02*
X142694160Y-90075152D01*
X142694160Y-90075152D02*
X142732255Y-90113247D01*
X142732255Y-90113247D02*
X142808445Y-90151342D01*
X142808445Y-90151342D02*
X143113207Y-90151342D01*
X142313207Y-90532295D02*
X142313207Y-89732295D01*
X142313207Y-89732295D02*
X142008445Y-89732295D01*
X142008445Y-89732295D02*
X141932255Y-89770390D01*
X141932255Y-89770390D02*
X141894160Y-89808485D01*
X141894160Y-89808485D02*
X141856064Y-89884676D01*
X141856064Y-89884676D02*
X141856064Y-89998961D01*
X141856064Y-89998961D02*
X141894160Y-90075152D01*
X141894160Y-90075152D02*
X141932255Y-90113247D01*
X141932255Y-90113247D02*
X142008445Y-90151342D01*
X142008445Y-90151342D02*
X142313207Y-90151342D01*
X154050951Y-102626366D02*
X153289047Y-102626366D01*
X153669999Y-103007319D02*
X153669999Y-102245414D01*
D12*
X156278609Y-79430714D02*
X156326228Y-79573571D01*
X156326228Y-79573571D02*
X156373847Y-79621190D01*
X156373847Y-79621190D02*
X156469085Y-79668809D01*
X156469085Y-79668809D02*
X156611942Y-79668809D01*
X156611942Y-79668809D02*
X156707180Y-79621190D01*
X156707180Y-79621190D02*
X156754800Y-79573571D01*
X156754800Y-79573571D02*
X156802419Y-79478333D01*
X156802419Y-79478333D02*
X156802419Y-79097381D01*
X156802419Y-79097381D02*
X155802419Y-79097381D01*
X155802419Y-79097381D02*
X155802419Y-79430714D01*
X155802419Y-79430714D02*
X155850038Y-79525952D01*
X155850038Y-79525952D02*
X155897657Y-79573571D01*
X155897657Y-79573571D02*
X155992895Y-79621190D01*
X155992895Y-79621190D02*
X156088133Y-79621190D01*
X156088133Y-79621190D02*
X156183371Y-79573571D01*
X156183371Y-79573571D02*
X156230990Y-79525952D01*
X156230990Y-79525952D02*
X156278609Y-79430714D01*
X156278609Y-79430714D02*
X156278609Y-79097381D01*
X156516704Y-80049762D02*
X156516704Y-80525952D01*
X156802419Y-79954524D02*
X155802419Y-80287857D01*
X155802419Y-80287857D02*
X156802419Y-80621190D01*
X155802419Y-80811667D02*
X155802419Y-81383095D01*
X156802419Y-81097381D02*
X155802419Y-81097381D01*
X156802419Y-82240238D02*
X156802419Y-81668810D01*
X156802419Y-81954524D02*
X155802419Y-81954524D01*
X155802419Y-81954524D02*
X155945276Y-81859286D01*
X155945276Y-81859286D02*
X156040514Y-81764048D01*
X156040514Y-81764048D02*
X156088133Y-81668810D01*
D11*
X156283095Y-106256247D02*
X156168809Y-106294342D01*
X156168809Y-106294342D02*
X156130714Y-106332438D01*
X156130714Y-106332438D02*
X156092618Y-106408628D01*
X156092618Y-106408628D02*
X156092618Y-106522914D01*
X156092618Y-106522914D02*
X156130714Y-106599104D01*
X156130714Y-106599104D02*
X156168809Y-106637200D01*
X156168809Y-106637200D02*
X156244999Y-106675295D01*
X156244999Y-106675295D02*
X156549761Y-106675295D01*
X156549761Y-106675295D02*
X156549761Y-105875295D01*
X156549761Y-105875295D02*
X156283095Y-105875295D01*
X156283095Y-105875295D02*
X156206904Y-105913390D01*
X156206904Y-105913390D02*
X156168809Y-105951485D01*
X156168809Y-105951485D02*
X156130714Y-106027676D01*
X156130714Y-106027676D02*
X156130714Y-106103866D01*
X156130714Y-106103866D02*
X156168809Y-106180057D01*
X156168809Y-106180057D02*
X156206904Y-106218152D01*
X156206904Y-106218152D02*
X156283095Y-106256247D01*
X156283095Y-106256247D02*
X156549761Y-106256247D01*
X155749761Y-106370533D02*
X155140238Y-106370533D01*
X169283095Y-106256247D02*
X169168809Y-106294342D01*
X169168809Y-106294342D02*
X169130714Y-106332438D01*
X169130714Y-106332438D02*
X169092618Y-106408628D01*
X169092618Y-106408628D02*
X169092618Y-106522914D01*
X169092618Y-106522914D02*
X169130714Y-106599104D01*
X169130714Y-106599104D02*
X169168809Y-106637200D01*
X169168809Y-106637200D02*
X169244999Y-106675295D01*
X169244999Y-106675295D02*
X169549761Y-106675295D01*
X169549761Y-106675295D02*
X169549761Y-105875295D01*
X169549761Y-105875295D02*
X169283095Y-105875295D01*
X169283095Y-105875295D02*
X169206904Y-105913390D01*
X169206904Y-105913390D02*
X169168809Y-105951485D01*
X169168809Y-105951485D02*
X169130714Y-106027676D01*
X169130714Y-106027676D02*
X169130714Y-106103866D01*
X169130714Y-106103866D02*
X169168809Y-106180057D01*
X169168809Y-106180057D02*
X169206904Y-106218152D01*
X169206904Y-106218152D02*
X169283095Y-106256247D01*
X169283095Y-106256247D02*
X169549761Y-106256247D01*
X168749761Y-106370533D02*
X168140238Y-106370533D01*
X168444999Y-106675295D02*
X168444999Y-106065771D01*
%TO.C,BAT1*%
X141345000Y-56645000D02*
X149345000Y-56645000D01*
X142345000Y-57645000D02*
X148345000Y-57645000D01*
X143345000Y-58645000D02*
X147345000Y-58645000D01*
X143345000Y-104645000D02*
X147345000Y-104645000D01*
X144345000Y-103645000D02*
X146345000Y-103645000D01*
X144345000Y-104645000D02*
X144345000Y-103645000D01*
X146345000Y-103645000D02*
X146345000Y-104645000D01*
X148345000Y-57645000D02*
X143345000Y-58645000D01*
X149345000Y-56645000D02*
X142345000Y-57645000D01*
X150845000Y-105645000D02*
X150845000Y-55645000D01*
X152845000Y-104645000D02*
X159845000Y-103645000D01*
X153845000Y-103645000D02*
X158845000Y-102645000D01*
X155845000Y-57645000D02*
X155845000Y-56645000D01*
X157845000Y-56645000D02*
X157845000Y-57645000D01*
X157845000Y-57645000D02*
X155845000Y-57645000D01*
X158845000Y-56645000D02*
X154845000Y-56645000D01*
X158845000Y-102645000D02*
X154845000Y-102645000D01*
X159845000Y-103645000D02*
X153845000Y-103645000D01*
X160845000Y-104645000D02*
X152845000Y-104645000D01*
X162845000Y-105645000D02*
X162845000Y-55645000D01*
X164345000Y-56645000D02*
X172345000Y-56645000D01*
X165345000Y-57645000D02*
X171345000Y-57645000D01*
X166345000Y-58645000D02*
X170345000Y-58645000D01*
X166345000Y-104645000D02*
X170345000Y-104645000D01*
X167345000Y-103645000D02*
X169345000Y-103645000D01*
X167345000Y-104645000D02*
X167345000Y-103645000D01*
X169345000Y-103645000D02*
X169345000Y-104645000D01*
X171345000Y-57645000D02*
X166345000Y-58645000D01*
X172345000Y-56645000D02*
X165345000Y-57645000D01*
X138095000Y-54395000D02*
X175595000Y-54395000D01*
X175595000Y-106895000D01*
X138095000Y-106895000D01*
X138095000Y-54395000D01*
D13*
X139845000Y-55645000D02*
X173845000Y-55645000D01*
X173845000Y-105645000D01*
X139845000Y-105645000D01*
X139845000Y-55645000D01*
D11*
X146845000Y-80645000D02*
G75*
G02*
X142845000Y-80645000I-2000000J0D01*
G01*
X142845000Y-80645000D02*
G75*
G02*
X146845000Y-80645000I2000000J0D01*
G01*
X170845000Y-80645000D02*
G75*
G02*
X166845000Y-80645000I-2000000J0D01*
G01*
X166845000Y-80645000D02*
G75*
G02*
X170845000Y-80645000I2000000J0D01*
G01*
%TD*%
M02*
