M48
; DRILL file KiCad 10.0.0 date 2026-09-15T12:55:40
; FORMAT={-:-/ absolute / metric / decimal}
; #@! TF.CreationDate,2026-09-15T12:55:40+02:00
; #@! TF.GenerationSoftware,Kicad,Pcbnew,10.0.0
; #@! TF.FileFunction,Plated,1,2,PTH
FMAT,2
METRIC
; #@! TA.AperFunction,Plated,PTH,ComponentDrill
T1C0.700
; #@! TA.AperFunction,Plated,PTH,ViaDrill
T2C0.800
; #@! TA.AperFunction,Plated,PTH,ComponentDrill
T3C0.800
; #@! TA.AperFunction,Plated,PTH,ComponentDrill
T4C0.900
; #@! TA.AperFunction,Plated,PTH,ComponentDrill
T5C1.000
; #@! TA.AperFunction,Plated,PTH,ComponentDrill
T6C1.100
; #@! TA.AperFunction,Plated,PTH,ComponentDrill
T7C1.200
%
G90
G05
T1
X133.46Y-101.6
X133.46Y-105.6
X143.51Y-96.52
X168.91Y-87.438
T2
X149.86Y-83.82
X152.4Y-71.12
X160.655Y-83.82
X164.465Y-93.345
T3
X124.46Y-76.2
X124.46Y-83.82
X124.465Y-88.9
X124.465Y-96.52
X127.005Y-88.9
X127.005Y-96.52
X128.27Y-76.2
X128.27Y-83.82
X129.545Y-88.9
X129.545Y-96.52
X130.81Y-110.49
X132.08Y-76.2
X132.08Y-83.82
X132.085Y-88.9
X132.085Y-96.52
X133.35Y-110.49
X134.625Y-88.9
X134.625Y-96.52
X135.89Y-76.2
X135.89Y-83.82
X135.89Y-110.49
X137.165Y-88.9
X137.165Y-96.52
X139.7Y-76.2
X139.7Y-83.82
X139.705Y-88.9
X139.705Y-96.52
X143.51Y-76.2
X143.51Y-83.82
X147.32Y-76.2
X147.32Y-83.82
X147.32Y-90.17
X147.32Y-95.17
X151.13Y-88.9
X151.13Y-96.52
X151.13Y-100.33
X153.67Y-88.9
X153.67Y-96.52
X153.67Y-104.315
X153.67Y-106.815
X156.21Y-88.9
X156.21Y-96.52
X158.75Y-88.9
X158.75Y-96.52
X158.75Y-100.33
X179.07Y-103.505
X179.07Y-106.045
X179.07Y-108.585
T4
X130.175Y-55.88
X130.175Y-63.5
X130.175Y-71.12
X132.715Y-55.88
X132.715Y-63.5
X132.715Y-71.12
X137.795Y-63.5
X140.335Y-63.5
X145.415Y-55.88
X145.415Y-63.5
X145.415Y-71.12
X147.955Y-55.88
X147.955Y-63.5
X147.955Y-71.12
X160.655Y-55.88
X160.655Y-63.5
X160.655Y-71.12
X163.195Y-55.88
X163.195Y-63.5
X163.195Y-71.12
X168.275Y-63.5
X170.815Y-63.5
X175.895Y-55.88
X175.895Y-63.5
X175.895Y-71.12
X178.435Y-55.88
X178.435Y-63.5
X178.435Y-71.12
T5
X137.24Y-101.6
X142.24Y-101.6
X168.91Y-85.1
X168.91Y-92.7
X181.61Y-82.55
X181.61Y-85.09
X181.61Y-87.63
X181.61Y-90.17
X181.61Y-92.71
X181.61Y-95.25
T6
X137.16Y-105.41
X144.78Y-105.41
T7
X162.66Y-103.49
X162.66Y-108.49
X175.16Y-103.49
X175.16Y-108.49
M30
