ISO-10303-21;
HEADER;
FILE_DESCRIPTION(('FreeCAD Model'),'2;1');
FILE_NAME('C:/Users/Pieter/3D Objects/ledholder.step',
  '2026-10-05T11:58:49',('Author'),(''),
  'Open CASCADE STEP processor 7.3','FreeCAD','Unknown');
FILE_SCHEMA(('AUTOMOTIVE_DESIGN { 1 0 10303 214 1 1 1 1 }'));
ENDSEC;
DATA;
#1 = APPLICATION_PROTOCOL_DEFINITION('international standard',
  'automotive_design',2000,#2);
#2 = APPLICATION_CONTEXT(
  'core data for automotive mechanical design processes');
#3 = SHAPE_DEFINITION_REPRESENTATION(#4,#10);
#4 = PRODUCT_DEFINITION_SHAPE('','',#5);
#5 = PRODUCT_DEFINITION('design','',#6,#9);
#6 = PRODUCT_DEFINITION_FORMATION('','',#7);
#7 = PRODUCT('Fillet','Fillet','',(#8));
#8 = PRODUCT_CONTEXT('',#2,'mechanical');
#9 = PRODUCT_DEFINITION_CONTEXT('part definition',#2,'design');
#10 = ADVANCED_BREP_SHAPE_REPRESENTATION('',(#11,#15),#1331);
#11 = AXIS2_PLACEMENT_3D('',#12,#13,#14);
#12 = CARTESIAN_POINT('',(0.,0.,0.));
#13 = DIRECTION('',(0.,0.,1.));
#14 = DIRECTION('',(1.,0.,-0.));
#15 = MANIFOLD_SOLID_BREP('',#16);
#16 = CLOSED_SHELL('',(#17,#57,#234,#259,#284,#489,#506,#523,#540,#557,
    #569,#601,#626,#660,#694,#728,#753,#778,#803,#837,#862,#896,#914,
    #939,#964,#989,#1014,#1039,#1064,#1089,#1114,#1139,#1164,#1189,#1214
    ,#1239,#1264));
#17 = ADVANCED_FACE('',(#18),#52,.F.);
#18 = FACE_BOUND('',#19,.F.);
#19 = EDGE_LOOP('',(#20,#30,#38,#46));
#20 = ORIENTED_EDGE('',*,*,#21,.F.);
#21 = EDGE_CURVE('',#22,#24,#26,.T.);
#22 = VERTEX_POINT('',#23);
#23 = CARTESIAN_POINT('',(-9.75,-6.,5.));
#24 = VERTEX_POINT('',#25);
#25 = CARTESIAN_POINT('',(-9.75,6.,5.));
#26 = LINE('',#27,#28);
#27 = CARTESIAN_POINT('',(-9.75,-9.75,5.));
#28 = VECTOR('',#29,1.);
#29 = DIRECTION('',(0.,1.,0.));
#30 = ORIENTED_EDGE('',*,*,#31,.F.);
#31 = EDGE_CURVE('',#32,#22,#34,.T.);
#32 = VERTEX_POINT('',#33);
#33 = CARTESIAN_POINT('',(-9.75,-6.,0.));
#34 = LINE('',#35,#36);
#35 = CARTESIAN_POINT('',(-9.75,-6.,0.));
#36 = VECTOR('',#37,1.);
#37 = DIRECTION('',(0.,0.,1.));
#38 = ORIENTED_EDGE('',*,*,#39,.T.);
#39 = EDGE_CURVE('',#32,#40,#42,.T.);
#40 = VERTEX_POINT('',#41);
#41 = CARTESIAN_POINT('',(-9.75,6.,0.));
#42 = LINE('',#43,#44);
#43 = CARTESIAN_POINT('',(-9.75,-9.75,0.));
#44 = VECTOR('',#45,1.);
#45 = DIRECTION('',(0.,1.,0.));
#46 = ORIENTED_EDGE('',*,*,#47,.T.);
#47 = EDGE_CURVE('',#40,#24,#48,.T.);
#48 = LINE('',#49,#50);
#49 = CARTESIAN_POINT('',(-9.75,6.,0.));
#50 = VECTOR('',#51,1.);
#51 = DIRECTION('',(0.,0.,1.));
#52 = PLANE('',#53);
#53 = AXIS2_PLACEMENT_3D('',#54,#55,#56);
#54 = CARTESIAN_POINT('',(-9.75,-9.75,0.));
#55 = DIRECTION('',(1.,0.,0.));
#56 = DIRECTION('',(0.,0.,1.));
#57 = ADVANCED_FACE('',(#58,#119),#229,.T.);
#58 = FACE_BOUND('',#59,.T.);
#59 = EDGE_LOOP('',(#60,#61,#70,#78,#87,#95,#104,#112));
#60 = ORIENTED_EDGE('',*,*,#21,.F.);
#61 = ORIENTED_EDGE('',*,*,#62,.T.);
#62 = EDGE_CURVE('',#22,#63,#65,.T.);
#63 = VERTEX_POINT('',#64);
#64 = CARTESIAN_POINT('',(-6.,-9.75,5.));
#65 = CIRCLE('',#66,3.75);
#66 = AXIS2_PLACEMENT_3D('',#67,#68,#69);
#67 = CARTESIAN_POINT('',(-6.,-6.,5.));
#68 = DIRECTION('',(-0.,0.,1.));
#69 = DIRECTION('',(0.,-1.,0.));
#70 = ORIENTED_EDGE('',*,*,#71,.T.);
#71 = EDGE_CURVE('',#63,#72,#74,.T.);
#72 = VERTEX_POINT('',#73);
#73 = CARTESIAN_POINT('',(6.,-9.75,5.));
#74 = LINE('',#75,#76);
#75 = CARTESIAN_POINT('',(-9.75,-9.75,5.));
#76 = VECTOR('',#77,1.);
#77 = DIRECTION('',(1.,0.,0.));
#78 = ORIENTED_EDGE('',*,*,#79,.T.);
#79 = EDGE_CURVE('',#72,#80,#82,.T.);
#80 = VERTEX_POINT('',#81);
#81 = CARTESIAN_POINT('',(9.75,-6.,5.));
#82 = CIRCLE('',#83,3.75);
#83 = AXIS2_PLACEMENT_3D('',#84,#85,#86);
#84 = CARTESIAN_POINT('',(6.,-6.,5.));
#85 = DIRECTION('',(-0.,0.,1.));
#86 = DIRECTION('',(0.,-1.,0.));
#87 = ORIENTED_EDGE('',*,*,#88,.T.);
#88 = EDGE_CURVE('',#80,#89,#91,.T.);
#89 = VERTEX_POINT('',#90);
#90 = CARTESIAN_POINT('',(9.75,6.,5.));
#91 = LINE('',#92,#93);
#92 = CARTESIAN_POINT('',(9.75,-9.75,5.));
#93 = VECTOR('',#94,1.);
#94 = DIRECTION('',(0.,1.,0.));
#95 = ORIENTED_EDGE('',*,*,#96,.F.);
#96 = EDGE_CURVE('',#97,#89,#99,.T.);
#97 = VERTEX_POINT('',#98);
#98 = CARTESIAN_POINT('',(6.,9.75,5.));
#99 = CIRCLE('',#100,3.75);
#100 = AXIS2_PLACEMENT_3D('',#101,#102,#103);
#101 = CARTESIAN_POINT('',(6.,6.,5.));
#102 = DIRECTION('',(-0.,-0.,-1.));
#103 = DIRECTION('',(0.,-1.,0.));
#104 = ORIENTED_EDGE('',*,*,#105,.F.);
#105 = EDGE_CURVE('',#106,#97,#108,.T.);
#106 = VERTEX_POINT('',#107);
#107 = CARTESIAN_POINT('',(-6.,9.75,5.));
#108 = LINE('',#109,#110);
#109 = CARTESIAN_POINT('',(-9.75,9.75,5.));
#110 = VECTOR('',#111,1.);
#111 = DIRECTION('',(1.,0.,0.));
#112 = ORIENTED_EDGE('',*,*,#113,.F.);
#113 = EDGE_CURVE('',#24,#106,#114,.T.);
#114 = CIRCLE('',#115,3.75);
#115 = AXIS2_PLACEMENT_3D('',#116,#117,#118);
#116 = CARTESIAN_POINT('',(-6.,6.,5.));
#117 = DIRECTION('',(-0.,-0.,-1.));
#118 = DIRECTION('',(0.,-1.,0.));
#119 = FACE_BOUND('',#120,.T.);
#120 = EDGE_LOOP('',(#121,#132,#141,#150,#159,#168,#177,#186,#195,#204,
    #213,#222));
#121 = ORIENTED_EDGE('',*,*,#122,.F.);
#122 = EDGE_CURVE('',#123,#125,#127,.T.);
#123 = VERTEX_POINT('',#124);
#124 = CARTESIAN_POINT('',(-3.,-1.25,5.));
#125 = VERTEX_POINT('',#126);
#126 = CARTESIAN_POINT('',(3.,-1.25,5.));
#127 = CIRCLE('',#128,3.25);
#128 = AXIS2_PLACEMENT_3D('',#129,#130,#131);
#129 = CARTESIAN_POINT('',(0.,0.,5.));
#130 = DIRECTION('',(0.,0.,1.));
#131 = DIRECTION('',(1.,0.,0.));
#132 = ORIENTED_EDGE('',*,*,#133,.F.);
#133 = EDGE_CURVE('',#134,#123,#136,.T.);
#134 = VERTEX_POINT('',#135);
#135 = CARTESIAN_POINT('',(-4.75,-3.,5.));
#136 = CIRCLE('',#137,3.25);
#137 = AXIS2_PLACEMENT_3D('',#138,#139,#140);
#138 = CARTESIAN_POINT('',(-6.,0.,5.));
#139 = DIRECTION('',(0.,0.,1.));
#140 = DIRECTION('',(1.,0.,0.));
#141 = ORIENTED_EDGE('',*,*,#142,.F.);
#142 = EDGE_CURVE('',#143,#134,#145,.T.);
#143 = VERTEX_POINT('',#144);
#144 = CARTESIAN_POINT('',(-7.25,-3.,5.));
#145 = CIRCLE('',#146,3.25);
#146 = AXIS2_PLACEMENT_3D('',#147,#148,#149);
#147 = CARTESIAN_POINT('',(-6.,-6.,5.));
#148 = DIRECTION('',(0.,0.,1.));
#149 = DIRECTION('',(1.,0.,0.));
#150 = ORIENTED_EDGE('',*,*,#151,.F.);
#151 = EDGE_CURVE('',#152,#143,#154,.T.);
#152 = VERTEX_POINT('',#153);
#153 = CARTESIAN_POINT('',(-7.25,3.,5.));
#154 = CIRCLE('',#155,3.25);
#155 = AXIS2_PLACEMENT_3D('',#156,#157,#158);
#156 = CARTESIAN_POINT('',(-6.,0.,5.));
#157 = DIRECTION('',(0.,0.,1.));
#158 = DIRECTION('',(1.,0.,0.));
#159 = ORIENTED_EDGE('',*,*,#160,.F.);
#160 = EDGE_CURVE('',#161,#152,#163,.T.);
#161 = VERTEX_POINT('',#162);
#162 = CARTESIAN_POINT('',(-4.75,3.,5.));
#163 = CIRCLE('',#164,3.25);
#164 = AXIS2_PLACEMENT_3D('',#165,#166,#167);
#165 = CARTESIAN_POINT('',(-6.,6.,5.));
#166 = DIRECTION('',(0.,0.,1.));
#167 = DIRECTION('',(1.,0.,0.));
#168 = ORIENTED_EDGE('',*,*,#169,.F.);
#169 = EDGE_CURVE('',#170,#161,#172,.T.);
#170 = VERTEX_POINT('',#171);
#171 = CARTESIAN_POINT('',(-3.,1.25,5.));
#172 = CIRCLE('',#173,3.25);
#173 = AXIS2_PLACEMENT_3D('',#174,#175,#176);
#174 = CARTESIAN_POINT('',(-6.,0.,5.));
#175 = DIRECTION('',(0.,0.,1.));
#176 = DIRECTION('',(1.,0.,0.));
#177 = ORIENTED_EDGE('',*,*,#178,.F.);
#178 = EDGE_CURVE('',#179,#170,#181,.T.);
#179 = VERTEX_POINT('',#180);
#180 = CARTESIAN_POINT('',(3.,1.25,5.));
#181 = CIRCLE('',#182,3.25);
#182 = AXIS2_PLACEMENT_3D('',#183,#184,#185);
#183 = CARTESIAN_POINT('',(0.,0.,5.));
#184 = DIRECTION('',(0.,0.,1.));
#185 = DIRECTION('',(1.,0.,0.));
#186 = ORIENTED_EDGE('',*,*,#187,.F.);
#187 = EDGE_CURVE('',#188,#179,#190,.T.);
#188 = VERTEX_POINT('',#189);
#189 = CARTESIAN_POINT('',(4.75,3.,5.));
#190 = CIRCLE('',#191,3.25);
#191 = AXIS2_PLACEMENT_3D('',#192,#193,#194);
#192 = CARTESIAN_POINT('',(6.,0.,5.));
#193 = DIRECTION('',(0.,0.,1.));
#194 = DIRECTION('',(1.,0.,0.));
#195 = ORIENTED_EDGE('',*,*,#196,.F.);
#196 = EDGE_CURVE('',#197,#188,#199,.T.);
#197 = VERTEX_POINT('',#198);
#198 = CARTESIAN_POINT('',(7.25,3.,5.));
#199 = CIRCLE('',#200,3.25);
#200 = AXIS2_PLACEMENT_3D('',#201,#202,#203);
#201 = CARTESIAN_POINT('',(6.,6.,5.));
#202 = DIRECTION('',(0.,0.,1.));
#203 = DIRECTION('',(1.,0.,0.));
#204 = ORIENTED_EDGE('',*,*,#205,.F.);
#205 = EDGE_CURVE('',#206,#197,#208,.T.);
#206 = VERTEX_POINT('',#207);
#207 = CARTESIAN_POINT('',(7.25,-3.,5.));
#208 = CIRCLE('',#209,3.25);
#209 = AXIS2_PLACEMENT_3D('',#210,#211,#212);
#210 = CARTESIAN_POINT('',(6.,0.,5.));
#211 = DIRECTION('',(0.,0.,1.));
#212 = DIRECTION('',(1.,0.,0.));
#213 = ORIENTED_EDGE('',*,*,#214,.F.);
#214 = EDGE_CURVE('',#215,#206,#217,.T.);
#215 = VERTEX_POINT('',#216);
#216 = CARTESIAN_POINT('',(4.75,-3.,5.));
#217 = CIRCLE('',#218,3.25);
#218 = AXIS2_PLACEMENT_3D('',#219,#220,#221);
#219 = CARTESIAN_POINT('',(6.,-6.,5.));
#220 = DIRECTION('',(0.,0.,1.));
#221 = DIRECTION('',(1.,0.,0.));
#222 = ORIENTED_EDGE('',*,*,#223,.F.);
#223 = EDGE_CURVE('',#125,#215,#224,.T.);
#224 = CIRCLE('',#225,3.25);
#225 = AXIS2_PLACEMENT_3D('',#226,#227,#228);
#226 = CARTESIAN_POINT('',(6.,0.,5.));
#227 = DIRECTION('',(0.,0.,1.));
#228 = DIRECTION('',(1.,0.,0.));
#229 = PLANE('',#230);
#230 = AXIS2_PLACEMENT_3D('',#231,#232,#233);
#231 = CARTESIAN_POINT('',(-9.75,-9.75,5.));
#232 = DIRECTION('',(0.,0.,1.));
#233 = DIRECTION('',(1.,0.,0.));
#234 = ADVANCED_FACE('',(#235),#254,.T.);
#235 = FACE_BOUND('',#236,.T.);
#236 = EDGE_LOOP('',(#237,#246,#252,#253));
#237 = ORIENTED_EDGE('',*,*,#238,.T.);
#238 = EDGE_CURVE('',#32,#239,#241,.T.);
#239 = VERTEX_POINT('',#240);
#240 = CARTESIAN_POINT('',(-6.,-9.75,0.));
#241 = CIRCLE('',#242,3.75);
#242 = AXIS2_PLACEMENT_3D('',#243,#244,#245);
#243 = CARTESIAN_POINT('',(-6.,-6.,0.));
#244 = DIRECTION('',(-0.,0.,1.));
#245 = DIRECTION('',(0.,-1.,0.));
#246 = ORIENTED_EDGE('',*,*,#247,.T.);
#247 = EDGE_CURVE('',#239,#63,#248,.T.);
#248 = LINE('',#249,#250);
#249 = CARTESIAN_POINT('',(-6.,-9.75,0.));
#250 = VECTOR('',#251,1.);
#251 = DIRECTION('',(0.,0.,1.));
#252 = ORIENTED_EDGE('',*,*,#62,.F.);
#253 = ORIENTED_EDGE('',*,*,#31,.F.);
#254 = CYLINDRICAL_SURFACE('',#255,3.75);
#255 = AXIS2_PLACEMENT_3D('',#256,#257,#258);
#256 = CARTESIAN_POINT('',(-6.,-6.,0.));
#257 = DIRECTION('',(0.,0.,1.));
#258 = DIRECTION('',(-1.,0.,0.));
#259 = ADVANCED_FACE('',(#260),#279,.T.);
#260 = FACE_BOUND('',#261,.F.);
#261 = EDGE_LOOP('',(#262,#271,#277,#278));
#262 = ORIENTED_EDGE('',*,*,#263,.T.);
#263 = EDGE_CURVE('',#40,#264,#266,.T.);
#264 = VERTEX_POINT('',#265);
#265 = CARTESIAN_POINT('',(-6.,9.75,0.));
#266 = CIRCLE('',#267,3.75);
#267 = AXIS2_PLACEMENT_3D('',#268,#269,#270);
#268 = CARTESIAN_POINT('',(-6.,6.,0.));
#269 = DIRECTION('',(-0.,-0.,-1.));
#270 = DIRECTION('',(0.,-1.,0.));
#271 = ORIENTED_EDGE('',*,*,#272,.T.);
#272 = EDGE_CURVE('',#264,#106,#273,.T.);
#273 = LINE('',#274,#275);
#274 = CARTESIAN_POINT('',(-6.,9.75,0.));
#275 = VECTOR('',#276,1.);
#276 = DIRECTION('',(0.,0.,1.));
#277 = ORIENTED_EDGE('',*,*,#113,.F.);
#278 = ORIENTED_EDGE('',*,*,#47,.F.);
#279 = CYLINDRICAL_SURFACE('',#280,3.75);
#280 = AXIS2_PLACEMENT_3D('',#281,#282,#283);
#281 = CARTESIAN_POINT('',(-6.,6.,0.));
#282 = DIRECTION('',(0.,0.,1.));
#283 = DIRECTION('',(-1.,0.,0.));
#284 = ADVANCED_FACE('',(#285,#330,#341,#352,#363,#374,#385,#396,#407,
    #418,#429,#440,#451,#462,#473),#484,.F.);
#285 = FACE_BOUND('',#286,.F.);
#286 = EDGE_LOOP('',(#287,#288,#289,#297,#306,#314,#323,#329));
#287 = ORIENTED_EDGE('',*,*,#39,.F.);
#288 = ORIENTED_EDGE('',*,*,#238,.T.);
#289 = ORIENTED_EDGE('',*,*,#290,.T.);
#290 = EDGE_CURVE('',#239,#291,#293,.T.);
#291 = VERTEX_POINT('',#292);
#292 = CARTESIAN_POINT('',(6.,-9.75,0.));
#293 = LINE('',#294,#295);
#294 = CARTESIAN_POINT('',(-9.75,-9.75,0.));
#295 = VECTOR('',#296,1.);
#296 = DIRECTION('',(1.,0.,0.));
#297 = ORIENTED_EDGE('',*,*,#298,.T.);
#298 = EDGE_CURVE('',#291,#299,#301,.T.);
#299 = VERTEX_POINT('',#300);
#300 = CARTESIAN_POINT('',(9.75,-6.,0.));
#301 = CIRCLE('',#302,3.75);
#302 = AXIS2_PLACEMENT_3D('',#303,#304,#305);
#303 = CARTESIAN_POINT('',(6.,-6.,0.));
#304 = DIRECTION('',(-0.,0.,1.));
#305 = DIRECTION('',(0.,-1.,0.));
#306 = ORIENTED_EDGE('',*,*,#307,.T.);
#307 = EDGE_CURVE('',#299,#308,#310,.T.);
#308 = VERTEX_POINT('',#309);
#309 = CARTESIAN_POINT('',(9.75,6.,0.));
#310 = LINE('',#311,#312);
#311 = CARTESIAN_POINT('',(9.75,-9.75,0.));
#312 = VECTOR('',#313,1.);
#313 = DIRECTION('',(0.,1.,0.));
#314 = ORIENTED_EDGE('',*,*,#315,.F.);
#315 = EDGE_CURVE('',#316,#308,#318,.T.);
#316 = VERTEX_POINT('',#317);
#317 = CARTESIAN_POINT('',(6.,9.75,0.));
#318 = CIRCLE('',#319,3.75);
#319 = AXIS2_PLACEMENT_3D('',#320,#321,#322);
#320 = CARTESIAN_POINT('',(6.,6.,0.));
#321 = DIRECTION('',(-0.,-0.,-1.));
#322 = DIRECTION('',(0.,-1.,0.));
#323 = ORIENTED_EDGE('',*,*,#324,.F.);
#324 = EDGE_CURVE('',#264,#316,#325,.T.);
#325 = LINE('',#326,#327);
#326 = CARTESIAN_POINT('',(-9.75,9.75,0.));
#327 = VECTOR('',#328,1.);
#328 = DIRECTION('',(1.,0.,0.));
#329 = ORIENTED_EDGE('',*,*,#263,.F.);
#330 = FACE_BOUND('',#331,.F.);
#331 = EDGE_LOOP('',(#332));
#332 = ORIENTED_EDGE('',*,*,#333,.F.);
#333 = EDGE_CURVE('',#334,#334,#336,.T.);
#334 = VERTEX_POINT('',#335);
#335 = CARTESIAN_POINT('',(8.02,6.,0.));
#336 = CIRCLE('',#337,0.75);
#337 = AXIS2_PLACEMENT_3D('',#338,#339,#340);
#338 = CARTESIAN_POINT('',(7.27,6.,0.));
#339 = DIRECTION('',(0.,0.,1.));
#340 = DIRECTION('',(1.,0.,0.));
#341 = FACE_BOUND('',#342,.F.);
#342 = EDGE_LOOP('',(#343));
#343 = ORIENTED_EDGE('',*,*,#344,.F.);
#344 = EDGE_CURVE('',#345,#345,#347,.T.);
#345 = VERTEX_POINT('',#346);
#346 = CARTESIAN_POINT('',(5.48,6.,0.));
#347 = CIRCLE('',#348,0.75);
#348 = AXIS2_PLACEMENT_3D('',#349,#350,#351);
#349 = CARTESIAN_POINT('',(4.73,6.,0.));
#350 = DIRECTION('',(0.,0.,1.));
#351 = DIRECTION('',(1.,0.,0.));
#352 = FACE_BOUND('',#353,.F.);
#353 = EDGE_LOOP('',(#354));
#354 = ORIENTED_EDGE('',*,*,#355,.F.);
#355 = EDGE_CURVE('',#356,#356,#358,.T.);
#356 = VERTEX_POINT('',#357);
#357 = CARTESIAN_POINT('',(5.48,0.,0.));
#358 = CIRCLE('',#359,0.75);
#359 = AXIS2_PLACEMENT_3D('',#360,#361,#362);
#360 = CARTESIAN_POINT('',(4.73,0.,0.));
#361 = DIRECTION('',(0.,0.,1.));
#362 = DIRECTION('',(1.,0.,0.));
#363 = FACE_BOUND('',#364,.F.);
#364 = EDGE_LOOP('',(#365));
#365 = ORIENTED_EDGE('',*,*,#366,.F.);
#366 = EDGE_CURVE('',#367,#367,#369,.T.);
#367 = VERTEX_POINT('',#368);
#368 = CARTESIAN_POINT('',(8.02,0.,0.));
#369 = CIRCLE('',#370,0.75);
#370 = AXIS2_PLACEMENT_3D('',#371,#372,#373);
#371 = CARTESIAN_POINT('',(7.27,0.,0.));
#372 = DIRECTION('',(0.,0.,1.));
#373 = DIRECTION('',(1.,0.,0.));
#374 = FACE_BOUND('',#375,.F.);
#375 = EDGE_LOOP('',(#376));
#376 = ORIENTED_EDGE('',*,*,#377,.F.);
#377 = EDGE_CURVE('',#378,#378,#380,.T.);
#378 = VERTEX_POINT('',#379);
#379 = CARTESIAN_POINT('',(5.48,-6.,0.));
#380 = CIRCLE('',#381,0.75);
#381 = AXIS2_PLACEMENT_3D('',#382,#383,#384);
#382 = CARTESIAN_POINT('',(4.73,-6.,0.));
#383 = DIRECTION('',(0.,0.,1.));
#384 = DIRECTION('',(1.,0.,0.));
#385 = FACE_BOUND('',#386,.F.);
#386 = EDGE_LOOP('',(#387));
#387 = ORIENTED_EDGE('',*,*,#388,.F.);
#388 = EDGE_CURVE('',#389,#389,#391,.T.);
#389 = VERTEX_POINT('',#390);
#390 = CARTESIAN_POINT('',(8.02,-6.,0.));
#391 = CIRCLE('',#392,0.75);
#392 = AXIS2_PLACEMENT_3D('',#393,#394,#395);
#393 = CARTESIAN_POINT('',(7.27,-6.,0.));
#394 = DIRECTION('',(0.,0.,1.));
#395 = DIRECTION('',(1.,0.,0.));
#396 = FACE_BOUND('',#397,.F.);
#397 = EDGE_LOOP('',(#398));
#398 = ORIENTED_EDGE('',*,*,#399,.F.);
#399 = EDGE_CURVE('',#400,#400,#402,.T.);
#400 = VERTEX_POINT('',#401);
#401 = CARTESIAN_POINT('',(2.02,0.,0.));
#402 = CIRCLE('',#403,0.75);
#403 = AXIS2_PLACEMENT_3D('',#404,#405,#406);
#404 = CARTESIAN_POINT('',(1.27,0.,0.));
#405 = DIRECTION('',(0.,0.,1.));
#406 = DIRECTION('',(1.,0.,0.));
#407 = FACE_BOUND('',#408,.F.);
#408 = EDGE_LOOP('',(#409));
#409 = ORIENTED_EDGE('',*,*,#410,.F.);
#410 = EDGE_CURVE('',#411,#411,#413,.T.);
#411 = VERTEX_POINT('',#412);
#412 = CARTESIAN_POINT('',(-6.52,0.,0.));
#413 = CIRCLE('',#414,0.75);
#414 = AXIS2_PLACEMENT_3D('',#415,#416,#417);
#415 = CARTESIAN_POINT('',(-7.27,0.,0.));
#416 = DIRECTION('',(0.,0.,1.));
#417 = DIRECTION('',(1.,0.,0.));
#418 = FACE_BOUND('',#419,.F.);
#419 = EDGE_LOOP('',(#420));
#420 = ORIENTED_EDGE('',*,*,#421,.F.);
#421 = EDGE_CURVE('',#422,#422,#424,.T.);
#422 = VERTEX_POINT('',#423);
#423 = CARTESIAN_POINT('',(-3.98,0.,0.));
#424 = CIRCLE('',#425,0.75);
#425 = AXIS2_PLACEMENT_3D('',#426,#427,#428);
#426 = CARTESIAN_POINT('',(-4.73,0.,0.));
#427 = DIRECTION('',(0.,0.,1.));
#428 = DIRECTION('',(1.,0.,0.));
#429 = FACE_BOUND('',#430,.F.);
#430 = EDGE_LOOP('',(#431));
#431 = ORIENTED_EDGE('',*,*,#432,.F.);
#432 = EDGE_CURVE('',#433,#433,#435,.T.);
#433 = VERTEX_POINT('',#434);
#434 = CARTESIAN_POINT('',(-3.98,-6.,0.));
#435 = CIRCLE('',#436,0.75);
#436 = AXIS2_PLACEMENT_3D('',#437,#438,#439);
#437 = CARTESIAN_POINT('',(-4.73,-6.,0.));
#438 = DIRECTION('',(0.,0.,1.));
#439 = DIRECTION('',(1.,0.,0.));
#440 = FACE_BOUND('',#441,.F.);
#441 = EDGE_LOOP('',(#442));
#442 = ORIENTED_EDGE('',*,*,#443,.F.);
#443 = EDGE_CURVE('',#444,#444,#446,.T.);
#444 = VERTEX_POINT('',#445);
#445 = CARTESIAN_POINT('',(-6.52,-6.,0.));
#446 = CIRCLE('',#447,0.75);
#447 = AXIS2_PLACEMENT_3D('',#448,#449,#450);
#448 = CARTESIAN_POINT('',(-7.27,-6.,0.));
#449 = DIRECTION('',(0.,0.,1.));
#450 = DIRECTION('',(1.,0.,0.));
#451 = FACE_BOUND('',#452,.F.);
#452 = EDGE_LOOP('',(#453));
#453 = ORIENTED_EDGE('',*,*,#454,.F.);
#454 = EDGE_CURVE('',#455,#455,#457,.T.);
#455 = VERTEX_POINT('',#456);
#456 = CARTESIAN_POINT('',(-0.52,0.,0.));
#457 = CIRCLE('',#458,0.75);
#458 = AXIS2_PLACEMENT_3D('',#459,#460,#461);
#459 = CARTESIAN_POINT('',(-1.27,0.,0.));
#460 = DIRECTION('',(0.,0.,1.));
#461 = DIRECTION('',(1.,0.,0.));
#462 = FACE_BOUND('',#463,.F.);
#463 = EDGE_LOOP('',(#464));
#464 = ORIENTED_EDGE('',*,*,#465,.F.);
#465 = EDGE_CURVE('',#466,#466,#468,.T.);
#466 = VERTEX_POINT('',#467);
#467 = CARTESIAN_POINT('',(-3.98,6.,0.));
#468 = CIRCLE('',#469,0.75);
#469 = AXIS2_PLACEMENT_3D('',#470,#471,#472);
#470 = CARTESIAN_POINT('',(-4.73,6.,0.));
#471 = DIRECTION('',(0.,0.,1.));
#472 = DIRECTION('',(1.,0.,0.));
#473 = FACE_BOUND('',#474,.F.);
#474 = EDGE_LOOP('',(#475));
#475 = ORIENTED_EDGE('',*,*,#476,.F.);
#476 = EDGE_CURVE('',#477,#477,#479,.T.);
#477 = VERTEX_POINT('',#478);
#478 = CARTESIAN_POINT('',(-6.52,6.,0.));
#479 = CIRCLE('',#480,0.75);
#480 = AXIS2_PLACEMENT_3D('',#481,#482,#483);
#481 = CARTESIAN_POINT('',(-7.27,6.,0.));
#482 = DIRECTION('',(0.,0.,1.));
#483 = DIRECTION('',(1.,0.,0.));
#484 = PLANE('',#485);
#485 = AXIS2_PLACEMENT_3D('',#486,#487,#488);
#486 = CARTESIAN_POINT('',(-9.75,-9.75,0.));
#487 = DIRECTION('',(0.,0.,1.));
#488 = DIRECTION('',(1.,0.,0.));
#489 = ADVANCED_FACE('',(#490),#501,.F.);
#490 = FACE_BOUND('',#491,.F.);
#491 = EDGE_LOOP('',(#492,#493,#494,#495));
#492 = ORIENTED_EDGE('',*,*,#290,.F.);
#493 = ORIENTED_EDGE('',*,*,#247,.T.);
#494 = ORIENTED_EDGE('',*,*,#71,.T.);
#495 = ORIENTED_EDGE('',*,*,#496,.F.);
#496 = EDGE_CURVE('',#291,#72,#497,.T.);
#497 = LINE('',#498,#499);
#498 = CARTESIAN_POINT('',(6.,-9.75,0.));
#499 = VECTOR('',#500,1.);
#500 = DIRECTION('',(0.,0.,1.));
#501 = PLANE('',#502);
#502 = AXIS2_PLACEMENT_3D('',#503,#504,#505);
#503 = CARTESIAN_POINT('',(-9.75,-9.75,0.));
#504 = DIRECTION('',(0.,1.,0.));
#505 = DIRECTION('',(0.,0.,1.));
#506 = ADVANCED_FACE('',(#507),#518,.T.);
#507 = FACE_BOUND('',#508,.T.);
#508 = EDGE_LOOP('',(#509,#510,#511,#512));
#509 = ORIENTED_EDGE('',*,*,#324,.F.);
#510 = ORIENTED_EDGE('',*,*,#272,.T.);
#511 = ORIENTED_EDGE('',*,*,#105,.T.);
#512 = ORIENTED_EDGE('',*,*,#513,.F.);
#513 = EDGE_CURVE('',#316,#97,#514,.T.);
#514 = LINE('',#515,#516);
#515 = CARTESIAN_POINT('',(6.,9.75,0.));
#516 = VECTOR('',#517,1.);
#517 = DIRECTION('',(0.,0.,1.));
#518 = PLANE('',#519);
#519 = AXIS2_PLACEMENT_3D('',#520,#521,#522);
#520 = CARTESIAN_POINT('',(-9.75,9.75,0.));
#521 = DIRECTION('',(0.,1.,0.));
#522 = DIRECTION('',(0.,0.,1.));
#523 = ADVANCED_FACE('',(#524),#535,.T.);
#524 = FACE_BOUND('',#525,.T.);
#525 = EDGE_LOOP('',(#526,#527,#533,#534));
#526 = ORIENTED_EDGE('',*,*,#298,.T.);
#527 = ORIENTED_EDGE('',*,*,#528,.T.);
#528 = EDGE_CURVE('',#299,#80,#529,.T.);
#529 = LINE('',#530,#531);
#530 = CARTESIAN_POINT('',(9.75,-6.,0.));
#531 = VECTOR('',#532,1.);
#532 = DIRECTION('',(0.,0.,1.));
#533 = ORIENTED_EDGE('',*,*,#79,.F.);
#534 = ORIENTED_EDGE('',*,*,#496,.F.);
#535 = CYLINDRICAL_SURFACE('',#536,3.75);
#536 = AXIS2_PLACEMENT_3D('',#537,#538,#539);
#537 = CARTESIAN_POINT('',(6.,-6.,0.));
#538 = DIRECTION('',(0.,0.,1.));
#539 = DIRECTION('',(0.,-1.,0.));
#540 = ADVANCED_FACE('',(#541),#552,.T.);
#541 = FACE_BOUND('',#542,.F.);
#542 = EDGE_LOOP('',(#543,#544,#550,#551));
#543 = ORIENTED_EDGE('',*,*,#315,.T.);
#544 = ORIENTED_EDGE('',*,*,#545,.T.);
#545 = EDGE_CURVE('',#308,#89,#546,.T.);
#546 = LINE('',#547,#548);
#547 = CARTESIAN_POINT('',(9.75,6.,0.));
#548 = VECTOR('',#549,1.);
#549 = DIRECTION('',(0.,0.,1.));
#550 = ORIENTED_EDGE('',*,*,#96,.F.);
#551 = ORIENTED_EDGE('',*,*,#513,.F.);
#552 = CYLINDRICAL_SURFACE('',#553,3.75);
#553 = AXIS2_PLACEMENT_3D('',#554,#555,#556);
#554 = CARTESIAN_POINT('',(6.,6.,0.));
#555 = DIRECTION('',(0.,0.,1.));
#556 = DIRECTION('',(0.,1.,0.));
#557 = ADVANCED_FACE('',(#558),#564,.T.);
#558 = FACE_BOUND('',#559,.T.);
#559 = EDGE_LOOP('',(#560,#561,#562,#563));
#560 = ORIENTED_EDGE('',*,*,#88,.F.);
#561 = ORIENTED_EDGE('',*,*,#528,.F.);
#562 = ORIENTED_EDGE('',*,*,#307,.T.);
#563 = ORIENTED_EDGE('',*,*,#545,.T.);
#564 = PLANE('',#565);
#565 = AXIS2_PLACEMENT_3D('',#566,#567,#568);
#566 = CARTESIAN_POINT('',(9.75,-9.75,0.));
#567 = DIRECTION('',(1.,0.,0.));
#568 = DIRECTION('',(0.,0.,1.));
#569 = ADVANCED_FACE('',(#570),#596,.F.);
#570 = FACE_BOUND('',#571,.F.);
#571 = EDGE_LOOP('',(#572,#583,#589,#590));
#572 = ORIENTED_EDGE('',*,*,#573,.T.);
#573 = EDGE_CURVE('',#574,#576,#578,.T.);
#574 = VERTEX_POINT('',#575);
#575 = CARTESIAN_POINT('',(-3.,-1.25,1.5));
#576 = VERTEX_POINT('',#577);
#577 = CARTESIAN_POINT('',(3.,-1.25,1.5));
#578 = CIRCLE('',#579,3.25);
#579 = AXIS2_PLACEMENT_3D('',#580,#581,#582);
#580 = CARTESIAN_POINT('',(0.,0.,1.5));
#581 = DIRECTION('',(0.,0.,1.));
#582 = DIRECTION('',(1.,0.,0.));
#583 = ORIENTED_EDGE('',*,*,#584,.T.);
#584 = EDGE_CURVE('',#576,#125,#585,.T.);
#585 = LINE('',#586,#587);
#586 = CARTESIAN_POINT('',(3.,-1.25,1.5));
#587 = VECTOR('',#588,1.);
#588 = DIRECTION('',(0.,0.,1.));
#589 = ORIENTED_EDGE('',*,*,#122,.F.);
#590 = ORIENTED_EDGE('',*,*,#591,.F.);
#591 = EDGE_CURVE('',#574,#123,#592,.T.);
#592 = LINE('',#593,#594);
#593 = CARTESIAN_POINT('',(-3.,-1.25,1.5));
#594 = VECTOR('',#595,1.);
#595 = DIRECTION('',(0.,0.,1.));
#596 = CYLINDRICAL_SURFACE('',#597,3.25);
#597 = AXIS2_PLACEMENT_3D('',#598,#599,#600);
#598 = CARTESIAN_POINT('',(0.,0.,1.5));
#599 = DIRECTION('',(0.,0.,1.));
#600 = DIRECTION('',(1.,0.,0.));
#601 = ADVANCED_FACE('',(#602),#621,.F.);
#602 = FACE_BOUND('',#603,.F.);
#603 = EDGE_LOOP('',(#604,#613,#619,#620));
#604 = ORIENTED_EDGE('',*,*,#605,.T.);
#605 = EDGE_CURVE('',#576,#606,#608,.T.);
#606 = VERTEX_POINT('',#607);
#607 = CARTESIAN_POINT('',(4.75,-3.,1.5));
#608 = CIRCLE('',#609,3.25);
#609 = AXIS2_PLACEMENT_3D('',#610,#611,#612);
#610 = CARTESIAN_POINT('',(6.,0.,1.5));
#611 = DIRECTION('',(0.,0.,1.));
#612 = DIRECTION('',(1.,0.,0.));
#613 = ORIENTED_EDGE('',*,*,#614,.T.);
#614 = EDGE_CURVE('',#606,#215,#615,.T.);
#615 = LINE('',#616,#617);
#616 = CARTESIAN_POINT('',(4.75,-3.,1.5));
#617 = VECTOR('',#618,1.);
#618 = DIRECTION('',(0.,0.,1.));
#619 = ORIENTED_EDGE('',*,*,#223,.F.);
#620 = ORIENTED_EDGE('',*,*,#584,.F.);
#621 = CYLINDRICAL_SURFACE('',#622,3.25);
#622 = AXIS2_PLACEMENT_3D('',#623,#624,#625);
#623 = CARTESIAN_POINT('',(6.,0.,1.5));
#624 = DIRECTION('',(0.,0.,1.));
#625 = DIRECTION('',(1.,0.,0.));
#626 = ADVANCED_FACE('',(#627),#655,.F.);
#627 = FACE_BOUND('',#628,.F.);
#628 = EDGE_LOOP('',(#629,#638,#647,#653,#654));
#629 = ORIENTED_EDGE('',*,*,#630,.T.);
#630 = EDGE_CURVE('',#606,#631,#633,.T.);
#631 = VERTEX_POINT('',#632);
#632 = CARTESIAN_POINT('',(9.25,-6.,1.5));
#633 = CIRCLE('',#634,3.25);
#634 = AXIS2_PLACEMENT_3D('',#635,#636,#637);
#635 = CARTESIAN_POINT('',(6.,-6.,1.5));
#636 = DIRECTION('',(0.,0.,1.));
#637 = DIRECTION('',(1.,0.,0.));
#638 = ORIENTED_EDGE('',*,*,#639,.T.);
#639 = EDGE_CURVE('',#631,#640,#642,.T.);
#640 = VERTEX_POINT('',#641);
#641 = CARTESIAN_POINT('',(7.25,-3.,1.5));
#642 = CIRCLE('',#643,3.25);
#643 = AXIS2_PLACEMENT_3D('',#644,#645,#646);
#644 = CARTESIAN_POINT('',(6.,-6.,1.5));
#645 = DIRECTION('',(0.,0.,1.));
#646 = DIRECTION('',(1.,0.,0.));
#647 = ORIENTED_EDGE('',*,*,#648,.T.);
#648 = EDGE_CURVE('',#640,#206,#649,.T.);
#649 = LINE('',#650,#651);
#650 = CARTESIAN_POINT('',(7.25,-3.,1.5));
#651 = VECTOR('',#652,1.);
#652 = DIRECTION('',(0.,0.,1.));
#653 = ORIENTED_EDGE('',*,*,#214,.F.);
#654 = ORIENTED_EDGE('',*,*,#614,.F.);
#655 = CYLINDRICAL_SURFACE('',#656,3.25);
#656 = AXIS2_PLACEMENT_3D('',#657,#658,#659);
#657 = CARTESIAN_POINT('',(6.,-6.,1.5));
#658 = DIRECTION('',(0.,0.,1.));
#659 = DIRECTION('',(1.,0.,0.));
#660 = ADVANCED_FACE('',(#661),#689,.F.);
#661 = FACE_BOUND('',#662,.F.);
#662 = EDGE_LOOP('',(#663,#672,#681,#687,#688));
#663 = ORIENTED_EDGE('',*,*,#664,.T.);
#664 = EDGE_CURVE('',#640,#665,#667,.T.);
#665 = VERTEX_POINT('',#666);
#666 = CARTESIAN_POINT('',(9.25,-7.960204194458E-16,1.5));
#667 = CIRCLE('',#668,3.25);
#668 = AXIS2_PLACEMENT_3D('',#669,#670,#671);
#669 = CARTESIAN_POINT('',(6.,0.,1.5));
#670 = DIRECTION('',(0.,0.,1.));
#671 = DIRECTION('',(1.,0.,0.));
#672 = ORIENTED_EDGE('',*,*,#673,.T.);
#673 = EDGE_CURVE('',#665,#674,#676,.T.);
#674 = VERTEX_POINT('',#675);
#675 = CARTESIAN_POINT('',(7.25,3.,1.5));
#676 = CIRCLE('',#677,3.25);
#677 = AXIS2_PLACEMENT_3D('',#678,#679,#680);
#678 = CARTESIAN_POINT('',(6.,0.,1.5));
#679 = DIRECTION('',(0.,0.,1.));
#680 = DIRECTION('',(1.,0.,0.));
#681 = ORIENTED_EDGE('',*,*,#682,.T.);
#682 = EDGE_CURVE('',#674,#197,#683,.T.);
#683 = LINE('',#684,#685);
#684 = CARTESIAN_POINT('',(7.25,3.,1.5));
#685 = VECTOR('',#686,1.);
#686 = DIRECTION('',(0.,0.,1.));
#687 = ORIENTED_EDGE('',*,*,#205,.F.);
#688 = ORIENTED_EDGE('',*,*,#648,.F.);
#689 = CYLINDRICAL_SURFACE('',#690,3.25);
#690 = AXIS2_PLACEMENT_3D('',#691,#692,#693);
#691 = CARTESIAN_POINT('',(6.,0.,1.5));
#692 = DIRECTION('',(0.,0.,1.));
#693 = DIRECTION('',(1.,0.,0.));
#694 = ADVANCED_FACE('',(#695),#723,.F.);
#695 = FACE_BOUND('',#696,.F.);
#696 = EDGE_LOOP('',(#697,#698,#699,#708,#717));
#697 = ORIENTED_EDGE('',*,*,#196,.F.);
#698 = ORIENTED_EDGE('',*,*,#682,.F.);
#699 = ORIENTED_EDGE('',*,*,#700,.T.);
#700 = EDGE_CURVE('',#674,#701,#703,.T.);
#701 = VERTEX_POINT('',#702);
#702 = CARTESIAN_POINT('',(9.25,6.,1.5));
#703 = CIRCLE('',#704,3.25);
#704 = AXIS2_PLACEMENT_3D('',#705,#706,#707);
#705 = CARTESIAN_POINT('',(6.,6.,1.5));
#706 = DIRECTION('',(0.,0.,1.));
#707 = DIRECTION('',(1.,0.,0.));
#708 = ORIENTED_EDGE('',*,*,#709,.T.);
#709 = EDGE_CURVE('',#701,#710,#712,.T.);
#710 = VERTEX_POINT('',#711);
#711 = CARTESIAN_POINT('',(4.75,3.,1.5));
#712 = CIRCLE('',#713,3.25);
#713 = AXIS2_PLACEMENT_3D('',#714,#715,#716);
#714 = CARTESIAN_POINT('',(6.,6.,1.5));
#715 = DIRECTION('',(0.,0.,1.));
#716 = DIRECTION('',(1.,0.,0.));
#717 = ORIENTED_EDGE('',*,*,#718,.T.);
#718 = EDGE_CURVE('',#710,#188,#719,.T.);
#719 = LINE('',#720,#721);
#720 = CARTESIAN_POINT('',(4.75,3.,1.5));
#721 = VECTOR('',#722,1.);
#722 = DIRECTION('',(0.,0.,1.));
#723 = CYLINDRICAL_SURFACE('',#724,3.25);
#724 = AXIS2_PLACEMENT_3D('',#725,#726,#727);
#725 = CARTESIAN_POINT('',(6.,6.,1.5));
#726 = DIRECTION('',(0.,0.,1.));
#727 = DIRECTION('',(1.,0.,0.));
#728 = ADVANCED_FACE('',(#729),#748,.F.);
#729 = FACE_BOUND('',#730,.F.);
#730 = EDGE_LOOP('',(#731,#732,#733,#742));
#731 = ORIENTED_EDGE('',*,*,#187,.F.);
#732 = ORIENTED_EDGE('',*,*,#718,.F.);
#733 = ORIENTED_EDGE('',*,*,#734,.T.);
#734 = EDGE_CURVE('',#710,#735,#737,.T.);
#735 = VERTEX_POINT('',#736);
#736 = CARTESIAN_POINT('',(3.,1.25,1.5));
#737 = CIRCLE('',#738,3.25);
#738 = AXIS2_PLACEMENT_3D('',#739,#740,#741);
#739 = CARTESIAN_POINT('',(6.,0.,1.5));
#740 = DIRECTION('',(0.,0.,1.));
#741 = DIRECTION('',(1.,0.,0.));
#742 = ORIENTED_EDGE('',*,*,#743,.T.);
#743 = EDGE_CURVE('',#735,#179,#744,.T.);
#744 = LINE('',#745,#746);
#745 = CARTESIAN_POINT('',(3.,1.25,1.5));
#746 = VECTOR('',#747,1.);
#747 = DIRECTION('',(0.,0.,1.));
#748 = CYLINDRICAL_SURFACE('',#749,3.25);
#749 = AXIS2_PLACEMENT_3D('',#750,#751,#752);
#750 = CARTESIAN_POINT('',(6.,0.,1.5));
#751 = DIRECTION('',(0.,0.,1.));
#752 = DIRECTION('',(1.,0.,0.));
#753 = ADVANCED_FACE('',(#754),#773,.F.);
#754 = FACE_BOUND('',#755,.F.);
#755 = EDGE_LOOP('',(#756,#757,#758,#767));
#756 = ORIENTED_EDGE('',*,*,#178,.F.);
#757 = ORIENTED_EDGE('',*,*,#743,.F.);
#758 = ORIENTED_EDGE('',*,*,#759,.T.);
#759 = EDGE_CURVE('',#735,#760,#762,.T.);
#760 = VERTEX_POINT('',#761);
#761 = CARTESIAN_POINT('',(-3.,1.25,1.5));
#762 = CIRCLE('',#763,3.25);
#763 = AXIS2_PLACEMENT_3D('',#764,#765,#766);
#764 = CARTESIAN_POINT('',(0.,0.,1.5));
#765 = DIRECTION('',(0.,0.,1.));
#766 = DIRECTION('',(1.,0.,0.));
#767 = ORIENTED_EDGE('',*,*,#768,.T.);
#768 = EDGE_CURVE('',#760,#170,#769,.T.);
#769 = LINE('',#770,#771);
#770 = CARTESIAN_POINT('',(-3.,1.25,1.5));
#771 = VECTOR('',#772,1.);
#772 = DIRECTION('',(0.,0.,1.));
#773 = CYLINDRICAL_SURFACE('',#774,3.25);
#774 = AXIS2_PLACEMENT_3D('',#775,#776,#777);
#775 = CARTESIAN_POINT('',(0.,0.,1.5));
#776 = DIRECTION('',(0.,0.,1.));
#777 = DIRECTION('',(1.,0.,0.));
#778 = ADVANCED_FACE('',(#779),#798,.F.);
#779 = FACE_BOUND('',#780,.F.);
#780 = EDGE_LOOP('',(#781,#782,#783,#792));
#781 = ORIENTED_EDGE('',*,*,#169,.F.);
#782 = ORIENTED_EDGE('',*,*,#768,.F.);
#783 = ORIENTED_EDGE('',*,*,#784,.T.);
#784 = EDGE_CURVE('',#760,#785,#787,.T.);
#785 = VERTEX_POINT('',#786);
#786 = CARTESIAN_POINT('',(-4.75,3.,1.5));
#787 = CIRCLE('',#788,3.25);
#788 = AXIS2_PLACEMENT_3D('',#789,#790,#791);
#789 = CARTESIAN_POINT('',(-6.,0.,1.5));
#790 = DIRECTION('',(0.,0.,1.));
#791 = DIRECTION('',(1.,0.,0.));
#792 = ORIENTED_EDGE('',*,*,#793,.T.);
#793 = EDGE_CURVE('',#785,#161,#794,.T.);
#794 = LINE('',#795,#796);
#795 = CARTESIAN_POINT('',(-4.75,3.,1.5));
#796 = VECTOR('',#797,1.);
#797 = DIRECTION('',(0.,0.,1.));
#798 = CYLINDRICAL_SURFACE('',#799,3.25);
#799 = AXIS2_PLACEMENT_3D('',#800,#801,#802);
#800 = CARTESIAN_POINT('',(-6.,0.,1.5));
#801 = DIRECTION('',(0.,0.,1.));
#802 = DIRECTION('',(1.,0.,0.));
#803 = ADVANCED_FACE('',(#804),#832,.F.);
#804 = FACE_BOUND('',#805,.F.);
#805 = EDGE_LOOP('',(#806,#815,#824,#830,#831));
#806 = ORIENTED_EDGE('',*,*,#807,.T.);
#807 = EDGE_CURVE('',#785,#808,#810,.T.);
#808 = VERTEX_POINT('',#809);
#809 = CARTESIAN_POINT('',(-2.75,6.,1.5));
#810 = CIRCLE('',#811,3.25);
#811 = AXIS2_PLACEMENT_3D('',#812,#813,#814);
#812 = CARTESIAN_POINT('',(-6.,6.,1.5));
#813 = DIRECTION('',(0.,0.,1.));
#814 = DIRECTION('',(1.,0.,0.));
#815 = ORIENTED_EDGE('',*,*,#816,.T.);
#816 = EDGE_CURVE('',#808,#817,#819,.T.);
#817 = VERTEX_POINT('',#818);
#818 = CARTESIAN_POINT('',(-7.25,3.,1.5));
#819 = CIRCLE('',#820,3.25);
#820 = AXIS2_PLACEMENT_3D('',#821,#822,#823);
#821 = CARTESIAN_POINT('',(-6.,6.,1.5));
#822 = DIRECTION('',(0.,0.,1.));
#823 = DIRECTION('',(1.,0.,0.));
#824 = ORIENTED_EDGE('',*,*,#825,.T.);
#825 = EDGE_CURVE('',#817,#152,#826,.T.);
#826 = LINE('',#827,#828);
#827 = CARTESIAN_POINT('',(-7.25,3.,1.5));
#828 = VECTOR('',#829,1.);
#829 = DIRECTION('',(0.,0.,1.));
#830 = ORIENTED_EDGE('',*,*,#160,.F.);
#831 = ORIENTED_EDGE('',*,*,#793,.F.);
#832 = CYLINDRICAL_SURFACE('',#833,3.25);
#833 = AXIS2_PLACEMENT_3D('',#834,#835,#836);
#834 = CARTESIAN_POINT('',(-6.,6.,1.5));
#835 = DIRECTION('',(0.,0.,1.));
#836 = DIRECTION('',(1.,0.,0.));
#837 = ADVANCED_FACE('',(#838),#857,.F.);
#838 = FACE_BOUND('',#839,.F.);
#839 = EDGE_LOOP('',(#840,#841,#842,#851));
#840 = ORIENTED_EDGE('',*,*,#151,.F.);
#841 = ORIENTED_EDGE('',*,*,#825,.F.);
#842 = ORIENTED_EDGE('',*,*,#843,.T.);
#843 = EDGE_CURVE('',#817,#844,#846,.T.);
#844 = VERTEX_POINT('',#845);
#845 = CARTESIAN_POINT('',(-7.25,-3.,1.5));
#846 = CIRCLE('',#847,3.25);
#847 = AXIS2_PLACEMENT_3D('',#848,#849,#850);
#848 = CARTESIAN_POINT('',(-6.,0.,1.5));
#849 = DIRECTION('',(0.,0.,1.));
#850 = DIRECTION('',(1.,0.,0.));
#851 = ORIENTED_EDGE('',*,*,#852,.T.);
#852 = EDGE_CURVE('',#844,#143,#853,.T.);
#853 = LINE('',#854,#855);
#854 = CARTESIAN_POINT('',(-7.25,-3.,1.5));
#855 = VECTOR('',#856,1.);
#856 = DIRECTION('',(0.,0.,1.));
#857 = CYLINDRICAL_SURFACE('',#858,3.25);
#858 = AXIS2_PLACEMENT_3D('',#859,#860,#861);
#859 = CARTESIAN_POINT('',(-6.,0.,1.5));
#860 = DIRECTION('',(0.,0.,1.));
#861 = DIRECTION('',(1.,0.,0.));
#862 = ADVANCED_FACE('',(#863),#891,.F.);
#863 = FACE_BOUND('',#864,.F.);
#864 = EDGE_LOOP('',(#865,#866,#867,#876,#885));
#865 = ORIENTED_EDGE('',*,*,#142,.F.);
#866 = ORIENTED_EDGE('',*,*,#852,.F.);
#867 = ORIENTED_EDGE('',*,*,#868,.T.);
#868 = EDGE_CURVE('',#844,#869,#871,.T.);
#869 = VERTEX_POINT('',#870);
#870 = CARTESIAN_POINT('',(-2.75,-6.,1.5));
#871 = CIRCLE('',#872,3.25);
#872 = AXIS2_PLACEMENT_3D('',#873,#874,#875);
#873 = CARTESIAN_POINT('',(-6.,-6.,1.5));
#874 = DIRECTION('',(0.,0.,1.));
#875 = DIRECTION('',(1.,0.,0.));
#876 = ORIENTED_EDGE('',*,*,#877,.T.);
#877 = EDGE_CURVE('',#869,#878,#880,.T.);
#878 = VERTEX_POINT('',#879);
#879 = CARTESIAN_POINT('',(-4.75,-3.,1.5));
#880 = CIRCLE('',#881,3.25);
#881 = AXIS2_PLACEMENT_3D('',#882,#883,#884);
#882 = CARTESIAN_POINT('',(-6.,-6.,1.5));
#883 = DIRECTION('',(0.,0.,1.));
#884 = DIRECTION('',(1.,0.,0.));
#885 = ORIENTED_EDGE('',*,*,#886,.T.);
#886 = EDGE_CURVE('',#878,#134,#887,.T.);
#887 = LINE('',#888,#889);
#888 = CARTESIAN_POINT('',(-4.75,-3.,1.5));
#889 = VECTOR('',#890,1.);
#890 = DIRECTION('',(0.,0.,1.));
#891 = CYLINDRICAL_SURFACE('',#892,3.25);
#892 = AXIS2_PLACEMENT_3D('',#893,#894,#895);
#893 = CARTESIAN_POINT('',(-6.,-6.,1.5));
#894 = DIRECTION('',(0.,0.,1.));
#895 = DIRECTION('',(1.,0.,0.));
#896 = ADVANCED_FACE('',(#897),#909,.F.);
#897 = FACE_BOUND('',#898,.F.);
#898 = EDGE_LOOP('',(#899,#906,#907,#908));
#899 = ORIENTED_EDGE('',*,*,#900,.T.);
#900 = EDGE_CURVE('',#878,#574,#901,.T.);
#901 = CIRCLE('',#902,3.25);
#902 = AXIS2_PLACEMENT_3D('',#903,#904,#905);
#903 = CARTESIAN_POINT('',(-6.,0.,1.5));
#904 = DIRECTION('',(0.,0.,1.));
#905 = DIRECTION('',(1.,0.,0.));
#906 = ORIENTED_EDGE('',*,*,#591,.T.);
#907 = ORIENTED_EDGE('',*,*,#133,.F.);
#908 = ORIENTED_EDGE('',*,*,#886,.F.);
#909 = CYLINDRICAL_SURFACE('',#910,3.25);
#910 = AXIS2_PLACEMENT_3D('',#911,#912,#913);
#911 = CARTESIAN_POINT('',(-6.,0.,1.5));
#912 = DIRECTION('',(0.,0.,1.));
#913 = DIRECTION('',(1.,0.,0.));
#914 = ADVANCED_FACE('',(#915),#934,.F.);
#915 = FACE_BOUND('',#916,.F.);
#916 = EDGE_LOOP('',(#917,#926,#932,#933));
#917 = ORIENTED_EDGE('',*,*,#918,.F.);
#918 = EDGE_CURVE('',#919,#919,#921,.T.);
#919 = VERTEX_POINT('',#920);
#920 = CARTESIAN_POINT('',(8.02,6.,1.5));
#921 = CIRCLE('',#922,0.75);
#922 = AXIS2_PLACEMENT_3D('',#923,#924,#925);
#923 = CARTESIAN_POINT('',(7.27,6.,1.5));
#924 = DIRECTION('',(0.,0.,1.));
#925 = DIRECTION('',(1.,0.,0.));
#926 = ORIENTED_EDGE('',*,*,#927,.F.);
#927 = EDGE_CURVE('',#334,#919,#928,.T.);
#928 = LINE('',#929,#930);
#929 = CARTESIAN_POINT('',(8.02,6.,0.));
#930 = VECTOR('',#931,1.);
#931 = DIRECTION('',(0.,0.,1.));
#932 = ORIENTED_EDGE('',*,*,#333,.T.);
#933 = ORIENTED_EDGE('',*,*,#927,.T.);
#934 = CYLINDRICAL_SURFACE('',#935,0.75);
#935 = AXIS2_PLACEMENT_3D('',#936,#937,#938);
#936 = CARTESIAN_POINT('',(7.27,6.,0.));
#937 = DIRECTION('',(0.,0.,1.));
#938 = DIRECTION('',(1.,0.,0.));
#939 = ADVANCED_FACE('',(#940),#959,.F.);
#940 = FACE_BOUND('',#941,.F.);
#941 = EDGE_LOOP('',(#942,#951,#957,#958));
#942 = ORIENTED_EDGE('',*,*,#943,.F.);
#943 = EDGE_CURVE('',#944,#944,#946,.T.);
#944 = VERTEX_POINT('',#945);
#945 = CARTESIAN_POINT('',(5.48,6.,1.5));
#946 = CIRCLE('',#947,0.75);
#947 = AXIS2_PLACEMENT_3D('',#948,#949,#950);
#948 = CARTESIAN_POINT('',(4.73,6.,1.5));
#949 = DIRECTION('',(0.,0.,1.));
#950 = DIRECTION('',(1.,0.,0.));
#951 = ORIENTED_EDGE('',*,*,#952,.F.);
#952 = EDGE_CURVE('',#345,#944,#953,.T.);
#953 = LINE('',#954,#955);
#954 = CARTESIAN_POINT('',(5.48,6.,0.));
#955 = VECTOR('',#956,1.);
#956 = DIRECTION('',(0.,0.,1.));
#957 = ORIENTED_EDGE('',*,*,#344,.T.);
#958 = ORIENTED_EDGE('',*,*,#952,.T.);
#959 = CYLINDRICAL_SURFACE('',#960,0.75);
#960 = AXIS2_PLACEMENT_3D('',#961,#962,#963);
#961 = CARTESIAN_POINT('',(4.73,6.,0.));
#962 = DIRECTION('',(0.,0.,1.));
#963 = DIRECTION('',(1.,0.,0.));
#964 = ADVANCED_FACE('',(#965),#984,.F.);
#965 = FACE_BOUND('',#966,.F.);
#966 = EDGE_LOOP('',(#967,#976,#982,#983));
#967 = ORIENTED_EDGE('',*,*,#968,.F.);
#968 = EDGE_CURVE('',#969,#969,#971,.T.);
#969 = VERTEX_POINT('',#970);
#970 = CARTESIAN_POINT('',(5.48,-1.8E-16,1.5));
#971 = CIRCLE('',#972,0.75);
#972 = AXIS2_PLACEMENT_3D('',#973,#974,#975);
#973 = CARTESIAN_POINT('',(4.73,0.,1.5));
#974 = DIRECTION('',(0.,0.,1.));
#975 = DIRECTION('',(1.,0.,0.));
#976 = ORIENTED_EDGE('',*,*,#977,.F.);
#977 = EDGE_CURVE('',#356,#969,#978,.T.);
#978 = LINE('',#979,#980);
#979 = CARTESIAN_POINT('',(5.48,-1.8E-16,0.));
#980 = VECTOR('',#981,1.);
#981 = DIRECTION('',(0.,0.,1.));
#982 = ORIENTED_EDGE('',*,*,#355,.T.);
#983 = ORIENTED_EDGE('',*,*,#977,.T.);
#984 = CYLINDRICAL_SURFACE('',#985,0.75);
#985 = AXIS2_PLACEMENT_3D('',#986,#987,#988);
#986 = CARTESIAN_POINT('',(4.73,0.,0.));
#987 = DIRECTION('',(0.,0.,1.));
#988 = DIRECTION('',(1.,0.,0.));
#989 = ADVANCED_FACE('',(#990),#1009,.F.);
#990 = FACE_BOUND('',#991,.F.);
#991 = EDGE_LOOP('',(#992,#1001,#1007,#1008));
#992 = ORIENTED_EDGE('',*,*,#993,.F.);
#993 = EDGE_CURVE('',#994,#994,#996,.T.);
#994 = VERTEX_POINT('',#995);
#995 = CARTESIAN_POINT('',(8.02,-1.8E-16,1.5));
#996 = CIRCLE('',#997,0.75);
#997 = AXIS2_PLACEMENT_3D('',#998,#999,#1000);
#998 = CARTESIAN_POINT('',(7.27,0.,1.5));
#999 = DIRECTION('',(0.,0.,1.));
#1000 = DIRECTION('',(1.,0.,0.));
#1001 = ORIENTED_EDGE('',*,*,#1002,.F.);
#1002 = EDGE_CURVE('',#367,#994,#1003,.T.);
#1003 = LINE('',#1004,#1005);
#1004 = CARTESIAN_POINT('',(8.02,-1.8E-16,0.));
#1005 = VECTOR('',#1006,1.);
#1006 = DIRECTION('',(0.,0.,1.));
#1007 = ORIENTED_EDGE('',*,*,#366,.T.);
#1008 = ORIENTED_EDGE('',*,*,#1002,.T.);
#1009 = CYLINDRICAL_SURFACE('',#1010,0.75);
#1010 = AXIS2_PLACEMENT_3D('',#1011,#1012,#1013);
#1011 = CARTESIAN_POINT('',(7.27,0.,0.));
#1012 = DIRECTION('',(0.,0.,1.));
#1013 = DIRECTION('',(1.,0.,0.));
#1014 = ADVANCED_FACE('',(#1015),#1034,.F.);
#1015 = FACE_BOUND('',#1016,.F.);
#1016 = EDGE_LOOP('',(#1017,#1026,#1032,#1033));
#1017 = ORIENTED_EDGE('',*,*,#1018,.F.);
#1018 = EDGE_CURVE('',#1019,#1019,#1021,.T.);
#1019 = VERTEX_POINT('',#1020);
#1020 = CARTESIAN_POINT('',(5.48,-6.,1.5));
#1021 = CIRCLE('',#1022,0.75);
#1022 = AXIS2_PLACEMENT_3D('',#1023,#1024,#1025);
#1023 = CARTESIAN_POINT('',(4.73,-6.,1.5));
#1024 = DIRECTION('',(0.,0.,1.));
#1025 = DIRECTION('',(1.,0.,0.));
#1026 = ORIENTED_EDGE('',*,*,#1027,.F.);
#1027 = EDGE_CURVE('',#378,#1019,#1028,.T.);
#1028 = LINE('',#1029,#1030);
#1029 = CARTESIAN_POINT('',(5.48,-6.,0.));
#1030 = VECTOR('',#1031,1.);
#1031 = DIRECTION('',(0.,0.,1.));
#1032 = ORIENTED_EDGE('',*,*,#377,.T.);
#1033 = ORIENTED_EDGE('',*,*,#1027,.T.);
#1034 = CYLINDRICAL_SURFACE('',#1035,0.75);
#1035 = AXIS2_PLACEMENT_3D('',#1036,#1037,#1038);
#1036 = CARTESIAN_POINT('',(4.73,-6.,0.));
#1037 = DIRECTION('',(0.,0.,1.));
#1038 = DIRECTION('',(1.,0.,0.));
#1039 = ADVANCED_FACE('',(#1040),#1059,.F.);
#1040 = FACE_BOUND('',#1041,.F.);
#1041 = EDGE_LOOP('',(#1042,#1051,#1057,#1058));
#1042 = ORIENTED_EDGE('',*,*,#1043,.F.);
#1043 = EDGE_CURVE('',#1044,#1044,#1046,.T.);
#1044 = VERTEX_POINT('',#1045);
#1045 = CARTESIAN_POINT('',(8.02,-6.,1.5));
#1046 = CIRCLE('',#1047,0.75);
#1047 = AXIS2_PLACEMENT_3D('',#1048,#1049,#1050);
#1048 = CARTESIAN_POINT('',(7.27,-6.,1.5));
#1049 = DIRECTION('',(0.,0.,1.));
#1050 = DIRECTION('',(1.,0.,0.));
#1051 = ORIENTED_EDGE('',*,*,#1052,.F.);
#1052 = EDGE_CURVE('',#389,#1044,#1053,.T.);
#1053 = LINE('',#1054,#1055);
#1054 = CARTESIAN_POINT('',(8.02,-6.,0.));
#1055 = VECTOR('',#1056,1.);
#1056 = DIRECTION('',(0.,0.,1.));
#1057 = ORIENTED_EDGE('',*,*,#388,.T.);
#1058 = ORIENTED_EDGE('',*,*,#1052,.T.);
#1059 = CYLINDRICAL_SURFACE('',#1060,0.75);
#1060 = AXIS2_PLACEMENT_3D('',#1061,#1062,#1063);
#1061 = CARTESIAN_POINT('',(7.27,-6.,0.));
#1062 = DIRECTION('',(0.,0.,1.));
#1063 = DIRECTION('',(1.,0.,0.));
#1064 = ADVANCED_FACE('',(#1065),#1084,.F.);
#1065 = FACE_BOUND('',#1066,.F.);
#1066 = EDGE_LOOP('',(#1067,#1076,#1082,#1083));
#1067 = ORIENTED_EDGE('',*,*,#1068,.F.);
#1068 = EDGE_CURVE('',#1069,#1069,#1071,.T.);
#1069 = VERTEX_POINT('',#1070);
#1070 = CARTESIAN_POINT('',(2.02,-1.8E-16,1.5));
#1071 = CIRCLE('',#1072,0.75);
#1072 = AXIS2_PLACEMENT_3D('',#1073,#1074,#1075);
#1073 = CARTESIAN_POINT('',(1.27,0.,1.5));
#1074 = DIRECTION('',(0.,0.,1.));
#1075 = DIRECTION('',(1.,0.,0.));
#1076 = ORIENTED_EDGE('',*,*,#1077,.F.);
#1077 = EDGE_CURVE('',#400,#1069,#1078,.T.);
#1078 = LINE('',#1079,#1080);
#1079 = CARTESIAN_POINT('',(2.02,-1.8E-16,0.));
#1080 = VECTOR('',#1081,1.);
#1081 = DIRECTION('',(0.,0.,1.));
#1082 = ORIENTED_EDGE('',*,*,#399,.T.);
#1083 = ORIENTED_EDGE('',*,*,#1077,.T.);
#1084 = CYLINDRICAL_SURFACE('',#1085,0.75);
#1085 = AXIS2_PLACEMENT_3D('',#1086,#1087,#1088);
#1086 = CARTESIAN_POINT('',(1.27,0.,0.));
#1087 = DIRECTION('',(0.,0.,1.));
#1088 = DIRECTION('',(1.,0.,0.));
#1089 = ADVANCED_FACE('',(#1090),#1109,.F.);
#1090 = FACE_BOUND('',#1091,.F.);
#1091 = EDGE_LOOP('',(#1092,#1101,#1107,#1108));
#1092 = ORIENTED_EDGE('',*,*,#1093,.F.);
#1093 = EDGE_CURVE('',#1094,#1094,#1096,.T.);
#1094 = VERTEX_POINT('',#1095);
#1095 = CARTESIAN_POINT('',(-6.52,-1.8E-16,1.5));
#1096 = CIRCLE('',#1097,0.75);
#1097 = AXIS2_PLACEMENT_3D('',#1098,#1099,#1100);
#1098 = CARTESIAN_POINT('',(-7.27,0.,1.5));
#1099 = DIRECTION('',(0.,0.,1.));
#1100 = DIRECTION('',(1.,0.,0.));
#1101 = ORIENTED_EDGE('',*,*,#1102,.F.);
#1102 = EDGE_CURVE('',#411,#1094,#1103,.T.);
#1103 = LINE('',#1104,#1105);
#1104 = CARTESIAN_POINT('',(-6.52,-1.8E-16,0.));
#1105 = VECTOR('',#1106,1.);
#1106 = DIRECTION('',(0.,0.,1.));
#1107 = ORIENTED_EDGE('',*,*,#410,.T.);
#1108 = ORIENTED_EDGE('',*,*,#1102,.T.);
#1109 = CYLINDRICAL_SURFACE('',#1110,0.75);
#1110 = AXIS2_PLACEMENT_3D('',#1111,#1112,#1113);
#1111 = CARTESIAN_POINT('',(-7.27,0.,0.));
#1112 = DIRECTION('',(0.,0.,1.));
#1113 = DIRECTION('',(1.,0.,0.));
#1114 = ADVANCED_FACE('',(#1115),#1134,.F.);
#1115 = FACE_BOUND('',#1116,.F.);
#1116 = EDGE_LOOP('',(#1117,#1126,#1132,#1133));
#1117 = ORIENTED_EDGE('',*,*,#1118,.F.);
#1118 = EDGE_CURVE('',#1119,#1119,#1121,.T.);
#1119 = VERTEX_POINT('',#1120);
#1120 = CARTESIAN_POINT('',(-3.98,-1.8E-16,1.5));
#1121 = CIRCLE('',#1122,0.75);
#1122 = AXIS2_PLACEMENT_3D('',#1123,#1124,#1125);
#1123 = CARTESIAN_POINT('',(-4.73,0.,1.5));
#1124 = DIRECTION('',(0.,0.,1.));
#1125 = DIRECTION('',(1.,0.,0.));
#1126 = ORIENTED_EDGE('',*,*,#1127,.F.);
#1127 = EDGE_CURVE('',#422,#1119,#1128,.T.);
#1128 = LINE('',#1129,#1130);
#1129 = CARTESIAN_POINT('',(-3.98,-1.8E-16,0.));
#1130 = VECTOR('',#1131,1.);
#1131 = DIRECTION('',(0.,0.,1.));
#1132 = ORIENTED_EDGE('',*,*,#421,.T.);
#1133 = ORIENTED_EDGE('',*,*,#1127,.T.);
#1134 = CYLINDRICAL_SURFACE('',#1135,0.75);
#1135 = AXIS2_PLACEMENT_3D('',#1136,#1137,#1138);
#1136 = CARTESIAN_POINT('',(-4.73,0.,0.));
#1137 = DIRECTION('',(0.,0.,1.));
#1138 = DIRECTION('',(1.,0.,0.));
#1139 = ADVANCED_FACE('',(#1140),#1159,.F.);
#1140 = FACE_BOUND('',#1141,.F.);
#1141 = EDGE_LOOP('',(#1142,#1151,#1157,#1158));
#1142 = ORIENTED_EDGE('',*,*,#1143,.F.);
#1143 = EDGE_CURVE('',#1144,#1144,#1146,.T.);
#1144 = VERTEX_POINT('',#1145);
#1145 = CARTESIAN_POINT('',(-3.98,-6.,1.5));
#1146 = CIRCLE('',#1147,0.75);
#1147 = AXIS2_PLACEMENT_3D('',#1148,#1149,#1150);
#1148 = CARTESIAN_POINT('',(-4.73,-6.,1.5));
#1149 = DIRECTION('',(0.,0.,1.));
#1150 = DIRECTION('',(1.,0.,0.));
#1151 = ORIENTED_EDGE('',*,*,#1152,.F.);
#1152 = EDGE_CURVE('',#433,#1144,#1153,.T.);
#1153 = LINE('',#1154,#1155);
#1154 = CARTESIAN_POINT('',(-3.98,-6.,0.));
#1155 = VECTOR('',#1156,1.);
#1156 = DIRECTION('',(0.,0.,1.));
#1157 = ORIENTED_EDGE('',*,*,#432,.T.);
#1158 = ORIENTED_EDGE('',*,*,#1152,.T.);
#1159 = CYLINDRICAL_SURFACE('',#1160,0.75);
#1160 = AXIS2_PLACEMENT_3D('',#1161,#1162,#1163);
#1161 = CARTESIAN_POINT('',(-4.73,-6.,0.));
#1162 = DIRECTION('',(0.,0.,1.));
#1163 = DIRECTION('',(1.,0.,0.));
#1164 = ADVANCED_FACE('',(#1165),#1184,.F.);
#1165 = FACE_BOUND('',#1166,.F.);
#1166 = EDGE_LOOP('',(#1167,#1176,#1182,#1183));
#1167 = ORIENTED_EDGE('',*,*,#1168,.F.);
#1168 = EDGE_CURVE('',#1169,#1169,#1171,.T.);
#1169 = VERTEX_POINT('',#1170);
#1170 = CARTESIAN_POINT('',(-6.52,-6.,1.5));
#1171 = CIRCLE('',#1172,0.75);
#1172 = AXIS2_PLACEMENT_3D('',#1173,#1174,#1175);
#1173 = CARTESIAN_POINT('',(-7.27,-6.,1.5));
#1174 = DIRECTION('',(0.,0.,1.));
#1175 = DIRECTION('',(1.,0.,0.));
#1176 = ORIENTED_EDGE('',*,*,#1177,.F.);
#1177 = EDGE_CURVE('',#444,#1169,#1178,.T.);
#1178 = LINE('',#1179,#1180);
#1179 = CARTESIAN_POINT('',(-6.52,-6.,0.));
#1180 = VECTOR('',#1181,1.);
#1181 = DIRECTION('',(0.,0.,1.));
#1182 = ORIENTED_EDGE('',*,*,#443,.T.);
#1183 = ORIENTED_EDGE('',*,*,#1177,.T.);
#1184 = CYLINDRICAL_SURFACE('',#1185,0.75);
#1185 = AXIS2_PLACEMENT_3D('',#1186,#1187,#1188);
#1186 = CARTESIAN_POINT('',(-7.27,-6.,0.));
#1187 = DIRECTION('',(0.,0.,1.));
#1188 = DIRECTION('',(1.,0.,0.));
#1189 = ADVANCED_FACE('',(#1190),#1209,.F.);
#1190 = FACE_BOUND('',#1191,.F.);
#1191 = EDGE_LOOP('',(#1192,#1201,#1207,#1208));
#1192 = ORIENTED_EDGE('',*,*,#1193,.F.);
#1193 = EDGE_CURVE('',#1194,#1194,#1196,.T.);
#1194 = VERTEX_POINT('',#1195);
#1195 = CARTESIAN_POINT('',(-0.52,-1.8E-16,1.5));
#1196 = CIRCLE('',#1197,0.75);
#1197 = AXIS2_PLACEMENT_3D('',#1198,#1199,#1200);
#1198 = CARTESIAN_POINT('',(-1.27,0.,1.5));
#1199 = DIRECTION('',(0.,0.,1.));
#1200 = DIRECTION('',(1.,0.,0.));
#1201 = ORIENTED_EDGE('',*,*,#1202,.F.);
#1202 = EDGE_CURVE('',#455,#1194,#1203,.T.);
#1203 = LINE('',#1204,#1205);
#1204 = CARTESIAN_POINT('',(-0.52,-1.8E-16,0.));
#1205 = VECTOR('',#1206,1.);
#1206 = DIRECTION('',(0.,0.,1.));
#1207 = ORIENTED_EDGE('',*,*,#454,.T.);
#1208 = ORIENTED_EDGE('',*,*,#1202,.T.);
#1209 = CYLINDRICAL_SURFACE('',#1210,0.75);
#1210 = AXIS2_PLACEMENT_3D('',#1211,#1212,#1213);
#1211 = CARTESIAN_POINT('',(-1.27,0.,0.));
#1212 = DIRECTION('',(0.,0.,1.));
#1213 = DIRECTION('',(1.,0.,0.));
#1214 = ADVANCED_FACE('',(#1215),#1234,.F.);
#1215 = FACE_BOUND('',#1216,.F.);
#1216 = EDGE_LOOP('',(#1217,#1226,#1232,#1233));
#1217 = ORIENTED_EDGE('',*,*,#1218,.F.);
#1218 = EDGE_CURVE('',#1219,#1219,#1221,.T.);
#1219 = VERTEX_POINT('',#1220);
#1220 = CARTESIAN_POINT('',(-3.98,6.,1.5));
#1221 = CIRCLE('',#1222,0.75);
#1222 = AXIS2_PLACEMENT_3D('',#1223,#1224,#1225);
#1223 = CARTESIAN_POINT('',(-4.73,6.,1.5));
#1224 = DIRECTION('',(0.,0.,1.));
#1225 = DIRECTION('',(1.,0.,0.));
#1226 = ORIENTED_EDGE('',*,*,#1227,.F.);
#1227 = EDGE_CURVE('',#466,#1219,#1228,.T.);
#1228 = LINE('',#1229,#1230);
#1229 = CARTESIAN_POINT('',(-3.98,6.,0.));
#1230 = VECTOR('',#1231,1.);
#1231 = DIRECTION('',(0.,0.,1.));
#1232 = ORIENTED_EDGE('',*,*,#465,.T.);
#1233 = ORIENTED_EDGE('',*,*,#1227,.T.);
#1234 = CYLINDRICAL_SURFACE('',#1235,0.75);
#1235 = AXIS2_PLACEMENT_3D('',#1236,#1237,#1238);
#1236 = CARTESIAN_POINT('',(-4.73,6.,0.));
#1237 = DIRECTION('',(0.,0.,1.));
#1238 = DIRECTION('',(1.,0.,0.));
#1239 = ADVANCED_FACE('',(#1240),#1259,.F.);
#1240 = FACE_BOUND('',#1241,.F.);
#1241 = EDGE_LOOP('',(#1242,#1251,#1257,#1258));
#1242 = ORIENTED_EDGE('',*,*,#1243,.F.);
#1243 = EDGE_CURVE('',#1244,#1244,#1246,.T.);
#1244 = VERTEX_POINT('',#1245);
#1245 = CARTESIAN_POINT('',(-6.52,6.,1.5));
#1246 = CIRCLE('',#1247,0.75);
#1247 = AXIS2_PLACEMENT_3D('',#1248,#1249,#1250);
#1248 = CARTESIAN_POINT('',(-7.27,6.,1.5));
#1249 = DIRECTION('',(0.,0.,1.));
#1250 = DIRECTION('',(1.,0.,0.));
#1251 = ORIENTED_EDGE('',*,*,#1252,.F.);
#1252 = EDGE_CURVE('',#477,#1244,#1253,.T.);
#1253 = LINE('',#1254,#1255);
#1254 = CARTESIAN_POINT('',(-6.52,6.,0.));
#1255 = VECTOR('',#1256,1.);
#1256 = DIRECTION('',(0.,0.,1.));
#1257 = ORIENTED_EDGE('',*,*,#476,.T.);
#1258 = ORIENTED_EDGE('',*,*,#1252,.T.);
#1259 = CYLINDRICAL_SURFACE('',#1260,0.75);
#1260 = AXIS2_PLACEMENT_3D('',#1261,#1262,#1263);
#1261 = CARTESIAN_POINT('',(-7.27,6.,0.));
#1262 = DIRECTION('',(0.,0.,1.));
#1263 = DIRECTION('',(1.,0.,0.));
#1264 = ADVANCED_FACE('',(#1265,#1284,#1287,#1290,#1293,#1296,#1299,
    #1302,#1305,#1308,#1311,#1314,#1317,#1320,#1323),#1326,.F.);
#1265 = FACE_BOUND('',#1266,.F.);
#1266 = EDGE_LOOP('',(#1267,#1268,#1269,#1270,#1271,#1272,#1273,#1274,
    #1275,#1276,#1277,#1278,#1279,#1280,#1281,#1282,#1283));
#1267 = ORIENTED_EDGE('',*,*,#573,.F.);
#1268 = ORIENTED_EDGE('',*,*,#900,.F.);
#1269 = ORIENTED_EDGE('',*,*,#877,.F.);
#1270 = ORIENTED_EDGE('',*,*,#868,.F.);
#1271 = ORIENTED_EDGE('',*,*,#843,.F.);
#1272 = ORIENTED_EDGE('',*,*,#816,.F.);
#1273 = ORIENTED_EDGE('',*,*,#807,.F.);
#1274 = ORIENTED_EDGE('',*,*,#784,.F.);
#1275 = ORIENTED_EDGE('',*,*,#759,.F.);
#1276 = ORIENTED_EDGE('',*,*,#734,.F.);
#1277 = ORIENTED_EDGE('',*,*,#709,.F.);
#1278 = ORIENTED_EDGE('',*,*,#700,.F.);
#1279 = ORIENTED_EDGE('',*,*,#673,.F.);
#1280 = ORIENTED_EDGE('',*,*,#664,.F.);
#1281 = ORIENTED_EDGE('',*,*,#639,.F.);
#1282 = ORIENTED_EDGE('',*,*,#630,.F.);
#1283 = ORIENTED_EDGE('',*,*,#605,.F.);
#1284 = FACE_BOUND('',#1285,.F.);
#1285 = EDGE_LOOP('',(#1286));
#1286 = ORIENTED_EDGE('',*,*,#968,.T.);
#1287 = FACE_BOUND('',#1288,.F.);
#1288 = EDGE_LOOP('',(#1289));
#1289 = ORIENTED_EDGE('',*,*,#1018,.T.);
#1290 = FACE_BOUND('',#1291,.F.);
#1291 = EDGE_LOOP('',(#1292));
#1292 = ORIENTED_EDGE('',*,*,#943,.T.);
#1293 = FACE_BOUND('',#1294,.F.);
#1294 = EDGE_LOOP('',(#1295));
#1295 = ORIENTED_EDGE('',*,*,#1118,.T.);
#1296 = FACE_BOUND('',#1297,.F.);
#1297 = EDGE_LOOP('',(#1298));
#1298 = ORIENTED_EDGE('',*,*,#1143,.T.);
#1299 = FACE_BOUND('',#1300,.F.);
#1300 = EDGE_LOOP('',(#1301));
#1301 = ORIENTED_EDGE('',*,*,#1218,.T.);
#1302 = FACE_BOUND('',#1303,.F.);
#1303 = EDGE_LOOP('',(#1304));
#1304 = ORIENTED_EDGE('',*,*,#993,.T.);
#1305 = FACE_BOUND('',#1306,.F.);
#1306 = EDGE_LOOP('',(#1307));
#1307 = ORIENTED_EDGE('',*,*,#1043,.T.);
#1308 = FACE_BOUND('',#1309,.F.);
#1309 = EDGE_LOOP('',(#1310));
#1310 = ORIENTED_EDGE('',*,*,#918,.T.);
#1311 = FACE_BOUND('',#1312,.F.);
#1312 = EDGE_LOOP('',(#1313));
#1313 = ORIENTED_EDGE('',*,*,#1093,.T.);
#1314 = FACE_BOUND('',#1315,.F.);
#1315 = EDGE_LOOP('',(#1316));
#1316 = ORIENTED_EDGE('',*,*,#1168,.T.);
#1317 = FACE_BOUND('',#1318,.F.);
#1318 = EDGE_LOOP('',(#1319));
#1319 = ORIENTED_EDGE('',*,*,#1243,.T.);
#1320 = FACE_BOUND('',#1321,.F.);
#1321 = EDGE_LOOP('',(#1322));
#1322 = ORIENTED_EDGE('',*,*,#1193,.T.);
#1323 = FACE_BOUND('',#1324,.F.);
#1324 = EDGE_LOOP('',(#1325));
#1325 = ORIENTED_EDGE('',*,*,#1068,.T.);
#1326 = PLANE('',#1327);
#1327 = AXIS2_PLACEMENT_3D('',#1328,#1329,#1330);
#1328 = CARTESIAN_POINT('',(0.102192162297,6.952523318033E-16,1.5));
#1329 = DIRECTION('',(3.59346149329E-33,1.289363572965E-33,-1.));
#1330 = DIRECTION('',(-1.,0.,-3.59346149329E-33));
#1331 = ( GEOMETRIC_REPRESENTATION_CONTEXT(3) 
GLOBAL_UNCERTAINTY_ASSIGNED_CONTEXT((#1335)) 
GLOBAL_UNIT_ASSIGNED_CONTEXT((#1332,#1333,#1334)) REPRESENTATION_CONTEXT
('Context #1','3D Context with UNIT and UNCERTAINTY') );
#1332 = ( LENGTH_UNIT() NAMED_UNIT(*) SI_UNIT(.MILLI.,.METRE.) );
#1333 = ( NAMED_UNIT(*) PLANE_ANGLE_UNIT() SI_UNIT($,.RADIAN.) );
#1334 = ( NAMED_UNIT(*) SI_UNIT($,.STERADIAN.) SOLID_ANGLE_UNIT() );
#1335 = UNCERTAINTY_MEASURE_WITH_UNIT(LENGTH_MEASURE(1.E-07),#1332,
  'distance_accuracy_value','confusion accuracy');
#1336 = PRODUCT_RELATED_PRODUCT_CATEGORY('part',$,(#7));
#1337 = MECHANICAL_DESIGN_GEOMETRIC_PRESENTATION_REPRESENTATION('',(
    #1338,#1346,#1353,#1360,#1367,#1374,#1381,#1388,#1395,#1402,#1409,
    #1416,#1423,#1430,#1437,#1444,#1451,#1458,#1465,#1472,#1479,#1486,
    #1493,#1500,#1507,#1514,#1521,#1528,#1535,#1542,#1549,#1556,#1563,
    #1570,#1577,#1584,#1591),#1331);
#1338 = STYLED_ITEM('color',(#1339),#17);
#1339 = PRESENTATION_STYLE_ASSIGNMENT((#1340));
#1340 = SURFACE_STYLE_USAGE(.BOTH.,#1341);
#1341 = SURFACE_SIDE_STYLE('',(#1342));
#1342 = SURFACE_STYLE_FILL_AREA(#1343);
#1343 = FILL_AREA_STYLE('',(#1344));
#1344 = FILL_AREA_STYLE_COLOUR('',#1345);
#1345 = COLOUR_RGB('',0.941176474094,0.941176474094,0.941176474094);
#1346 = STYLED_ITEM('color',(#1347),#57);
#1347 = PRESENTATION_STYLE_ASSIGNMENT((#1348));
#1348 = SURFACE_STYLE_USAGE(.BOTH.,#1349);
#1349 = SURFACE_SIDE_STYLE('',(#1350));
#1350 = SURFACE_STYLE_FILL_AREA(#1351);
#1351 = FILL_AREA_STYLE('',(#1352));
#1352 = FILL_AREA_STYLE_COLOUR('',#1345);
#1353 = STYLED_ITEM('color',(#1354),#234);
#1354 = PRESENTATION_STYLE_ASSIGNMENT((#1355));
#1355 = SURFACE_STYLE_USAGE(.BOTH.,#1356);
#1356 = SURFACE_SIDE_STYLE('',(#1357));
#1357 = SURFACE_STYLE_FILL_AREA(#1358);
#1358 = FILL_AREA_STYLE('',(#1359));
#1359 = FILL_AREA_STYLE_COLOUR('',#1345);
#1360 = STYLED_ITEM('color',(#1361),#259);
#1361 = PRESENTATION_STYLE_ASSIGNMENT((#1362));
#1362 = SURFACE_STYLE_USAGE(.BOTH.,#1363);
#1363 = SURFACE_SIDE_STYLE('',(#1364));
#1364 = SURFACE_STYLE_FILL_AREA(#1365);
#1365 = FILL_AREA_STYLE('',(#1366));
#1366 = FILL_AREA_STYLE_COLOUR('',#1345);
#1367 = STYLED_ITEM('color',(#1368),#284);
#1368 = PRESENTATION_STYLE_ASSIGNMENT((#1369));
#1369 = SURFACE_STYLE_USAGE(.BOTH.,#1370);
#1370 = SURFACE_SIDE_STYLE('',(#1371));
#1371 = SURFACE_STYLE_FILL_AREA(#1372);
#1372 = FILL_AREA_STYLE('',(#1373));
#1373 = FILL_AREA_STYLE_COLOUR('',#1345);
#1374 = STYLED_ITEM('color',(#1375),#489);
#1375 = PRESENTATION_STYLE_ASSIGNMENT((#1376));
#1376 = SURFACE_STYLE_USAGE(.BOTH.,#1377);
#1377 = SURFACE_SIDE_STYLE('',(#1378));
#1378 = SURFACE_STYLE_FILL_AREA(#1379);
#1379 = FILL_AREA_STYLE('',(#1380));
#1380 = FILL_AREA_STYLE_COLOUR('',#1345);
#1381 = STYLED_ITEM('color',(#1382),#506);
#1382 = PRESENTATION_STYLE_ASSIGNMENT((#1383));
#1383 = SURFACE_STYLE_USAGE(.BOTH.,#1384);
#1384 = SURFACE_SIDE_STYLE('',(#1385));
#1385 = SURFACE_STYLE_FILL_AREA(#1386);
#1386 = FILL_AREA_STYLE('',(#1387));
#1387 = FILL_AREA_STYLE_COLOUR('',#1345);
#1388 = STYLED_ITEM('color',(#1389),#523);
#1389 = PRESENTATION_STYLE_ASSIGNMENT((#1390));
#1390 = SURFACE_STYLE_USAGE(.BOTH.,#1391);
#1391 = SURFACE_SIDE_STYLE('',(#1392));
#1392 = SURFACE_STYLE_FILL_AREA(#1393);
#1393 = FILL_AREA_STYLE('',(#1394));
#1394 = FILL_AREA_STYLE_COLOUR('',#1345);
#1395 = STYLED_ITEM('color',(#1396),#540);
#1396 = PRESENTATION_STYLE_ASSIGNMENT((#1397));
#1397 = SURFACE_STYLE_USAGE(.BOTH.,#1398);
#1398 = SURFACE_SIDE_STYLE('',(#1399));
#1399 = SURFACE_STYLE_FILL_AREA(#1400);
#1400 = FILL_AREA_STYLE('',(#1401));
#1401 = FILL_AREA_STYLE_COLOUR('',#1345);
#1402 = STYLED_ITEM('color',(#1403),#557);
#1403 = PRESENTATION_STYLE_ASSIGNMENT((#1404));
#1404 = SURFACE_STYLE_USAGE(.BOTH.,#1405);
#1405 = SURFACE_SIDE_STYLE('',(#1406));
#1406 = SURFACE_STYLE_FILL_AREA(#1407);
#1407 = FILL_AREA_STYLE('',(#1408));
#1408 = FILL_AREA_STYLE_COLOUR('',#1345);
#1409 = STYLED_ITEM('color',(#1410),#569);
#1410 = PRESENTATION_STYLE_ASSIGNMENT((#1411));
#1411 = SURFACE_STYLE_USAGE(.BOTH.,#1412);
#1412 = SURFACE_SIDE_STYLE('',(#1413));
#1413 = SURFACE_STYLE_FILL_AREA(#1414);
#1414 = FILL_AREA_STYLE('',(#1415));
#1415 = FILL_AREA_STYLE_COLOUR('',#1345);
#1416 = STYLED_ITEM('color',(#1417),#601);
#1417 = PRESENTATION_STYLE_ASSIGNMENT((#1418));
#1418 = SURFACE_STYLE_USAGE(.BOTH.,#1419);
#1419 = SURFACE_SIDE_STYLE('',(#1420));
#1420 = SURFACE_STYLE_FILL_AREA(#1421);
#1421 = FILL_AREA_STYLE('',(#1422));
#1422 = FILL_AREA_STYLE_COLOUR('',#1345);
#1423 = STYLED_ITEM('color',(#1424),#626);
#1424 = PRESENTATION_STYLE_ASSIGNMENT((#1425));
#1425 = SURFACE_STYLE_USAGE(.BOTH.,#1426);
#1426 = SURFACE_SIDE_STYLE('',(#1427));
#1427 = SURFACE_STYLE_FILL_AREA(#1428);
#1428 = FILL_AREA_STYLE('',(#1429));
#1429 = FILL_AREA_STYLE_COLOUR('',#1345);
#1430 = STYLED_ITEM('color',(#1431),#660);
#1431 = PRESENTATION_STYLE_ASSIGNMENT((#1432));
#1432 = SURFACE_STYLE_USAGE(.BOTH.,#1433);
#1433 = SURFACE_SIDE_STYLE('',(#1434));
#1434 = SURFACE_STYLE_FILL_AREA(#1435);
#1435 = FILL_AREA_STYLE('',(#1436));
#1436 = FILL_AREA_STYLE_COLOUR('',#1345);
#1437 = STYLED_ITEM('color',(#1438),#694);
#1438 = PRESENTATION_STYLE_ASSIGNMENT((#1439));
#1439 = SURFACE_STYLE_USAGE(.BOTH.,#1440);
#1440 = SURFACE_SIDE_STYLE('',(#1441));
#1441 = SURFACE_STYLE_FILL_AREA(#1442);
#1442 = FILL_AREA_STYLE('',(#1443));
#1443 = FILL_AREA_STYLE_COLOUR('',#1345);
#1444 = STYLED_ITEM('color',(#1445),#728);
#1445 = PRESENTATION_STYLE_ASSIGNMENT((#1446));
#1446 = SURFACE_STYLE_USAGE(.BOTH.,#1447);
#1447 = SURFACE_SIDE_STYLE('',(#1448));
#1448 = SURFACE_STYLE_FILL_AREA(#1449);
#1449 = FILL_AREA_STYLE('',(#1450));
#1450 = FILL_AREA_STYLE_COLOUR('',#1345);
#1451 = STYLED_ITEM('color',(#1452),#753);
#1452 = PRESENTATION_STYLE_ASSIGNMENT((#1453));
#1453 = SURFACE_STYLE_USAGE(.BOTH.,#1454);
#1454 = SURFACE_SIDE_STYLE('',(#1455));
#1455 = SURFACE_STYLE_FILL_AREA(#1456);
#1456 = FILL_AREA_STYLE('',(#1457));
#1457 = FILL_AREA_STYLE_COLOUR('',#1345);
#1458 = STYLED_ITEM('color',(#1459),#778);
#1459 = PRESENTATION_STYLE_ASSIGNMENT((#1460));
#1460 = SURFACE_STYLE_USAGE(.BOTH.,#1461);
#1461 = SURFACE_SIDE_STYLE('',(#1462));
#1462 = SURFACE_STYLE_FILL_AREA(#1463);
#1463 = FILL_AREA_STYLE('',(#1464));
#1464 = FILL_AREA_STYLE_COLOUR('',#1345);
#1465 = STYLED_ITEM('color',(#1466),#803);
#1466 = PRESENTATION_STYLE_ASSIGNMENT((#1467));
#1467 = SURFACE_STYLE_USAGE(.BOTH.,#1468);
#1468 = SURFACE_SIDE_STYLE('',(#1469));
#1469 = SURFACE_STYLE_FILL_AREA(#1470);
#1470 = FILL_AREA_STYLE('',(#1471));
#1471 = FILL_AREA_STYLE_COLOUR('',#1345);
#1472 = STYLED_ITEM('color',(#1473),#837);
#1473 = PRESENTATION_STYLE_ASSIGNMENT((#1474));
#1474 = SURFACE_STYLE_USAGE(.BOTH.,#1475);
#1475 = SURFACE_SIDE_STYLE('',(#1476));
#1476 = SURFACE_STYLE_FILL_AREA(#1477);
#1477 = FILL_AREA_STYLE('',(#1478));
#1478 = FILL_AREA_STYLE_COLOUR('',#1345);
#1479 = STYLED_ITEM('color',(#1480),#862);
#1480 = PRESENTATION_STYLE_ASSIGNMENT((#1481));
#1481 = SURFACE_STYLE_USAGE(.BOTH.,#1482);
#1482 = SURFACE_SIDE_STYLE('',(#1483));
#1483 = SURFACE_STYLE_FILL_AREA(#1484);
#1484 = FILL_AREA_STYLE('',(#1485));
#1485 = FILL_AREA_STYLE_COLOUR('',#1345);
#1486 = STYLED_ITEM('color',(#1487),#896);
#1487 = PRESENTATION_STYLE_ASSIGNMENT((#1488));
#1488 = SURFACE_STYLE_USAGE(.BOTH.,#1489);
#1489 = SURFACE_SIDE_STYLE('',(#1490));
#1490 = SURFACE_STYLE_FILL_AREA(#1491);
#1491 = FILL_AREA_STYLE('',(#1492));
#1492 = FILL_AREA_STYLE_COLOUR('',#1345);
#1493 = STYLED_ITEM('color',(#1494),#914);
#1494 = PRESENTATION_STYLE_ASSIGNMENT((#1495));
#1495 = SURFACE_STYLE_USAGE(.BOTH.,#1496);
#1496 = SURFACE_SIDE_STYLE('',(#1497));
#1497 = SURFACE_STYLE_FILL_AREA(#1498);
#1498 = FILL_AREA_STYLE('',(#1499));
#1499 = FILL_AREA_STYLE_COLOUR('',#1345);
#1500 = STYLED_ITEM('color',(#1501),#939);
#1501 = PRESENTATION_STYLE_ASSIGNMENT((#1502));
#1502 = SURFACE_STYLE_USAGE(.BOTH.,#1503);
#1503 = SURFACE_SIDE_STYLE('',(#1504));
#1504 = SURFACE_STYLE_FILL_AREA(#1505);
#1505 = FILL_AREA_STYLE('',(#1506));
#1506 = FILL_AREA_STYLE_COLOUR('',#1345);
#1507 = STYLED_ITEM('color',(#1508),#964);
#1508 = PRESENTATION_STYLE_ASSIGNMENT((#1509));
#1509 = SURFACE_STYLE_USAGE(.BOTH.,#1510);
#1510 = SURFACE_SIDE_STYLE('',(#1511));
#1511 = SURFACE_STYLE_FILL_AREA(#1512);
#1512 = FILL_AREA_STYLE('',(#1513));
#1513 = FILL_AREA_STYLE_COLOUR('',#1345);
#1514 = STYLED_ITEM('color',(#1515),#989);
#1515 = PRESENTATION_STYLE_ASSIGNMENT((#1516));
#1516 = SURFACE_STYLE_USAGE(.BOTH.,#1517);
#1517 = SURFACE_SIDE_STYLE('',(#1518));
#1518 = SURFACE_STYLE_FILL_AREA(#1519);
#1519 = FILL_AREA_STYLE('',(#1520));
#1520 = FILL_AREA_STYLE_COLOUR('',#1345);
#1521 = STYLED_ITEM('color',(#1522),#1014);
#1522 = PRESENTATION_STYLE_ASSIGNMENT((#1523));
#1523 = SURFACE_STYLE_USAGE(.BOTH.,#1524);
#1524 = SURFACE_SIDE_STYLE('',(#1525));
#1525 = SURFACE_STYLE_FILL_AREA(#1526);
#1526 = FILL_AREA_STYLE('',(#1527));
#1527 = FILL_AREA_STYLE_COLOUR('',#1345);
#1528 = STYLED_ITEM('color',(#1529),#1039);
#1529 = PRESENTATION_STYLE_ASSIGNMENT((#1530));
#1530 = SURFACE_STYLE_USAGE(.BOTH.,#1531);
#1531 = SURFACE_SIDE_STYLE('',(#1532));
#1532 = SURFACE_STYLE_FILL_AREA(#1533);
#1533 = FILL_AREA_STYLE('',(#1534));
#1534 = FILL_AREA_STYLE_COLOUR('',#1345);
#1535 = STYLED_ITEM('color',(#1536),#1064);
#1536 = PRESENTATION_STYLE_ASSIGNMENT((#1537));
#1537 = SURFACE_STYLE_USAGE(.BOTH.,#1538);
#1538 = SURFACE_SIDE_STYLE('',(#1539));
#1539 = SURFACE_STYLE_FILL_AREA(#1540);
#1540 = FILL_AREA_STYLE('',(#1541));
#1541 = FILL_AREA_STYLE_COLOUR('',#1345);
#1542 = STYLED_ITEM('color',(#1543),#1089);
#1543 = PRESENTATION_STYLE_ASSIGNMENT((#1544));
#1544 = SURFACE_STYLE_USAGE(.BOTH.,#1545);
#1545 = SURFACE_SIDE_STYLE('',(#1546));
#1546 = SURFACE_STYLE_FILL_AREA(#1547);
#1547 = FILL_AREA_STYLE('',(#1548));
#1548 = FILL_AREA_STYLE_COLOUR('',#1345);
#1549 = STYLED_ITEM('color',(#1550),#1114);
#1550 = PRESENTATION_STYLE_ASSIGNMENT((#1551));
#1551 = SURFACE_STYLE_USAGE(.BOTH.,#1552);
#1552 = SURFACE_SIDE_STYLE('',(#1553));
#1553 = SURFACE_STYLE_FILL_AREA(#1554);
#1554 = FILL_AREA_STYLE('',(#1555));
#1555 = FILL_AREA_STYLE_COLOUR('',#1345);
#1556 = STYLED_ITEM('color',(#1557),#1139);
#1557 = PRESENTATION_STYLE_ASSIGNMENT((#1558));
#1558 = SURFACE_STYLE_USAGE(.BOTH.,#1559);
#1559 = SURFACE_SIDE_STYLE('',(#1560));
#1560 = SURFACE_STYLE_FILL_AREA(#1561);
#1561 = FILL_AREA_STYLE('',(#1562));
#1562 = FILL_AREA_STYLE_COLOUR('',#1345);
#1563 = STYLED_ITEM('color',(#1564),#1164);
#1564 = PRESENTATION_STYLE_ASSIGNMENT((#1565));
#1565 = SURFACE_STYLE_USAGE(.BOTH.,#1566);
#1566 = SURFACE_SIDE_STYLE('',(#1567));
#1567 = SURFACE_STYLE_FILL_AREA(#1568);
#1568 = FILL_AREA_STYLE('',(#1569));
#1569 = FILL_AREA_STYLE_COLOUR('',#1345);
#1570 = STYLED_ITEM('color',(#1571),#1189);
#1571 = PRESENTATION_STYLE_ASSIGNMENT((#1572));
#1572 = SURFACE_STYLE_USAGE(.BOTH.,#1573);
#1573 = SURFACE_SIDE_STYLE('',(#1574));
#1574 = SURFACE_STYLE_FILL_AREA(#1575);
#1575 = FILL_AREA_STYLE('',(#1576));
#1576 = FILL_AREA_STYLE_COLOUR('',#1345);
#1577 = STYLED_ITEM('color',(#1578),#1214);
#1578 = PRESENTATION_STYLE_ASSIGNMENT((#1579));
#1579 = SURFACE_STYLE_USAGE(.BOTH.,#1580);
#1580 = SURFACE_SIDE_STYLE('',(#1581));
#1581 = SURFACE_STYLE_FILL_AREA(#1582);
#1582 = FILL_AREA_STYLE('',(#1583));
#1583 = FILL_AREA_STYLE_COLOUR('',#1345);
#1584 = STYLED_ITEM('color',(#1585),#1239);
#1585 = PRESENTATION_STYLE_ASSIGNMENT((#1586));
#1586 = SURFACE_STYLE_USAGE(.BOTH.,#1587);
#1587 = SURFACE_SIDE_STYLE('',(#1588));
#1588 = SURFACE_STYLE_FILL_AREA(#1589);
#1589 = FILL_AREA_STYLE('',(#1590));
#1590 = FILL_AREA_STYLE_COLOUR('',#1345);
#1591 = STYLED_ITEM('color',(#1592),#1264);
#1592 = PRESENTATION_STYLE_ASSIGNMENT((#1593));
#1593 = SURFACE_STYLE_USAGE(.BOTH.,#1594);
#1594 = SURFACE_SIDE_STYLE('',(#1595));
#1595 = SURFACE_STYLE_FILL_AREA(#1596);
#1596 = FILL_AREA_STYLE('',(#1597));
#1597 = FILL_AREA_STYLE_COLOUR('',#1345);
ENDSEC;
END-ISO-10303-21;
