ISO-10303-21;
HEADER;
FILE_DESCRIPTION (( 'STEP AP203' ),
    '1' );
FILE_NAME ('Same_Sky_CPT-1207-3TH.step',
    '2025-09-08T19:44:49',
    ( '' ),
    ( '' ),
    'SwSTEP 2.0',
    'SolidWorks 2025',
    '' );
FILE_SCHEMA (( 'CONFIG_CONTROL_DESIGN' ));
ENDSEC;

DATA;
#1 = EDGE_LOOP ( 'NONE', ( #823, #305 ) ) ;
#2 = CARTESIAN_POINT ( 'NONE',  ( 0.000000000000000000, 6.299999999999999822, 0.000000000000000000 ) ) ;
#3 = ORIENTED_EDGE ( 'NONE', *, *, #585, .T. ) ;
#4 = LINE ( 'NONE', #707, #191 ) ;
#5 = EDGE_CURVE ( 'NONE', #242, #810, #263, .T. ) ;
#6 = ORIENTED_EDGE ( 'NONE', *, *, #8, .T. ) ;
#7 = DIRECTION ( 'NONE',  ( 0.7071067811865474617, 0.000000000000000000, 0.7071067811865474617 ) ) ;
#8 = EDGE_CURVE ( 'NONE', #287, #1017, #943, .T. ) ;
#9 = ORIENTED_EDGE ( 'NONE', *, *, #8, .F. ) ;
#10 = LINE ( 'NONE', #790, #509 ) ;
#11 = ORIENTED_EDGE ( 'NONE', *, *, #5, .F. ) ;
#12 = CARTESIAN_POINT ( 'NONE',  ( 0.000000000000000000, 6.200000000000000178, 0.000000000000000000 ) ) ;
#13 = CARTESIAN_POINT ( 'NONE',  ( -0.3889087296525999826, -0.6999999999999999556, -2.676723622087999743 ) ) ;
#14 = DIRECTION ( 'NONE',  ( 0.000000000000000000, 0.000000000000000000, 1.000000000000000000 ) ) ;
#15 = DIRECTION ( 'NONE',  ( -1.000000000000000000, 0.000000000000000000, 0.000000000000000000 ) ) ;
#16 = ORIENTED_EDGE ( 'NONE', *, *, #394, .F. ) ;
#17 = DIRECTION ( 'NONE',  ( 1.000000000000000000, 0.000000000000000000, 0.000000000000000000 ) ) ;
#18 = EDGE_CURVE ( 'NONE', #67, #926, #19, .T. ) ;
#19 = CIRCLE ( 'NONE', #1076, 0.4000000000000001887 ) ;
#20 = AXIS2_PLACEMENT_3D ( 'NONE', #302, #722, #654 ) ;
#21 = CARTESIAN_POINT ( 'NONE',  ( -4.150000000000000355, 0.5000000000000000000, 0.000000000000000000 ) ) ;
#22 = PERSON_AND_ORGANIZATION_ROLE ( 'design_owner' ) ;
#23 = VECTOR ( 'NONE', #1119, 1000.000000000000000 ) ;
#24 = CARTESIAN_POINT ( 'NONE',  ( -1.000000000000000000, 6.200000000000000178, -1.224646799147353207E-16 ) ) ;
#25 = ADVANCED_FACE ( 'NONE', ( #1038, #438 ), #172, .F. ) ;
#26 = ORIENTED_EDGE ( 'NONE', *, *, #163, .T. ) ;
#27 = DIRECTION ( 'NONE',  ( 0.000000000000000000, -1.000000000000000000, 0.000000000000000000 ) ) ;
#28 = APPROVAL_ROLE ( '' ) ;
#29 = ORIENTED_EDGE ( 'NONE', *, *, #996, .T. ) ;
#30 = FACE_OUTER_BOUND ( 'NONE', #720, .T. ) ;
#31 = CC_DESIGN_PERSON_AND_ORGANIZATION_ASSIGNMENT ( #1100, #22, ( #518 ) ) ;
#32 = ORIENTED_EDGE ( 'NONE', *, *, #590, .F. ) ;
#33 = DIRECTION ( 'NONE',  ( 1.000000000000000000, 0.000000000000000000, 0.000000000000000000 ) ) ;
#34 = EDGE_CURVE ( 'NONE', #158, #726, #692, .T. ) ;
#35 = PERSON_AND_ORGANIZATION ( #1141, #779 ) ;
#36 = CARTESIAN_POINT ( 'NONE',  ( 0.3889087296525999826, -0.6999999999999999556, 2.676776695296999797 ) ) ;
#37 = ORIENTED_EDGE ( 'NONE', *, *, #329, .F. ) ;
#38 = DIRECTION ( 'NONE',  ( 0.000000000000000000, -1.000000000000000000, 0.000000000000000000 ) ) ;
#39 = VECTOR ( 'NONE', #413, 1000.000000000000000 ) ;
#40 = CARTESIAN_POINT ( 'NONE',  ( -3.750000000000000000, 0.5000000000000000000, 0.000000000000000000 ) ) ;
#41 = VECTOR ( 'NONE', #1085, 1000.000000000000000 ) ;
#42 = ORIENTED_EDGE ( 'NONE', *, *, #877, .F. ) ;
#43 = EDGE_CURVE ( 'NONE', #270, #810, #358, .T. ) ;
#44 = VERTEX_POINT ( 'NONE', #702 ) ;
#45 = FACE_OUTER_BOUND ( 'NONE', #718, .T. ) ;
#46 = ADVANCED_FACE ( 'NONE', ( #1048 ), #554, .T. ) ;
#47 = CARTESIAN_POINT ( 'NONE',  ( -0.3889087296525999826, -0.6999999999999999556, -2.676723622087999743 ) ) ;
#48 = CARTESIAN_POINT ( 'NONE',  ( -0.3889087296525999826, -0.6999999999999999556, 2.323223304702999759 ) ) ;
#49 = DIRECTION ( 'NONE',  ( 0.5000000000000168754, 0.7071067811865237029, 0.5000000000000168754 ) ) ;
#50 = VECTOR ( 'NONE', #277, 1000.000000000000114 ) ;
#51 = DIRECTION ( 'NONE',  ( -1.000000000000000000, 0.000000000000000000, 0.000000000000000000 ) ) ;
#52 = AXIS2_PLACEMENT_3D ( 'NONE', #251, #418, #606 ) ;
#53 = ORIENTED_EDGE ( 'NONE', *, *, #951, .F. ) ;
#54 = LINE ( 'NONE', #782, #210 ) ;
#55 = DIRECTION ( 'NONE',  ( 0.000000000000000000, -1.000000000000000000, 0.000000000000000000 ) ) ;
#56 = ORIENTED_EDGE ( 'NONE', *, *, #125, .F. ) ;
#57 = EDGE_LOOP ( 'NONE', ( #53, #234, #914, #924 ) ) ;
#58 = DIRECTION ( 'NONE',  ( -0.5000000000000167644, -0.7071067811865237029, -0.5000000000000168754 ) ) ;
#59 = CARTESIAN_POINT ( 'NONE',  ( -0.1767766952965999783, -3.850000000000000089, -2.888855656443999997 ) ) ;
#60 = ORIENTED_EDGE ( 'NONE', *, *, #553, .F. ) ;
#61 = DIRECTION ( 'NONE',  ( 0.000000000000000000, 0.000000000000000000, -1.000000000000000000 ) ) ;
#62 = EDGE_LOOP ( 'NONE', ( #353, #370, #478, #1031 ) ) ;
#63 = CARTESIAN_POINT ( 'NONE',  ( -0.1590990257669999963, -4.025000000000000355, 2.340900974232999587 ) ) ;
#64 = ADVANCED_FACE ( 'NONE', ( #743 ), #728, .T. ) ;
#65 = VERTEX_POINT ( 'NONE', #113 ) ;
#66 = DIRECTION ( 'NONE',  ( 0.000000000000000000, 0.000000000000000000, -1.000000000000000000 ) ) ;
#67 = VERTEX_POINT ( 'NONE', #21 ) ;
#68 = CYLINDRICAL_SURFACE ( 'NONE', #569, 6.250000000000000000 ) ;
#69 = VECTOR ( 'NONE', #417, 1000.000000000000000 ) ;
#70 = VECTOR ( 'NONE', #124, 1000.000000000000114 ) ;
#71 = DIRECTION ( 'NONE',  ( 0.000000000000000000, -1.000000000000000000, 0.000000000000000000 ) ) ;
#72 = CC_DESIGN_APPROVAL ( #778, ( #767 ) ) ;
#73 = CARTESIAN_POINT ( 'NONE',  ( 0.1767766952965999783, -0.6999999999999999556, 2.888908729653000051 ) ) ;
#74 = CARTESIAN_POINT ( 'NONE',  ( -0.1767766952965999783, -0.6999999999999999556, -2.888855656443999997 ) ) ;
#75 = ORIENTED_EDGE ( 'NONE', *, *, #994, .F. ) ;
#76 = FACE_OUTER_BOUND ( 'NONE', #975, .T. ) ;
#77 = ORIENTED_EDGE ( 'NONE', *, *, #394, .T. ) ;
#78 = FACE_OUTER_BOUND ( 'NONE', #377, .T. ) ;
#79 = DIRECTION ( 'NONE',  ( 0.000000000000000000, -1.000000000000000000, 0.000000000000000000 ) ) ;
#80 = ORIENTED_EDGE ( 'NONE', *, *, #224, .F. ) ;
#81 = FACE_OUTER_BOUND ( 'NONE', #188, .T. ) ;
#82 = ORIENTED_EDGE ( 'NONE', *, *, #1019, .F. ) ;
#83 = DIRECTION ( 'NONE',  ( -0.7071067811865474617, 0.000000000000000000, 0.7071067811865474617 ) ) ;
#84 = CARTESIAN_POINT ( 'NONE',  ( -0.3889087296525999826, -0.6999999999999999556, 2.323223304702999759 ) ) ;
#85 = APPLICATION_CONTEXT ( 'configuration controlled 3d designs of mechanical parts and assemblies' ) ;
#86 = ORIENTED_EDGE ( 'NONE', *, *, #887, .T. ) ;
#87 = DIRECTION ( 'NONE',  ( 0.000000000000000000, -1.000000000000000000, 0.000000000000000000 ) ) ;
#88 = CC_DESIGN_PERSON_AND_ORGANIZATION_ASSIGNMENT ( #35, #303, ( #901 ) ) ;
#89 = LINE ( 'NONE', #628, #889 ) ;
#90 = AXIS2_PLACEMENT_3D ( 'NONE', #425, #428, #1121 ) ;
#91 = CIRCLE ( 'NONE', #407, 1.000000000000000000 ) ;
#92 = DIRECTION ( 'NONE',  ( -0.7071067811865969777, 0.000000000000000000, 0.7071067811864980568 ) ) ;
#93 = FACE_OUTER_BOUND ( 'NONE', #685, .T. ) ;
#94 = ORIENTED_EDGE ( 'NONE', *, *, #922, .F. ) ;
#95 = DIRECTION ( 'NONE',  ( 0.000000000000000000, 1.000000000000000000, 0.000000000000000000 ) ) ;
#96 = ORIENTED_EDGE ( 'NONE', *, *, #198, .F. ) ;
#97 = DIRECTION ( 'NONE',  ( 0.7071067811865475727, 0.000000000000000000, -0.7071067811865475727 ) ) ;
#98 = DESIGN_CONTEXT ( 'detailed design', #149, 'design' ) ;
#99 = EDGE_CURVE ( 'NONE', #734, #186, #888, .T. ) ;
#100 = CARTESIAN_POINT ( 'NONE',  ( 5.700000000000000178, 0.000000000000000000, -6.980486755139913108E-16 ) ) ;
#101 = PERSON_AND_ORGANIZATION ( #1141, #779 ) ;
#102 = DIRECTION ( 'NONE',  ( -1.000000000000000000, 0.000000000000000000, 0.000000000000000000 ) ) ;
#103 = VERTEX_POINT ( 'NONE', #896 ) ;
#104 = FACE_OUTER_BOUND ( 'NONE', #435, .T. ) ;
#105 = DIRECTION ( 'NONE',  ( 0.000000000000000000, -1.000000000000000000, 0.000000000000000000 ) ) ;
#106 = CALENDAR_DATE ( 2025, 8, 9 ) ;
#107 = DIRECTION ( 'NONE',  ( 1.000000000000000000, 0.000000000000000000, 0.000000000000000000 ) ) ;
#108 = ORIENTED_EDGE ( 'NONE', *, *, #771, .F. ) ;
#109 = FACE_OUTER_BOUND ( 'NONE', #1, .T. ) ;
#110 = VECTOR ( 'NONE', #420, 1000.000000000000114 ) ;
#111 = AXIS2_PLACEMENT_3D ( 'NONE', #1093, #1021, #828 ) ;
#112 = AXIS2_PLACEMENT_3D ( 'NONE', #36, #1001, #220 ) ;
#113 = CARTESIAN_POINT ( 'NONE',  ( 0.1414213562372999833, -4.200000000000000178, 2.429289321880999886 ) ) ;
#114 = EDGE_CURVE ( 'NONE', #452, #920, #806, .T. ) ;
#115 = ORIENTED_EDGE ( 'NONE', *, *, #409, .F. ) ;
#116 = PLANE ( 'NONE',  #815 ) ;
#117 = EDGE_CURVE ( 'NONE', #635, #695, #199, .T. ) ;
#118 = ORIENTED_EDGE ( 'NONE', *, *, #371, .F. ) ;
#119 = CARTESIAN_POINT ( 'NONE',  ( 0.3889087296525999826, -0.6999999999999999556, -2.323170231494999793 ) ) ;
#120 = DIRECTION ( 'NONE',  ( -1.000000000000000000, 0.000000000000000000, 0.000000000000000000 ) ) ;
#121 = APPROVAL_STATUS ( 'not_yet_approved' ) ;
#122 = DIRECTION ( 'NONE',  ( -0.7071067811865475727, 0.000000000000000000, -0.7071067811865475727 ) ) ;
#123 = EDGE_LOOP ( 'NONE', ( #274, #529, #799, #11 ) ) ;
#124 = DIRECTION ( 'NONE',  ( -0.7071067811865474617, 0.000000000000000000, 0.7071067811865474617 ) ) ;
#125 = EDGE_CURVE ( 'NONE', #738, #854, #675, .T. ) ;
#126 = APPLICATION_PROTOCOL_DEFINITION ( 'international standard', 'config_control_design', 1994, #85 ) ;
#127 = LINE ( 'NONE', #1012, #528 ) ;
#128 = VERTEX_POINT ( 'NONE', #13 ) ;
#129 = LINE ( 'NONE', #228, #325 ) ;
#130 = EDGE_CURVE ( 'NONE', #726, #261, #902, .T. ) ;
#131 = CIRCLE ( 'NONE', #230, 2.000000000000000000 ) ;
#132 = CIRCLE ( 'NONE', #929, 1.000000000000000000 ) ;
#133 = CARTESIAN_POINT ( 'NONE',  ( -0.3889087296525999826, -0.6999999999999999556, 2.323223304702999759 ) ) ;
#134 = AXIS2_PLACEMENT_3D ( 'NONE', #493, #14, #214 ) ;
#135 = VERTEX_POINT ( 'NONE', #908 ) ;
#136 = DIRECTION ( 'NONE',  ( 0.000000000000000000, -1.000000000000000000, 0.000000000000000000 ) ) ;
#137 = ORIENTED_EDGE ( 'NONE', *, *, #860, .F. ) ;
#138 = EDGE_LOOP ( 'NONE', ( #980, #26 ) ) ;
#139 = FACE_OUTER_BOUND ( 'NONE', #714, .T. ) ;
#140 = DIRECTION ( 'NONE',  ( 0.000000000000000000, 1.000000000000000000, 0.000000000000000000 ) ) ;
#141 = DIRECTION ( 'NONE',  ( 0.000000000000000000, 0.000000000000000000, -1.000000000000000000 ) ) ;
#142 = EDGE_LOOP ( 'NONE', ( #1120, #215 ) ) ;
#143 = CARTESIAN_POINT ( 'NONE',  ( 0.1767766952965999783, -0.6999999999999999556, 2.888908729653000051 ) ) ;
#144 = AXIS2_PLACEMENT_3D ( 'NONE', #250, #526, #1042 ) ;
#145 = ORIENTED_EDGE ( 'NONE', *, *, #1149, .T. ) ;
#146 = LINE ( 'NONE', #519, #212 ) ;
#147 = CIRCLE ( 'NONE', #480, 0.4000000000000001887 ) ;
#148 = AXIS2_PLACEMENT_3D ( 'NONE', #295, #663, #833 ) ;
#149 = APPLICATION_CONTEXT ( 'configuration controlled 3d designs of mechanical parts and assemblies' ) ;
#150 = EDGE_CURVE ( 'NONE', #440, #738, #205, .T. ) ;
#151 = CC_DESIGN_APPROVAL ( #1030, ( #1132 ) ) ;
#152 = VERTEX_POINT ( 'NONE', #482 ) ;
#153 = DIRECTION ( 'NONE',  ( -0.7071067811865475727, 0.000000000000000000, 0.7071067811865475727 ) ) ;
#154 = DIRECTION ( 'NONE',  ( -1.000000000000000000, 0.000000000000000000, 0.000000000000000000 ) ) ;
#155 = ORIENTED_EDGE ( 'NONE', *, *, #699, .F. ) ;
#156 = ORIENTED_EDGE ( 'NONE', *, *, #381, .T. ) ;
#157 = DIRECTION ( 'NONE',  ( 1.000000000000000000, 0.000000000000000000, 0.000000000000000000 ) ) ;
#158 = VERTEX_POINT ( 'NONE', #995 ) ;
#159 = CARTESIAN_POINT ( 'NONE',  ( 0.3889087296525999826, -0.6999999999999999556, -2.323170231494999793 ) ) ;
#160 = ORIENTED_EDGE ( 'NONE', *, *, #1088, .F. ) ;
#161 = DIRECTION ( 'NONE',  ( 1.000000000000000000, 0.000000000000000000, 0.000000000000000000 ) ) ;
#162 = EDGE_CURVE ( 'NONE', #44, #861, #558, .T. ) ;
#163 = EDGE_CURVE ( 'NONE', #1064, #261, #360, .T. ) ;
#164 = CARTESIAN_POINT ( 'NONE',  ( 3.750000000000000000, 0.5000000000000000000, 0.000000000000000000 ) ) ;
#165 = CIRCLE ( 'NONE', #865, 5.700000000000000178 ) ;
#166 = EDGE_LOOP ( 'NONE', ( #252, #348, #486, #42 ) ) ;
#167 = DIRECTION ( 'NONE',  ( 0.000000000000000000, -1.000000000000000000, 0.000000000000000000 ) ) ;
#168 = VECTOR ( 'NONE', #886, 1000.000000000000000 ) ;
#169 = EDGE_LOOP ( 'NONE', ( #1134, #347, #471, #1013 ) ) ;
#170 = CARTESIAN_POINT ( 'NONE',  ( 0.1767766952965999783, -0.6999999999999999556, 2.888908729653000051 ) ) ;
#171 = AXIS2_PLACEMENT_3D ( 'NONE', #499, #730, #647 ) ;
#172 = PLANE ( 'NONE',  #525 ) ;
#173 = CARTESIAN_POINT ( 'NONE',  ( -1.500000000000000000, 6.299999999999999822, -1.836970198721029934E-16 ) ) ;
#174 = CARTESIAN_POINT ( 'NONE',  ( 0.000000000000000000, 0.5000000000000000000, -2.500000000000000000 ) ) ;
#175 = EDGE_LOOP ( 'NONE', ( #894, #700, #300, #9 ) ) ;
#176 = DIRECTION ( 'NONE',  ( -0.000000000000000000, 1.000000000000000000, 0.000000000000000000 ) ) ;
#177 = DIRECTION ( 'NONE',  ( 0.000000000000000000, -1.000000000000000000, 0.000000000000000000 ) ) ;
#178 = EDGE_CURVE ( 'NONE', #294, #592, #1034, .T. ) ;
#179 = EDGE_LOOP ( 'NONE', ( #296, #281 ) ) ;
#180 = CARTESIAN_POINT ( 'NONE',  ( 0.3889087296525999826, -3.850000000000000089, -2.323170231494999793 ) ) ;
#181 = ORIENTED_EDGE ( 'NONE', *, *, #644, .F. ) ;
#182 = DIRECTION ( 'NONE',  ( 0.000000000000000000, 1.000000000000000000, 0.000000000000000000 ) ) ;
#183 = EDGE_CURVE ( 'NONE', #926, #287, #736, .T. ) ;
#184 = CARTESIAN_POINT ( 'NONE',  ( 0.3889087296525999826, -3.850000000000000089, 2.676776695296999797 ) ) ;
#185 = LINE ( 'NONE', #610, #601 ) ;
#186 = VERTEX_POINT ( 'NONE', #1110 ) ;
#187 = DIRECTION ( 'NONE',  ( 0.7071067811865475727, 0.000000000000000000, 0.7071067811865475727 ) ) ;
#188 = EDGE_LOOP ( 'NONE', ( #313, #1073, #712, #621 ) ) ;
#189 = DIRECTION ( 'NONE',  ( 0.000000000000000000, 1.000000000000000000, 0.000000000000000000 ) ) ;
#190 = CIRCLE ( 'NONE', #1054, 1.500000000000000000 ) ;
#191 = VECTOR ( 'NONE', #721, 1000.000000000000000 ) ;
#192 = VECTOR ( 'NONE', #424, 1000.000000000000114 ) ;
#193 = CARTESIAN_POINT ( 'NONE',  ( 0.000000000000000000, 0.5000000000000000000, -2.500000000000000000 ) ) ;
#194 = FACE_OUTER_BOUND ( 'NONE', #166, .T. ) ;
#195 = CARTESIAN_POINT ( 'NONE',  ( 0.000000000000000000, 6.200000000000000178, 0.000000000000000000 ) ) ;
#196 = ORIENTED_EDGE ( 'NONE', *, *, #130, .F. ) ;
#197 = CARTESIAN_POINT ( 'NONE',  ( 3.750000000000000000, -0.6999999999999999556, 0.000000000000000000 ) ) ;
#198 = EDGE_CURVE ( 'NONE', #853, #1002, #190, .T. ) ;
#199 = LINE ( 'NONE', #467, #477 ) ;
#200 = COORDINATED_UNIVERSAL_TIME_OFFSET ( 0, 0, .AHEAD. ) ;
#201 = CYLINDRICAL_SURFACE ( 'NONE', #441, 6.250000000000000000 ) ;
#202 = ORIENTED_EDGE ( 'NONE', *, *, #887, .F. ) ;
#203 = FACE_OUTER_BOUND ( 'NONE', #648, .T. ) ;
#204 = EDGE_CURVE ( 'NONE', #65, #135, #1082, .T. ) ;
#205 = LINE ( 'NONE', #934, #405 ) ;
#206 = FACE_OUTER_BOUND ( 'NONE', #169, .T. ) ;
#207 = ORIENTED_EDGE ( 'NONE', *, *, #1035, .T. ) ;
#208 = EDGE_CURVE ( 'NONE', #577, #217, #834, .T. ) ;
#209 = CARTESIAN_POINT ( 'NONE',  ( 0.000000000000000000, -0.6999999999999999556, 0.000000000000000000 ) ) ;
#210 = VECTOR ( 'NONE', #1135, 1000.000000000000114 ) ;
#211 = AXIS2_PLACEMENT_3D ( 'NONE', #334, #862, #51 ) ;
#212 = VECTOR ( 'NONE', #936, 1000.000000000000000 ) ;
#213 = DIRECTION ( 'NONE',  ( -0.5000000000000168754, 0.7071067811865237029, -0.5000000000000168754 ) ) ;
#214 = DIRECTION ( 'NONE',  ( 1.000000000000000000, 0.000000000000000000, 0.000000000000000000 ) ) ;
#215 = ORIENTED_EDGE ( 'NONE', *, *, #1094, .T. ) ;
#216 = CARTESIAN_POINT ( 'NONE',  ( 1.000000000000000000, 6.200000000000000178, 0.000000000000000000 ) ) ;
#217 = VERTEX_POINT ( 'NONE', #1028 ) ;
#218 = CARTESIAN_POINT ( 'NONE',  ( 0.000000000000000000, 0.5000000000000000000, 0.000000000000000000 ) ) ;
#219 = DATE_AND_TIME ( #831, #291 ) ;
#220 = DIRECTION ( 'NONE',  ( 0.000000000000000000, -1.000000000000000000, 0.000000000000000000 ) ) ;
#221 = ADVANCED_FACE ( 'NONE', ( #597 ), #686, .F. ) ;
#222 = EDGE_LOOP ( 'NONE', ( #96, #873 ) ) ;
#223 = DIRECTION ( 'NONE',  ( 1.000000000000000000, 0.000000000000000000, 0.000000000000000000 ) ) ;
#224 = EDGE_CURVE ( 'NONE', #1017, #287, #708, .T. ) ;
#225 = PERSON_AND_ORGANIZATION ( #1141, #779 ) ;
#226 = CARTESIAN_POINT ( 'NONE',  ( 0.1767766952965999783, -0.6999999999999999556, -2.111038197138999983 ) ) ;
#227 = ORIENTED_EDGE ( 'NONE', *, *, #178, .F. ) ;
#228 = CARTESIAN_POINT ( 'NONE',  ( -0.1414213562372999833, -4.200000000000000178, 2.570710678118999670 ) ) ;
#229 = EDGE_CURVE ( 'NONE', #1002, #853, #289, .T. ) ;
#230 = AXIS2_PLACEMENT_3D ( 'NONE', #958, #1130, #964 ) ;
#231 = AXIS2_PLACEMENT_3D ( 'NONE', #174, #87, #15 ) ;
#232 = CARTESIAN_POINT ( 'NONE',  ( 0.07071067811864999164, -4.200000000000000178, 2.358578643762999860 ) ) ;
#233 = VECTOR ( 'NONE', #1043, 999.9999999999998863 ) ;
#234 = ORIENTED_EDGE ( 'NONE', *, *, #286, .F. ) ;
#235 = CARTESIAN_POINT ( 'NONE',  ( 0.000000000000000000, 0.000000000000000000, 0.000000000000000000 ) ) ;
#236 = CARTESIAN_POINT ( 'NONE',  ( 0.000000000000000000, -0.6999999999999999556, 0.000000000000000000 ) ) ;
#237 = ORIENTED_EDGE ( 'NONE', *, *, #876, .T. ) ;
#238 = ORIENTED_EDGE ( 'NONE', *, *, #357, .F. ) ;
#239 = DIRECTION ( 'NONE',  ( 0.000000000000000000, 1.000000000000000000, 0.000000000000000000 ) ) ;
#240 = ADVANCED_FACE ( 'NONE', ( #443 ), #946, .T. ) ;
#241 = LINE ( 'NONE', #415, #388 ) ;
#242 = VERTEX_POINT ( 'NONE', #517 ) ;
#243 = ORIENTED_EDGE ( 'NONE', *, *, #312, .F. ) ;
#244 = CARTESIAN_POINT ( 'NONE',  ( -5.700000000000000178, 0.000000000000000000, 0.000000000000000000 ) ) ;
#245 = VECTOR ( 'NONE', #645, 1000.000000000000000 ) ;
#246 = CARTESIAN_POINT ( 'NONE',  ( -3.750000000000000000, 0.5000000000000000000, 0.000000000000000000 ) ) ;
#247 = DIRECTION ( 'NONE',  ( -0.7071067811865474617, 0.000000000000000000, -0.7071067811865474617 ) ) ;
#248 = APPROVAL_PERSON_ORGANIZATION ( #1090, #1106, #483 ) ;
#249 = FACE_OUTER_BOUND ( 'NONE', #62, .T. ) ;
#250 = CARTESIAN_POINT ( 'NONE',  ( -3.750000000000000000, -0.6999999999999999556, 0.000000000000000000 ) ) ;
#251 = CARTESIAN_POINT ( 'NONE',  ( -0.3889087296525999826, -0.6999999999999999556, -2.676723622087999743 ) ) ;
#252 = ORIENTED_EDGE ( 'NONE', *, *, #204, .F. ) ;
#253 = EDGE_CURVE ( 'NONE', #135, #633, #593, .T. ) ;
#254 = EDGE_LOOP ( 'NONE', ( #202, #556, #786, #885, #883, #237 ) ) ;
#255 = CARTESIAN_POINT ( 'NONE',  ( 0.000000000000000000, 6.299999999999999822, 0.000000000000000000 ) ) ;
#256 = EDGE_CURVE ( 'NONE', #442, #1040, #614, .T. ) ;
#257 = ADVANCED_FACE ( 'NONE', ( #249 ), #855, .T. ) ;
#258 = LINE ( 'NONE', #1151, #233 ) ;
#259 = VERTEX_POINT ( 'NONE', #776 ) ;
#260 = DIRECTION ( 'NONE',  ( 1.000000000000000000, 0.000000000000000000, 0.000000000000000000 ) ) ;
#261 = VERTEX_POINT ( 'NONE', #430 ) ;
#262 = LINE ( 'NONE', #349, #421 ) ;
#263 = LINE ( 'NONE', #184, #965 ) ;
#264 = CARTESIAN_POINT ( 'NONE',  ( 0.000000000000000000, -0.6999999999999999556, 2.500000000000000000 ) ) ;
#265 = ADVANCED_BREP_SHAPE_REPRESENTATION ( 'Same_Sky_CPT-1207-3TH', ( #1107, #134 ), #967 ) ;
#266 = AXIS2_PLACEMENT_3D ( 'NONE', #235, #505, #1123 ) ;
#267 = DIRECTION ( 'NONE',  ( 0.000000000000000000, -1.000000000000000000, 0.000000000000000000 ) ) ;
#268 = VECTOR ( 'NONE', #653, 999.9999999999998863 ) ;
#269 = APPROVAL_PERSON_ORGANIZATION ( #225, #778, #28 ) ;
#270 = VERTEX_POINT ( 'NONE', #143 ) ;
#271 = LINE ( 'NONE', #282, #387 ) ;
#272 = EDGE_CURVE ( 'NONE', #465, #961, #131, .T. ) ;
#273 = LINE ( 'NONE', #444, #308 ) ;
#274 = ORIENTED_EDGE ( 'NONE', *, *, #524, .F. ) ;
#275 = DIRECTION ( 'NONE',  ( 1.000000000000000000, 0.000000000000000000, 0.000000000000000000 ) ) ;
#276 = ORIENTED_EDGE ( 'NONE', *, *, #114, .T. ) ;
#277 = DIRECTION ( 'NONE',  ( 0.7071067811865474617, 0.000000000000000000, -0.7071067811865474617 ) ) ;
#278 = EDGE_LOOP ( 'NONE', ( #56, #155 ) ) ;
#279 = EDGE_CURVE ( 'NONE', #920, #1040, #165, .T. ) ;
#280 = CYLINDRICAL_SURFACE ( 'NONE', #1022, 5.700000000000000178 ) ;
#281 = ORIENTED_EDGE ( 'NONE', *, *, #598, .T. ) ;
#282 = CARTESIAN_POINT ( 'NONE',  ( 6.250000000000000000, 0.000000000000000000, 0.000000000000000000 ) ) ;
#283 = LINE ( 'NONE', #74, #711 ) ;
#284 = VERTEX_POINT ( 'NONE', #507 ) ;
#285 = FACE_OUTER_BOUND ( 'NONE', #848, .T. ) ;
#286 = EDGE_CURVE ( 'NONE', #440, #284, #386, .T. ) ;
#287 = VERTEX_POINT ( 'NONE', #337 ) ;
#288 = CARTESIAN_POINT ( 'NONE',  ( 0.1767766952965999783, -0.6999999999999999556, -2.111038197138999983 ) ) ;
#289 = CIRCLE ( 'NONE', #496, 1.500000000000000000 ) ;
#290 = AXIS2_PLACEMENT_3D ( 'NONE', #622, #176, #805 ) ;
#291 = LOCAL_TIME ( 19, 44, 49.00000000000000000, #755 ) ;
#292 = DIRECTION ( 'NONE',  ( -0.7071067811865475727, 0.000000000000000000, 0.7071067811865475727 ) ) ;
#293 = DATE_TIME_ROLE ( 'classification_date' ) ;
#294 = VERTEX_POINT ( 'NONE', #950 ) ;
#295 = CARTESIAN_POINT ( 'NONE',  ( 0.000000000000000000, 0.5000000000000000000, 2.500000000000000000 ) ) ;
#296 = ORIENTED_EDGE ( 'NONE', *, *, #982, .T. ) ;
#297 = LINE ( 'NONE', #1081, #1147 ) ;
#298 = EDGE_LOOP ( 'NONE', ( #607, #747 ) ) ;
#299 = CARTESIAN_POINT ( 'NONE',  ( -0.1767766952965999783, -3.850000000000000089, 2.111091270347000393 ) ) ;
#300 = ORIENTED_EDGE ( 'NONE', *, *, #409, .T. ) ;
#301 = DIRECTION ( 'NONE',  ( 0.000000000000000000, 1.000000000000000000, 0.000000000000000000 ) ) ;
#302 = CARTESIAN_POINT ( 'NONE',  ( 0.000000000000000000, 6.200000000000000178, 0.000000000000000000 ) ) ;
#303 = PERSON_AND_ORGANIZATION_ROLE ( 'creator' ) ;
#304 = DIRECTION ( 'NONE',  ( 0.000000000000000000, -1.000000000000000000, 0.000000000000000000 ) ) ;
#305 = ORIENTED_EDGE ( 'NONE', *, *, #1118, .T. ) ;
#306 = CARTESIAN_POINT ( 'NONE',  ( 0.1414213562372999833, -4.200000000000000178, -2.570657604909999616 ) ) ;
#307 = CIRCLE ( 'NONE', #1095, 6.250000000000000000 ) ;
#308 = VECTOR ( 'NONE', #717, 1000.000000000000000 ) ;
#309 = LOCAL_TIME ( 19, 44, 49.00000000000000000, #813 ) ;
#310 = EDGE_CURVE ( 'NONE', #128, #758, #773, .T. ) ;
#311 = DIRECTION ( 'NONE',  ( 0.000000000000000000, -1.000000000000000000, 0.000000000000000000 ) ) ;
#312 = EDGE_CURVE ( 'NONE', #863, #1129, #1111, .T. ) ;
#313 = ORIENTED_EDGE ( 'NONE', *, *, #503, .F. ) ;
#314 = CARTESIAN_POINT ( 'NONE',  ( -2.000000000000000000, -0.6999999999999999556, 2.500000000000000000 ) ) ;
#315 = DATE_AND_TIME ( #106, #618 ) ;
#316 = DIRECTION ( 'NONE',  ( 0.000000000000000000, 1.000000000000000000, 0.000000000000000000 ) ) ;
#317 = EDGE_CURVE ( 'NONE', #404, #695, #54, .T. ) ;
#318 = ORIENTED_EDGE ( 'NONE', *, *, #851, .T. ) ;
#319 = LINE ( 'NONE', #762, #340 ) ;
#320 = CYLINDRICAL_SURFACE ( 'NONE', #1008, 5.700000000000000178 ) ;
#321 = FACE_BOUND ( 'NONE', #899, .T. ) ;
#322 = EDGE_CURVE ( 'NONE', #613, #633, #262, .T. ) ;
#323 = DIRECTION ( 'NONE',  ( -1.000000000000000000, 0.000000000000000000, 0.000000000000000000 ) ) ;
#324 = VECTOR ( 'NONE', #71, 1000.000000000000000 ) ;
#325 = VECTOR ( 'NONE', #748, 1000.000000000000114 ) ;
#326 = AXIS2_PLACEMENT_3D ( 'NONE', #328, #723, #527 ) ;
#327 = EDGE_LOOP ( 'NONE', ( #118, #60, #750, #992 ) ) ;
#328 = CARTESIAN_POINT ( 'NONE',  ( 0.000000000000000000, -0.6999999999999999556, -2.500000000000000000 ) ) ;
#329 = EDGE_CURVE ( 'NONE', #1046, #797, #1047, .T. ) ;
#330 = EDGE_LOOP ( 'NONE', ( #541, #77, #835, #827 ) ) ;
#331 = ORIENTED_EDGE ( 'NONE', *, *, #1011, .F. ) ;
#332 = CARTESIAN_POINT ( 'NONE',  ( 0.1590990257669999963, -4.025000000000000355, -2.340847901023999977 ) ) ;
#333 = CARTESIAN_POINT ( 'NONE',  ( -3.349999999999999645, 0.5000000000000000000, -4.898587196589410610E-17 ) ) ;
#334 = CARTESIAN_POINT ( 'NONE',  ( 0.000000000000000000, -0.6999999999999999556, -2.500000000000000000 ) ) ;
#335 = DIRECTION ( 'NONE',  ( 0.000000000000000000, 1.000000000000000000, 0.000000000000000000 ) ) ;
#336 = LINE ( 'NONE', #47, #1023 ) ;
#337 = CARTESIAN_POINT ( 'NONE',  ( -3.349999999999999645, -0.6999999999999999556, -4.898587196589410610E-17 ) ) ;
#338 = AXIS2_PLACEMENT_3D ( 'NONE', #864, #335, #161 ) ;
#339 = PLANE ( 'NONE',  #570 ) ;
#340 = VECTOR ( 'NONE', #754, 1000.000000000000000 ) ;
#341 = ADVANCED_FACE ( 'NONE', ( #766 ), #1114, .T. ) ;
#342 = VECTOR ( 'NONE', #979, 1000.000000000000000 ) ;
#343 = ADVANCED_FACE ( 'NONE', ( #104 ), #552, .F. ) ;
#344 = ORIENTED_EDGE ( 'NONE', *, *, #403, .F. ) ;
#345 = DIRECTION ( 'NONE',  ( 0.000000000000000000, 1.000000000000000000, 0.000000000000000000 ) ) ;
#346 = DIRECTION ( 'NONE',  ( 1.000000000000000000, 0.000000000000000000, 0.000000000000000000 ) ) ;
#347 = ORIENTED_EDGE ( 'NONE', *, *, #329, .T. ) ;
#348 = ORIENTED_EDGE ( 'NONE', *, *, #1149, .F. ) ;
#349 = CARTESIAN_POINT ( 'NONE',  ( -0.3889087296525999826, -3.850000000000000089, 2.323223304702999759 ) ) ;
#350 = PRODUCT_DEFINITION_SHAPE ( 'NONE', 'NONE',  #901 ) ;
#351 = CARTESIAN_POINT ( 'NONE',  ( 3.750000000000000000, 0.5000000000000000000, 0.000000000000000000 ) ) ;
#352 = CARTESIAN_POINT ( 'NONE',  ( 0.000000000000000000, 0.000000000000000000, 0.000000000000000000 ) ) ;
#353 = ORIENTED_EDGE ( 'NONE', *, *, #492, .F. ) ;
#354 = CARTESIAN_POINT ( 'NONE',  ( 3.349999999999999645, 0.5000000000000000000, 0.000000000000000000 ) ) ;
#355 = ORIENTED_EDGE ( 'NONE', *, *, #414, .T. ) ;
#356 = FACE_OUTER_BOUND ( 'NONE', #704, .T. ) ;
#357 = EDGE_CURVE ( 'NONE', #969, #103, #297, .T. ) ;
#358 = LINE ( 'NONE', #73, #583 ) ;
#359 = LINE ( 'NONE', #891, #342 ) ;
#360 = CIRCLE ( 'NONE', #985, 0.4000000000000001887 ) ;
#361 = ORIENTED_EDGE ( 'NONE', *, *, #208, .F. ) ;
#362 = CARTESIAN_POINT ( 'NONE',  ( -2.000000000000000000, 0.5000000000000000000, -2.500000000000000000 ) ) ;
#363 = VECTOR ( 'NONE', #247, 1000.000000000000114 ) ;
#364 = AXIS2_PLACEMENT_3D ( 'NONE', #698, #177, #66 ) ;
#365 = EDGE_LOOP ( 'NONE', ( #857, #1052, #401, #393 ) ) ;
#366 = DIRECTION ( 'NONE',  ( 0.000000000000000000, 1.000000000000000000, 0.000000000000000000 ) ) ;
#367 = EDGE_CURVE ( 'NONE', #1129, #863, #307, .T. ) ;
#368 = ORIENTED_EDGE ( 'NONE', *, *, #512, .T. ) ;
#369 = DIRECTION ( 'NONE',  ( 0.000000000000000000, 1.000000000000000000, 0.000000000000000000 ) ) ;
#370 = ORIENTED_EDGE ( 'NONE', *, *, #322, .F. ) ;
#371 = EDGE_CURVE ( 'NONE', #1009, #404, #984, .T. ) ;
#372 = ORIENTED_EDGE ( 'NONE', *, *, #590, .T. ) ;
#373 = DIRECTION ( 'NONE',  ( -0.7071067811865474617, 0.000000000000000000, 0.7071067811865474617 ) ) ;
#374 = CARTESIAN_POINT ( 'NONE',  ( 4.150000000000000355, -0.6999999999999999556, -4.898587196589410610E-17 ) ) ;
#375 = VERTEX_POINT ( 'NONE', #643 ) ;
#376 = DIRECTION ( 'NONE',  ( 0.000000000000000000, -1.000000000000000000, 0.000000000000000000 ) ) ;
#377 = EDGE_LOOP ( 'NONE', ( #397, #956, #455, #196 ) ) ;
#378 = DIRECTION ( 'NONE',  ( 0.000000000000000000, 1.000000000000000000, 0.000000000000000000 ) ) ;
#379 = DIRECTION ( 'NONE',  ( 0.000000000000000000, 1.000000000000000000, 0.000000000000000000 ) ) ;
#380 = APPROVAL_DATE_TIME ( #219, #1106 ) ;
#381 = EDGE_CURVE ( 'NONE', #635, #664, #89, .T. ) ;
#382 = DIRECTION ( 'NONE',  ( 0.5000000000000168754, 0.7071067811865237029, 0.5000000000000168754 ) ) ;
#383 = EDGE_CURVE ( 'NONE', #261, #1064, #847, .T. ) ;
#384 = ORIENTED_EDGE ( 'NONE', *, *, #952, .F. ) ;
#385 = CARTESIAN_POINT ( 'NONE',  ( 0.07071067811865999753, -4.200000000000000178, -2.641368283028999731 ) ) ;
#386 = CIRCLE ( 'NONE', #814, 1.000000000000000000 ) ;
#387 = VECTOR ( 'NONE', #189, 1000.000000000000000 ) ;
#388 = VECTOR ( 'NONE', #506, 999.9999999999998863 ) ;
#389 = CC_DESIGN_SECURITY_CLASSIFICATION ( #1132, ( #767 ) ) ;
#390 = DATE_TIME_ROLE ( 'creation_date' ) ;
#391 = ORIENTED_EDGE ( 'NONE', *, *, #198, .T. ) ;
#392 = LINE ( 'NONE', #739, #41 ) ;
#393 = ORIENTED_EDGE ( 'NONE', *, *, #150, .F. ) ;
#394 = EDGE_CURVE ( 'NONE', #734, #1002, #791, .T. ) ;
#395 = CARTESIAN_POINT ( 'NONE',  ( 0.1767766952965999783, -0.6999999999999999556, -2.111038197138999983 ) ) ;
#396 = DIRECTION ( 'NONE',  ( 0.7071067811865474617, 0.000000000000000000, -0.7071067811865474617 ) ) ;
#397 = ORIENTED_EDGE ( 'NONE', *, *, #991, .T. ) ;
#398 = PLANE ( 'NONE',  #111 ) ;
#399 = ADVANCED_FACE ( 'NONE', ( #356 ), #972, .T. ) ;
#400 = EDGE_CURVE ( 'NONE', #926, #67, #147, .T. ) ;
#401 = ORIENTED_EDGE ( 'NONE', *, *, #699, .T. ) ;
#402 = LINE ( 'NONE', #919, #1057 ) ;
#403 = EDGE_CURVE ( 'NONE', #797, #375, #466, .T. ) ;
#404 = VERTEX_POINT ( 'NONE', #385 ) ;
#405 = VECTOR ( 'NONE', #379, 1000.000000000000000 ) ;
#406 = AXIS2_PLACEMENT_3D ( 'NONE', #2, #1065, #260 ) ;
#407 = AXIS2_PLACEMENT_3D ( 'NONE', #843, #684, #941 ) ;
#408 = APPROVAL_DATE_TIME ( #917, #778 ) ;
#409 = EDGE_CURVE ( 'NONE', #67, #1017, #735, .T. ) ;
#410 = ORIENTED_EDGE ( 'NONE', *, *, #842, .F. ) ;
#411 = PLANE ( 'NONE',  #112 ) ;
#412 = ORIENTED_EDGE ( 'NONE', *, *, #982, .F. ) ;
#413 = DIRECTION ( 'NONE',  ( 0.000000000000000000, -1.000000000000000000, 0.000000000000000000 ) ) ;
#414 = EDGE_CURVE ( 'NONE', #186, #853, #4, .T. ) ;
#415 = CARTESIAN_POINT ( 'NONE',  ( 0.07071067811865999753, -4.200000000000000178, -2.641368283028999731 ) ) ;
#416 = PLANE ( 'NONE',  #641 ) ;
#417 = DIRECTION ( 'NONE',  ( 0.000000000000000000, -1.000000000000000000, 0.000000000000000000 ) ) ;
#418 = DIRECTION ( 'NONE',  ( -0.7071067811865475727, 0.000000000000000000, -0.7071067811865475727 ) ) ;
#419 = EDGE_CURVE ( 'NONE', #577, #863, #271, .T. ) ;
#420 = DIRECTION ( 'NONE',  ( 0.7071067811865474617, 0.000000000000000000, -0.7071067811865474617 ) ) ;
#421 = VECTOR ( 'NONE', #701, 999.9999999999998863 ) ;
#422 = VECTOR ( 'NONE', #667, 1000.000000000000114 ) ;
#423 = ORIENTED_EDGE ( 'NONE', *, *, #553, .T. ) ;
#424 = DIRECTION ( 'NONE',  ( 0.7071067811865474617, 0.000000000000000000, 0.7071067811865474617 ) ) ;
#425 = CARTESIAN_POINT ( 'NONE',  ( 0.000000000000000000, 0.5000000000000000000, -2.500000000000000000 ) ) ;
#426 = CARTESIAN_POINT ( 'NONE',  ( 0.000000000000000000, 6.299999999999999822, 0.000000000000000000 ) ) ;
#427 = DIRECTION ( 'NONE',  ( 0.000000000000000000, -1.000000000000000000, 0.000000000000000000 ) ) ;
#428 = DIRECTION ( 'NONE',  ( 0.000000000000000000, -1.000000000000000000, 0.000000000000000000 ) ) ;
#429 = ORIENTED_EDGE ( 'NONE', *, *, #830, .F. ) ;
#430 = CARTESIAN_POINT ( 'NONE',  ( 3.349999999999999645, -0.6999999999999999556, 0.000000000000000000 ) ) ;
#431 = ADVANCED_FACE ( 'NONE', ( #203 ), #1053, .T. ) ;
#432 = EDGE_CURVE ( 'NONE', #186, #734, #459, .T. ) ;
#433 = LINE ( 'NONE', #232, #192 ) ;
#434 = EDGE_CURVE ( 'NONE', #103, #664, #1074, .T. ) ;
#435 = EDGE_LOOP ( 'NONE', ( #16, #1050, #355, #391 ) ) ;
#436 = DIRECTION ( 'NONE',  ( 0.000000000000000000, 0.5773502691896517103, -0.8164965809277076048 ) ) ;
#437 = CLOSED_SHELL ( 'NONE', ( #604, #637, #469, #976, #454, #792, #46, #668, #25, #485, #1109, #431, #582, #625, #632, #904, #475, #624, #341, #64, #523, #921, #757, #1125, #1075, #240, #257, #399, #801, #846, #960, #796, #631, #953, #716, #671, #221, #343, #829 ) ) ;
#438 = FACE_OUTER_BOUND ( 'NONE', #446, .T. ) ;
#439 = VECTOR ( 'NONE', #923, 1000.000000000000000 ) ;
#440 = VERTEX_POINT ( 'NONE', #811 ) ;
#441 = AXIS2_PLACEMENT_3D ( 'NONE', #905, #560, #107 ) ;
#442 = VERTEX_POINT ( 'NONE', #874 ) ;
#443 = FACE_OUTER_BOUND ( 'NONE', #942, .T. ) ;
#444 = CARTESIAN_POINT ( 'NONE',  ( -2.000000000000000000, 0.5000000000000000000, 2.500000000000000000 ) ) ;
#445 = FACE_OUTER_BOUND ( 'NONE', #669, .T. ) ;
#446 = EDGE_LOOP ( 'NONE', ( #361, #1101 ) ) ;
#447 = CYLINDRICAL_SURFACE ( 'NONE', #1128, 0.4000000000000001887 ) ;
#448 = DIRECTION ( 'NONE',  ( 1.000000000000000000, 0.000000000000000000, 0.000000000000000000 ) ) ;
#449 = CARTESIAN_POINT ( 'NONE',  ( -5.700000000000000178, 0.000000000000000000, 0.000000000000000000 ) ) ;
#450 = ORIENTED_EDGE ( 'NONE', *, *, #1088, .T. ) ;
#451 = CARTESIAN_POINT ( 'NONE',  ( 0.3889087296525999826, -0.6999999999999999556, -2.323170231494999793 ) ) ;
#452 = VERTEX_POINT ( 'NONE', #538 ) ;
#453 = DIRECTION ( 'NONE',  ( -1.000000000000000000, 0.000000000000000000, 0.000000000000000000 ) ) ;
#454 = ADVANCED_FACE ( 'NONE', ( #78 ), #447, .T. ) ;
#455 = ORIENTED_EDGE ( 'NONE', *, *, #383, .F. ) ;
#456 = PLANE ( 'NONE',  #1037 ) ;
#457 = AXIS2_PLACEMENT_3D ( 'NONE', #193, #27, #1068 ) ;
#458 = CARTESIAN_POINT ( 'NONE',  ( 0.3889087296525999826, -0.6999999999999999556, 2.676776695296999797 ) ) ;
#459 = CIRCLE ( 'NONE', #600, 1.500000000000000000 ) ;
#460 = VECTOR ( 'NONE', #869, 1000.000000000000114 ) ;
#461 = DIRECTION ( 'NONE',  ( 0.000000000000000000, -1.000000000000000000, 0.000000000000000000 ) ) ;
#462 = DIRECTION ( 'NONE',  ( 0.000000000000000000, -1.000000000000000000, 0.000000000000000000 ) ) ;
#463 = ORIENTED_EDGE ( 'NONE', *, *, #549, .T. ) ;
#464 = FACE_OUTER_BOUND ( 'NONE', #574, .T. ) ;
#465 = VERTEX_POINT ( 'NONE', #314 ) ;
#466 = LINE ( 'NONE', #1067, #548 ) ;
#467 = CARTESIAN_POINT ( 'NONE',  ( 0.3889087296525999826, -3.850000000000000089, -2.323170231494999793 ) ) ;
#468 = MECHANICAL_CONTEXT ( 'NONE', #85, 'mechanical' ) ;
#469 = ADVANCED_FACE ( 'NONE', ( #578 ), #1099, .F. ) ;
#470 = CARTESIAN_POINT ( 'NONE',  ( 0.1414213562372999833, -4.200000000000000178, -2.570657604909999616 ) ) ;
#471 = ORIENTED_EDGE ( 'NONE', *, *, #860, .T. ) ;
#472 = DIRECTION ( 'NONE',  ( 1.000000000000000000, 0.000000000000000000, 0.000000000000000000 ) ) ;
#473 = CARTESIAN_POINT ( 'NONE',  ( 3.349999999999999645, 0.5000000000000000000, 0.000000000000000000 ) ) ;
#474 = SECURITY_CLASSIFICATION_LEVEL ( 'unclassified' ) ;
#475 = ADVANCED_FACE ( 'NONE', ( #836, #665 ), #416, .T. ) ;
#476 = DIRECTION ( 'NONE',  ( -0.7071067811865474617, 0.000000000000000000, -0.7071067811865474617 ) ) ;
#477 = VECTOR ( 'NONE', #1003, 999.9999999999998863 ) ;
#478 = ORIENTED_EDGE ( 'NONE', *, *, #840, .T. ) ;
#479 = CARTESIAN_POINT ( 'NONE',  ( 0.000000000000000000, 0.5000000000000000000, 2.500000000000000000 ) ) ;
#480 = AXIS2_PLACEMENT_3D ( 'NONE', #1140, #461, #17 ) ;
#481 = AXIS2_PLACEMENT_3D ( 'NONE', #1091, #304, #657 ) ;
#482 = CARTESIAN_POINT ( 'NONE',  ( -0.07071067811864999164, -4.200000000000000178, -2.358525570554000250 ) ) ;
#483 = APPROVAL_ROLE ( '' ) ;
#484 = CARTESIAN_POINT ( 'NONE',  ( -1.500000000000000000, 6.200000000000000178, -1.836970198721029934E-16 ) ) ;
#485 = ADVANCED_FACE ( 'NONE', ( #575, #907 ), #568, .T. ) ;
#486 = ORIENTED_EDGE ( 'NONE', *, *, #5, .T. ) ;
#487 = DIRECTION ( 'NONE',  ( 0.000000000000000000, -1.000000000000000000, 0.000000000000000000 ) ) ;
#488 = DATE_AND_TIME ( #572, #309 ) ;
#489 = LINE ( 'NONE', #841, #584 ) ;
#490 = ORIENTED_EDGE ( 'NONE', *, *, #178, .T. ) ;
#491 = DIRECTION ( 'NONE',  ( -0.000000000000000000, 1.000000000000000000, 0.000000000000000000 ) ) ;
#492 = EDGE_CURVE ( 'NONE', #633, #44, #129, .T. ) ;
#493 = CARTESIAN_POINT ( 'NONE',  ( 0.000000000000000000, 0.000000000000000000, 0.000000000000000000 ) ) ;
#494 = DIRECTION ( 'NONE',  ( 0.000000000000000000, -1.000000000000000000, 0.000000000000000000 ) ) ;
#495 = ORIENTED_EDGE ( 'NONE', *, *, #925, .T. ) ;
#496 = AXIS2_PLACEMENT_3D ( 'NONE', #426, #859, #1117 ) ;
#497 = VECTOR ( 'NONE', #376, 1000.000000000000000 ) ;
#498 = AXIS2_PLACEMENT_3D ( 'NONE', #352, #369, #1137 ) ;
#499 = CARTESIAN_POINT ( 'NONE',  ( 0.000000000000000000, 0.000000000000000000, 0.000000000000000000 ) ) ;
#500 = ORIENTED_EDGE ( 'NONE', *, *, #130, .T. ) ;
#501 = DIRECTION ( 'NONE',  ( 1.000000000000000000, 0.000000000000000000, 0.000000000000000000 ) ) ;
#502 = FACE_OUTER_BOUND ( 'NONE', #179, .T. ) ;
#503 = EDGE_CURVE ( 'NONE', #969, #635, #915, .T. ) ;
#504 = EDGE_LOOP ( 'NONE', ( #629, #932, #80, #115 ) ) ;
#505 = DIRECTION ( 'NONE',  ( 0.000000000000000000, 1.000000000000000000, 0.000000000000000000 ) ) ;
#506 = DIRECTION ( 'NONE',  ( -0.5000000000000168754, 0.7071067811865237029, -0.5000000000000168754 ) ) ;
#507 = CARTESIAN_POINT ( 'NONE',  ( -1.000000000000000000, 1.520000000000000018, -1.224646799147353207E-16 ) ) ;
#508 = AXIS2_PLACEMENT_3D ( 'NONE', #255, #691, #608 ) ;
#509 = VECTOR ( 'NONE', #382, 999.9999999999998863 ) ;
#510 = CIRCLE ( 'NONE', #171, 5.700000000000000178 ) ;
#511 = ORIENTED_EDGE ( 'NONE', *, *, #403, .T. ) ;
#512 = EDGE_CURVE ( 'NONE', #592, #294, #616, .T. ) ;
#513 = ORIENTED_EDGE ( 'NONE', *, *, #434, .F. ) ;
#514 = DIRECTION ( 'NONE',  ( -0.7071067811865474617, 0.000000000000000000, -0.7071067811865474617 ) ) ;
#515 = CARTESIAN_POINT ( 'NONE',  ( -2.000000000000000000, 0.5000000000000000000, -2.500000000000000000 ) ) ;
#516 = ORIENTED_EDGE ( 'NONE', *, *, #419, .F. ) ;
#517 = CARTESIAN_POINT ( 'NONE',  ( 0.3889087296525999826, -3.850000000000000089, 2.676776695296999797 ) ) ;
#518 = PRODUCT ( 'Same_Sky_CPT-1207-3TH', 'Same_Sky_CPT-1207-3TH', '', ( #468 ) ) ;
#519 = CARTESIAN_POINT ( 'NONE',  ( -0.1767766952965999783, -0.6999999999999999556, -2.888855656443999997 ) ) ;
#520 = ORIENTED_EDGE ( 'NONE', *, *, #279, .T. ) ;
#521 = ORIENTED_EDGE ( 'NONE', *, *, #925, .F. ) ;
#522 = CARTESIAN_POINT ( 'NONE',  ( 0.000000000000000000, 1.520000000000000018, 0.000000000000000000 ) ) ;
#523 = ADVANCED_FACE ( 'NONE', ( #1104 ), #398, .T. ) ;
#524 = EDGE_CURVE ( 'NONE', #375, #242, #319, .T. ) ;
#525 = AXIS2_PLACEMENT_3D ( 'NONE', #868, #780, #1142 ) ;
#526 = DIRECTION ( 'NONE',  ( 0.000000000000000000, -1.000000000000000000, 0.000000000000000000 ) ) ;
#527 = DIRECTION ( 'NONE',  ( -1.000000000000000000, 0.000000000000000000, 0.000000000000000000 ) ) ;
#528 = VECTOR ( 'NONE', #316, 1000.000000000000000 ) ;
#529 = ORIENTED_EDGE ( 'NONE', *, *, #656, .T. ) ;
#530 = CARTESIAN_POINT ( 'NONE',  ( -0.1414213562372999833, -4.200000000000000178, 2.570710678118999670 ) ) ;
#531 = CIRCLE ( 'NONE', #326, 2.000000000000000000 ) ;
#532 = ORIENTED_EDGE ( 'NONE', *, *, #1094, .F. ) ;
#533 = DIRECTION ( 'NONE',  ( 1.000000000000000000, 0.000000000000000000, 0.000000000000000000 ) ) ;
#534 = DIRECTION ( 'NONE',  ( -0.000000000000000000, 1.000000000000000000, 0.000000000000000000 ) ) ;
#535 = ORIENTED_EDGE ( 'NONE', *, *, #18, .F. ) ;
#536 = CARTESIAN_POINT ( 'NONE',  ( -0.3889087296525999826, -3.850000000000000089, 2.323223304702999759 ) ) ;
#537 = ORIENTED_EDGE ( 'NONE', *, *, #690, .T. ) ;
#538 = CARTESIAN_POINT ( 'NONE',  ( 5.700000000000000178, 0.5000000000000000000, -6.980486755139913108E-16 ) ) ;
#539 = CARTESIAN_POINT ( 'NONE',  ( -6.250000000000000000, 6.299999999999999822, -7.654042494670957606E-16 ) ) ;
#540 = DIRECTION ( 'NONE',  ( 0.000000000000000000, -1.000000000000000000, 0.000000000000000000 ) ) ;
#541 = ORIENTED_EDGE ( 'NONE', *, *, #99, .F. ) ;
#542 = CARTESIAN_POINT ( 'NONE',  ( -4.150000000000000355, 0.5000000000000000000, 0.000000000000000000 ) ) ;
#543 = CARTESIAN_POINT ( 'NONE',  ( -3.750000000000000000, 0.5000000000000000000, 0.000000000000000000 ) ) ;
#544 = FACE_BOUND ( 'NONE', #278, .T. ) ;
#545 = AXIS2_PLACEMENT_3D ( 'NONE', #763, #105, #812 ) ;
#546 = EDGE_LOOP ( 'NONE', ( #32, #588, #513, #1084, #642, #423 ) ) ;
#547 = CARTESIAN_POINT ( 'NONE',  ( 0.000000000000000000, 0.000000000000000000, 0.000000000000000000 ) ) ;
#548 = VECTOR ( 'NONE', #800, 1000.000000000000114 ) ;
#549 = EDGE_CURVE ( 'NONE', #695, #152, #670, .T. ) ;
#550 = AXIS2_PLACEMENT_3D ( 'NONE', #617, #534, #783 ) ;
#551 = ORIENTED_EDGE ( 'NONE', *, *, #851, .F. ) ;
#552 = CYLINDRICAL_SURFACE ( 'NONE', #658, 1.500000000000000000 ) ;
#553 = EDGE_CURVE ( 'NONE', #758, #1009, #1108, .T. ) ;
#554 = CYLINDRICAL_SURFACE ( 'NONE', #457, 2.000000000000000000 ) ;
#555 = PLANE ( 'NONE',  #364 ) ;
#556 = ORIENTED_EDGE ( 'NONE', *, *, #1019, .T. ) ;
#557 = CARTESIAN_POINT ( 'NONE',  ( -1.500000000000000000, 6.299999999999999822, -1.836970198721029934E-16 ) ) ;
#558 = LINE ( 'NONE', #820, #777 ) ;
#559 = PERSON_AND_ORGANIZATION ( #1141, #779 ) ;
#560 = DIRECTION ( 'NONE',  ( 0.000000000000000000, 1.000000000000000000, 0.000000000000000000 ) ) ;
#561 = ORIENTED_EDGE ( 'NONE', *, *, #34, .T. ) ;
#562 = FACE_BOUND ( 'NONE', #1044, .T. ) ;
#563 = DIRECTION ( 'NONE',  ( 0.000000000000000000, 1.000000000000000000, 0.000000000000000000 ) ) ;
#564 = PERSON_AND_ORGANIZATION_ROLE ( 'classification_officer' ) ;
#565 = FACE_OUTER_BOUND ( 'NONE', #724, .T. ) ;
#566 = AXIS2_PLACEMENT_3D ( 'NONE', #332, #636, #1146 ) ;
#567 = ORIENTED_EDGE ( 'NONE', *, *, #432, .T. ) ;
#568 = PLANE ( 'NONE',  #679 ) ;
#569 = AXIS2_PLACEMENT_3D ( 'NONE', #845, #884, #275 ) ;
#570 = AXIS2_PLACEMENT_3D ( 'NONE', #1020, #594, #760 ) ;
#571 = CARTESIAN_POINT ( 'NONE',  ( 3.750000000000000000, -0.6999999999999999556, 0.000000000000000000 ) ) ;
#572 = CALENDAR_DATE ( 2025, 8, 9 ) ;
#573 = DIRECTION ( 'NONE',  ( 0.000000000000000000, 0.000000000000000000, -1.000000000000000000 ) ) ;
#574 = EDGE_LOOP ( 'NONE', ( #108, #561, #500, #1027 ) ) ;
#575 = FACE_BOUND ( 'NONE', #222, .T. ) ;
#576 = CARTESIAN_POINT ( 'NONE',  ( 0.1767766952965999783, -3.850000000000000089, 2.888908729653000051 ) ) ;
#577 = VERTEX_POINT ( 'NONE', #819 ) ;
#578 = FACE_OUTER_BOUND ( 'NONE', #365, .T. ) ;
#579 = CARTESIAN_POINT ( 'NONE',  ( 0.000000000000000000, -4.200000000000000178, 0.000000000000000000 ) ) ;
#580 = ORIENTED_EDGE ( 'NONE', *, *, #253, .F. ) ;
#581 = FACE_BOUND ( 'NONE', #989, .T. ) ;
#582 = ADVANCED_FACE ( 'NONE', ( #562, #581, #321, #1018, #109 ), #1010, .T. ) ;
#583 = VECTOR ( 'NONE', #1136, 1000.000000000000000 ) ;
#584 = VECTOR ( 'NONE', #1079, 1000.000000000000000 ) ;
#585 = EDGE_CURVE ( 'NONE', #1122, #906, #911, .T. ) ;
#586 = CIRCLE ( 'NONE', #481, 5.700000000000000178 ) ;
#587 = FACE_BOUND ( 'NONE', #603, .T. ) ;
#588 = ORIENTED_EDGE ( 'NONE', *, *, #644, .T. ) ;
#589 = CARTESIAN_POINT ( 'NONE',  ( 0.000000000000000000, 6.299999999999999822, 0.000000000000000000 ) ) ;
#590 = EDGE_CURVE ( 'NONE', #152, #1009, #939, .T. ) ;
#591 = CARTESIAN_POINT ( 'NONE',  ( -0.07071067811864999164, -4.200000000000000178, 2.641421356237000140 ) ) ;
#592 = VERTEX_POINT ( 'NONE', #1126 ) ;
#593 = LINE ( 'NONE', #1029, #639 ) ;
#594 = DIRECTION ( 'NONE',  ( 0.7071067811865475727, 0.000000000000000000, -0.7071067811865475727 ) ) ;
#595 = ORIENTED_EDGE ( 'NONE', *, *, #877, .T. ) ;
#596 = VERTEX_POINT ( 'NONE', #1116 ) ;
#597 = FACE_OUTER_BOUND ( 'NONE', #57, .T. ) ;
#598 = EDGE_CURVE ( 'NONE', #259, #596, #693, .T. ) ;
#599 = VECTOR ( 'NONE', #844, 1000.000000000000000 ) ;
#600 = AXIS2_PLACEMENT_3D ( 'NONE', #12, #378, #727 ) ;
#601 = VECTOR ( 'NONE', #710, 1000.000000000000000 ) ;
#602 = CARTESIAN_POINT ( 'NONE',  ( -0.1767766952965999783, -0.6999999999999999556, -2.888855656443999997 ) ) ;
#603 = EDGE_LOOP ( 'NONE', ( #82, #384, #878, #238 ) ) ;
#604 = ADVANCED_FACE ( 'NONE', ( #139 ), #68, .T. ) ;
#605 = DIRECTION ( 'NONE',  ( 1.000000000000000000, 0.000000000000000000, 0.000000000000000000 ) ) ;
#606 = DIRECTION ( 'NONE',  ( -0.7071067811865475727, 0.000000000000000000, 0.7071067811865475727 ) ) ;
#607 = ORIENTED_EDGE ( 'NONE', *, *, #312, .T. ) ;
#608 = DIRECTION ( 'NONE',  ( 1.000000000000000000, 0.000000000000000000, 0.000000000000000000 ) ) ;
#609 = ORIENTED_EDGE ( 'NONE', *, *, #286, .T. ) ;
#610 = CARTESIAN_POINT ( 'NONE',  ( 2.000000000000000000, 0.5000000000000000000, 2.499999999999999556 ) ) ;
#611 = EDGE_LOOP ( 'NONE', ( #808, #681, #156, #181 ) ) ;
#612 = DIRECTION ( 'NONE',  ( -1.000000000000000000, 0.000000000000000000, 0.000000000000000000 ) ) ;
#613 = VERTEX_POINT ( 'NONE', #536 ) ;
#614 = LINE ( 'NONE', #244, #615 ) ;
#615 = VECTOR ( 'NONE', #940, 1000.000000000000000 ) ;
#616 = CIRCLE ( 'NONE', #837, 2.000000000000000000 ) ;
#617 = CARTESIAN_POINT ( 'NONE',  ( 0.000000000000000000, 6.200000000000000178, 0.000000000000000000 ) ) ;
#618 = LOCAL_TIME ( 19, 44, 49.00000000000000000, #749 ) ;
#619 = ORIENTED_EDGE ( 'NONE', *, *, #585, .F. ) ;
#620 = PLANE ( 'NONE',  #1006 ) ;
#621 = ORIENTED_EDGE ( 'NONE', *, *, #381, .F. ) ;
#622 = CARTESIAN_POINT ( 'NONE',  ( 0.000000000000000000, 1.520000000000000018, 0.000000000000000000 ) ) ;
#623 = CARTESIAN_POINT ( 'NONE',  ( 2.000000000000000000, 0.5000000000000000000, -2.500000000000000444 ) ) ;
#624 = ADVANCED_FACE ( 'NONE', ( #81 ), #970, .T. ) ;
#625 = ADVANCED_FACE ( 'NONE', ( #627 ), #620, .T. ) ;
#626 = ORIENTED_EDGE ( 'NONE', *, *, #322, .T. ) ;
#627 = FACE_OUTER_BOUND ( 'NONE', #138, .T. ) ;
#628 = CARTESIAN_POINT ( 'NONE',  ( 0.3889087296525999826, -3.850000000000000089, -2.323170231494999793 ) ) ;
#629 = ORIENTED_EDGE ( 'NONE', *, *, #18, .T. ) ;
#630 =( NAMED_UNIT ( * ) PLANE_ANGLE_UNIT ( ) SI_UNIT ( $, .RADIAN. ) );
#631 = ADVANCED_FACE ( 'NONE', ( #76 ), #798, .T. ) ;
#632 = ADVANCED_FACE ( 'NONE', ( #977 ), #725, .T. ) ;
#633 = VERTEX_POINT ( 'NONE', #530 ) ;
#634 = CARTESIAN_POINT ( 'NONE',  ( 0.000000000000000000, -0.6999999999999999556, 0.000000000000000000 ) ) ;
#635 = VERTEX_POINT ( 'NONE', #180 ) ;
#636 = DIRECTION ( 'NONE',  ( 0.5000000000000169864, -0.7071067811865237029, 0.5000000000000168754 ) ) ;
#637 = ADVANCED_FACE ( 'NONE', ( #981 ), #879, .F. ) ;
#638 = DIRECTION ( 'NONE',  ( -0.8164965809277076048, -0.5773502691896517103, 0.000000000000000000 ) ) ;
#639 = VECTOR ( 'NONE', #514, 1000.000000000000114 ) ;
#640 = DIRECTION ( 'NONE',  ( -0.7071067811865474617, 0.000000000000000000, 0.7071067811865474617 ) ) ;
#641 = AXIS2_PLACEMENT_3D ( 'NONE', #209, #824, #1014 ) ;
#642 = ORIENTED_EDGE ( 'NONE', *, *, #310, .T. ) ;
#643 = CARTESIAN_POINT ( 'NONE',  ( 0.3889087296525999826, -0.6999999999999999556, 2.676776695296999797 ) ) ;
#644 = EDGE_CURVE ( 'NONE', #152, #664, #10, .T. ) ;
#645 = DIRECTION ( 'NONE',  ( 0.000000000000000000, -1.000000000000000000, 0.000000000000000000 ) ) ;
#646 = APPROVAL_ROLE ( '' ) ;
#647 = DIRECTION ( 'NONE',  ( 1.000000000000000000, 0.000000000000000000, 0.000000000000000000 ) ) ;
#648 = EDGE_LOOP ( 'NONE', ( #609, #918 ) ) ;
#649 = DIRECTION ( 'NONE',  ( 0.000000000000000000, -1.000000000000000000, 0.000000000000000000 ) ) ;
#650 = CARTESIAN_POINT ( 'NONE',  ( 0.000000000000000000, 6.200000000000000178, 0.000000000000000000 ) ) ;
#651 = CARTESIAN_POINT ( 'NONE',  ( 6.250000000000000000, 6.299999999999999822, 0.000000000000000000 ) ) ;
#652 = ORIENTED_EDGE ( 'NONE', *, *, #367, .F. ) ;
#653 = DIRECTION ( 'NONE',  ( 0.5000000000000168754, -0.7071067811865237029, 0.5000000000000168754 ) ) ;
#654 = DIRECTION ( 'NONE',  ( 1.000000000000000000, 0.000000000000000000, 0.000000000000000000 ) ) ;
#655 = PERSON_AND_ORGANIZATION_ROLE ( 'design_supplier' ) ;
#656 = EDGE_CURVE ( 'NONE', #375, #270, #1051, .T. ) ;
#657 = DIRECTION ( 'NONE',  ( -1.000000000000000000, 0.000000000000000000, 0.000000000000000000 ) ) ;
#658 = AXIS2_PLACEMENT_3D ( 'NONE', #715, #366, #472 ) ;
#659 = EDGE_LOOP ( 'NONE', ( #1033, #6 ) ) ;
#660 = CARTESIAN_POINT ( 'NONE',  ( -0.3889087296525999826, -3.850000000000000089, -2.676723622087999743 ) ) ;
#661 = AXIS2_PLACEMENT_3D ( 'NONE', #787, #97, #649 ) ;
#662 = AXIS2_PLACEMENT_3D ( 'NONE', #246, #947, #154 ) ;
#663 = DIRECTION ( 'NONE',  ( 0.000000000000000000, -1.000000000000000000, 0.000000000000000000 ) ) ;
#664 = VERTEX_POINT ( 'NONE', #719 ) ;
#665 = FACE_OUTER_BOUND ( 'NONE', #142, .T. ) ;
#666 = CALENDAR_DATE ( 2025, 8, 9 ) ;
#667 = DIRECTION ( 'NONE',  ( 0.7071067811865474617, 0.000000000000000000, -0.7071067811865474617 ) ) ;
#668 = ADVANCED_FACE ( 'NONE', ( #445 ), #990, .T. ) ;
#669 = EDGE_LOOP ( 'NONE', ( #368, #450, #818, #753 ) ) ;
#670 = LINE ( 'NONE', #306, #70 ) ;
#671 = ADVANCED_FACE ( 'NONE', ( #285 ), #280, .F. ) ;
#672 = EDGE_LOOP ( 'NONE', ( #551, #1139 ) ) ;
#673 = CARTESIAN_POINT ( 'NONE',  ( 0.000000000000000000, 0.000000000000000000, 0.000000000000000000 ) ) ;
#674 = CARTESIAN_POINT ( 'NONE',  ( 0.000000000000000000, 6.299999999999999822, 0.000000000000000000 ) ) ;
#675 = CIRCLE ( 'NONE', #752, 1.000000000000000000 ) ;
#676 = UNCERTAINTY_MEASURE_WITH_UNIT (LENGTH_MEASURE( 1.000000000000000082E-05 ), #1063, 'distance_accuracy_value', 'NONE');
#677 = AXIS2_PLACEMENT_3D ( 'NONE', #351, #1133, #346 ) ;
#678 = CARTESIAN_POINT ( 'NONE',  ( 0.1414213562372999833, -4.200000000000000178, 2.429289321880999886 ) ) ;
#679 = AXIS2_PLACEMENT_3D ( 'NONE', #674, #491, #33 ) ;
#680 = CARTESIAN_POINT ( 'NONE',  ( 5.700000000000000178, 0.000000000000000000, -6.980486755139913108E-16 ) ) ;
#681 = ORIENTED_EDGE ( 'NONE', *, *, #117, .F. ) ;
#682 = ORIENTED_EDGE ( 'NONE', *, *, #512, .F. ) ;
#683 = DIRECTION ( 'NONE',  ( 0.000000000000000000, -1.000000000000000000, 0.000000000000000000 ) ) ;
#684 = DIRECTION ( 'NONE',  ( 0.000000000000000000, 1.000000000000000000, 0.000000000000000000 ) ) ;
#685 = EDGE_LOOP ( 'NONE', ( #1059, #463, #372, #1026 ) ) ;
#686 = CYLINDRICAL_SURFACE ( 'NONE', #338, 1.000000000000000000 ) ;
#687 = FACE_OUTER_BOUND ( 'NONE', #175, .T. ) ;
#688 = ORIENTED_EDGE ( 'NONE', *, *, #598, .F. ) ;
#689 = CARTESIAN_POINT ( 'NONE',  ( -0.07071067811864999164, -4.200000000000000178, -2.358525570554000250 ) ) ;
#690 = EDGE_CURVE ( 'NONE', #1046, #613, #803, .T. ) ;
#691 = DIRECTION ( 'NONE',  ( 0.000000000000000000, 1.000000000000000000, 0.000000000000000000 ) ) ;
#692 = CIRCLE ( 'NONE', #677, 0.4000000000000001887 ) ;
#693 = CIRCLE ( 'NONE', #211, 2.000000000000000000 ) ;
#694 = VECTOR ( 'NONE', #49, 999.9999999999998863 ) ;
#695 = VERTEX_POINT ( 'NONE', #470 ) ;
#696 = ORIENTED_EDGE ( 'NONE', *, *, #400, .F. ) ;
#697 = DIRECTION ( 'NONE',  ( 0.000000000000000000, -1.000000000000000000, 0.000000000000000000 ) ) ;
#698 = CARTESIAN_POINT ( 'NONE',  ( 0.000000000000000000, -4.200000000000000178, 0.000000000000000000 ) ) ;
#699 = EDGE_CURVE ( 'NONE', #854, #738, #132, .T. ) ;
#700 = ORIENTED_EDGE ( 'NONE', *, *, #400, .T. ) ;
#701 = DIRECTION ( 'NONE',  ( 0.5000000000000168754, -0.7071067811865237029, 0.5000000000000168754 ) ) ;
#702 = CARTESIAN_POINT ( 'NONE',  ( 0.07071067811864999164, -4.200000000000000178, 2.358578643762999860 ) ) ;
#703 = DIRECTION ( 'NONE',  ( 1.000000000000000000, 0.000000000000000000, 0.000000000000000000 ) ) ;
#704 = EDGE_LOOP ( 'NONE', ( #94, #781, #137, #511, #858, #145 ) ) ;
#705 = DIRECTION ( 'NONE',  ( 0.000000000000000000, -1.000000000000000000, 0.000000000000000000 ) ) ;
#706 = ORIENTED_EDGE ( 'NONE', *, *, #34, .F. ) ;
#707 = CARTESIAN_POINT ( 'NONE',  ( 1.500000000000000000, 6.299999999999999822, 0.000000000000000000 ) ) ;
#708 = CIRCLE ( 'NONE', #910, 0.4000000000000001887 ) ;
#709 = VECTOR ( 'NONE', #182, 1000.000000000000000 ) ;
#710 = DIRECTION ( 'NONE',  ( 0.000000000000000000, -1.000000000000000000, 0.000000000000000000 ) ) ;
#711 = VECTOR ( 'NONE', #7, 1000.000000000000114 ) ;
#712 = ORIENTED_EDGE ( 'NONE', *, *, #434, .T. ) ;
#713 = DIRECTION ( 'NONE',  ( 0.000000000000000000, 0.000000000000000000, -1.000000000000000000 ) ) ;
#714 = EDGE_LOOP ( 'NONE', ( #945, #1061, #243, #516 ) ) ;
#715 = CARTESIAN_POINT ( 'NONE',  ( 0.000000000000000000, 6.299999999999999822, 0.000000000000000000 ) ) ;
#716 = ADVANCED_FACE ( 'NONE', ( #464 ), #962, .T. ) ;
#717 = DIRECTION ( 'NONE',  ( 0.000000000000000000, -1.000000000000000000, 0.000000000000000000 ) ) ;
#718 = EDGE_LOOP ( 'NONE', ( #745, #29, #954, #652 ) ) ;
#719 = CARTESIAN_POINT ( 'NONE',  ( 0.1767766952965999783, -3.850000000000000089, -2.111038197138999983 ) ) ;
#720 = EDGE_LOOP ( 'NONE', ( #160, #490, #207, #532 ) ) ;
#721 = DIRECTION ( 'NONE',  ( 0.000000000000000000, 1.000000000000000000, 0.000000000000000000 ) ) ;
#722 = DIRECTION ( 'NONE',  ( 0.000000000000000000, 1.000000000000000000, 0.000000000000000000 ) ) ;
#723 = DIRECTION ( 'NONE',  ( 0.000000000000000000, -1.000000000000000000, 0.000000000000000000 ) ) ;
#724 = EDGE_LOOP ( 'NONE', ( #963, #1080, #928, #741 ) ) ;
#725 = PLANE ( 'NONE',  #944 ) ;
#726 = VERTEX_POINT ( 'NONE', #354 ) ;
#727 = DIRECTION ( 'NONE',  ( 1.000000000000000000, 0.000000000000000000, 0.000000000000000000 ) ) ;
#728 = PLANE ( 'NONE',  #1005 ) ;
#729 = AXIS2_PLACEMENT_3D ( 'NONE', #63, #58, #436 ) ;
#730 = DIRECTION ( 'NONE',  ( 0.000000000000000000, -1.000000000000000000, 0.000000000000000000 ) ) ;
#731 = AXIS2_PLACEMENT_3D ( 'NONE', #451, #187, #267 ) ;
#732 = CIRCLE ( 'NONE', #1113, 2.000000000000000000 ) ;
#733 = EDGE_CURVE ( 'NONE', #906, #596, #1145, .T. ) ;
#734 = VERTEX_POINT ( 'NONE', #484 ) ;
#735 = LINE ( 'NONE', #542, #168 ) ;
#736 = LINE ( 'NONE', #825, #69 ) ;
#737 = APPROVAL_DATE_TIME ( #488, #1030 ) ;
#738 = VERTEX_POINT ( 'NONE', #216 ) ;
#739 = CARTESIAN_POINT ( 'NONE',  ( -0.1767766952965999783, -0.6999999999999999556, 2.111091270347000393 ) ) ;
#740 = CC_DESIGN_PERSON_AND_ORGANIZATION_ASSIGNMENT ( #101, #564, ( #1132 ) ) ;
#741 = ORIENTED_EDGE ( 'NONE', *, *, #204, .T. ) ;
#742 = DIRECTION ( 'NONE',  ( -1.000000000000000000, 0.000000000000000000, 0.000000000000000000 ) ) ;
#743 = FACE_OUTER_BOUND ( 'NONE', #546, .T. ) ;
#744 = COORDINATED_UNIVERSAL_TIME_OFFSET ( 0, 0, .AHEAD. ) ;
#745 = ORIENTED_EDGE ( 'NONE', *, *, #785, .F. ) ;
#746 = LINE ( 'NONE', #1102, #422 ) ;
#747 = ORIENTED_EDGE ( 'NONE', *, *, #367, .T. ) ;
#748 = DIRECTION ( 'NONE',  ( 0.7071067811865474617, 0.000000000000000000, -0.7071067811865474617 ) ) ;
#749 = COORDINATED_UNIVERSAL_TIME_OFFSET ( 0, 0, .AHEAD. ) ;
#750 = ORIENTED_EDGE ( 'NONE', *, *, #830, .T. ) ;
#751 = CARTESIAN_POINT ( 'NONE',  ( -0.3889087296525999826, -3.850000000000000089, -2.676723622087999743 ) ) ;
#752 = AXIS2_PLACEMENT_3D ( 'NONE', #650, #563, #120 ) ;
#753 = ORIENTED_EDGE ( 'NONE', *, *, #1035, .F. ) ;
#754 = DIRECTION ( 'NONE',  ( 0.000000000000000000, -1.000000000000000000, 0.000000000000000000 ) ) ;
#755 = COORDINATED_UNIVERSAL_TIME_OFFSET ( 0, 0, .AHEAD. ) ;
#756 = LINE ( 'NONE', #226, #1078 ) ;
#757 = ADVANCED_FACE ( 'NONE', ( #565 ), #116, .T. ) ;
#758 = VERTEX_POINT ( 'NONE', #751 ) ;
#759 = DIRECTION ( 'NONE',  ( 0.000000000000000000, -1.000000000000000000, 0.000000000000000000 ) ) ;
#760 = DIRECTION ( 'NONE',  ( 0.000000000000000000, -1.000000000000000000, 0.000000000000000000 ) ) ;
#761 = ORIENTED_EDGE ( 'NONE', *, *, #43, .F. ) ;
#762 = CARTESIAN_POINT ( 'NONE',  ( 0.3889087296525999826, -0.6999999999999999556, 2.676776695296999797 ) ) ;
#763 = CARTESIAN_POINT ( 'NONE',  ( 0.000000000000000000, 0.5000000000000000000, 2.500000000000000000 ) ) ;
#764 = LINE ( 'NONE', #591, #694 ) ;
#765 = AXIS2_PLACEMENT_3D ( 'NONE', #1087, #301, #223 ) ;
#766 = FACE_OUTER_BOUND ( 'NONE', #611, .T. ) ;
#767 = PRODUCT_DEFINITION_FORMATION_WITH_SPECIFIED_SOURCE ( 'ANY', '', #518, .NOT_KNOWN. ) ;
#768 = CARTESIAN_POINT ( 'NONE',  ( 0.000000000000000000, 0.5000000000000000000, -2.500000000000000000 ) ) ;
#769 = CC_DESIGN_PERSON_AND_ORGANIZATION_ASSIGNMENT ( #897, #655, ( #767 ) ) ;
#770 = CARTESIAN_POINT ( 'NONE',  ( -3.750000000000000000, -0.6999999999999999556, 0.000000000000000000 ) ) ;
#771 = EDGE_CURVE ( 'NONE', #158, #1064, #489, .T. ) ;
#772 = CARTESIAN_POINT ( 'NONE',  ( -1.000000000000000000, 6.200000000000000178, -1.224646799147353207E-16 ) ) ;
#773 = LINE ( 'NONE', #849, #324 ) ;
#774 = DIRECTION ( 'NONE',  ( 0.7071067811865474617, 0.000000000000000000, -0.7071067811865474617 ) ) ;
#775 = ORIENTED_EDGE ( 'NONE', *, *, #994, .T. ) ;
#776 = CARTESIAN_POINT ( 'NONE',  ( 2.000000000000000000, -0.6999999999999999556, -2.500000000000000444 ) ) ;
#777 = VECTOR ( 'NONE', #213, 999.9999999999998863 ) ;
#778 = APPROVAL ( #121, 'UNSPECIFIED' ) ;
#779 = ORGANIZATION ( 'UNSPECIFIED', 'UNSPECIFIED', '' ) ;
#780 = DIRECTION ( 'NONE',  ( -0.000000000000000000, 1.000000000000000000, 0.000000000000000000 ) ) ;
#781 = ORIENTED_EDGE ( 'NONE', *, *, #162, .T. ) ;
#782 = CARTESIAN_POINT ( 'NONE',  ( 0.07071067811865999753, -4.200000000000000178, -2.641368283028999731 ) ) ;
#783 = DIRECTION ( 'NONE',  ( 1.000000000000000000, 0.000000000000000000, 0.000000000000000000 ) ) ;
#784 = CARTESIAN_POINT ( 'NONE',  ( -0.3889087296525999826, -0.6999999999999999556, 2.323223304702999759 ) ) ;
#785 = EDGE_CURVE ( 'NONE', #217, #1129, #127, .T. ) ;
#786 = ORIENTED_EDGE ( 'NONE', *, *, #503, .T. ) ;
#787 = CARTESIAN_POINT ( 'NONE',  ( -0.1767766952965999783, -0.6999999999999999556, 2.111091270347000393 ) ) ;
#788 = DIRECTION ( 'NONE',  ( 0.5000000000000169864, -0.7071067811865237029, 0.5000000000000168754 ) ) ;
#789 = ORIENTED_EDGE ( 'NONE', *, *, #99, .T. ) ;
#790 = CARTESIAN_POINT ( 'NONE',  ( -0.07071067811864999164, -4.200000000000000178, -2.358525570554000250 ) ) ;
#791 = LINE ( 'NONE', #557, #709 ) ;
#792 = ADVANCED_FACE ( 'NONE', ( #822 ), #826, .T. ) ;
#793 = VECTOR ( 'NONE', #1024, 1000.000000000000114 ) ;
#794 = DIRECTION ( 'NONE',  ( -1.000000000000000000, 0.000000000000000000, 0.000000000000000000 ) ) ;
#795 = CIRCLE ( 'NONE', #892, 0.4000000000000001887 ) ;
#796 = ADVANCED_FACE ( 'NONE', ( #30 ), #1096, .T. ) ;
#797 = VERTEX_POINT ( 'NONE', #997 ) ;
#798 = CYLINDRICAL_SURFACE ( 'NONE', #231, 2.000000000000000000 ) ;
#799 = ORIENTED_EDGE ( 'NONE', *, *, #43, .T. ) ;
#800 = DIRECTION ( 'NONE',  ( 0.7071067811865474617, 0.000000000000000000, 0.7071067811865474617 ) ) ;
#801 = ADVANCED_FACE ( 'NONE', ( #1016 ), #411, .T. ) ;
#802 = CARTESIAN_POINT ( 'NONE',  ( 0.1767766952965999783, -0.6999999999999999556, 2.888908729653000051 ) ) ;
#803 = LINE ( 'NONE', #784, #497 ) ;
#804 = EDGE_LOOP ( 'NONE', ( #37, #331, #948, #344 ) ) ;
#805 = DIRECTION ( 'NONE',  ( 1.000000000000000000, 0.000000000000000000, 0.000000000000000000 ) ) ;
#806 = LINE ( 'NONE', #100, #599 ) ;
#807 = DATE_AND_TIME ( #903, #870 ) ;
#808 = ORIENTED_EDGE ( 'NONE', *, *, #549, .F. ) ;
#809 = DIRECTION ( 'NONE',  ( 0.000000000000000000, -1.000000000000000000, 0.000000000000000000 ) ) ;
#810 = VERTEX_POINT ( 'NONE', #576 ) ;
#811 = CARTESIAN_POINT ( 'NONE',  ( 1.000000000000000000, 1.520000000000000018, 0.000000000000000000 ) ) ;
#812 = DIRECTION ( 'NONE',  ( 1.000000000000000000, 0.000000000000000000, 0.000000000000000000 ) ) ;
#813 = COORDINATED_UNIVERSAL_TIME_OFFSET ( 0, 0, .AHEAD. ) ;
#814 = AXIS2_PLACEMENT_3D ( 'NONE', #522, #345, #533 ) ;
#815 = AXIS2_PLACEMENT_3D ( 'NONE', #579, #311, #573 ) ;
#816 = CARTESIAN_POINT ( 'NONE',  ( 1.500000000000000000, 6.299999999999999822, 0.000000000000000000 ) ) ;
#817 = AXIS2_PLACEMENT_3D ( 'NONE', #1060, #167, #1138 ) ;
#818 = ORIENTED_EDGE ( 'NONE', *, *, #272, .F. ) ;
#819 = CARTESIAN_POINT ( 'NONE',  ( 6.250000000000000000, 0.000000000000000000, 0.000000000000000000 ) ) ;
#820 = CARTESIAN_POINT ( 'NONE',  ( 0.07071067811864999164, -4.200000000000000178, 2.358578643762999860 ) ) ;
#821 = APPROVAL_STATUS ( 'not_yet_approved' ) ;
#822 = FACE_OUTER_BOUND ( 'NONE', #504, .T. ) ;
#823 = ORIENTED_EDGE ( 'NONE', *, *, #842, .T. ) ;
#824 = DIRECTION ( 'NONE',  ( 0.000000000000000000, -1.000000000000000000, 0.000000000000000000 ) ) ;
#825 = CARTESIAN_POINT ( 'NONE',  ( -3.349999999999999645, 0.5000000000000000000, -4.898587196589413075E-17 ) ) ;
#826 = CYLINDRICAL_SURFACE ( 'NONE', #966, 0.4000000000000001887 ) ;
#827 = ORIENTED_EDGE ( 'NONE', *, *, #414, .F. ) ;
#828 = DIRECTION ( 'NONE',  ( 0.000000000000000000, 0.5773502691896517103, -0.8164965809277076048 ) ) ;
#829 = ADVANCED_FACE ( 'NONE', ( #45 ), #201, .T. ) ;
#830 = EDGE_CURVE ( 'NONE', #758, #880, #402, .T. ) ;
#831 = CALENDAR_DATE ( 2025, 8, 9 ) ;
#832 = EDGE_CURVE ( 'NONE', #103, #128, #756, .T. ) ;
#833 = DIRECTION ( 'NONE',  ( -1.000000000000000000, 0.000000000000000000, 0.000000000000000000 ) ) ;
#834 = CIRCLE ( 'NONE', #266, 6.250000000000000000 ) ;
#835 = ORIENTED_EDGE ( 'NONE', *, *, #229, .T. ) ;
#836 = FACE_BOUND ( 'NONE', #804, .T. ) ;
#837 = AXIS2_PLACEMENT_3D ( 'NONE', #479, #759, #501 ) ;
#838 = CIRCLE ( 'NONE', #850, 2.000000000000000000 ) ;
#839 = APPROVAL_PERSON_ORGANIZATION ( #559, #1030, #646 ) ;
#840 = EDGE_CURVE ( 'NONE', #613, #861, #746, .T. ) ;
#841 = CARTESIAN_POINT ( 'NONE',  ( 4.150000000000000355, 0.5000000000000000000, -4.898587196589413075E-17 ) ) ;
#842 = EDGE_CURVE ( 'NONE', #442, #452, #586, .T. ) ;
#843 = CARTESIAN_POINT ( 'NONE',  ( 0.000000000000000000, 1.520000000000000018, 0.000000000000000000 ) ) ;
#844 = DIRECTION ( 'NONE',  ( 0.000000000000000000, -1.000000000000000000, 0.000000000000000000 ) ) ;
#845 = CARTESIAN_POINT ( 'NONE',  ( 0.000000000000000000, 0.000000000000000000, 0.000000000000000000 ) ) ;
#846 = ADVANCED_FACE ( 'NONE', ( #206 ), #927, .T. ) ;
#847 = CIRCLE ( 'NONE', #866, 0.4000000000000001887 ) ;
#848 = EDGE_LOOP ( 'NONE', ( #1066, #410, #938, #318 ) ) ;
#849 = CARTESIAN_POINT ( 'NONE',  ( -0.3889087296525999826, -0.6999999999999999556, -2.676723622087999743 ) ) ;
#850 = AXIS2_PLACEMENT_3D ( 'NONE', #768, #55, #1115 ) ;
#851 = EDGE_CURVE ( 'NONE', #1040, #920, #510, .T. ) ;
#852 = LINE ( 'NONE', #772, #23 ) ;
#853 = VERTEX_POINT ( 'NONE', #816 ) ;
#854 = VERTEX_POINT ( 'NONE', #24 ) ;
#855 = PLANE ( 'NONE',  #729 ) ;
#856 = FACE_OUTER_BOUND ( 'NONE', #254, .T. ) ;
#857 = ORIENTED_EDGE ( 'NONE', *, *, #937, .F. ) ;
#858 = ORIENTED_EDGE ( 'NONE', *, *, #524, .T. ) ;
#859 = DIRECTION ( 'NONE',  ( 0.000000000000000000, 1.000000000000000000, 0.000000000000000000 ) ) ;
#860 = EDGE_CURVE ( 'NONE', #797, #861, #392, .T. ) ;
#861 = VERTEX_POINT ( 'NONE', #299 ) ;
#862 = DIRECTION ( 'NONE',  ( 0.000000000000000000, -1.000000000000000000, 0.000000000000000000 ) ) ;
#863 = VERTEX_POINT ( 'NONE', #651 ) ;
#864 = CARTESIAN_POINT ( 'NONE',  ( 0.000000000000000000, 6.200000000000000178, 0.000000000000000000 ) ) ;
#865 = AXIS2_PLACEMENT_3D ( 'NONE', #1041, #697, #605 ) ;
#866 = AXIS2_PLACEMENT_3D ( 'NONE', #197, #978, #453 ) ;
#867 = AXIS2_PLACEMENT_3D ( 'NONE', #236, #427, #141 ) ;
#868 = CARTESIAN_POINT ( 'NONE',  ( 0.000000000000000000, 0.000000000000000000, 0.000000000000000000 ) ) ;
#869 = DIRECTION ( 'NONE',  ( -0.7071067811865474617, 0.000000000000000000, -0.7071067811865474617 ) ) ;
#870 = LOCAL_TIME ( 19, 44, 49.00000000000000000, #200 ) ;
#871 = EDGE_LOOP ( 'NONE', ( #1144, #276, #520, #1092 ) ) ;
#872 = CARTESIAN_POINT ( 'NONE',  ( 0.000000000000000000, 0.5000000000000000000, 2.500000000000000000 ) ) ;
#873 = ORIENTED_EDGE ( 'NONE', *, *, #229, .F. ) ;
#874 = CARTESIAN_POINT ( 'NONE',  ( -5.700000000000000178, 0.5000000000000000000, 0.000000000000000000 ) ) ;
#875 = CARTESIAN_POINT ( 'NONE',  ( 0.000000000000000000, 0.5000000000000000000, 0.000000000000000000 ) ) ;
#876 = EDGE_CURVE ( 'NONE', #404, #880, #241, .T. ) ;
#877 = EDGE_CURVE ( 'NONE', #135, #810, #764, .T. ) ;
#878 = ORIENTED_EDGE ( 'NONE', *, *, #832, .F. ) ;
#879 = CYLINDRICAL_SURFACE ( 'NONE', #406, 1.500000000000000000 ) ;
#880 = VERTEX_POINT ( 'NONE', #59 ) ;
#881 = CARTESIAN_POINT ( 'NONE',  ( 3.750000000000000000, 0.5000000000000000000, 0.000000000000000000 ) ) ;
#882 = PLANE ( 'NONE',  #550 ) ;
#883 = ORIENTED_EDGE ( 'NONE', *, *, #317, .F. ) ;
#884 = DIRECTION ( 'NONE',  ( 0.000000000000000000, 1.000000000000000000, 0.000000000000000000 ) ) ;
#885 = ORIENTED_EDGE ( 'NONE', *, *, #117, .T. ) ;
#886 = DIRECTION ( 'NONE',  ( 0.000000000000000000, -1.000000000000000000, 0.000000000000000000 ) ) ;
#887 = EDGE_CURVE ( 'NONE', #949, #880, #146, .T. ) ;
#888 = CIRCLE ( 'NONE', #20, 1.500000000000000000 ) ;
#889 = VECTOR ( 'NONE', #83, 1000.000000000000114 ) ;
#890 = DIRECTION ( 'NONE',  ( 0.000000000000000000, -1.000000000000000000, 0.000000000000000000 ) ) ;
#891 = CARTESIAN_POINT ( 'NONE',  ( 2.000000000000000000, 0.5000000000000000000, -2.500000000000000444 ) ) ;
#892 = AXIS2_PLACEMENT_3D ( 'NONE', #164, #462, #703 ) ;
#893 = DIRECTION ( 'NONE',  ( 0.000000000000000000, -1.000000000000000000, 0.000000000000000000 ) ) ;
#894 = ORIENTED_EDGE ( 'NONE', *, *, #183, .F. ) ;
#895 = DIRECTION ( 'NONE',  ( 0.000000000000000000, 1.000000000000000000, 0.000000000000000000 ) ) ;
#896 = CARTESIAN_POINT ( 'NONE',  ( 0.1767766952965999783, -0.6999999999999999556, -2.111038197138999983 ) ) ;
#897 = PERSON_AND_ORGANIZATION ( #1141, #779 ) ;
#898 = CARTESIAN_POINT ( 'NONE',  ( 0.000000000000000000, -0.6999999999999999556, 0.000000000000000000 ) ) ;
#899 = EDGE_LOOP ( 'NONE', ( #521, #619 ) ) ;
#900 = DIRECTION ( 'NONE',  ( 0.000000000000000000, -1.000000000000000000, 0.000000000000000000 ) ) ;
#901 = PRODUCT_DEFINITION ( 'UNKNOWN', '', #767, #98 ) ;
#902 = LINE ( 'NONE', #473, #245 ) ;
#903 = CALENDAR_DATE ( 2025, 8, 9 ) ;
#904 = ADVANCED_FACE ( 'NONE', ( #587, #502 ), #1025, .T. ) ;
#905 = CARTESIAN_POINT ( 'NONE',  ( 0.000000000000000000, 0.000000000000000000, 0.000000000000000000 ) ) ;
#906 = VERTEX_POINT ( 'NONE', #515 ) ;
#907 = FACE_OUTER_BOUND ( 'NONE', #298, .T. ) ;
#908 = CARTESIAN_POINT ( 'NONE',  ( -0.07071067811864999164, -4.200000000000000178, 2.641421356237000140 ) ) ;
#909 = APPLICATION_PROTOCOL_DEFINITION ( 'international standard', 'config_control_design', 1994, #149 ) ;
#910 = AXIS2_PLACEMENT_3D ( 'NONE', #770, #683, #157 ) ;
#911 = CIRCLE ( 'NONE', #90, 2.000000000000000000 ) ;
#912 = DIRECTION ( 'NONE',  ( -1.000000000000000000, 0.000000000000000000, 0.000000000000000000 ) ) ;
#913 = LOCAL_TIME ( 19, 44, 49.00000000000000000, #744 ) ;
#914 = ORIENTED_EDGE ( 'NONE', *, *, #150, .T. ) ;
#915 = LINE ( 'NONE', #119, #39 ) ;
#916 = DIRECTION ( 'NONE',  ( -1.000000000000000000, 0.000000000000000000, 0.000000000000000000 ) ) ;
#917 = DATE_AND_TIME ( #666, #913 ) ;
#918 = ORIENTED_EDGE ( 'NONE', *, *, #937, .T. ) ;
#919 = CARTESIAN_POINT ( 'NONE',  ( -0.3889087296525999826, -3.850000000000000089, -2.676723622087999743 ) ) ;
#920 = VERTEX_POINT ( 'NONE', #680 ) ;
#921 = ADVANCED_FACE ( 'NONE', ( #856 ), #339, .T. ) ;
#922 = EDGE_CURVE ( 'NONE', #44, #65, #433, .T. ) ;
#923 = DIRECTION ( 'NONE',  ( 0.000000000000000000, -1.000000000000000000, 0.000000000000000000 ) ) ;
#924 = ORIENTED_EDGE ( 'NONE', *, *, #125, .T. ) ;
#925 = EDGE_CURVE ( 'NONE', #906, #1122, #838, .T. ) ;
#926 = VERTEX_POINT ( 'NONE', #333 ) ;
#927 = PLANE ( 'NONE',  #1150 ) ;
#928 = ORIENTED_EDGE ( 'NONE', *, *, #922, .T. ) ;
#929 = AXIS2_PLACEMENT_3D ( 'NONE', #195, #95, #102 ) ;
#930 = CC_DESIGN_APPROVAL ( #1106, ( #901 ) ) ;
#931 = DIRECTION ( 'NONE',  ( 0.000000000000000000, -1.000000000000000000, 0.000000000000000000 ) ) ;
#932 = ORIENTED_EDGE ( 'NONE', *, *, #183, .T. ) ;
#933 = EDGE_LOOP ( 'NONE', ( #1103, #971, #86, #429 ) ) ;
#934 = CARTESIAN_POINT ( 'NONE',  ( 1.000000000000000000, 6.200000000000000178, 0.000000000000000000 ) ) ;
#935 = CC_DESIGN_DATE_AND_TIME_ASSIGNMENT ( #807, #293, ( #1132 ) ) ;
#936 = DIRECTION ( 'NONE',  ( 0.000000000000000000, -1.000000000000000000, 0.000000000000000000 ) ) ;
#937 = EDGE_CURVE ( 'NONE', #284, #440, #91, .T. ) ;
#938 = ORIENTED_EDGE ( 'NONE', *, *, #256, .T. ) ;
#939 = LINE ( 'NONE', #689, #363 ) ;
#940 = DIRECTION ( 'NONE',  ( 0.000000000000000000, -1.000000000000000000, 0.000000000000000000 ) ) ;
#941 = DIRECTION ( 'NONE',  ( 1.000000000000000000, 0.000000000000000000, 0.000000000000000000 ) ) ;
#942 = EDGE_LOOP ( 'NONE', ( #761, #998, #537, #626, #580, #595 ) ) ;
#943 = CIRCLE ( 'NONE', #144, 0.4000000000000001887 ) ;
#944 = AXIS2_PLACEMENT_3D ( 'NONE', #898, #705, #713 ) ;
#945 = ORIENTED_EDGE ( 'NONE', *, *, #208, .T. ) ;
#946 = PLANE ( 'NONE',  #1127 ) ;
#947 = DIRECTION ( 'NONE',  ( 0.000000000000000000, -1.000000000000000000, 0.000000000000000000 ) ) ;
#948 = ORIENTED_EDGE ( 'NONE', *, *, #656, .F. ) ;
#949 = VERTEX_POINT ( 'NONE', #602 ) ;
#950 = CARTESIAN_POINT ( 'NONE',  ( 2.000000000000000000, 0.5000000000000000000, 2.499999999999999556 ) ) ;
#951 = EDGE_CURVE ( 'NONE', #284, #854, #852, .T. ) ;
#952 = EDGE_CURVE ( 'NONE', #128, #949, #336, .T. ) ;
#953 = ADVANCED_FACE ( 'NONE', ( #687 ), #1032, .T. ) ;
#954 = ORIENTED_EDGE ( 'NONE', *, *, #419, .T. ) ;
#955 = CARTESIAN_POINT ( 'NONE',  ( 2.000000000000000000, -0.6999999999999999556, 2.499999999999999556 ) ) ;
#956 = ORIENTED_EDGE ( 'NONE', *, *, #771, .T. ) ;
#957 = EDGE_LOOP ( 'NONE', ( #567, #789 ) ) ;
#958 = CARTESIAN_POINT ( 'NONE',  ( 0.000000000000000000, -0.6999999999999999556, 2.500000000000000000 ) ) ;
#959 = ORIENTED_EDGE ( 'NONE', *, *, #991, .F. ) ;
#960 = ADVANCED_FACE ( 'NONE', ( #1039 ), #1124, .T. ) ;
#961 = VERTEX_POINT ( 'NONE', #955 ) ;
#962 = CYLINDRICAL_SURFACE ( 'NONE', #817, 0.4000000000000001887 ) ;
#963 = ORIENTED_EDGE ( 'NONE', *, *, #253, .T. ) ;
#964 = DIRECTION ( 'NONE',  ( 1.000000000000000000, 0.000000000000000000, 0.000000000000000000 ) ) ;
#965 = VECTOR ( 'NONE', #92, 1000.000000000000000 ) ;
#966 = AXIS2_PLACEMENT_3D ( 'NONE', #40, #494, #912 ) ;
#967 =( GEOMETRIC_REPRESENTATION_CONTEXT ( 3 ) GLOBAL_UNCERTAINTY_ASSIGNED_CONTEXT ( ( #676 ) ) GLOBAL_UNIT_ASSIGNED_CONTEXT ( ( #1063, #630, #1015 ) ) REPRESENTATION_CONTEXT ( 'NONE', 'WORKASPACE' ) );
#968 = DIRECTION ( 'NONE',  ( 0.000000000000000000, -1.000000000000000000, 0.000000000000000000 ) ) ;
#969 = VERTEX_POINT ( 'NONE', #159 ) ;
#970 = PLANE ( 'NONE',  #731 ) ;
#971 = ORIENTED_EDGE ( 'NONE', *, *, #952, .T. ) ;
#972 = PLANE ( 'NONE',  #661 ) ;
#973 = CC_DESIGN_DATE_AND_TIME_ASSIGNMENT ( #315, #390, ( #901 ) ) ;
#974 = FACE_OUTER_BOUND ( 'NONE', #957, .T. ) ;
#975 = EDGE_LOOP ( 'NONE', ( #75, #3, #1086, #688 ) ) ;
#976 = ADVANCED_FACE ( 'NONE', ( #1105 ), #320, .F. ) ;
#977 = FACE_OUTER_BOUND ( 'NONE', #659, .T. ) ;
#978 = DIRECTION ( 'NONE',  ( 0.000000000000000000, -1.000000000000000000, 0.000000000000000000 ) ) ;
#979 = DIRECTION ( 'NONE',  ( 0.000000000000000000, -1.000000000000000000, 0.000000000000000000 ) ) ;
#980 = ORIENTED_EDGE ( 'NONE', *, *, #383, .T. ) ;
#981 = FACE_OUTER_BOUND ( 'NONE', #330, .T. ) ;
#982 = EDGE_CURVE ( 'NONE', #596, #259, #531, .T. ) ;
#983 = EDGE_LOOP ( 'NONE', ( #682, #227 ) ) ;
#984 = LINE ( 'NONE', #999, #50 ) ;
#985 = AXIS2_PLACEMENT_3D ( 'NONE', #571, #487, #916 ) ;
#986 = AXIS2_PLACEMENT_3D ( 'NONE', #218, #38, #61 ) ;
#987 = LINE ( 'NONE', #802, #460 ) ;
#988 = CIRCLE ( 'NONE', #498, 6.250000000000000000 ) ;
#989 = EDGE_LOOP ( 'NONE', ( #535, #696 ) ) ;
#990 = CYLINDRICAL_SURFACE ( 'NONE', #1056, 2.000000000000000000 ) ;
#991 = EDGE_CURVE ( 'NONE', #726, #158, #795, .T. ) ;
#992 = ORIENTED_EDGE ( 'NONE', *, *, #876, .F. ) ;
#993 = DIRECTION ( 'NONE',  ( 1.000000000000000000, 0.000000000000000000, 0.000000000000000000 ) ) ;
#994 = EDGE_CURVE ( 'NONE', #1122, #259, #359, .T. ) ;
#995 = CARTESIAN_POINT ( 'NONE',  ( 4.150000000000000355, 0.5000000000000000000, -4.898587196589410610E-17 ) ) ;
#996 = EDGE_CURVE ( 'NONE', #217, #577, #988, .T. ) ;
#997 = CARTESIAN_POINT ( 'NONE',  ( -0.1767766952965999783, -0.6999999999999999556, 2.111091270347000393 ) ) ;
#998 = ORIENTED_EDGE ( 'NONE', *, *, #1011, .T. ) ;
#999 = CARTESIAN_POINT ( 'NONE',  ( -0.1414213562372999833, -4.200000000000000178, -2.429236248672999920 ) ) ;
#1000 = PERSON_AND_ORGANIZATION ( #1141, #779 ) ;
#1001 = DIRECTION ( 'NONE',  ( 0.7071067811865475727, 0.000000000000000000, 0.7071067811865475727 ) ) ;
#1002 = VERTEX_POINT ( 'NONE', #173 ) ;
#1003 = DIRECTION ( 'NONE',  ( -0.5000000000000168754, -0.7071067811865237029, -0.5000000000000168754 ) ) ;
#1004 = APPROVAL_STATUS ( 'not_yet_approved' ) ;
#1005 = AXIS2_PLACEMENT_3D ( 'NONE', #395, #292, #1089 ) ;
#1006 = AXIS2_PLACEMENT_3D ( 'NONE', #634, #809, #1072 ) ;
#1007 = DIRECTION ( 'NONE',  ( -0.7071067811865475727, 0.000000000000000000, 0.7071067811865475727 ) ) ;
#1008 = AXIS2_PLACEMENT_3D ( 'NONE', #673, #931, #1112 ) ;
#1009 = VERTEX_POINT ( 'NONE', #1049 ) ;
#1010 = PLANE ( 'NONE',  #986 ) ;
#1011 = EDGE_CURVE ( 'NONE', #270, #1046, #987, .T. ) ;
#1012 = CARTESIAN_POINT ( 'NONE',  ( -6.250000000000000000, 0.000000000000000000, -7.654042494670957606E-16 ) ) ;
#1013 = ORIENTED_EDGE ( 'NONE', *, *, #840, .F. ) ;
#1014 = DIRECTION ( 'NONE',  ( 0.000000000000000000, 0.000000000000000000, -1.000000000000000000 ) ) ;
#1015 =( NAMED_UNIT ( * ) SI_UNIT ( $, .STERADIAN. ) SOLID_ANGLE_UNIT ( ) );
#1016 = FACE_OUTER_BOUND ( 'NONE', #123, .T. ) ;
#1017 = VERTEX_POINT ( 'NONE', #1069 ) ;
#1018 = FACE_BOUND ( 'NONE', #983, .T. ) ;
#1019 = EDGE_CURVE ( 'NONE', #949, #969, #283, .T. ) ;
#1020 = CARTESIAN_POINT ( 'NONE',  ( -0.1767766952965999783, -0.6999999999999999556, -2.888855656443999997 ) ) ;
#1021 = DIRECTION ( 'NONE',  ( -0.5000000000000167644, -0.7071067811865237029, -0.5000000000000168754 ) ) ;
#1022 = AXIS2_PLACEMENT_3D ( 'NONE', #547, #893, #612 ) ;
#1023 = VECTOR ( 'NONE', #774, 1000.000000000000114 ) ;
#1024 = DIRECTION ( 'NONE',  ( -0.7071067811865474617, 0.000000000000000000, 0.7071067811865474617 ) ) ;
#1025 = PLANE ( 'NONE',  #867 ) ;
#1026 = ORIENTED_EDGE ( 'NONE', *, *, #371, .T. ) ;
#1027 = ORIENTED_EDGE ( 'NONE', *, *, #163, .F. ) ;
#1028 = CARTESIAN_POINT ( 'NONE',  ( -6.250000000000000000, 0.000000000000000000, -7.654042494670957606E-16 ) ) ;
#1029 = CARTESIAN_POINT ( 'NONE',  ( -0.07071067811864999164, -4.200000000000000178, 2.641421356237000140 ) ) ;
#1030 = APPROVAL ( #1004, 'UNSPECIFIED' ) ;
#1031 = ORIENTED_EDGE ( 'NONE', *, *, #162, .F. ) ;
#1032 = CYLINDRICAL_SURFACE ( 'NONE', #662, 0.4000000000000001887 ) ;
#1033 = ORIENTED_EDGE ( 'NONE', *, *, #224, .T. ) ;
#1034 = CIRCLE ( 'NONE', #545, 2.000000000000000000 ) ;
#1035 = EDGE_CURVE ( 'NONE', #592, #465, #273, .T. ) ;
#1036 = VECTOR ( 'NONE', #900, 1000.000000000000000 ) ;
#1037 = AXIS2_PLACEMENT_3D ( 'NONE', #1143, #788, #638 ) ;
#1038 = FACE_BOUND ( 'NONE', #672, .T. ) ;
#1039 = FACE_OUTER_BOUND ( 'NONE', #933, .T. ) ;
#1040 = VERTEX_POINT ( 'NONE', #449 ) ;
#1041 = CARTESIAN_POINT ( 'NONE',  ( 0.000000000000000000, 0.000000000000000000, 0.000000000000000000 ) ) ;
#1042 = DIRECTION ( 'NONE',  ( 1.000000000000000000, 0.000000000000000000, 0.000000000000000000 ) ) ;
#1043 = DIRECTION ( 'NONE',  ( -0.5000000000000168754, -0.7071067811865237029, -0.5000000000000168754 ) ) ;
#1044 = EDGE_LOOP ( 'NONE', ( #959, #706 ) ) ;
#1045 = DIRECTION ( 'NONE',  ( -1.000000000000000000, 0.000000000000000000, 0.000000000000000000 ) ) ;
#1046 = VERTEX_POINT ( 'NONE', #84 ) ;
#1047 = LINE ( 'NONE', #48, #110 ) ;
#1048 = FACE_OUTER_BOUND ( 'NONE', #1098, .T. ) ;
#1049 = CARTESIAN_POINT ( 'NONE',  ( -0.1414213562372999833, -4.200000000000000178, -2.429236248672999920 ) ) ;
#1050 = ORIENTED_EDGE ( 'NONE', *, *, #432, .F. ) ;
#1051 = LINE ( 'NONE', #458, #1148 ) ;
#1052 = ORIENTED_EDGE ( 'NONE', *, *, #951, .T. ) ;
#1053 = PLANE ( 'NONE',  #290 ) ;
#1054 = AXIS2_PLACEMENT_3D ( 'NONE', #589, #140, #323 ) ;
#1055 = PRODUCT_RELATED_PRODUCT_CATEGORY ( 'detail', '', ( #518 ) ) ;
#1056 = AXIS2_PLACEMENT_3D ( 'NONE', #872, #540, #1045 ) ;
#1057 = VECTOR ( 'NONE', #396, 1000.000000000000114 ) ;
#1058 = DIRECTION ( 'NONE',  ( 1.000000000000000000, 0.000000000000000000, 0.000000000000000000 ) ) ;
#1059 = ORIENTED_EDGE ( 'NONE', *, *, #317, .T. ) ;
#1060 = CARTESIAN_POINT ( 'NONE',  ( 3.750000000000000000, 0.5000000000000000000, 0.000000000000000000 ) ) ;
#1061 = ORIENTED_EDGE ( 'NONE', *, *, #785, .T. ) ;
#1062 = CARTESIAN_POINT ( 'NONE',  ( 0.000000000000000000, 6.299999999999999822, 0.000000000000000000 ) ) ;
#1063 =( LENGTH_UNIT ( ) NAMED_UNIT ( * ) SI_UNIT ( .MILLI., .METRE. ) );
#1064 = VERTEX_POINT ( 'NONE', #374 ) ;
#1065 = DIRECTION ( 'NONE',  ( 0.000000000000000000, 1.000000000000000000, 0.000000000000000000 ) ) ;
#1066 = ORIENTED_EDGE ( 'NONE', *, *, #114, .F. ) ;
#1067 = CARTESIAN_POINT ( 'NONE',  ( -0.1767766952965999783, -0.6999999999999999556, 2.111091270347000393 ) ) ;
#1068 = DIRECTION ( 'NONE',  ( -1.000000000000000000, 0.000000000000000000, 0.000000000000000000 ) ) ;
#1069 = CARTESIAN_POINT ( 'NONE',  ( -4.150000000000000355, -0.6999999999999999556, 0.000000000000000000 ) ) ;
#1070 = CC_DESIGN_PERSON_AND_ORGANIZATION_ASSIGNMENT ( #1000, #1077, ( #767 ) ) ;
#1071 = ORIENTED_EDGE ( 'NONE', *, *, #733, .F. ) ;
#1072 = DIRECTION ( 'NONE',  ( 0.000000000000000000, 0.000000000000000000, -1.000000000000000000 ) ) ;
#1073 = ORIENTED_EDGE ( 'NONE', *, *, #357, .T. ) ;
#1074 = LINE ( 'NONE', #288, #1036 ) ;
#1075 = ADVANCED_FACE ( 'NONE', ( #194 ), #456, .T. ) ;
#1076 = AXIS2_PLACEMENT_3D ( 'NONE', #543, #890, #448 ) ;
#1077 = PERSON_AND_ORGANIZATION_ROLE ( 'creator' ) ;
#1078 = VECTOR ( 'NONE', #476, 1000.000000000000114 ) ;
#1079 = DIRECTION ( 'NONE',  ( 0.000000000000000000, -1.000000000000000000, 0.000000000000000000 ) ) ;
#1080 = ORIENTED_EDGE ( 'NONE', *, *, #492, .T. ) ;
#1081 = CARTESIAN_POINT ( 'NONE',  ( 0.3889087296525999826, -0.6999999999999999556, -2.323170231494999793 ) ) ;
#1082 = LINE ( 'NONE', #678, #793 ) ;
#1083 = SHAPE_DEFINITION_REPRESENTATION ( #350, #265 ) ;
#1084 = ORIENTED_EDGE ( 'NONE', *, *, #832, .T. ) ;
#1085 = DIRECTION ( 'NONE',  ( 0.000000000000000000, -1.000000000000000000, 0.000000000000000000 ) ) ;
#1086 = ORIENTED_EDGE ( 'NONE', *, *, #733, .T. ) ;
#1087 = CARTESIAN_POINT ( 'NONE',  ( 0.000000000000000000, 6.200000000000000178, 0.000000000000000000 ) ) ;
#1088 = EDGE_CURVE ( 'NONE', #294, #961, #185, .T. ) ;
#1089 = DIRECTION ( 'NONE',  ( 0.000000000000000000, 1.000000000000000000, 0.000000000000000000 ) ) ;
#1090 = PERSON_AND_ORGANIZATION ( #1141, #779 ) ;
#1091 = CARTESIAN_POINT ( 'NONE',  ( 0.000000000000000000, 0.5000000000000000000, 0.000000000000000000 ) ) ;
#1092 = ORIENTED_EDGE ( 'NONE', *, *, #256, .F. ) ;
#1093 = CARTESIAN_POINT ( 'NONE',  ( -0.1590990257669999963, -4.025000000000000355, -2.659045952557999914 ) ) ;
#1094 = EDGE_CURVE ( 'NONE', #961, #465, #732, .T. ) ;
#1095 = AXIS2_PLACEMENT_3D ( 'NONE', #1062, #895, #993 ) ;
#1096 = CYLINDRICAL_SURFACE ( 'NONE', #148, 2.000000000000000000 ) ;
#1097 = AXIS2_PLACEMENT_3D ( 'NONE', #875, #79, #794 ) ;
#1098 = EDGE_LOOP ( 'NONE', ( #495, #775, #412, #1071 ) ) ;
#1099 = CYLINDRICAL_SURFACE ( 'NONE', #765, 1.000000000000000000 ) ;
#1100 = PERSON_AND_ORGANIZATION ( #1141, #779 ) ;
#1101 = ORIENTED_EDGE ( 'NONE', *, *, #996, .F. ) ;
#1102 = CARTESIAN_POINT ( 'NONE',  ( -0.3889087296525999826, -3.850000000000000089, 2.323223304702999759 ) ) ;
#1103 = ORIENTED_EDGE ( 'NONE', *, *, #310, .F. ) ;
#1104 = FACE_OUTER_BOUND ( 'NONE', #327, .T. ) ;
#1105 = FACE_OUTER_BOUND ( 'NONE', #871, .T. ) ;
#1106 = APPROVAL ( #821, 'UNSPECIFIED' ) ;
#1107 = MANIFOLD_SOLID_BREP ( 'NONE', #437 ) ;
#1108 = LINE ( 'NONE', #660, #268 ) ;
#1109 = ADVANCED_FACE ( 'NONE', ( #544, #974 ), #882, .T. ) ;
#1110 = CARTESIAN_POINT ( 'NONE',  ( 1.500000000000000000, 6.200000000000000178, 0.000000000000000000 ) ) ;
#1111 = CIRCLE ( 'NONE', #508, 6.250000000000000000 ) ;
#1112 = DIRECTION ( 'NONE',  ( -1.000000000000000000, 0.000000000000000000, 0.000000000000000000 ) ) ;
#1113 = AXIS2_PLACEMENT_3D ( 'NONE', #264, #968, #1058 ) ;
#1114 = PLANE ( 'NONE',  #566 ) ;
#1115 = DIRECTION ( 'NONE',  ( 1.000000000000000000, 0.000000000000000000, 0.000000000000000000 ) ) ;
#1116 = CARTESIAN_POINT ( 'NONE',  ( -2.000000000000000000, -0.6999999999999999556, -2.500000000000000000 ) ) ;
#1117 = DIRECTION ( 'NONE',  ( -1.000000000000000000, 0.000000000000000000, 0.000000000000000000 ) ) ;
#1118 = EDGE_CURVE ( 'NONE', #452, #442, #1131, .T. ) ;
#1119 = DIRECTION ( 'NONE',  ( 0.000000000000000000, 1.000000000000000000, 0.000000000000000000 ) ) ;
#1120 = ORIENTED_EDGE ( 'NONE', *, *, #272, .T. ) ;
#1121 = DIRECTION ( 'NONE',  ( 1.000000000000000000, 0.000000000000000000, 0.000000000000000000 ) ) ;
#1122 = VERTEX_POINT ( 'NONE', #623 ) ;
#1123 = DIRECTION ( 'NONE',  ( -1.000000000000000000, 0.000000000000000000, 0.000000000000000000 ) ) ;
#1124 = PLANE ( 'NONE',  #52 ) ;
#1125 = ADVANCED_FACE ( 'NONE', ( #93 ), #555, .T. ) ;
#1126 = CARTESIAN_POINT ( 'NONE',  ( -2.000000000000000000, 0.5000000000000000000, 2.500000000000000000 ) ) ;
#1127 = AXIS2_PLACEMENT_3D ( 'NONE', #170, #153, #239 ) ;
#1128 = AXIS2_PLACEMENT_3D ( 'NONE', #881, #136, #742 ) ;
#1129 = VERTEX_POINT ( 'NONE', #539 ) ;
#1130 = DIRECTION ( 'NONE',  ( 0.000000000000000000, -1.000000000000000000, 0.000000000000000000 ) ) ;
#1131 = CIRCLE ( 'NONE', #1097, 5.700000000000000178 ) ;
#1132 = SECURITY_CLASSIFICATION ( '', '', #474 ) ;
#1133 = DIRECTION ( 'NONE',  ( 0.000000000000000000, -1.000000000000000000, 0.000000000000000000 ) ) ;
#1134 = ORIENTED_EDGE ( 'NONE', *, *, #690, .F. ) ;
#1135 = DIRECTION ( 'NONE',  ( 0.7071067811865474617, 0.000000000000000000, 0.7071067811865474617 ) ) ;
#1136 = DIRECTION ( 'NONE',  ( 0.000000000000000000, -1.000000000000000000, 0.000000000000000000 ) ) ;
#1137 = DIRECTION ( 'NONE',  ( -1.000000000000000000, 0.000000000000000000, 0.000000000000000000 ) ) ;
#1138 = DIRECTION ( 'NONE',  ( -1.000000000000000000, 0.000000000000000000, 0.000000000000000000 ) ) ;
#1139 = ORIENTED_EDGE ( 'NONE', *, *, #279, .F. ) ;
#1140 = CARTESIAN_POINT ( 'NONE',  ( -3.750000000000000000, 0.5000000000000000000, 0.000000000000000000 ) ) ;
#1141 = PERSON ( 'UNSPECIFIED', 'UNSPECIFIED', 'UNSPECIFIED', ('UNSPECIFIED'), ('UNSPECIFIED'), ('UNSPECIFIED') ) ;
#1142 = DIRECTION ( 'NONE',  ( 1.000000000000000000, 0.000000000000000000, 0.000000000000000000 ) ) ;
#1143 = CARTESIAN_POINT ( 'NONE',  ( 0.1590990257669999963, -4.025000000000000355, 2.659099025767000413 ) ) ;
#1144 = ORIENTED_EDGE ( 'NONE', *, *, #1118, .F. ) ;
#1145 = LINE ( 'NONE', #362, #439 ) ;
#1146 = DIRECTION ( 'NONE',  ( -0.8164965809277076048, -0.5773502691896517103, 0.000000000000000000 ) ) ;
#1147 = VECTOR ( 'NONE', #373, 1000.000000000000114 ) ;
#1148 = VECTOR ( 'NONE', #640, 1000.000000000000114 ) ;
#1149 = EDGE_CURVE ( 'NONE', #242, #65, #258, .T. ) ;
#1150 = AXIS2_PLACEMENT_3D ( 'NONE', #133, #122, #1007 ) ;
#1151 = CARTESIAN_POINT ( 'NONE',  ( 0.3889087296525999826, -3.850000000000000089, 2.676776695296999797 ) ) ;
ENDSEC;
END-ISO-10303-21;
