ISO-10303-21;
HEADER;
FILE_DESCRIPTION(('FreeCAD Model'),'2;1');
FILE_NAME('Open CASCADE Shape Model','2026-10-06T11:49:12',(''),(''),
  'Open CASCADE STEP processor 7.8','FreeCAD','Unknown');
FILE_SCHEMA(('AUTOMOTIVE_DESIGN { 1 0 10303 214 1 1 1 1 }'));
ENDSEC;
DATA;
#1 = APPLICATION_PROTOCOL_DEFINITION('international standard',
  'automotive_design',2000,#2);
#2 = APPLICATION_CONTEXT(
  'core data for automotive mechanical design processes');
#3 = SHAPE_DEFINITION_REPRESENTATION(#4,#10);
#4 = PRODUCT_DEFINITION_SHAPE('','',#5);
#5 = PRODUCT_DEFINITION('design','',#6,#9);
#6 = PRODUCT_DEFINITION_FORMATION('','',#7);
#7 = PRODUCT('Bot','Bot','',(#8));
#8 = PRODUCT_CONTEXT('',#2,'mechanical');
#9 = PRODUCT_DEFINITION_CONTEXT('part definition',#2,'design');
#10 = ADVANCED_BREP_SHAPE_REPRESENTATION('',(#11,#15),#682);
#11 = AXIS2_PLACEMENT_3D('',#12,#13,#14);
#12 = CARTESIAN_POINT('',(0.,0.,0.));
#13 = DIRECTION('',(0.,0.,1.));
#14 = DIRECTION('',(1.,0.,-0.));
#15 = MANIFOLD_SOLID_BREP('',#16);
#16 = CLOSED_SHELL('',(#17,#50,#75,#139,#203,#220,#237,#254,#279,#296,
    #478,#498,#569,#589,#653));
#17 = ADVANCED_FACE('',(#18),#45,.T.);
#18 = FACE_BOUND('',#19,.F.);
#19 = EDGE_LOOP('',(#20,#30,#37,#38));
#20 = ORIENTED_EDGE('',*,*,#21,.T.);
#21 = EDGE_CURVE('',#22,#24,#26,.T.);
#22 = VERTEX_POINT('',#23);
#23 = CARTESIAN_POINT('',(-20.,0.,1.5));
#24 = VERTEX_POINT('',#25);
#25 = CARTESIAN_POINT('',(-20.,-4.898587196589E-15,-3.552713678801E-15)
  );
#26 = LINE('',#27,#28);
#27 = CARTESIAN_POINT('',(-20.,-4.898587196589E-15,2.5));
#28 = VECTOR('',#29,1.);
#29 = DIRECTION('',(1.224646799147E-16,0.,-1.));
#30 = ORIENTED_EDGE('',*,*,#31,.T.);
#31 = EDGE_CURVE('',#24,#24,#32,.T.);
#32 = CIRCLE('',#33,20.);
#33 = AXIS2_PLACEMENT_3D('',#34,#35,#36);
#34 = CARTESIAN_POINT('',(-1.469576158977E-15,0.,0.));
#35 = DIRECTION('',(1.224646799147E-16,0.,-1.));
#36 = DIRECTION('',(-1.,0.,-1.224646799147E-16));
#37 = ORIENTED_EDGE('',*,*,#21,.F.);
#38 = ORIENTED_EDGE('',*,*,#39,.F.);
#39 = EDGE_CURVE('',#22,#22,#40,.T.);
#40 = CIRCLE('',#41,20.);
#41 = AXIS2_PLACEMENT_3D('',#42,#43,#44);
#42 = CARTESIAN_POINT('',(-1.653273178849E-15,0.,1.5));
#43 = DIRECTION('',(1.224646799147E-16,0.,-1.));
#44 = DIRECTION('',(-1.,0.,-1.224646799147E-16));
#45 = CYLINDRICAL_SURFACE('',#46,20.);
#46 = AXIS2_PLACEMENT_3D('',#47,#48,#49);
#47 = CARTESIAN_POINT('',(-1.775737858764E-15,0.,2.5));
#48 = DIRECTION('',(-1.224646799147E-16,-0.,1.));
#49 = DIRECTION('',(-1.,0.,-1.224646799147E-16));
#50 = ADVANCED_FACE('',(#51),#70,.T.);
#51 = FACE_BOUND('',#52,.F.);
#52 = EDGE_LOOP('',(#53,#61,#62,#63));
#53 = ORIENTED_EDGE('',*,*,#54,.F.);
#54 = EDGE_CURVE('',#22,#55,#57,.T.);
#55 = VERTEX_POINT('',#56);
#56 = CARTESIAN_POINT('',(-19.,0.,2.5));
#57 = LINE('',#58,#59);
#58 = CARTESIAN_POINT('',(-20.,0.,1.5));
#59 = VECTOR('',#60,1.);
#60 = DIRECTION('',(0.707106781187,-0.,0.707106781187));
#61 = ORIENTED_EDGE('',*,*,#39,.T.);
#62 = ORIENTED_EDGE('',*,*,#54,.T.);
#63 = ORIENTED_EDGE('',*,*,#64,.F.);
#64 = EDGE_CURVE('',#55,#55,#65,.T.);
#65 = CIRCLE('',#66,19.);
#66 = AXIS2_PLACEMENT_3D('',#67,#68,#69);
#67 = CARTESIAN_POINT('',(-1.775737858764E-15,0.,2.5));
#68 = DIRECTION('',(1.224646799147E-16,0.,-1.));
#69 = DIRECTION('',(-1.,0.,-1.224646799147E-16));
#70 = CONICAL_SURFACE('',#71,20.,0.785398163397);
#71 = AXIS2_PLACEMENT_3D('',#72,#73,#74);
#72 = CARTESIAN_POINT('',(-1.653273178849E-15,0.,1.5));
#73 = DIRECTION('',(1.224646799147E-16,0.,-1.));
#74 = DIRECTION('',(-1.,0.,-1.224646799147E-16));
#75 = ADVANCED_FACE('',(#76,#79,#90,#101,#112,#123),#134,.T.);
#76 = FACE_BOUND('',#77,.T.);
#77 = EDGE_LOOP('',(#78));
#78 = ORIENTED_EDGE('',*,*,#31,.T.);
#79 = FACE_BOUND('',#80,.T.);
#80 = EDGE_LOOP('',(#81));
#81 = ORIENTED_EDGE('',*,*,#82,.F.);
#82 = EDGE_CURVE('',#83,#83,#85,.T.);
#83 = VERTEX_POINT('',#84);
#84 = CARTESIAN_POINT('',(12.727922061358,-11.31370849898,
    1.7763568394E-15));
#85 = CIRCLE('',#86,1.);
#86 = AXIS2_PLACEMENT_3D('',#87,#88,#89);
#87 = CARTESIAN_POINT('',(12.020815280171,-12.02081528017,
    1.7763568394E-15));
#88 = DIRECTION('',(0.,0.,-1.));
#89 = DIRECTION('',(0.707106781187,0.707106781187,0.));
#90 = FACE_BOUND('',#91,.T.);
#91 = EDGE_LOOP('',(#92));
#92 = ORIENTED_EDGE('',*,*,#93,.F.);
#93 = EDGE_CURVE('',#94,#94,#96,.T.);
#94 = VERTEX_POINT('',#95);
#95 = CARTESIAN_POINT('',(-11.31370849898,-11.31370849898,
    -1.33226762955E-15));
#96 = CIRCLE('',#97,1.);
#97 = AXIS2_PLACEMENT_3D('',#98,#99,#100);
#98 = CARTESIAN_POINT('',(-12.02081528017,-12.02081528017,
    -1.33226762955E-15));
#99 = DIRECTION('',(0.,0.,-1.));
#100 = DIRECTION('',(0.707106781187,0.707106781187,0.));
#101 = FACE_BOUND('',#102,.T.);
#102 = EDGE_LOOP('',(#103));
#103 = ORIENTED_EDGE('',*,*,#104,.F.);
#104 = EDGE_CURVE('',#105,#105,#107,.T.);
#105 = VERTEX_POINT('',#106);
#106 = CARTESIAN_POINT('',(12.727922061358,12.727922061358,
    1.7763568394E-15));
#107 = CIRCLE('',#108,1.);
#108 = AXIS2_PLACEMENT_3D('',#109,#110,#111);
#109 = CARTESIAN_POINT('',(12.020815280171,12.020815280171,
    1.7763568394E-15));
#110 = DIRECTION('',(0.,0.,-1.));
#111 = DIRECTION('',(0.707106781187,0.707106781187,0.));
#112 = FACE_BOUND('',#113,.T.);
#113 = EDGE_LOOP('',(#114));
#114 = ORIENTED_EDGE('',*,*,#115,.T.);
#115 = EDGE_CURVE('',#116,#116,#118,.T.);
#116 = VERTEX_POINT('',#117);
#117 = CARTESIAN_POINT('',(2.5,-6.123233995737E-16,0.));
#118 = CIRCLE('',#119,2.5);
#119 = AXIS2_PLACEMENT_3D('',#120,#121,#122);
#120 = CARTESIAN_POINT('',(0.,0.,0.));
#121 = DIRECTION('',(0.,0.,1.));
#122 = DIRECTION('',(1.,0.,0.));
#123 = FACE_BOUND('',#124,.T.);
#124 = EDGE_LOOP('',(#125));
#125 = ORIENTED_EDGE('',*,*,#126,.F.);
#126 = EDGE_CURVE('',#127,#127,#129,.T.);
#127 = VERTEX_POINT('',#128);
#128 = CARTESIAN_POINT('',(-11.31370849898,12.727922061358,
    -1.33226762955E-15));
#129 = CIRCLE('',#130,1.);
#130 = AXIS2_PLACEMENT_3D('',#131,#132,#133);
#131 = CARTESIAN_POINT('',(-12.02081528017,12.020815280171,
    -1.33226762955E-15));
#132 = DIRECTION('',(0.,0.,-1.));
#133 = DIRECTION('',(0.707106781187,0.707106781187,0.));
#134 = PLANE('',#135);
#135 = AXIS2_PLACEMENT_3D('',#136,#137,#138);
#136 = CARTESIAN_POINT('',(-1.469576158977E-15,0.,0.));
#137 = DIRECTION('',(1.224646799147E-16,0.,-1.));
#138 = DIRECTION('',(-1.,0.,-1.224646799147E-16));
#139 = ADVANCED_FACE('',(#140,#143,#154,#165,#176,#187),#198,.F.);
#140 = FACE_BOUND('',#141,.F.);
#141 = EDGE_LOOP('',(#142));
#142 = ORIENTED_EDGE('',*,*,#64,.T.);
#143 = FACE_BOUND('',#144,.F.);
#144 = EDGE_LOOP('',(#145));
#145 = ORIENTED_EDGE('',*,*,#146,.F.);
#146 = EDGE_CURVE('',#147,#147,#149,.T.);
#147 = VERTEX_POINT('',#148);
#148 = CARTESIAN_POINT('',(12.727922061358,-11.31370849898,2.5));
#149 = CIRCLE('',#150,1.);
#150 = AXIS2_PLACEMENT_3D('',#151,#152,#153);
#151 = CARTESIAN_POINT('',(12.020815280171,-12.02081528017,2.5));
#152 = DIRECTION('',(0.,0.,-1.));
#153 = DIRECTION('',(0.707106781187,0.707106781187,0.));
#154 = FACE_BOUND('',#155,.F.);
#155 = EDGE_LOOP('',(#156));
#156 = ORIENTED_EDGE('',*,*,#157,.F.);
#157 = EDGE_CURVE('',#158,#158,#160,.T.);
#158 = VERTEX_POINT('',#159);
#159 = CARTESIAN_POINT('',(-11.31370849898,-11.31370849898,2.5));
#160 = CIRCLE('',#161,1.);
#161 = AXIS2_PLACEMENT_3D('',#162,#163,#164);
#162 = CARTESIAN_POINT('',(-12.02081528017,-12.02081528017,2.5));
#163 = DIRECTION('',(0.,0.,-1.));
#164 = DIRECTION('',(0.707106781187,0.707106781187,0.));
#165 = FACE_BOUND('',#166,.F.);
#166 = EDGE_LOOP('',(#167));
#167 = ORIENTED_EDGE('',*,*,#168,.F.);
#168 = EDGE_CURVE('',#169,#169,#171,.T.);
#169 = VERTEX_POINT('',#170);
#170 = CARTESIAN_POINT('',(12.727922061358,12.727922061358,2.5));
#171 = CIRCLE('',#172,1.);
#172 = AXIS2_PLACEMENT_3D('',#173,#174,#175);
#173 = CARTESIAN_POINT('',(12.020815280171,12.020815280171,2.5));
#174 = DIRECTION('',(0.,0.,-1.));
#175 = DIRECTION('',(0.707106781187,0.707106781187,0.));
#176 = FACE_BOUND('',#177,.F.);
#177 = EDGE_LOOP('',(#178));
#178 = ORIENTED_EDGE('',*,*,#179,.T.);
#179 = EDGE_CURVE('',#180,#180,#182,.T.);
#180 = VERTEX_POINT('',#181);
#181 = CARTESIAN_POINT('',(10.,-2.449293598295E-15,2.5));
#182 = CIRCLE('',#183,10.);
#183 = AXIS2_PLACEMENT_3D('',#184,#185,#186);
#184 = CARTESIAN_POINT('',(0.,0.,2.5));
#185 = DIRECTION('',(0.,0.,1.));
#186 = DIRECTION('',(1.,0.,0.));
#187 = FACE_BOUND('',#188,.F.);
#188 = EDGE_LOOP('',(#189));
#189 = ORIENTED_EDGE('',*,*,#190,.F.);
#190 = EDGE_CURVE('',#191,#191,#193,.T.);
#191 = VERTEX_POINT('',#192);
#192 = CARTESIAN_POINT('',(-11.31370849898,12.727922061358,2.5));
#193 = CIRCLE('',#194,1.);
#194 = AXIS2_PLACEMENT_3D('',#195,#196,#197);
#195 = CARTESIAN_POINT('',(-12.02081528017,12.020815280171,2.5));
#196 = DIRECTION('',(0.,0.,-1.));
#197 = DIRECTION('',(0.707106781187,0.707106781187,0.));
#198 = PLANE('',#199);
#199 = AXIS2_PLACEMENT_3D('',#200,#201,#202);
#200 = CARTESIAN_POINT('',(-1.775737858764E-15,0.,2.5));
#201 = DIRECTION('',(1.224646799147E-16,0.,-1.));
#202 = DIRECTION('',(-1.,0.,-1.224646799147E-16));
#203 = ADVANCED_FACE('',(#204),#215,.F.);
#204 = FACE_BOUND('',#205,.T.);
#205 = EDGE_LOOP('',(#206,#207,#213,#214));
#206 = ORIENTED_EDGE('',*,*,#82,.T.);
#207 = ORIENTED_EDGE('',*,*,#208,.T.);
#208 = EDGE_CURVE('',#83,#147,#209,.T.);
#209 = LINE('',#210,#211);
#210 = CARTESIAN_POINT('',(12.727922061358,-11.31370849898,-4.));
#211 = VECTOR('',#212,1.);
#212 = DIRECTION('',(0.,0.,1.));
#213 = ORIENTED_EDGE('',*,*,#146,.F.);
#214 = ORIENTED_EDGE('',*,*,#208,.F.);
#215 = CYLINDRICAL_SURFACE('',#216,1.);
#216 = AXIS2_PLACEMENT_3D('',#217,#218,#219);
#217 = CARTESIAN_POINT('',(12.020815280171,-12.02081528017,-4.));
#218 = DIRECTION('',(0.,-0.,-1.));
#219 = DIRECTION('',(0.707106781187,0.707106781187,0.));
#220 = ADVANCED_FACE('',(#221),#232,.F.);
#221 = FACE_BOUND('',#222,.T.);
#222 = EDGE_LOOP('',(#223,#224,#230,#231));
#223 = ORIENTED_EDGE('',*,*,#93,.T.);
#224 = ORIENTED_EDGE('',*,*,#225,.T.);
#225 = EDGE_CURVE('',#94,#158,#226,.T.);
#226 = LINE('',#227,#228);
#227 = CARTESIAN_POINT('',(-11.31370849898,-11.31370849898,-4.));
#228 = VECTOR('',#229,1.);
#229 = DIRECTION('',(0.,0.,1.));
#230 = ORIENTED_EDGE('',*,*,#157,.F.);
#231 = ORIENTED_EDGE('',*,*,#225,.F.);
#232 = CYLINDRICAL_SURFACE('',#233,1.);
#233 = AXIS2_PLACEMENT_3D('',#234,#235,#236);
#234 = CARTESIAN_POINT('',(-12.02081528017,-12.02081528017,-4.));
#235 = DIRECTION('',(0.,-0.,-1.));
#236 = DIRECTION('',(0.707106781187,0.707106781187,0.));
#237 = ADVANCED_FACE('',(#238),#249,.F.);
#238 = FACE_BOUND('',#239,.T.);
#239 = EDGE_LOOP('',(#240,#241,#247,#248));
#240 = ORIENTED_EDGE('',*,*,#104,.T.);
#241 = ORIENTED_EDGE('',*,*,#242,.T.);
#242 = EDGE_CURVE('',#105,#169,#243,.T.);
#243 = LINE('',#244,#245);
#244 = CARTESIAN_POINT('',(12.727922061358,12.727922061358,-4.));
#245 = VECTOR('',#246,1.);
#246 = DIRECTION('',(0.,0.,1.));
#247 = ORIENTED_EDGE('',*,*,#168,.F.);
#248 = ORIENTED_EDGE('',*,*,#242,.F.);
#249 = CYLINDRICAL_SURFACE('',#250,1.);
#250 = AXIS2_PLACEMENT_3D('',#251,#252,#253);
#251 = CARTESIAN_POINT('',(12.020815280171,12.020815280171,-4.));
#252 = DIRECTION('',(0.,-0.,-1.));
#253 = DIRECTION('',(0.707106781187,0.707106781187,0.));
#254 = ADVANCED_FACE('',(#255),#274,.F.);
#255 = FACE_BOUND('',#256,.T.);
#256 = EDGE_LOOP('',(#257,#258,#266,#273));
#257 = ORIENTED_EDGE('',*,*,#115,.F.);
#258 = ORIENTED_EDGE('',*,*,#259,.T.);
#259 = EDGE_CURVE('',#116,#260,#262,.T.);
#260 = VERTEX_POINT('',#261);
#261 = CARTESIAN_POINT('',(2.5,-6.123233995737E-16,2.5));
#262 = LINE('',#263,#264);
#263 = CARTESIAN_POINT('',(2.5,-6.123233995737E-16,0.));
#264 = VECTOR('',#265,1.);
#265 = DIRECTION('',(0.,0.,1.));
#266 = ORIENTED_EDGE('',*,*,#267,.F.);
#267 = EDGE_CURVE('',#260,#260,#268,.T.);
#268 = CIRCLE('',#269,2.5);
#269 = AXIS2_PLACEMENT_3D('',#270,#271,#272);
#270 = CARTESIAN_POINT('',(0.,0.,2.5));
#271 = DIRECTION('',(0.,0.,-1.));
#272 = DIRECTION('',(1.,0.,0.));
#273 = ORIENTED_EDGE('',*,*,#259,.F.);
#274 = CYLINDRICAL_SURFACE('',#275,2.5);
#275 = AXIS2_PLACEMENT_3D('',#276,#277,#278);
#276 = CARTESIAN_POINT('',(0.,0.,0.));
#277 = DIRECTION('',(-0.,-0.,-1.));
#278 = DIRECTION('',(1.,0.,0.));
#279 = ADVANCED_FACE('',(#280),#291,.F.);
#280 = FACE_BOUND('',#281,.T.);
#281 = EDGE_LOOP('',(#282,#283,#289,#290));
#282 = ORIENTED_EDGE('',*,*,#126,.T.);
#283 = ORIENTED_EDGE('',*,*,#284,.T.);
#284 = EDGE_CURVE('',#127,#191,#285,.T.);
#285 = LINE('',#286,#287);
#286 = CARTESIAN_POINT('',(-11.31370849898,12.727922061358,-4.));
#287 = VECTOR('',#288,1.);
#288 = DIRECTION('',(0.,0.,1.));
#289 = ORIENTED_EDGE('',*,*,#190,.F.);
#290 = ORIENTED_EDGE('',*,*,#284,.F.);
#291 = CYLINDRICAL_SURFACE('',#292,1.);
#292 = AXIS2_PLACEMENT_3D('',#293,#294,#295);
#293 = CARTESIAN_POINT('',(-12.02081528017,12.020815280171,-4.));
#294 = DIRECTION('',(0.,-0.,-1.));
#295 = DIRECTION('',(0.707106781187,0.707106781187,0.));
#296 = ADVANCED_FACE('',(#297,#377),#473,.T.);
#297 = FACE_BOUND('',#298,.T.);
#298 = EDGE_LOOP('',(#299,#328,#336,#343,#344,#369,#375,#376));
#299 = ORIENTED_EDGE('',*,*,#300,.F.);
#300 = EDGE_CURVE('',#301,#303,#305,.T.);
#301 = VERTEX_POINT('',#302);
#302 = CARTESIAN_POINT('',(10.,-4.973995130773E-16,3.75));
#303 = VERTEX_POINT('',#304);
#304 = CARTESIAN_POINT('',(10.,-8.780677680269E-15,2.75));
#305 = B_SPLINE_CURVE_WITH_KNOTS('',6,(#306,#307,#308,#309,#310,#311,
    #312,#313,#314,#315,#316,#317,#318,#319,#320,#321,#322,#323,#324,
    #325,#326,#327),.UNSPECIFIED.,.F.,.F.,(7,5,5,5,7),(0.,0.222439944387
    ,0.500032975085,0.777582725796,1.),.UNSPECIFIED.);
#306 = CARTESIAN_POINT('',(10.,-9.992007221626E-16,3.75));
#307 = CARTESIAN_POINT('',(10.,-6.123970639826E-02,3.75));
#308 = CARTESIAN_POINT('',(9.999550042473,-0.122273565059,3.740999006707
    ));
#309 = CARTESIAN_POINT('',(9.998655278361,-0.181312023375,3.723112412193
    ));
#310 = CARTESIAN_POINT('',(9.997410541458,-0.23663723481,3.696983818033)
  );
#311 = CARTESIAN_POINT('',(9.995984322912,-0.28675256194,3.663761562711)
  );
#312 = CARTESIAN_POINT('',(9.992719214575,-0.385444966934,3.576752503543
    ));
#313 = CARTESIAN_POINT('',(9.990861825758,-0.430681368477,3.519801615487
    ));
#314 = CARTESIAN_POINT('',(9.989232543799,-0.465236803391,3.456465772894
    ));
#315 = CARTESIAN_POINT('',(9.988070743306,-0.488443025466,3.388932695375
    ));
#316 = CARTESIAN_POINT('',(9.987492177719,-0.5,3.319393803922));
#317 = CARTESIAN_POINT('',(9.987492177719,-0.5,3.180617015381));
#318 = CARTESIAN_POINT('',(9.988070558058,-0.488446658696,3.111076230149
    ));
#319 = CARTESIAN_POINT('',(9.989232412031,-0.465239652422,3.04353553884)
  );
#320 = CARTESIAN_POINT('',(9.990861940607,-0.430679852217,2.980194067999
    ));
#321 = CARTESIAN_POINT('',(9.992719373006,-0.385440178145,2.923243274571
    ));
#322 = CARTESIAN_POINT('',(9.995984274392,-0.286754028522,2.836239730255
    ));
#323 = CARTESIAN_POINT('',(9.997410518879,-0.236638354081,2.803016430499
    ));
#324 = CARTESIAN_POINT('',(9.998655323298,-0.181311194324,2.776886696696
    ));
#325 = CARTESIAN_POINT('',(9.999550085702,-0.122270753775,2.759000112776
    ));
#326 = CARTESIAN_POINT('',(10.,-6.123670994436E-02,2.75));
#327 = CARTESIAN_POINT('',(10.,-8.881784197001E-16,2.75));
#328 = ORIENTED_EDGE('',*,*,#329,.T.);
#329 = EDGE_CURVE('',#301,#330,#332,.T.);
#330 = VERTEX_POINT('',#331);
#331 = CARTESIAN_POINT('',(10.,-2.449293598295E-15,17.5));
#332 = LINE('',#333,#334);
#333 = CARTESIAN_POINT('',(10.,-2.449293598295E-15,2.5));
#334 = VECTOR('',#335,1.);
#335 = DIRECTION('',(0.,0.,1.));
#336 = ORIENTED_EDGE('',*,*,#337,.F.);
#337 = EDGE_CURVE('',#330,#330,#338,.T.);
#338 = CIRCLE('',#339,10.);
#339 = AXIS2_PLACEMENT_3D('',#340,#341,#342);
#340 = CARTESIAN_POINT('',(0.,0.,17.5));
#341 = DIRECTION('',(0.,0.,1.));
#342 = DIRECTION('',(1.,0.,0.));
#343 = ORIENTED_EDGE('',*,*,#329,.F.);
#344 = ORIENTED_EDGE('',*,*,#345,.F.);
#345 = EDGE_CURVE('',#303,#301,#346,.T.);
#346 = B_SPLINE_CURVE_WITH_KNOTS('',6,(#347,#348,#349,#350,#351,#352,
    #353,#354,#355,#356,#357,#358,#359,#360,#361,#362,#363,#364,#365,
    #366,#367,#368),.UNSPECIFIED.,.F.,.F.,(7,5,5,5,7),(0.,0.222438915501
    ,0.500012827048,0.777573784416,1.),.UNSPECIFIED.);
#347 = CARTESIAN_POINT('',(10.,3.265525937171E-16,2.75));
#348 = CARTESIAN_POINT('',(10.,6.123970639827E-02,2.75));
#349 = CARTESIAN_POINT('',(9.999550042473,0.122273565059,2.759000993293)
  );
#350 = CARTESIAN_POINT('',(9.998655278361,0.181312023375,2.776887587807)
  );
#351 = CARTESIAN_POINT('',(9.997410541458,0.23663723481,2.803016181967)
  );
#352 = CARTESIAN_POINT('',(9.995984322912,0.28675256194,2.836238437289)
  );
#353 = CARTESIAN_POINT('',(9.992719331036,0.385441446761,2.923244393007)
  );
#354 = CARTESIAN_POINT('',(9.990861912388,0.430680188298,2.980195152594)
  );
#355 = CARTESIAN_POINT('',(9.989232451504,0.465238800801,3.043535033798)
  );
#356 = CARTESIAN_POINT('',(9.988070613433,0.488445572159,3.111073567838)
  );
#357 = CARTESIAN_POINT('',(9.987492177719,0.5,3.180613777175));
#358 = CARTESIAN_POINT('',(9.987492177719,0.5,3.319382984619));
#359 = CARTESIAN_POINT('',(9.988070558058,0.488446658696,3.388923769851)
  );
#360 = CARTESIAN_POINT('',(9.989232412031,0.465239652423,3.45646446116)
  );
#361 = CARTESIAN_POINT('',(9.990861940607,0.430679852217,3.519805932002)
  );
#362 = CARTESIAN_POINT('',(9.992719373006,0.385440178145,3.576756725429)
  );
#363 = CARTESIAN_POINT('',(9.995984274136,0.286754036257,3.663760262926)
  );
#364 = CARTESIAN_POINT('',(9.997410524945,0.236638173148,3.696983729736)
  );
#365 = CARTESIAN_POINT('',(9.998655333738,0.181310781628,3.723113506832)
  );
#366 = CARTESIAN_POINT('',(9.99955009318,0.12227015459,3.741000048058));
#367 = CARTESIAN_POINT('',(10.,6.123617479481E-02,3.75));
#368 = CARTESIAN_POINT('',(10.,1.953894533114E-16,3.75));
#369 = ORIENTED_EDGE('',*,*,#370,.F.);
#370 = EDGE_CURVE('',#180,#303,#371,.T.);
#371 = LINE('',#372,#373);
#372 = CARTESIAN_POINT('',(10.,-2.449293598295E-15,2.5));
#373 = VECTOR('',#374,1.);
#374 = DIRECTION('',(0.,0.,1.));
#375 = ORIENTED_EDGE('',*,*,#179,.T.);
#376 = ORIENTED_EDGE('',*,*,#370,.T.);
#377 = FACE_BOUND('',#378,.T.);
#378 = EDGE_LOOP('',(#379,#428));
#379 = ORIENTED_EDGE('',*,*,#380,.F.);
#380 = EDGE_CURVE('',#381,#383,#385,.T.);
#381 = VERTEX_POINT('',#382);
#382 = CARTESIAN_POINT('',(-10.,-9.184850993605E-17,3.375));
#383 = VERTEX_POINT('',#384);
#384 = CARTESIAN_POINT('',(-10.,4.592425496803E-17,2.625));
#385 = B_SPLINE_CURVE_WITH_KNOTS('',6,(#386,#387,#388,#389,#390,#391,
    #392,#393,#394,#395,#396,#397,#398,#399,#400,#401,#402,#403,#404,
    #405,#406,#407,#408,#409,#410,#411,#412,#413,#414,#415,#416,#417,
    #418,#419,#420,#421,#422,#423,#424,#425,#426,#427),.UNSPECIFIED.,.T.
  ,.F.,(7,5,5,5,5,5,5,5,7),(0.,0.117561209298,0.250014897492,
    0.38245375721,0.500007356362,0.617564424008,0.750006341507,
    0.882446035627,1.),.UNSPECIFIED.);
#386 = CARTESIAN_POINT('',(-10.,3.885780586188E-16,3.375));
#387 = CARTESIAN_POINT('',(-10.,4.766173653015E-02,3.375));
#388 = CARTESIAN_POINT('',(-9.999727449859,9.521342724985E-02,
    3.367730494651));
#389 = CARTESIAN_POINT('',(-9.999184400854,0.141198506989,3.353256244204
    ));
#390 = CARTESIAN_POINT('',(-9.998429666225,0.184210605259,3.332057108708
    ));
#391 = CARTESIAN_POINT('',(-9.997570028137,0.223002570317,3.305012078039
    ));
#392 = CARTESIAN_POINT('',(-9.995729498034,0.294677153592,3.237705164265
    ));
#393 = CARTESIAN_POINT('',(-9.994745847109,0.32623959705,3.19615481278)
  );
#394 = CARTESIAN_POINT('',(-9.993885982033,0.350494977438,3.150104059846
    ));
#395 = CARTESIAN_POINT('',(-9.993272139315,0.36684862579,3.101025151266)
  );
#396 = CARTESIAN_POINT('',(-9.992966276337,0.375,3.050471156954));
#397 = CARTESIAN_POINT('',(-9.992966276337,0.375,2.949534493401));
#398 = CARTESIAN_POINT('',(-9.993272065531,0.366850465698,2.898979623969
    ));
#399 = CARTESIAN_POINT('',(-9.99388593354,0.350496492716,2.849896733681)
  );
#400 = CARTESIAN_POINT('',(-9.994745889674,0.32623880469,2.803842805776)
  );
#401 = CARTESIAN_POINT('',(-9.995729564766,0.29467455492,2.76229239542)
  );
#402 = CARTESIAN_POINT('',(-9.997570009776,0.223003285344,2.694988593417
    ));
#403 = CARTESIAN_POINT('',(-9.998429657557,0.184211150341,2.667943000592
    ));
#404 = CARTESIAN_POINT('',(-9.999184418935,0.141198067247,2.646743287572
    ));
#405 = CARTESIAN_POINT('',(-9.99972746545,9.521205110301E-02,
    2.632269076254));
#406 = CARTESIAN_POINT('',(-10.,4.766033028188E-02,2.625));
#407 = CARTESIAN_POINT('',(-10.,-4.766173653014E-02,2.625));
#408 = CARTESIAN_POINT('',(-9.999727449859,-9.521342724986E-02,
    2.632269505349));
#409 = CARTESIAN_POINT('',(-9.999184400854,-0.141198506989,
    2.646743755796));
#410 = CARTESIAN_POINT('',(-9.998429666225,-0.184210605259,
    2.667942891292));
#411 = CARTESIAN_POINT('',(-9.997570028137,-0.223002570317,
    2.694987921961));
#412 = CARTESIAN_POINT('',(-9.995729550336,-0.294675116826,
    2.762292923085));
#413 = CARTESIAN_POINT('',(-9.994745879828,-0.326238988778,
    2.803843334401));
#414 = CARTESIAN_POINT('',(-9.993885943755,-0.350496201076,
    2.849896601419));
#415 = CARTESIAN_POINT('',(-9.993272076202,-0.366850191835,
    2.898978806988));
#416 = CARTESIAN_POINT('',(-9.992966276337,-0.375,2.949533646193));
#417 = CARTESIAN_POINT('',(-9.992966276337,-0.375,3.050465506599));
#418 = CARTESIAN_POINT('',(-9.993272065531,-0.366850465698,
    3.101020376031));
#419 = CARTESIAN_POINT('',(-9.99388593354,-0.350496492716,3.150103266319
    ));
#420 = CARTESIAN_POINT('',(-9.994745889674,-0.32623880469,3.196157194224
    ));
#421 = CARTESIAN_POINT('',(-9.995729564766,-0.29467455492,3.23770760458)
  );
#422 = CARTESIAN_POINT('',(-9.997570007012,-0.223003392969,
    3.305011305517));
#423 = CARTESIAN_POINT('',(-9.998429656996,-0.184211192358,
    3.332057016876));
#424 = CARTESIAN_POINT('',(-9.999184425425,-0.141197872354,
    3.353256879261));
#425 = CARTESIAN_POINT('',(-9.999727473017,-9.521145695208E-02,
    3.367731143142));
#426 = CARTESIAN_POINT('',(-10.,-4.765962929411E-02,3.375));
#427 = CARTESIAN_POINT('',(-10.,3.885780586188E-16,3.375));
#428 = ORIENTED_EDGE('',*,*,#429,.F.);
#429 = EDGE_CURVE('',#383,#381,#430,.T.);
#430 = B_SPLINE_CURVE_WITH_KNOTS('',6,(#431,#432,#433,#434,#435,#436,
    #437,#438,#439,#440,#441,#442,#443,#444,#445,#446,#447,#448,#449,
    #450,#451,#452,#453,#454,#455,#456,#457,#458,#459,#460,#461,#462,
    #463,#464,#465,#466,#467,#468,#469,#470,#471,#472),.UNSPECIFIED.,.T.
  ,.F.,(7,5,5,5,5,5,5,5,7),(0.,0.117561209298,0.250014897492,
    0.38245375721,0.500007356362,0.617564424008,0.750006341507,
    0.882446035627,1.),.UNSPECIFIED.);
#431 = CARTESIAN_POINT('',(-10.,3.885780586188E-16,3.375));
#432 = CARTESIAN_POINT('',(-10.,4.766173653015E-02,3.375));
#433 = CARTESIAN_POINT('',(-9.999727449859,9.521342724985E-02,
    3.367730494651));
#434 = CARTESIAN_POINT('',(-9.999184400854,0.141198506989,3.353256244204
    ));
#435 = CARTESIAN_POINT('',(-9.998429666225,0.184210605259,3.332057108708
    ));
#436 = CARTESIAN_POINT('',(-9.997570028137,0.223002570317,3.305012078039
    ));
#437 = CARTESIAN_POINT('',(-9.995729498034,0.294677153592,3.237705164265
    ));
#438 = CARTESIAN_POINT('',(-9.994745847109,0.32623959705,3.19615481278)
  );
#439 = CARTESIAN_POINT('',(-9.993885982033,0.350494977438,3.150104059846
    ));
#440 = CARTESIAN_POINT('',(-9.993272139315,0.36684862579,3.101025151266)
  );
#441 = CARTESIAN_POINT('',(-9.992966276337,0.375,3.050471156954));
#442 = CARTESIAN_POINT('',(-9.992966276337,0.375,2.949534493401));
#443 = CARTESIAN_POINT('',(-9.993272065531,0.366850465698,2.898979623969
    ));
#444 = CARTESIAN_POINT('',(-9.99388593354,0.350496492716,2.849896733681)
  );
#445 = CARTESIAN_POINT('',(-9.994745889674,0.32623880469,2.803842805776)
  );
#446 = CARTESIAN_POINT('',(-9.995729564766,0.29467455492,2.76229239542)
  );
#447 = CARTESIAN_POINT('',(-9.997570009776,0.223003285344,2.694988593417
    ));
#448 = CARTESIAN_POINT('',(-9.998429657557,0.184211150341,2.667943000592
    ));
#449 = CARTESIAN_POINT('',(-9.999184418935,0.141198067247,2.646743287572
    ));
#450 = CARTESIAN_POINT('',(-9.99972746545,9.521205110301E-02,
    2.632269076254));
#451 = CARTESIAN_POINT('',(-10.,4.766033028188E-02,2.625));
#452 = CARTESIAN_POINT('',(-10.,-4.766173653014E-02,2.625));
#453 = CARTESIAN_POINT('',(-9.999727449859,-9.521342724986E-02,
    2.632269505349));
#454 = CARTESIAN_POINT('',(-9.999184400854,-0.141198506989,
    2.646743755796));
#455 = CARTESIAN_POINT('',(-9.998429666225,-0.184210605259,
    2.667942891292));
#456 = CARTESIAN_POINT('',(-9.997570028137,-0.223002570317,
    2.694987921961));
#457 = CARTESIAN_POINT('',(-9.995729550336,-0.294675116826,
    2.762292923085));
#458 = CARTESIAN_POINT('',(-9.994745879828,-0.326238988778,
    2.803843334401));
#459 = CARTESIAN_POINT('',(-9.993885943755,-0.350496201076,
    2.849896601419));
#460 = CARTESIAN_POINT('',(-9.993272076202,-0.366850191835,
    2.898978806988));
#461 = CARTESIAN_POINT('',(-9.992966276337,-0.375,2.949533646193));
#462 = CARTESIAN_POINT('',(-9.992966276337,-0.375,3.050465506599));
#463 = CARTESIAN_POINT('',(-9.993272065531,-0.366850465698,
    3.101020376031));
#464 = CARTESIAN_POINT('',(-9.99388593354,-0.350496492716,3.150103266319
    ));
#465 = CARTESIAN_POINT('',(-9.994745889674,-0.32623880469,3.196157194224
    ));
#466 = CARTESIAN_POINT('',(-9.995729564766,-0.29467455492,3.23770760458)
  );
#467 = CARTESIAN_POINT('',(-9.997570007012,-0.223003392969,
    3.305011305517));
#468 = CARTESIAN_POINT('',(-9.998429656996,-0.184211192358,
    3.332057016876));
#469 = CARTESIAN_POINT('',(-9.999184425425,-0.141197872354,
    3.353256879261));
#470 = CARTESIAN_POINT('',(-9.999727473017,-9.521145695208E-02,
    3.367731143142));
#471 = CARTESIAN_POINT('',(-10.,-4.765962929411E-02,3.375));
#472 = CARTESIAN_POINT('',(-10.,3.885780586188E-16,3.375));
#473 = CYLINDRICAL_SURFACE('',#474,10.);
#474 = AXIS2_PLACEMENT_3D('',#475,#476,#477);
#475 = CARTESIAN_POINT('',(0.,0.,2.5));
#476 = DIRECTION('',(0.,0.,1.));
#477 = DIRECTION('',(1.,0.,0.));
#478 = ADVANCED_FACE('',(#479,#490),#493,.F.);
#479 = FACE_BOUND('',#480,.F.);
#480 = EDGE_LOOP('',(#481));
#481 = ORIENTED_EDGE('',*,*,#482,.F.);
#482 = EDGE_CURVE('',#483,#483,#485,.T.);
#483 = VERTEX_POINT('',#484);
#484 = CARTESIAN_POINT('',(7.,-1.714505518806E-15,2.5));
#485 = CIRCLE('',#486,7.);
#486 = AXIS2_PLACEMENT_3D('',#487,#488,#489);
#487 = CARTESIAN_POINT('',(0.,0.,2.5));
#488 = DIRECTION('',(0.,0.,1.));
#489 = DIRECTION('',(1.,0.,0.));
#490 = FACE_BOUND('',#491,.F.);
#491 = EDGE_LOOP('',(#492));
#492 = ORIENTED_EDGE('',*,*,#267,.F.);
#493 = PLANE('',#494);
#494 = AXIS2_PLACEMENT_3D('',#495,#496,#497);
#495 = CARTESIAN_POINT('',(-1.775737858764E-15,0.,2.5));
#496 = DIRECTION('',(1.224646799147E-16,0.,-1.));
#497 = DIRECTION('',(-1.,0.,-1.224646799147E-16));
#498 = ADVANCED_FACE('',(#499),#564,.F.);
#499 = FACE_BOUND('',#500,.T.);
#500 = EDGE_LOOP('',(#501,#530,#536,#537,#538,#539));
#501 = ORIENTED_EDGE('',*,*,#502,.F.);
#502 = EDGE_CURVE('',#503,#505,#507,.T.);
#503 = VERTEX_POINT('',#504);
#504 = CARTESIAN_POINT('',(7.,-1.029771289175E-15,3.75));
#505 = VERTEX_POINT('',#506);
#506 = CARTESIAN_POINT('',(7.,-1.714505518806E-15,2.75));
#507 = B_SPLINE_CURVE_WITH_KNOTS('',6,(#508,#509,#510,#511,#512,#513,
    #514,#515,#516,#517,#518,#519,#520,#521,#522,#523,#524,#525,#526,
    #527,#528,#529),.UNSPECIFIED.,.F.,.F.,(7,5,5,5,7),(0.,0.222525769203
    ,0.500032077764,0.777496280335,1.),.UNSPECIFIED.);
#508 = CARTESIAN_POINT('',(7.,-5.551115123126E-16,3.75));
#509 = CARTESIAN_POINT('',(7.,-6.123170761874E-02,3.75));
#510 = CARTESIAN_POINT('',(6.999357366151,-0.122257783653,3.741001358342
    ));
#511 = CARTESIAN_POINT('',(6.99807948371,-0.181291692153,3.72311933112)
  );
#512 = CARTESIAN_POINT('',(6.996301243312,-0.236618329817,3.696994831561
    ));
#513 = CARTESIAN_POINT('',(6.994262810918,-0.286741249058,3.663771536358
    ));
#514 = CARTESIAN_POINT('',(6.989596317553,-0.385420833744,3.576773779813
    ));
#515 = CARTESIAN_POINT('',(6.986941347186,-0.430655553814,3.519839394613
    ));
#516 = CARTESIAN_POINT('',(6.984610749252,-0.46521986261,3.456507803316)
  );
#517 = CARTESIAN_POINT('',(6.98294807129,-0.488436687866,3.388967419816)
  );
#518 = CARTESIAN_POINT('',(6.982120021884,-0.5,3.319412816164));
#519 = CARTESIAN_POINT('',(6.982120021884,-0.5,3.180597715832));
#520 = CARTESIAN_POINT('',(6.982947812249,-0.48844022601,3.111041294001)
  );
#521 = CARTESIAN_POINT('',(6.984610565896,-0.46522265202,3.043493489415)
  );
#522 = CARTESIAN_POINT('',(6.986941507442,-0.430654073392,2.980156375453
    ));
#523 = CARTESIAN_POINT('',(6.989596539859,-0.38541613277,2.923222075722)
  );
#524 = CARTESIAN_POINT('',(6.994262741986,-0.286742706737,2.836229748759
    ));
#525 = CARTESIAN_POINT('',(6.996301210965,-0.236619448825,2.803005421085
    ));
#526 = CARTESIAN_POINT('',(6.998079547716,-0.181290869317,2.776879778275
    ));
#527 = CARTESIAN_POINT('',(6.999357427942,-0.122254972659,2.758997761816
    ));
#528 = CARTESIAN_POINT('',(7.,-6.122871363433E-02,2.75));
#529 = CARTESIAN_POINT('',(7.,-5.551115123126E-16,2.75));
#530 = ORIENTED_EDGE('',*,*,#531,.T.);
#531 = EDGE_CURVE('',#503,#301,#532,.T.);
#532 = LINE('',#533,#534);
#533 = CARTESIAN_POINT('',(-1.122044604925E-15,1.047533203555E-17,3.75)
  );
#534 = VECTOR('',#535,1.);
#535 = DIRECTION('',(1.,-5.078748451128E-17,4.440892098501E-16));
#536 = ORIENTED_EDGE('',*,*,#300,.T.);
#537 = ORIENTED_EDGE('',*,*,#345,.T.);
#538 = ORIENTED_EDGE('',*,*,#531,.F.);
#539 = ORIENTED_EDGE('',*,*,#540,.F.);
#540 = EDGE_CURVE('',#505,#503,#541,.T.);
#541 = B_SPLINE_CURVE_WITH_KNOTS('',6,(#542,#543,#544,#545,#546,#547,
    #548,#549,#550,#551,#552,#553,#554,#555,#556,#557,#558,#559,#560,
    #561,#562,#563),.UNSPECIFIED.,.F.,.F.,(7,5,5,5,7),(0.,0.222524903658
    ,0.500012589021,0.777487648936,1.),.UNSPECIFIED.);
#542 = CARTESIAN_POINT('',(7.,2.917115180215E-16,2.75));
#543 = CARTESIAN_POINT('',(7.,6.123170761874E-02,2.75));
#544 = CARTESIAN_POINT('',(6.999357366151,0.122257783653,2.758998641658)
  );
#545 = CARTESIAN_POINT('',(6.99807948371,0.181291692153,2.77688066888));
#546 = CARTESIAN_POINT('',(6.996301243312,0.236618329817,2.803005168439)
  );
#547 = CARTESIAN_POINT('',(6.994262810918,0.286741249058,2.836228463642)
  );
#548 = CARTESIAN_POINT('',(6.989596481279,0.385417371522,2.923223167829)
  );
#549 = CARTESIAN_POINT('',(6.98694146797,0.430654405304,2.980157437821)
  );
#550 = CARTESIAN_POINT('',(6.98461062056,0.465221821301,3.043493000437)
  );
#551 = CARTESIAN_POINT('',(6.982947889821,0.488439166043,3.111038697588)
  );
#552 = CARTESIAN_POINT('',(6.982120021884,0.5,3.180594557945));
#553 = CARTESIAN_POINT('',(6.982120021884,0.5,3.319402284168));
#554 = CARTESIAN_POINT('',(6.982947812249,0.48844022601,3.388958705999)
  );
#555 = CARTESIAN_POINT('',(6.984610565896,0.46522265202,3.456506510585)
  );
#556 = CARTESIAN_POINT('',(6.986941507442,0.430654073392,3.519843624547)
  );
#557 = CARTESIAN_POINT('',(6.989596539859,0.38541613277,3.576777924278)
  );
#558 = CARTESIAN_POINT('',(6.994262741283,0.286742721599,3.663770238139)
  );
#559 = CARTESIAN_POINT('',(6.996301219793,0.236619267231,3.696994743335)
  );
#560 = CARTESIAN_POINT('',(6.998079562808,0.181290449329,3.723120426707)
  );
#561 = CARTESIAN_POINT('',(6.999357438486,0.122254374056,3.741002397013)
  );
#562 = CARTESIAN_POINT('',(7.,6.122818493375E-02,3.75));
#563 = CARTESIAN_POINT('',(7.,2.715706800784E-16,3.75));
#564 = CYLINDRICAL_SURFACE('',#565,0.5);
#565 = AXIS2_PLACEMENT_3D('',#566,#567,#568);
#566 = CARTESIAN_POINT('',(-9.E-16,0.,3.25));
#567 = DIRECTION('',(-1.,5.078748451128E-17,-4.440892098501E-16));
#568 = DIRECTION('',(-4.440892098501E-16,-2.239786957584E-16,1.));
#569 = ADVANCED_FACE('',(#570,#573),#584,.T.);
#570 = FACE_BOUND('',#571,.T.);
#571 = EDGE_LOOP('',(#572));
#572 = ORIENTED_EDGE('',*,*,#337,.T.);
#573 = FACE_BOUND('',#574,.T.);
#574 = EDGE_LOOP('',(#575));
#575 = ORIENTED_EDGE('',*,*,#576,.F.);
#576 = EDGE_CURVE('',#577,#577,#579,.T.);
#577 = VERTEX_POINT('',#578);
#578 = CARTESIAN_POINT('',(7.,-1.714505518806E-15,17.5));
#579 = CIRCLE('',#580,7.);
#580 = AXIS2_PLACEMENT_3D('',#581,#582,#583);
#581 = CARTESIAN_POINT('',(0.,0.,17.5));
#582 = DIRECTION('',(0.,0.,1.));
#583 = DIRECTION('',(1.,0.,0.));
#584 = PLANE('',#585);
#585 = AXIS2_PLACEMENT_3D('',#586,#587,#588);
#586 = CARTESIAN_POINT('',(0.,0.,17.5));
#587 = DIRECTION('',(0.,0.,1.));
#588 = DIRECTION('',(1.,0.,0.));
#589 = ADVANCED_FACE('',(#590),#648,.F.);
#590 = FACE_BOUND('',#591,.T.);
#591 = EDGE_LOOP('',(#592,#639,#645,#646,#647));
#592 = ORIENTED_EDGE('',*,*,#593,.F.);
#593 = EDGE_CURVE('',#594,#594,#596,.T.);
#594 = VERTEX_POINT('',#595);
#595 = CARTESIAN_POINT('',(-7.,-9.184850993605E-17,3.375));
#596 = B_SPLINE_CURVE_WITH_KNOTS('',6,(#597,#598,#599,#600,#601,#602,
    #603,#604,#605,#606,#607,#608,#609,#610,#611,#612,#613,#614,#615,
    #616,#617,#618,#619,#620,#621,#622,#623,#624,#625,#626,#627,#628,
    #629,#630,#631,#632,#633,#634,#635,#636,#637,#638),.UNSPECIFIED.,.T.
  ,.F.,(7,5,5,5,5,5,5,5,7),(0.,0.117588175918,0.25001448193,
    0.382426288242,0.500007048144,0.617591266737,0.7500061312,
    0.882418833042,1.),.UNSPECIFIED.);
#597 = CARTESIAN_POINT('',(-7.,3.885780586188E-16,3.375));
#598 = CARTESIAN_POINT('',(-7.,4.765687403107E-02,3.375));
#599 = CARTESIAN_POINT('',(-6.999610720122,9.520423005541E-02,
    3.367731978689));
#600 = CARTESIAN_POINT('',(-6.998835087793,0.141186960878,3.353260382655
    ));
#601 = CARTESIAN_POINT('',(-6.997756889465,0.184199975463,3.332063577689
    ));
#602 = CARTESIAN_POINT('',(-6.996528459548,0.222996266256,3.305017997946
    ));
#603 = CARTESIAN_POINT('',(-6.993898343773,0.29466769683,3.237714044755)
  );
#604 = CARTESIAN_POINT('',(-6.992492617869,0.326229688481,3.196170048848
    ));
#605 = CARTESIAN_POINT('',(-6.991263320671,0.350488553451,3.150120650659
    ));
#606 = CARTESIAN_POINT('',(-6.990385537527,0.36684617428,3.101038800694)
  );
#607 = CARTESIAN_POINT('',(-6.989948140008,0.375,3.050478736219));
#608 = CARTESIAN_POINT('',(-6.989948140008,0.375,2.949526790829));
#609 = CARTESIAN_POINT('',(-6.990385433982,0.366847974161,2.898965880992
    ));
#610 = CARTESIAN_POINT('',(-6.991263252923,0.35049004282,2.84988013229)
  );
#611 = CARTESIAN_POINT('',(-6.992492677515,0.326228910704,2.803827607714
    ));
#612 = CARTESIAN_POINT('',(-6.993898437722,0.29466513669,2.762283551112)
  );
#613 = CARTESIAN_POINT('',(-6.996528433556,0.22299697454,2.694982667177)
  );
#614 = CARTESIAN_POINT('',(-6.997756877141,0.184200517113,2.667936532138
    ));
#615 = CARTESIAN_POINT('',(-6.99883511342,0.14118652557,2.646739152031)
  );
#616 = CARTESIAN_POINT('',(-6.999610742347,9.520286030985E-02,
    2.632267593565));
#617 = CARTESIAN_POINT('',(-7.,4.765547222365E-02,2.625));
#618 = CARTESIAN_POINT('',(-7.,-4.765687403106E-02,2.625));
#619 = CARTESIAN_POINT('',(-6.999610720122,-9.520423005541E-02,
    2.632268021311));
#620 = CARTESIAN_POINT('',(-6.998835087793,-0.141186960878,
    2.646739617345));
#621 = CARTESIAN_POINT('',(-6.997756889465,-0.184199975463,
    2.667936422311));
#622 = CARTESIAN_POINT('',(-6.996528459548,-0.222996266256,
    2.694982002054));
#623 = CARTESIAN_POINT('',(-6.993898417255,-0.294665694419,
    2.762284074856));
#624 = CARTESIAN_POINT('',(-6.992492663728,-0.326229089218,
    2.803828128377));
#625 = CARTESIAN_POINT('',(-6.991263267358,-0.350489755057,
    2.849879997736));
#626 = CARTESIAN_POINT('',(-6.99038544884,-0.366847707707,2.898965079959
    ));
#627 = CARTESIAN_POINT('',(-6.989948140008,-0.375,2.949525966478));
#628 = CARTESIAN_POINT('',(-6.989948140008,-0.375,3.050473209172));
#629 = CARTESIAN_POINT('',(-6.990385433982,-0.366847974161,
    3.101034119008));
#630 = CARTESIAN_POINT('',(-6.991263252923,-0.35049004282,3.15011986771)
  );
#631 = CARTESIAN_POINT('',(-6.992492677515,-0.326228910704,
    3.196172392286));
#632 = CARTESIAN_POINT('',(-6.993898437722,-0.29466513669,3.237716448888
    ));
#633 = CARTESIAN_POINT('',(-6.996528429473,-0.22299708582,3.305017228324
    ));
#634 = CARTESIAN_POINT('',(-6.997756876408,-0.184200558978,
    3.332063487556));
#635 = CARTESIAN_POINT('',(-6.998835122728,-0.141186327266,
    3.353261015157));
#636 = CARTESIAN_POINT('',(-6.999610753077,-9.520226823525E-02,
    3.367732624066));
#637 = CARTESIAN_POINT('',(-7.,-4.765477668026E-02,3.375));
#638 = CARTESIAN_POINT('',(-7.,3.885780586188E-16,3.375));
#639 = ORIENTED_EDGE('',*,*,#640,.T.);
#640 = EDGE_CURVE('',#594,#381,#641,.T.);
#641 = LINE('',#642,#643);
#642 = CARTESIAN_POINT('',(-9.71445146547E-16,-9.184850993605E-17,3.375)
  );
#643 = VECTOR('',#644,1.);
#644 = DIRECTION('',(-1.,0.,-2.22044604925E-16));
#645 = ORIENTED_EDGE('',*,*,#380,.T.);
#646 = ORIENTED_EDGE('',*,*,#429,.T.);
#647 = ORIENTED_EDGE('',*,*,#640,.F.);
#648 = CYLINDRICAL_SURFACE('',#649,0.375);
#649 = AXIS2_PLACEMENT_3D('',#650,#651,#652);
#650 = CARTESIAN_POINT('',(-8.881784197001E-16,0.,3.));
#651 = DIRECTION('',(1.,-0.,2.22044604925E-16));
#652 = DIRECTION('',(-2.22044604925E-16,0.,1.));
#653 = ADVANCED_FACE('',(#654,#674),#677,.F.);
#654 = FACE_BOUND('',#655,.F.);
#655 = EDGE_LOOP('',(#656,#657,#663,#664,#665,#666,#672,#673));
#656 = ORIENTED_EDGE('',*,*,#502,.F.);
#657 = ORIENTED_EDGE('',*,*,#658,.T.);
#658 = EDGE_CURVE('',#503,#577,#659,.T.);
#659 = LINE('',#660,#661);
#660 = CARTESIAN_POINT('',(7.,-1.714505518806E-15,2.5));
#661 = VECTOR('',#662,1.);
#662 = DIRECTION('',(0.,0.,1.));
#663 = ORIENTED_EDGE('',*,*,#576,.F.);
#664 = ORIENTED_EDGE('',*,*,#658,.F.);
#665 = ORIENTED_EDGE('',*,*,#540,.F.);
#666 = ORIENTED_EDGE('',*,*,#667,.F.);
#667 = EDGE_CURVE('',#483,#505,#668,.T.);
#668 = LINE('',#669,#670);
#669 = CARTESIAN_POINT('',(7.,-1.714505518806E-15,2.5));
#670 = VECTOR('',#671,1.);
#671 = DIRECTION('',(0.,0.,1.));
#672 = ORIENTED_EDGE('',*,*,#482,.T.);
#673 = ORIENTED_EDGE('',*,*,#667,.T.);
#674 = FACE_BOUND('',#675,.F.);
#675 = EDGE_LOOP('',(#676));
#676 = ORIENTED_EDGE('',*,*,#593,.F.);
#677 = CYLINDRICAL_SURFACE('',#678,7.);
#678 = AXIS2_PLACEMENT_3D('',#679,#680,#681);
#679 = CARTESIAN_POINT('',(0.,0.,2.5));
#680 = DIRECTION('',(0.,0.,1.));
#681 = DIRECTION('',(1.,0.,0.));
#682 = ( GEOMETRIC_REPRESENTATION_CONTEXT(3) 
GLOBAL_UNCERTAINTY_ASSIGNED_CONTEXT((#686)) GLOBAL_UNIT_ASSIGNED_CONTEXT
((#683,#684,#685)) REPRESENTATION_CONTEXT('Context #1',
  '3D Context with UNIT and UNCERTAINTY') );
#683 = ( LENGTH_UNIT() NAMED_UNIT(*) SI_UNIT(.MILLI.,.METRE.) );
#684 = ( NAMED_UNIT(*) PLANE_ANGLE_UNIT() SI_UNIT($,.RADIAN.) );
#685 = ( NAMED_UNIT(*) SI_UNIT($,.STERADIAN.) SOLID_ANGLE_UNIT() );
#686 = UNCERTAINTY_MEASURE_WITH_UNIT(LENGTH_MEASURE(1.E-07),#683,
  'distance_accuracy_value','confusion accuracy');
#687 = PRODUCT_RELATED_PRODUCT_CATEGORY('part',$,(#7));
#688 = MECHANICAL_DESIGN_GEOMETRIC_PRESENTATION_REPRESENTATION('',(#689)
  ,#682);
#689 = STYLED_ITEM('color',(#690),#15);
#690 = PRESENTATION_STYLE_ASSIGNMENT((#691,#697));
#691 = SURFACE_STYLE_USAGE(.BOTH.,#692);
#692 = SURFACE_SIDE_STYLE('',(#693));
#693 = SURFACE_STYLE_FILL_AREA(#694);
#694 = FILL_AREA_STYLE('',(#695));
#695 = FILL_AREA_STYLE_COLOUR('',#696);
#696 = COLOUR_RGB('',0.678430976034,0.709803998361,0.741176010593);
#697 = CURVE_STYLE('',#698,POSITIVE_LENGTH_MEASURE(0.1),#699);
#698 = DRAUGHTING_PRE_DEFINED_CURVE_FONT('continuous');
#699 = COLOUR_RGB('',9.803921802644E-02,9.803921802644E-02,
  9.803921802644E-02);
ENDSEC;
END-ISO-10303-21;
