ISO-10303-21;
HEADER;
FILE_DESCRIPTION(('FreeCAD Model'),'2;1');
FILE_NAME('S:/nelis/dobbelsteen/Pion2.stp','2026-09-25T13:52:25',(
    'Author'),(''),'Open CASCADE STEP processor 7.3','FreeCAD','Unknown'
  );
FILE_SCHEMA(('AUTOMOTIVE_DESIGN { 1 0 10303 214 1 1 1 1 }'));
ENDSEC;
DATA;
#1 = APPLICATION_PROTOCOL_DEFINITION('international standard',
  'automotive_design',2000,#2);
#2 = APPLICATION_CONTEXT(
  'core data for automotive mechanical design processes');
#3 = SHAPE_DEFINITION_REPRESENTATION(#4,#10);
#4 = PRODUCT_DEFINITION_SHAPE('','',#5);
#5 = PRODUCT_DEFINITION('design','',#6,#9);
#6 = PRODUCT_DEFINITION_FORMATION('','',#7);
#7 = PRODUCT('Pion','Pion','',(#8));
#8 = PRODUCT_CONTEXT('',#2,'mechanical');
#9 = PRODUCT_DEFINITION_CONTEXT('part definition',#2,'design');
#10 = ADVANCED_BREP_SHAPE_REPRESENTATION('',(#11,#15),#274);
#11 = AXIS2_PLACEMENT_3D('',#12,#13,#14);
#12 = CARTESIAN_POINT('',(0.,0.,0.));
#13 = DIRECTION('',(0.,0.,1.));
#14 = DIRECTION('',(1.,0.,-0.));
#15 = MANIFOLD_SOLID_BREP('',#16);
#16 = CLOSED_SHELL('',(#17,#71,#148,#221,#246,#265));
#17 = ADVANCED_FACE('',(#18),#66,.T.);
#18 = FACE_BOUND('',#19,.T.);
#19 = EDGE_LOOP('',(#20,#30,#47,#48));
#20 = ORIENTED_EDGE('',*,*,#21,.T.);
#21 = EDGE_CURVE('',#22,#24,#26,.T.);
#22 = VERTEX_POINT('',#23);
#23 = CARTESIAN_POINT('',(5.663101344315,0.,3.341482641565));
#24 = VERTEX_POINT('',#25);
#25 = CARTESIAN_POINT('',(2.230119353323,0.,11.188298620976));
#26 = LINE('',#27,#28);
#27 = CARTESIAN_POINT('',(6.25,-1.53E-15,2.));
#28 = VECTOR('',#29,1.);
#29 = DIRECTION('',(-0.40081883402,1.E-16,0.916157334902));
#30 = ORIENTED_EDGE('',*,*,#31,.F.);
#31 = EDGE_CURVE('',#24,#24,#32,.T.);
#32 = ( BOUNDED_CURVE() B_SPLINE_CURVE(13,(#33,#34,#35,#36,#37,#38,#39,
    #40,#41,#42,#43,#44,#45,#46),.UNSPECIFIED.,.T.,.F.) 
B_SPLINE_CURVE_WITH_KNOTS((14,14),(2.1E-16,7.244675930776),
.PIECEWISE_BEZIER_KNOTS.) CURVE() GEOMETRIC_REPRESENTATION_ITEM() 
RATIONAL_B_SPLINE_CURVE((1.,1.,1.,1.,0.999999999999,1.000000000002,
    0.999999999997,1.000000000004,0.999999999996,1.000000000003,
0.999999999999,1.000000000001,1.,1.)) REPRESENTATION_ITEM('') );
#33 = CARTESIAN_POINT('',(2.230119353323,0.,11.188298620976));
#34 = CARTESIAN_POINT('',(2.230119353323,1.062273542604,11.188298620976)
  );
#35 = CARTESIAN_POINT('',(1.681101338469,2.149043913622,11.188298620975)
  );
#36 = CARTESIAN_POINT('',(0.551299139815,2.92613096925,11.188298620979)
  );
#37 = CARTESIAN_POINT('',(-1.003452091724,3.04547673151,11.18829862097)
  );
#38 = CARTESIAN_POINT('',(-2.346572099818,2.217224937929,11.188298620987
    ));
#39 = CARTESIAN_POINT('',(-3.331609537625,1.008162358327,11.188298620962
    ));
#40 = CARTESIAN_POINT('',(-3.331609537613,-1.008162358318,11.18829862099
    ));
#41 = CARTESIAN_POINT('',(-2.346572099822,-2.217224937946,
    11.188298620967));
#42 = CARTESIAN_POINT('',(-1.003452091728,-3.045476731496,
    11.188298620981));
#43 = CARTESIAN_POINT('',(0.55129913982,-2.926130969257,11.188298620974)
  );
#44 = CARTESIAN_POINT('',(1.681101338466,-2.14904391362,11.188298620977)
  );
#45 = CARTESIAN_POINT('',(2.230119353323,-1.062273542604,11.188298620976
    ));
#46 = CARTESIAN_POINT('',(2.230119353323,-5.5E-16,11.188298620976));
#47 = ORIENTED_EDGE('',*,*,#21,.F.);
#48 = ORIENTED_EDGE('',*,*,#49,.T.);
#49 = EDGE_CURVE('',#22,#22,#50,.T.);
#50 = ( BOUNDED_CURVE() B_SPLINE_CURVE(14,(#51,#52,#53,#54,#55,#56,#57,
    #58,#59,#60,#61,#62,#63,#64,#65),.UNSPECIFIED.,.T.,.F.) 
B_SPLINE_CURVE_WITH_KNOTS((15,15),(7.8E-16,39.269908169872),
.PIECEWISE_BEZIER_KNOTS.) CURVE() GEOMETRIC_REPRESENTATION_ITEM() 
RATIONAL_B_SPLINE_CURVE((1.,1.,1.,0.999999999999,1.000000000003,
    0.999999999996,1.000000000004,0.999999999996,1.000000000003,
0.999999999998,1.000000000001,1.,1.,1.,1.)) REPRESENTATION_ITEM('') );
#51 = CARTESIAN_POINT('',(5.663101344315,0.,3.341482641565));
#52 = CARTESIAN_POINT('',(5.663101344316,2.504827995495,3.341482641565)
  );
#53 = CARTESIAN_POINT('',(4.470180643822,5.062975887475,3.341482641565)
  );
#54 = CARTESIAN_POINT('',(2.00021726948,7.007680635839,3.341482641573));
#55 = CARTESIAN_POINT('',(-1.368635061713,7.647007075126,3.34148264153)
  );
#56 = CARTESIAN_POINT('',(-4.858378595184,6.381514395623,3.341482641643)
  );
#57 = CARTESIAN_POINT('',(-7.199428453812,3.875923944709,3.341482641454)
  );
#58 = CARTESIAN_POINT('',(-8.680399256396,-8.026452E-11,3.341482641666)
  );
#59 = CARTESIAN_POINT('',(-7.199428453795,-3.875923944569,3.341482641506
    ));
#60 = CARTESIAN_POINT('',(-4.858378595206,-6.381514395716,3.341482641585
    ));
#61 = CARTESIAN_POINT('',(-1.368635061695,-7.647007075077,3.341482641564
    ));
#62 = CARTESIAN_POINT('',(2.00021726947,-7.00768063586,3.341482641562));
#63 = CARTESIAN_POINT('',(4.470180643826,-5.062975887467,3.341482641566)
  );
#64 = CARTESIAN_POINT('',(5.663101344315,-2.504827995496,3.341482641565)
  );
#65 = CARTESIAN_POINT('',(5.663101344315,-1.39E-15,3.341482641565));
#66 = CONICAL_SURFACE('',#67,6.25,0.412410441597);
#67 = AXIS2_PLACEMENT_3D('',#68,#69,#70);
#68 = CARTESIAN_POINT('',(0.,0.,2.));
#69 = DIRECTION('',(-0.,-0.,-1.));
#70 = DIRECTION('',(1.,0.,0.));
#71 = ADVANCED_FACE('',(#72),#102,.T.);
#72 = FACE_BOUND('',#73,.T.);
#73 = EDGE_LOOP('',(#74,#82,#100,#101));
#74 = ORIENTED_EDGE('',*,*,#75,.T.);
#75 = EDGE_CURVE('',#22,#76,#78,.T.);
#76 = VERTEX_POINT('',#77);
#77 = CARTESIAN_POINT('',(6.25,0.,0.535750803427));
#78 = ( BOUNDED_CURVE() B_SPLINE_CURVE(2,(#79,#80,#81),.UNSPECIFIED.,.F.
,.F.) B_SPLINE_CURVE_WITH_KNOTS((3,3),(0.,39.269908169872),
.PIECEWISE_BEZIER_KNOTS.) CURVE() GEOMETRIC_REPRESENTATION_ITEM() 
RATIONAL_B_SPLINE_CURVE((1.,0.978814930133,1.)) REPRESENTATION_ITEM('') 
  );
#79 = CARTESIAN_POINT('',(5.663101344315,0.,3.341482641565));
#80 = CARTESIAN_POINT('',(6.25,-7.34E-15,2.));
#81 = CARTESIAN_POINT('',(6.25,0.,0.535750803427));
#82 = ORIENTED_EDGE('',*,*,#83,.T.);
#83 = EDGE_CURVE('',#76,#76,#84,.T.);
#84 = ( BOUNDED_CURVE() B_SPLINE_CURVE(14,(#85,#86,#87,#88,#89,#90,#91,
    #92,#93,#94,#95,#96,#97,#98,#99),.UNSPECIFIED.,.T.,.F.) 
B_SPLINE_CURVE_WITH_KNOTS((15,15),(7.8E-16,39.269908169872),
.PIECEWISE_BEZIER_KNOTS.) CURVE() GEOMETRIC_REPRESENTATION_ITEM() 
RATIONAL_B_SPLINE_CURVE((1.,1.,1.,0.999999999999,1.000000000003,
    0.999999999996,1.000000000004,0.999999999996,1.000000000003,
0.999999999998,1.000000000001,1.,1.,1.,1.)) REPRESENTATION_ITEM('') );
#85 = CARTESIAN_POINT('',(6.25,0.,0.535750803427));
#86 = CARTESIAN_POINT('',(6.250000000001,2.764417237131,0.535750803427)
  );
#87 = CARTESIAN_POINT('',(4.93345029962,5.587680207854,0.535750803426));
#88 = CARTESIAN_POINT('',(2.20751089803,7.733925513803,0.535750803434));
#89 = CARTESIAN_POINT('',(-1.510474317081,8.439508903962,0.535750803406)
  );
#90 = CARTESIAN_POINT('',(-5.361879361486,7.042866187262,0.535750803469)
  );
#91 = CARTESIAN_POINT('',(-7.945545223419,4.277607477105,0.535750803368)
  );
#92 = CARTESIAN_POINT('',(-9.57999725842,-1.764084E-11,0.535750803484));
#93 = CARTESIAN_POINT('',(-7.945545223426,-4.277607477077,0.535750803388
    ));
#94 = CARTESIAN_POINT('',(-5.361879361481,-7.042866187277,0.535750803446
    ));
#95 = CARTESIAN_POINT('',(-1.51047431708,-8.439508903956,0.53575080342)
  );
#96 = CARTESIAN_POINT('',(2.207510898026,-7.733925513806,0.535750803429)
  );
#97 = CARTESIAN_POINT('',(4.933450299622,-5.587680207852,0.535750803426)
  );
#98 = CARTESIAN_POINT('',(6.25,-2.764417237132,0.535750803427));
#99 = CARTESIAN_POINT('',(6.25,-1.53E-15,0.535750803427));
#100 = ORIENTED_EDGE('',*,*,#75,.F.);
#101 = ORIENTED_EDGE('',*,*,#49,.F.);
#102 = ( BOUNDED_SURFACE() B_SPLINE_SURFACE(2,14,(
    (#103,#104,#105,#106,#107,#108,#109,#110,#111,#112,#113,#114,#115
      ,#116,#117)
    ,(#118,#119,#120,#121,#122,#123,#124,#125,#126,#127,#128,#129,#130
      ,#131,#132)
    ,(#133,#134,#135,#136,#137,#138,#139,#140,#141,#142,#143,#144,#145
      ,#146,#147
)),.UNSPECIFIED.,.F.,.T.,.F.) B_SPLINE_SURFACE_WITH_KNOTS((3,3),(15,15),
  (0.,39.269908169872),(7.8E-16,39.269908169872),
.PIECEWISE_BEZIER_KNOTS.) GEOMETRIC_REPRESENTATION_ITEM() 
RATIONAL_B_SPLINE_SURFACE((
    (1.,1.,1.,0.999999999999,1.000000000003,0.999999999996
      ,1.000000000004,0.999999999996,1.000000000003,0.999999999998
      ,1.000000000001,1.,1.,1.,1.)
    ,(0.978814930133,0.978814930133,0.978814930134,0.97881493013
      ,0.978814930139,0.978814930123,0.978814930145,0.97881493012
      ,0.978814930144,0.978814930125,0.978814930138,0.978814930131
      ,0.978814930134,0.978814930133,0.978814930133)
    ,(1.,1.,1.,0.999999999999,1.000000000003,0.999999999996
      ,1.000000000004,0.999999999996,1.000000000003,0.999999999998
,1.000000000001,1.,1.,1.,1.))) REPRESENTATION_ITEM('') SURFACE() );
#103 = CARTESIAN_POINT('',(5.663101344315,0.,3.341482641565));
#104 = CARTESIAN_POINT('',(5.663101344316,2.504827995495,3.341482641565)
  );
#105 = CARTESIAN_POINT('',(4.470180643822,5.062975887475,3.341482641565)
  );
#106 = CARTESIAN_POINT('',(2.00021726948,7.007680635839,3.341482641573)
  );
#107 = CARTESIAN_POINT('',(-1.368635061713,7.647007075126,3.34148264153)
  );
#108 = CARTESIAN_POINT('',(-4.858378595184,6.381514395623,3.341482641643
    ));
#109 = CARTESIAN_POINT('',(-7.199428453812,3.875923944709,3.341482641454
    ));
#110 = CARTESIAN_POINT('',(-8.680399256396,-8.026452E-11,3.341482641666)
  );
#111 = CARTESIAN_POINT('',(-7.199428453795,-3.875923944569,
    3.341482641506));
#112 = CARTESIAN_POINT('',(-4.858378595206,-6.381514395716,
    3.341482641585));
#113 = CARTESIAN_POINT('',(-1.368635061695,-7.647007075077,
    3.341482641564));
#114 = CARTESIAN_POINT('',(2.00021726947,-7.00768063586,3.341482641562)
  );
#115 = CARTESIAN_POINT('',(4.470180643826,-5.062975887467,3.341482641566
    ));
#116 = CARTESIAN_POINT('',(5.663101344315,-2.504827995496,3.341482641565
    ));
#117 = CARTESIAN_POINT('',(5.663101344315,-1.39E-15,3.341482641565));
#118 = CARTESIAN_POINT('',(6.25,-7.34E-15,2.));
#119 = CARTESIAN_POINT('',(6.250000000003,2.764417237131,2.));
#120 = CARTESIAN_POINT('',(4.933450299612,5.58768020785,1.999999999999)
  );
#121 = CARTESIAN_POINT('',(2.207510898048,7.733925513816,2.000000000008)
  );
#122 = CARTESIAN_POINT('',(-1.51047431711,8.439508903933,1.999999999972)
  );
#123 = CARTESIAN_POINT('',(-5.361879361459,7.042866187301,2.00000000006)
  );
#124 = CARTESIAN_POINT('',(-7.945545223434,4.277607477076,1.999999999915
    ));
#125 = CARTESIAN_POINT('',(-9.579997258425,-2.281252E-11,2.00000000008)
  );
#126 = CARTESIAN_POINT('',(-7.945545223427,-4.277607477039,1.99999999995
    ));
#127 = CARTESIAN_POINT('',(-5.36187936147,-7.042866187321,2.000000000021
    ));
#128 = CARTESIAN_POINT('',(-1.510474317098,-8.439508903925,
    1.999999999995));
#129 = CARTESIAN_POINT('',(2.20751089804,-7.733925513819,2.000000000001)
  );
#130 = CARTESIAN_POINT('',(4.933450299616,-5.587680207848,2.));
#131 = CARTESIAN_POINT('',(6.250000000002,-2.764417237132,2.));
#132 = CARTESIAN_POINT('',(6.25,1.25E-15,2.));
#133 = CARTESIAN_POINT('',(6.25,0.,0.535750803427));
#134 = CARTESIAN_POINT('',(6.250000000001,2.764417237131,0.535750803427)
  );
#135 = CARTESIAN_POINT('',(4.93345029962,5.587680207854,0.535750803426)
  );
#136 = CARTESIAN_POINT('',(2.20751089803,7.733925513803,0.535750803434)
  );
#137 = CARTESIAN_POINT('',(-1.510474317081,8.439508903962,0.535750803406
    ));
#138 = CARTESIAN_POINT('',(-5.361879361486,7.042866187262,0.535750803469
    ));
#139 = CARTESIAN_POINT('',(-7.945545223419,4.277607477105,0.535750803368
    ));
#140 = CARTESIAN_POINT('',(-9.57999725842,-1.764084E-11,0.535750803484)
  );
#141 = CARTESIAN_POINT('',(-7.945545223426,-4.277607477077,
    0.535750803388));
#142 = CARTESIAN_POINT('',(-5.361879361481,-7.042866187277,
    0.535750803446));
#143 = CARTESIAN_POINT('',(-1.51047431708,-8.439508903956,0.53575080342)
  );
#144 = CARTESIAN_POINT('',(2.207510898026,-7.733925513806,0.535750803429
    ));
#145 = CARTESIAN_POINT('',(4.933450299622,-5.587680207852,0.535750803426
    ));
#146 = CARTESIAN_POINT('',(6.25,-2.764417237132,0.535750803427));
#147 = CARTESIAN_POINT('',(6.25,-1.53E-15,0.535750803427));
#148 = ADVANCED_FACE('',(#149),#178,.T.);
#149 = FACE_BOUND('',#150,.T.);
#150 = EDGE_LOOP('',(#151,#159,#160,#161));
#151 = ORIENTED_EDGE('',*,*,#152,.T.);
#152 = EDGE_CURVE('',#153,#24,#155,.T.);
#153 = VERTEX_POINT('',#154);
#154 = CARTESIAN_POINT('',(2.987154814818,0.,14.634453073821));
#155 = ( BOUNDED_CURVE() B_SPLINE_CURVE(2,(#156,#157,#158),
.UNSPECIFIED.,.F.,.F.) B_SPLINE_CURVE_WITH_KNOTS((3,3),(0.,
7.244675930776),.PIECEWISE_BEZIER_KNOTS.) CURVE() 
GEOMETRIC_REPRESENTATION_ITEM() RATIONAL_B_SPLINE_CURVE((1.,
0.808821447079,1.)) REPRESENTATION_ITEM('') );
#156 = CARTESIAN_POINT('',(2.987154814818,0.,14.634453073821));
#157 = CARTESIAN_POINT('',(1.35587235319,-1.43E-15,13.186577478424));
#158 = CARTESIAN_POINT('',(2.230119353323,0.,11.188298620976));
#159 = ORIENTED_EDGE('',*,*,#31,.T.);
#160 = ORIENTED_EDGE('',*,*,#152,.F.);
#161 = ORIENTED_EDGE('',*,*,#162,.F.);
#162 = EDGE_CURVE('',#153,#153,#163,.T.);
#163 = ( BOUNDED_CURVE() B_SPLINE_CURVE(13,(#164,#165,#166,#167,#168,
    #169,#170,#171,#172,#173,#174,#175,#176,#177),.UNSPECIFIED.,.T.,.F.)
 B_SPLINE_CURVE_WITH_KNOTS((14,14),(2.1E-16,7.244675930776),
.PIECEWISE_BEZIER_KNOTS.) CURVE() GEOMETRIC_REPRESENTATION_ITEM() 
RATIONAL_B_SPLINE_CURVE((1.,1.,1.,1.,0.999999999999,1.000000000002,
    0.999999999997,1.000000000004,0.999999999996,1.000000000003,
0.999999999999,1.000000000001,1.,1.)) REPRESENTATION_ITEM('') );
#164 = CARTESIAN_POINT('',(2.987154814818,0.,14.634453073821));
#165 = CARTESIAN_POINT('',(2.987154814818,1.422872512502,14.634453073821
    ));
#166 = CARTESIAN_POINT('',(2.251767354925,2.878557537409,14.634453073822
    ));
#167 = CARTESIAN_POINT('',(0.738442934662,3.919434267301,14.634453073819
    ));
#168 = CARTESIAN_POINT('',(-1.344083554447,4.079293096302,
    14.634453073828));
#169 = CARTESIAN_POINT('',(-3.143138566019,2.969883266118,14.63445307381
    ));
#170 = CARTESIAN_POINT('',(-4.462556435207,1.35039276633,14.634453073836
    ));
#171 = CARTESIAN_POINT('',(-4.462556435155,-1.350392766319,
    14.634453073807));
#172 = CARTESIAN_POINT('',(-3.143138566049,-2.969883266138,
    14.63445307383));
#173 = CARTESIAN_POINT('',(-1.344083554437,-4.079293096285,
    14.634453073817));
#174 = CARTESIAN_POINT('',(0.738442934662,-3.919434267309,
    14.634453073823));
#175 = CARTESIAN_POINT('',(2.251767354924,-2.878557537406,
    14.634453073821));
#176 = CARTESIAN_POINT('',(2.987154814818,-1.422872512503,
    14.634453073821));
#177 = CARTESIAN_POINT('',(2.987154814818,-7.3E-16,14.634453073821));
#178 = ( BOUNDED_SURFACE() B_SPLINE_SURFACE(2,13,(
    (#179,#180,#181,#182,#183,#184,#185,#186,#187,#188,#189,#190,#191
      ,#192)
    ,(#193,#194,#195,#196,#197,#198,#199,#200,#201,#202,#203,#204,#205
      ,#206)
    ,(#207,#208,#209,#210,#211,#212,#213,#214,#215,#216,#217,#218,#219
,#220
    )),.UNSPECIFIED.,.F.,.T.,.F.) B_SPLINE_SURFACE_WITH_KNOTS((3,3),(14,
    14),(0.,7.244675930776),(2.1E-16,7.244675930776),
.PIECEWISE_BEZIER_KNOTS.) GEOMETRIC_REPRESENTATION_ITEM() 
RATIONAL_B_SPLINE_SURFACE((
    (1.,1.,1.,1.,0.999999999999,1.000000000002,0.999999999997
      ,1.000000000004,0.999999999996,1.000000000003,0.999999999999
      ,1.000000000001,1.,1.)
    ,(0.808821447079,0.808821447079,0.808821447079,0.808821447079
      ,0.808821447079,0.808821447079,0.808821447079,0.80882144708
      ,0.808821447078,0.80882144708,0.808821447078,0.808821447079
      ,0.808821447079,0.808821447079)
    ,(1.,1.,1.,1.,0.999999999999,1.000000000002,0.999999999997
      ,1.000000000004,0.999999999996,1.000000000003,0.999999999999
,1.000000000001,1.,1.))) REPRESENTATION_ITEM('') SURFACE() );
#179 = CARTESIAN_POINT('',(2.987154814818,0.,14.634453073821));
#180 = CARTESIAN_POINT('',(2.987154814818,1.422872512502,14.634453073821
    ));
#181 = CARTESIAN_POINT('',(2.251767354925,2.878557537409,14.634453073822
    ));
#182 = CARTESIAN_POINT('',(0.738442934662,3.919434267301,14.634453073819
    ));
#183 = CARTESIAN_POINT('',(-1.344083554447,4.079293096302,
    14.634453073828));
#184 = CARTESIAN_POINT('',(-3.143138566019,2.969883266118,14.63445307381
    ));
#185 = CARTESIAN_POINT('',(-4.462556435207,1.35039276633,14.634453073836
    ));
#186 = CARTESIAN_POINT('',(-4.462556435155,-1.350392766319,
    14.634453073807));
#187 = CARTESIAN_POINT('',(-3.143138566049,-2.969883266138,
    14.63445307383));
#188 = CARTESIAN_POINT('',(-1.344083554437,-4.079293096285,
    14.634453073817));
#189 = CARTESIAN_POINT('',(0.738442934662,-3.919434267309,
    14.634453073823));
#190 = CARTESIAN_POINT('',(2.251767354924,-2.878557537406,
    14.634453073821));
#191 = CARTESIAN_POINT('',(2.987154814818,-1.422872512503,
    14.634453073821));
#192 = CARTESIAN_POINT('',(2.987154814818,-7.3E-16,14.634453073821));
#193 = CARTESIAN_POINT('',(1.35587235319,-1.43E-15,13.186577478424));
#194 = CARTESIAN_POINT('',(1.35587235319,0.64584315893,13.186577478424)
  );
#195 = CARTESIAN_POINT('',(1.02207930008,1.306579947807,13.186577478423)
  );
#196 = CARTESIAN_POINT('',(0.335179935954,1.779034865158,13.186577478424
    ));
#197 = CARTESIAN_POINT('',(-0.61008077747,1.851594936553,13.186577478421
    ));
#198 = CARTESIAN_POINT('',(-1.426673523173,1.348032781155,13.18657747843
    ));
#199 = CARTESIAN_POINT('',(-2.025558523119,0.612944534612,
    13.186577478415));
#200 = CARTESIAN_POINT('',(-2.025558523106,-0.612944534611,
    13.186577478431));
#201 = CARTESIAN_POINT('',(-1.42667352318,-1.348032781157,
    13.186577478419));
#202 = CARTESIAN_POINT('',(-0.610080777469,-1.85159493655,
    13.186577478425));
#203 = CARTESIAN_POINT('',(0.335179935955,-1.779034865159,
    13.186577478423));
#204 = CARTESIAN_POINT('',(1.022079300079,-1.306579947807,
    13.186577478424));
#205 = CARTESIAN_POINT('',(1.35587235319,-0.64584315893,13.186577478424)
  );
#206 = CARTESIAN_POINT('',(1.35587235319,7.6E-16,13.186577478424));
#207 = CARTESIAN_POINT('',(2.230119353323,0.,11.188298620976));
#208 = CARTESIAN_POINT('',(2.230119353323,1.062273542604,11.188298620976
    ));
#209 = CARTESIAN_POINT('',(1.681101338469,2.149043913622,11.188298620975
    ));
#210 = CARTESIAN_POINT('',(0.551299139815,2.92613096925,11.188298620979)
  );
#211 = CARTESIAN_POINT('',(-1.003452091724,3.04547673151,11.18829862097)
  );
#212 = CARTESIAN_POINT('',(-2.346572099818,2.217224937929,
    11.188298620987));
#213 = CARTESIAN_POINT('',(-3.331609537625,1.008162358327,
    11.188298620962));
#214 = CARTESIAN_POINT('',(-3.331609537613,-1.008162358318,
    11.18829862099));
#215 = CARTESIAN_POINT('',(-2.346572099822,-2.217224937946,
    11.188298620967));
#216 = CARTESIAN_POINT('',(-1.003452091728,-3.045476731496,
    11.188298620981));
#217 = CARTESIAN_POINT('',(0.55129913982,-2.926130969257,11.188298620974
    ));
#218 = CARTESIAN_POINT('',(1.681101338466,-2.14904391362,11.188298620977
    ));
#219 = CARTESIAN_POINT('',(2.230119353323,-1.062273542604,
    11.188298620976));
#220 = CARTESIAN_POINT('',(2.230119353323,-5.5E-16,11.188298620976));
#221 = ADVANCED_FACE('',(#222),#241,.T.);
#222 = FACE_BOUND('',#223,.T.);
#223 = EDGE_LOOP('',(#224,#232,#233,#234));
#224 = ORIENTED_EDGE('',*,*,#225,.T.);
#225 = EDGE_CURVE('',#226,#76,#228,.T.);
#226 = VERTEX_POINT('',#227);
#227 = CARTESIAN_POINT('',(6.25,-2.E-15,0.));
#228 = LINE('',#229,#230);
#229 = CARTESIAN_POINT('',(6.25,-1.53E-15,0.));
#230 = VECTOR('',#231,1.);
#231 = DIRECTION('',(0.,0.,1.));
#232 = ORIENTED_EDGE('',*,*,#83,.F.);
#233 = ORIENTED_EDGE('',*,*,#225,.F.);
#234 = ORIENTED_EDGE('',*,*,#235,.T.);
#235 = EDGE_CURVE('',#226,#226,#236,.T.);
#236 = CIRCLE('',#237,6.25);
#237 = AXIS2_PLACEMENT_3D('',#238,#239,#240);
#238 = CARTESIAN_POINT('',(0.,0.,0.));
#239 = DIRECTION('',(0.,0.,1.));
#240 = DIRECTION('',(1.,0.,0.));
#241 = CYLINDRICAL_SURFACE('',#242,6.25);
#242 = AXIS2_PLACEMENT_3D('',#243,#244,#245);
#243 = CARTESIAN_POINT('',(0.,0.,0.));
#244 = DIRECTION('',(0.,0.,1.));
#245 = DIRECTION('',(1.,0.,0.));
#246 = ADVANCED_FACE('',(#247),#260,.T.);
#247 = FACE_BOUND('',#248,.T.);
#248 = EDGE_LOOP('',(#249,#258,#259));
#249 = ORIENTED_EDGE('',*,*,#250,.T.);
#250 = EDGE_CURVE('',#153,#251,#253,.T.);
#251 = VERTEX_POINT('',#252);
#252 = CARTESIAN_POINT('',(0.,0.,22.5));
#253 = CIRCLE('',#254,4.5);
#254 = AXIS2_PLACEMENT_3D('',#255,#256,#257);
#255 = CARTESIAN_POINT('',(0.,0.,18.));
#256 = DIRECTION('',(-2.4E-16,-1.,0.));
#257 = DIRECTION('',(1.,-2.4E-16,0.));
#258 = ORIENTED_EDGE('',*,*,#250,.F.);
#259 = ORIENTED_EDGE('',*,*,#162,.T.);
#260 = SPHERICAL_SURFACE('',#261,4.5);
#261 = AXIS2_PLACEMENT_3D('',#262,#263,#264);
#262 = CARTESIAN_POINT('',(0.,0.,18.));
#263 = DIRECTION('',(0.,0.,1.));
#264 = DIRECTION('',(1.,0.,0.));
#265 = ADVANCED_FACE('',(#266),#269,.F.);
#266 = FACE_BOUND('',#267,.T.);
#267 = EDGE_LOOP('',(#268));
#268 = ORIENTED_EDGE('',*,*,#235,.F.);
#269 = PLANE('',#270);
#270 = AXIS2_PLACEMENT_3D('',#271,#272,#273);
#271 = CARTESIAN_POINT('',(0.,0.,0.));
#272 = DIRECTION('',(0.,0.,1.));
#273 = DIRECTION('',(1.,0.,0.));
#274 = ( GEOMETRIC_REPRESENTATION_CONTEXT(3) 
GLOBAL_UNCERTAINTY_ASSIGNED_CONTEXT((#278)) GLOBAL_UNIT_ASSIGNED_CONTEXT
((#275,#276,#277)) REPRESENTATION_CONTEXT('Context #1',
  '3D Context with UNIT and UNCERTAINTY') );
#275 = ( LENGTH_UNIT() NAMED_UNIT(*) SI_UNIT(.MILLI.,.METRE.) );
#276 = ( NAMED_UNIT(*) PLANE_ANGLE_UNIT() SI_UNIT($,.RADIAN.) );
#277 = ( NAMED_UNIT(*) SI_UNIT($,.STERADIAN.) SOLID_ANGLE_UNIT() );
#278 = UNCERTAINTY_MEASURE_WITH_UNIT(LENGTH_MEASURE(2.E-05),#275,
  'distance_accuracy_value','confusion accuracy');
#279 = PRODUCT_RELATED_PRODUCT_CATEGORY('part',$,(#7));
#280 = MECHANICAL_DESIGN_GEOMETRIC_PRESENTATION_REPRESENTATION('',(#281)
  ,#274);
#281 = STYLED_ITEM('color',(#282),#15);
#282 = PRESENTATION_STYLE_ASSIGNMENT((#283,#289));
#283 = SURFACE_STYLE_USAGE(.BOTH.,#284);
#284 = SURFACE_SIDE_STYLE('',(#285));
#285 = SURFACE_STYLE_FILL_AREA(#286);
#286 = FILL_AREA_STYLE('',(#287));
#287 = FILL_AREA_STYLE_COLOUR('',#288);
#288 = DRAUGHTING_PRE_DEFINED_COLOUR('red');
#289 = CURVE_STYLE('',#290,POSITIVE_LENGTH_MEASURE(0.1),#288);
#290 = DRAUGHTING_PRE_DEFINED_CURVE_FONT('continuous');
ENDSEC;
END-ISO-10303-21;
