ISO-10303-21;
HEADER;
FILE_DESCRIPTION(('FreeCAD Model'),'2;1');
FILE_NAME('Open CASCADE Shape Model','2026-09-21T18:39:05',(''),(''),
  'Open CASCADE STEP processor 7.8','FreeCAD','Unknown');
FILE_SCHEMA(('AUTOMOTIVE_DESIGN { 1 0 10303 214 1 1 1 1 }'));
ENDSEC;
DATA;
#1 = APPLICATION_PROTOCOL_DEFINITION('international standard',
  'automotive_design',2000,#2);
#2 = APPLICATION_CONTEXT(
  'core data for automotive mechanical design processes');
#3 = SHAPE_DEFINITION_REPRESENTATION(#4,#10);
#4 = PRODUCT_DEFINITION_SHAPE('','',#5);
#5 = PRODUCT_DEFINITION('design','',#6,#9);
#6 = PRODUCT_DEFINITION_FORMATION('','',#7);
#7 = PRODUCT('Same_Sky_CPT-1207-3TH','Same_Sky_CPT-1207-3TH','',(#8));
#8 = PRODUCT_CONTEXT('',#2,'mechanical');
#9 = PRODUCT_DEFINITION_CONTEXT('part definition',#2,'design');
#10 = ADVANCED_BREP_SHAPE_REPRESENTATION('',(#11,#15),#1079);
#11 = AXIS2_PLACEMENT_3D('',#12,#13,#14);
#12 = CARTESIAN_POINT('',(0.,0.,0.));
#13 = DIRECTION('',(0.,0.,1.));
#14 = DIRECTION('',(1.,0.,-0.));
#15 = MANIFOLD_SOLID_BREP('',#16);
#16 = CLOSED_SHELL('',(#17,#59,#101,#143,#185,#227,#269,#311,#353,#379,
    #405,#431,#447,#503,#519,#535,#585,#635,#666,#697,#730,#761,#785,
    #825,#837,#868,#899,#923,#947,#959,#971,#983,#995,#1007,#1019,#1031,
    #1043,#1055,#1067));
#17 = ADVANCED_FACE('',(#18),#54,.T.);
#18 = FACE_BOUND('',#19,.T.);
#19 = EDGE_LOOP('',(#20,#31,#39,#48));
#20 = ORIENTED_EDGE('',*,*,#21,.T.);
#21 = EDGE_CURVE('',#22,#24,#26,.T.);
#22 = VERTEX_POINT('',#23);
#23 = CARTESIAN_POINT('',(6.25,0.,0.));
#24 = VERTEX_POINT('',#25);
#25 = CARTESIAN_POINT('',(-6.25,0.,-7.654042494671E-16));
#26 = CIRCLE('',#27,6.25);
#27 = AXIS2_PLACEMENT_3D('',#28,#29,#30);
#28 = CARTESIAN_POINT('',(0.,0.,0.));
#29 = DIRECTION('',(0.,1.,0.));
#30 = DIRECTION('',(-1.,0.,0.));
#31 = ORIENTED_EDGE('',*,*,#32,.T.);
#32 = EDGE_CURVE('',#24,#33,#35,.T.);
#33 = VERTEX_POINT('',#34);
#34 = CARTESIAN_POINT('',(-6.25,6.3,-7.654042494671E-16));
#35 = LINE('',#36,#37);
#36 = CARTESIAN_POINT('',(-6.25,0.,-7.654042494671E-16));
#37 = VECTOR('',#38,1.);
#38 = DIRECTION('',(0.,1.,0.));
#39 = ORIENTED_EDGE('',*,*,#40,.F.);
#40 = EDGE_CURVE('',#41,#33,#43,.T.);
#41 = VERTEX_POINT('',#42);
#42 = CARTESIAN_POINT('',(6.25,6.3,0.));
#43 = CIRCLE('',#44,6.25);
#44 = AXIS2_PLACEMENT_3D('',#45,#46,#47);
#45 = CARTESIAN_POINT('',(0.,6.3,0.));
#46 = DIRECTION('',(-0.,1.,0.));
#47 = DIRECTION('',(1.,0.,0.));
#48 = ORIENTED_EDGE('',*,*,#49,.F.);
#49 = EDGE_CURVE('',#22,#41,#50,.T.);
#50 = LINE('',#51,#52);
#51 = CARTESIAN_POINT('',(6.25,0.,0.));
#52 = VECTOR('',#53,1.);
#53 = DIRECTION('',(0.,1.,0.));
#54 = CYLINDRICAL_SURFACE('',#55,6.25);
#55 = AXIS2_PLACEMENT_3D('',#56,#57,#58);
#56 = CARTESIAN_POINT('',(0.,0.,0.));
#57 = DIRECTION('',(0.,1.,0.));
#58 = DIRECTION('',(1.,0.,0.));
#59 = ADVANCED_FACE('',(#60),#96,.F.);
#60 = FACE_BOUND('',#61,.F.);
#61 = EDGE_LOOP('',(#62,#72,#81,#89));
#62 = ORIENTED_EDGE('',*,*,#63,.T.);
#63 = EDGE_CURVE('',#64,#66,#68,.T.);
#64 = VERTEX_POINT('',#65);
#65 = CARTESIAN_POINT('',(1.5,6.2,0.));
#66 = VERTEX_POINT('',#67);
#67 = CARTESIAN_POINT('',(1.5,6.3,0.));
#68 = LINE('',#69,#70);
#69 = CARTESIAN_POINT('',(1.5,6.3,0.));
#70 = VECTOR('',#71,1.);
#71 = DIRECTION('',(0.,1.,0.));
#72 = ORIENTED_EDGE('',*,*,#73,.F.);
#73 = EDGE_CURVE('',#74,#66,#76,.T.);
#74 = VERTEX_POINT('',#75);
#75 = CARTESIAN_POINT('',(-1.5,6.3,-1.836970198721E-16));
#76 = CIRCLE('',#77,1.5);
#77 = AXIS2_PLACEMENT_3D('',#78,#79,#80);
#78 = CARTESIAN_POINT('',(0.,6.3,0.));
#79 = DIRECTION('',(0.,1.,0.));
#80 = DIRECTION('',(-1.,0.,0.));
#81 = ORIENTED_EDGE('',*,*,#82,.F.);
#82 = EDGE_CURVE('',#83,#74,#85,.T.);
#83 = VERTEX_POINT('',#84);
#84 = CARTESIAN_POINT('',(-1.5,6.2,-1.836970198721E-16));
#85 = LINE('',#86,#87);
#86 = CARTESIAN_POINT('',(-1.5,6.3,-1.836970198721E-16));
#87 = VECTOR('',#88,1.);
#88 = DIRECTION('',(0.,1.,0.));
#89 = ORIENTED_EDGE('',*,*,#90,.T.);
#90 = EDGE_CURVE('',#83,#64,#91,.T.);
#91 = CIRCLE('',#92,1.5);
#92 = AXIS2_PLACEMENT_3D('',#93,#94,#95);
#93 = CARTESIAN_POINT('',(0.,6.2,0.));
#94 = DIRECTION('',(-0.,1.,0.));
#95 = DIRECTION('',(1.,0.,0.));
#96 = CYLINDRICAL_SURFACE('',#97,1.5);
#97 = AXIS2_PLACEMENT_3D('',#98,#99,#100);
#98 = CARTESIAN_POINT('',(0.,6.3,0.));
#99 = DIRECTION('',(0.,1.,0.));
#100 = DIRECTION('',(1.,0.,0.));
#101 = ADVANCED_FACE('',(#102),#138,.F.);
#102 = FACE_BOUND('',#103,.F.);
#103 = EDGE_LOOP('',(#104,#114,#123,#131));
#104 = ORIENTED_EDGE('',*,*,#105,.T.);
#105 = EDGE_CURVE('',#106,#108,#110,.T.);
#106 = VERTEX_POINT('',#107);
#107 = CARTESIAN_POINT('',(1.,1.52,0.));
#108 = VERTEX_POINT('',#109);
#109 = CARTESIAN_POINT('',(1.,6.2,0.));
#110 = LINE('',#111,#112);
#111 = CARTESIAN_POINT('',(1.,6.2,0.));
#112 = VECTOR('',#113,1.);
#113 = DIRECTION('',(0.,1.,0.));
#114 = ORIENTED_EDGE('',*,*,#115,.F.);
#115 = EDGE_CURVE('',#116,#108,#118,.T.);
#116 = VERTEX_POINT('',#117);
#117 = CARTESIAN_POINT('',(-1.,6.2,-1.224646799147E-16));
#118 = CIRCLE('',#119,1.);
#119 = AXIS2_PLACEMENT_3D('',#120,#121,#122);
#120 = CARTESIAN_POINT('',(0.,6.2,0.));
#121 = DIRECTION('',(0.,1.,0.));
#122 = DIRECTION('',(-1.,0.,0.));
#123 = ORIENTED_EDGE('',*,*,#124,.F.);
#124 = EDGE_CURVE('',#125,#116,#127,.T.);
#125 = VERTEX_POINT('',#126);
#126 = CARTESIAN_POINT('',(-1.,1.52,-1.224646799147E-16));
#127 = LINE('',#128,#129);
#128 = CARTESIAN_POINT('',(-1.,6.2,-1.224646799147E-16));
#129 = VECTOR('',#130,1.);
#130 = DIRECTION('',(0.,1.,0.));
#131 = ORIENTED_EDGE('',*,*,#132,.T.);
#132 = EDGE_CURVE('',#125,#106,#133,.T.);
#133 = CIRCLE('',#134,1.);
#134 = AXIS2_PLACEMENT_3D('',#135,#136,#137);
#135 = CARTESIAN_POINT('',(0.,1.52,0.));
#136 = DIRECTION('',(-0.,1.,0.));
#137 = DIRECTION('',(1.,0.,0.));
#138 = CYLINDRICAL_SURFACE('',#139,1.);
#139 = AXIS2_PLACEMENT_3D('',#140,#141,#142);
#140 = CARTESIAN_POINT('',(0.,6.2,0.));
#141 = DIRECTION('',(0.,1.,0.));
#142 = DIRECTION('',(1.,0.,0.));
#143 = ADVANCED_FACE('',(#144),#180,.F.);
#144 = FACE_BOUND('',#145,.F.);
#145 = EDGE_LOOP('',(#146,#156,#165,#173));
#146 = ORIENTED_EDGE('',*,*,#147,.T.);
#147 = EDGE_CURVE('',#148,#150,#152,.T.);
#148 = VERTEX_POINT('',#149);
#149 = CARTESIAN_POINT('',(-5.7,0.5,0.));
#150 = VERTEX_POINT('',#151);
#151 = CARTESIAN_POINT('',(-5.7,0.,0.));
#152 = LINE('',#153,#154);
#153 = CARTESIAN_POINT('',(-5.7,0.,0.));
#154 = VECTOR('',#155,1.);
#155 = DIRECTION('',(0.,-1.,0.));
#156 = ORIENTED_EDGE('',*,*,#157,.F.);
#157 = EDGE_CURVE('',#158,#150,#160,.T.);
#158 = VERTEX_POINT('',#159);
#159 = CARTESIAN_POINT('',(5.7,0.,-6.98048675514E-16));
#160 = CIRCLE('',#161,5.7);
#161 = AXIS2_PLACEMENT_3D('',#162,#163,#164);
#162 = CARTESIAN_POINT('',(0.,0.,0.));
#163 = DIRECTION('',(0.,-1.,0.));
#164 = DIRECTION('',(1.,0.,0.));
#165 = ORIENTED_EDGE('',*,*,#166,.F.);
#166 = EDGE_CURVE('',#167,#158,#169,.T.);
#167 = VERTEX_POINT('',#168);
#168 = CARTESIAN_POINT('',(5.7,0.5,-6.98048675514E-16));
#169 = LINE('',#170,#171);
#170 = CARTESIAN_POINT('',(5.7,0.,-6.98048675514E-16));
#171 = VECTOR('',#172,1.);
#172 = DIRECTION('',(0.,-1.,0.));
#173 = ORIENTED_EDGE('',*,*,#174,.T.);
#174 = EDGE_CURVE('',#167,#148,#175,.T.);
#175 = CIRCLE('',#176,5.7);
#176 = AXIS2_PLACEMENT_3D('',#177,#178,#179);
#177 = CARTESIAN_POINT('',(0.,0.5,0.));
#178 = DIRECTION('',(0.,-1.,0.));
#179 = DIRECTION('',(-1.,0.,0.));
#180 = CYLINDRICAL_SURFACE('',#181,5.7);
#181 = AXIS2_PLACEMENT_3D('',#182,#183,#184);
#182 = CARTESIAN_POINT('',(0.,0.,0.));
#183 = DIRECTION('',(0.,-1.,0.));
#184 = DIRECTION('',(-1.,0.,0.));
#185 = ADVANCED_FACE('',(#186),#222,.T.);
#186 = FACE_BOUND('',#187,.T.);
#187 = EDGE_LOOP('',(#188,#199,#207,#216));
#188 = ORIENTED_EDGE('',*,*,#189,.T.);
#189 = EDGE_CURVE('',#190,#192,#194,.T.);
#190 = VERTEX_POINT('',#191);
#191 = CARTESIAN_POINT('',(3.35,0.5,0.));
#192 = VERTEX_POINT('',#193);
#193 = CARTESIAN_POINT('',(4.15,0.5,-4.898587196589E-17));
#194 = CIRCLE('',#195,0.4);
#195 = AXIS2_PLACEMENT_3D('',#196,#197,#198);
#196 = CARTESIAN_POINT('',(3.75,0.5,0.));
#197 = DIRECTION('',(0.,-1.,0.));
#198 = DIRECTION('',(1.,0.,0.));
#199 = ORIENTED_EDGE('',*,*,#200,.T.);
#200 = EDGE_CURVE('',#192,#201,#203,.T.);
#201 = VERTEX_POINT('',#202);
#202 = CARTESIAN_POINT('',(4.15,-0.7,-4.898587196589E-17));
#203 = LINE('',#204,#205);
#204 = CARTESIAN_POINT('',(4.15,0.5,-4.898587196589E-17));
#205 = VECTOR('',#206,1.);
#206 = DIRECTION('',(0.,-1.,0.));
#207 = ORIENTED_EDGE('',*,*,#208,.F.);
#208 = EDGE_CURVE('',#209,#201,#211,.T.);
#209 = VERTEX_POINT('',#210);
#210 = CARTESIAN_POINT('',(3.35,-0.7,0.));
#211 = CIRCLE('',#212,0.4);
#212 = AXIS2_PLACEMENT_3D('',#213,#214,#215);
#213 = CARTESIAN_POINT('',(3.75,-0.7,0.));
#214 = DIRECTION('',(0.,-1.,0.));
#215 = DIRECTION('',(-1.,0.,0.));
#216 = ORIENTED_EDGE('',*,*,#217,.F.);
#217 = EDGE_CURVE('',#190,#209,#218,.T.);
#218 = LINE('',#219,#220);
#219 = CARTESIAN_POINT('',(3.35,0.5,0.));
#220 = VECTOR('',#221,1.);
#221 = DIRECTION('',(0.,-1.,0.));
#222 = CYLINDRICAL_SURFACE('',#223,0.4);
#223 = AXIS2_PLACEMENT_3D('',#224,#225,#226);
#224 = CARTESIAN_POINT('',(3.75,0.5,0.));
#225 = DIRECTION('',(0.,-1.,0.));
#226 = DIRECTION('',(-1.,0.,0.));
#227 = ADVANCED_FACE('',(#228),#264,.T.);
#228 = FACE_BOUND('',#229,.T.);
#229 = EDGE_LOOP('',(#230,#241,#249,#258));
#230 = ORIENTED_EDGE('',*,*,#231,.T.);
#231 = EDGE_CURVE('',#232,#234,#236,.T.);
#232 = VERTEX_POINT('',#233);
#233 = CARTESIAN_POINT('',(-4.15,0.5,0.));
#234 = VERTEX_POINT('',#235);
#235 = CARTESIAN_POINT('',(-3.35,0.5,-4.898587196589E-17));
#236 = CIRCLE('',#237,0.4);
#237 = AXIS2_PLACEMENT_3D('',#238,#239,#240);
#238 = CARTESIAN_POINT('',(-3.75,0.5,0.));
#239 = DIRECTION('',(0.,-1.,0.));
#240 = DIRECTION('',(1.,0.,0.));
#241 = ORIENTED_EDGE('',*,*,#242,.T.);
#242 = EDGE_CURVE('',#234,#243,#245,.T.);
#243 = VERTEX_POINT('',#244);
#244 = CARTESIAN_POINT('',(-3.35,-0.7,-4.898587196589E-17));
#245 = LINE('',#246,#247);
#246 = CARTESIAN_POINT('',(-3.35,0.5,-4.898587196589E-17));
#247 = VECTOR('',#248,1.);
#248 = DIRECTION('',(0.,-1.,0.));
#249 = ORIENTED_EDGE('',*,*,#250,.F.);
#250 = EDGE_CURVE('',#251,#243,#253,.T.);
#251 = VERTEX_POINT('',#252);
#252 = CARTESIAN_POINT('',(-4.15,-0.7,0.));
#253 = CIRCLE('',#254,0.4);
#254 = AXIS2_PLACEMENT_3D('',#255,#256,#257);
#255 = CARTESIAN_POINT('',(-3.75,-0.7,0.));
#256 = DIRECTION('',(0.,-1.,0.));
#257 = DIRECTION('',(1.,0.,0.));
#258 = ORIENTED_EDGE('',*,*,#259,.F.);
#259 = EDGE_CURVE('',#232,#251,#260,.T.);
#260 = LINE('',#261,#262);
#261 = CARTESIAN_POINT('',(-4.15,0.5,0.));
#262 = VECTOR('',#263,1.);
#263 = DIRECTION('',(0.,-1.,0.));
#264 = CYLINDRICAL_SURFACE('',#265,0.4);
#265 = AXIS2_PLACEMENT_3D('',#266,#267,#268);
#266 = CARTESIAN_POINT('',(-3.75,0.5,0.));
#267 = DIRECTION('',(0.,-1.,0.));
#268 = DIRECTION('',(-1.,0.,0.));
#269 = ADVANCED_FACE('',(#270),#306,.T.);
#270 = FACE_BOUND('',#271,.T.);
#271 = EDGE_LOOP('',(#272,#283,#291,#300));
#272 = ORIENTED_EDGE('',*,*,#273,.T.);
#273 = EDGE_CURVE('',#274,#276,#278,.T.);
#274 = VERTEX_POINT('',#275);
#275 = CARTESIAN_POINT('',(-2.,0.5,-2.5));
#276 = VERTEX_POINT('',#277);
#277 = CARTESIAN_POINT('',(2.,0.5,-2.5));
#278 = CIRCLE('',#279,2.);
#279 = AXIS2_PLACEMENT_3D('',#280,#281,#282);
#280 = CARTESIAN_POINT('',(0.,0.5,-2.5));
#281 = DIRECTION('',(0.,-1.,0.));
#282 = DIRECTION('',(1.,0.,0.));
#283 = ORIENTED_EDGE('',*,*,#284,.T.);
#284 = EDGE_CURVE('',#276,#285,#287,.T.);
#285 = VERTEX_POINT('',#286);
#286 = CARTESIAN_POINT('',(2.,-0.7,-2.5));
#287 = LINE('',#288,#289);
#288 = CARTESIAN_POINT('',(2.,0.5,-2.5));
#289 = VECTOR('',#290,1.);
#290 = DIRECTION('',(0.,-1.,0.));
#291 = ORIENTED_EDGE('',*,*,#292,.F.);
#292 = EDGE_CURVE('',#293,#285,#295,.T.);
#293 = VERTEX_POINT('',#294);
#294 = CARTESIAN_POINT('',(-2.,-0.7,-2.5));
#295 = CIRCLE('',#296,2.);
#296 = AXIS2_PLACEMENT_3D('',#297,#298,#299);
#297 = CARTESIAN_POINT('',(0.,-0.7,-2.5));
#298 = DIRECTION('',(0.,-1.,0.));
#299 = DIRECTION('',(-1.,0.,0.));
#300 = ORIENTED_EDGE('',*,*,#301,.F.);
#301 = EDGE_CURVE('',#274,#293,#302,.T.);
#302 = LINE('',#303,#304);
#303 = CARTESIAN_POINT('',(-2.,0.5,-2.5));
#304 = VECTOR('',#305,1.);
#305 = DIRECTION('',(0.,-1.,0.));
#306 = CYLINDRICAL_SURFACE('',#307,2.);
#307 = AXIS2_PLACEMENT_3D('',#308,#309,#310);
#308 = CARTESIAN_POINT('',(0.,0.5,-2.5));
#309 = DIRECTION('',(0.,-1.,0.));
#310 = DIRECTION('',(-1.,0.,0.));
#311 = ADVANCED_FACE('',(#312),#348,.T.);
#312 = FACE_BOUND('',#313,.T.);
#313 = EDGE_LOOP('',(#314,#325,#333,#342));
#314 = ORIENTED_EDGE('',*,*,#315,.T.);
#315 = EDGE_CURVE('',#316,#318,#320,.T.);
#316 = VERTEX_POINT('',#317);
#317 = CARTESIAN_POINT('',(-2.,0.5,2.5));
#318 = VERTEX_POINT('',#319);
#319 = CARTESIAN_POINT('',(2.,0.5,2.5));
#320 = CIRCLE('',#321,2.);
#321 = AXIS2_PLACEMENT_3D('',#322,#323,#324);
#322 = CARTESIAN_POINT('',(0.,0.5,2.5));
#323 = DIRECTION('',(0.,-1.,0.));
#324 = DIRECTION('',(1.,0.,0.));
#325 = ORIENTED_EDGE('',*,*,#326,.T.);
#326 = EDGE_CURVE('',#318,#327,#329,.T.);
#327 = VERTEX_POINT('',#328);
#328 = CARTESIAN_POINT('',(2.,-0.7,2.5));
#329 = LINE('',#330,#331);
#330 = CARTESIAN_POINT('',(2.,0.5,2.5));
#331 = VECTOR('',#332,1.);
#332 = DIRECTION('',(0.,-1.,0.));
#333 = ORIENTED_EDGE('',*,*,#334,.F.);
#334 = EDGE_CURVE('',#335,#327,#337,.T.);
#335 = VERTEX_POINT('',#336);
#336 = CARTESIAN_POINT('',(-2.,-0.7,2.5));
#337 = CIRCLE('',#338,2.);
#338 = AXIS2_PLACEMENT_3D('',#339,#340,#341);
#339 = CARTESIAN_POINT('',(0.,-0.7,2.5));
#340 = DIRECTION('',(0.,-1.,0.));
#341 = DIRECTION('',(1.,0.,0.));
#342 = ORIENTED_EDGE('',*,*,#343,.F.);
#343 = EDGE_CURVE('',#316,#335,#344,.T.);
#344 = LINE('',#345,#346);
#345 = CARTESIAN_POINT('',(-2.,0.5,2.5));
#346 = VECTOR('',#347,1.);
#347 = DIRECTION('',(0.,-1.,0.));
#348 = CYLINDRICAL_SURFACE('',#349,2.);
#349 = AXIS2_PLACEMENT_3D('',#350,#351,#352);
#350 = CARTESIAN_POINT('',(0.,0.5,2.5));
#351 = DIRECTION('',(0.,-1.,0.));
#352 = DIRECTION('',(-1.,0.,0.));
#353 = ADVANCED_FACE('',(#354,#364),#374,.F.);
#354 = FACE_BOUND('',#355,.T.);
#355 = EDGE_LOOP('',(#356,#363));
#356 = ORIENTED_EDGE('',*,*,#357,.F.);
#357 = EDGE_CURVE('',#150,#158,#358,.T.);
#358 = CIRCLE('',#359,5.7);
#359 = AXIS2_PLACEMENT_3D('',#360,#361,#362);
#360 = CARTESIAN_POINT('',(0.,0.,0.));
#361 = DIRECTION('',(0.,-1.,0.));
#362 = DIRECTION('',(1.,0.,0.));
#363 = ORIENTED_EDGE('',*,*,#157,.F.);
#364 = FACE_BOUND('',#365,.T.);
#365 = EDGE_LOOP('',(#366,#367));
#366 = ORIENTED_EDGE('',*,*,#21,.F.);
#367 = ORIENTED_EDGE('',*,*,#368,.F.);
#368 = EDGE_CURVE('',#24,#22,#369,.T.);
#369 = CIRCLE('',#370,6.25);
#370 = AXIS2_PLACEMENT_3D('',#371,#372,#373);
#371 = CARTESIAN_POINT('',(0.,0.,0.));
#372 = DIRECTION('',(0.,1.,0.));
#373 = DIRECTION('',(-1.,0.,0.));
#374 = PLANE('',#375);
#375 = AXIS2_PLACEMENT_3D('',#376,#377,#378);
#376 = CARTESIAN_POINT('',(0.,0.,0.));
#377 = DIRECTION('',(-0.,1.,0.));
#378 = DIRECTION('',(1.,0.,0.));
#379 = ADVANCED_FACE('',(#380,#390),#400,.T.);
#380 = FACE_BOUND('',#381,.T.);
#381 = EDGE_LOOP('',(#382,#389));
#382 = ORIENTED_EDGE('',*,*,#383,.F.);
#383 = EDGE_CURVE('',#66,#74,#384,.T.);
#384 = CIRCLE('',#385,1.5);
#385 = AXIS2_PLACEMENT_3D('',#386,#387,#388);
#386 = CARTESIAN_POINT('',(0.,6.3,0.));
#387 = DIRECTION('',(0.,1.,0.));
#388 = DIRECTION('',(-1.,0.,0.));
#389 = ORIENTED_EDGE('',*,*,#73,.F.);
#390 = FACE_BOUND('',#391,.T.);
#391 = EDGE_LOOP('',(#392,#393));
#392 = ORIENTED_EDGE('',*,*,#40,.T.);
#393 = ORIENTED_EDGE('',*,*,#394,.T.);
#394 = EDGE_CURVE('',#33,#41,#395,.T.);
#395 = CIRCLE('',#396,6.25);
#396 = AXIS2_PLACEMENT_3D('',#397,#398,#399);
#397 = CARTESIAN_POINT('',(0.,6.3,0.));
#398 = DIRECTION('',(-0.,1.,0.));
#399 = DIRECTION('',(1.,0.,0.));
#400 = PLANE('',#401);
#401 = AXIS2_PLACEMENT_3D('',#402,#403,#404);
#402 = CARTESIAN_POINT('',(0.,6.3,0.));
#403 = DIRECTION('',(-0.,1.,0.));
#404 = DIRECTION('',(1.,0.,0.));
#405 = ADVANCED_FACE('',(#406,#416),#426,.T.);
#406 = FACE_BOUND('',#407,.T.);
#407 = EDGE_LOOP('',(#408,#415));
#408 = ORIENTED_EDGE('',*,*,#409,.F.);
#409 = EDGE_CURVE('',#108,#116,#410,.T.);
#410 = CIRCLE('',#411,1.);
#411 = AXIS2_PLACEMENT_3D('',#412,#413,#414);
#412 = CARTESIAN_POINT('',(0.,6.2,0.));
#413 = DIRECTION('',(0.,1.,0.));
#414 = DIRECTION('',(-1.,0.,0.));
#415 = ORIENTED_EDGE('',*,*,#115,.F.);
#416 = FACE_BOUND('',#417,.T.);
#417 = EDGE_LOOP('',(#418,#425));
#418 = ORIENTED_EDGE('',*,*,#419,.T.);
#419 = EDGE_CURVE('',#64,#83,#420,.T.);
#420 = CIRCLE('',#421,1.5);
#421 = AXIS2_PLACEMENT_3D('',#422,#423,#424);
#422 = CARTESIAN_POINT('',(0.,6.2,0.));
#423 = DIRECTION('',(-0.,1.,0.));
#424 = DIRECTION('',(1.,0.,0.));
#425 = ORIENTED_EDGE('',*,*,#90,.T.);
#426 = PLANE('',#427);
#427 = AXIS2_PLACEMENT_3D('',#428,#429,#430);
#428 = CARTESIAN_POINT('',(0.,6.2,0.));
#429 = DIRECTION('',(-0.,1.,0.));
#430 = DIRECTION('',(1.,0.,0.));
#431 = ADVANCED_FACE('',(#432),#442,.T.);
#432 = FACE_BOUND('',#433,.T.);
#433 = EDGE_LOOP('',(#434,#441));
#434 = ORIENTED_EDGE('',*,*,#435,.T.);
#435 = EDGE_CURVE('',#106,#125,#436,.T.);
#436 = CIRCLE('',#437,1.);
#437 = AXIS2_PLACEMENT_3D('',#438,#439,#440);
#438 = CARTESIAN_POINT('',(0.,1.52,0.));
#439 = DIRECTION('',(-0.,1.,0.));
#440 = DIRECTION('',(1.,0.,0.));
#441 = ORIENTED_EDGE('',*,*,#132,.T.);
#442 = PLANE('',#443);
#443 = AXIS2_PLACEMENT_3D('',#444,#445,#446);
#444 = CARTESIAN_POINT('',(0.,1.52,0.));
#445 = DIRECTION('',(-0.,1.,0.));
#446 = DIRECTION('',(1.,0.,0.));
#447 = ADVANCED_FACE('',(#448,#458,#468,#478,#488),#498,.T.);
#448 = FACE_BOUND('',#449,.T.);
#449 = EDGE_LOOP('',(#450,#451));
#450 = ORIENTED_EDGE('',*,*,#189,.F.);
#451 = ORIENTED_EDGE('',*,*,#452,.F.);
#452 = EDGE_CURVE('',#192,#190,#453,.T.);
#453 = CIRCLE('',#454,0.4);
#454 = AXIS2_PLACEMENT_3D('',#455,#456,#457);
#455 = CARTESIAN_POINT('',(3.75,0.5,0.));
#456 = DIRECTION('',(0.,-1.,0.));
#457 = DIRECTION('',(1.,0.,0.));
#458 = FACE_BOUND('',#459,.T.);
#459 = EDGE_LOOP('',(#460,#461));
#460 = ORIENTED_EDGE('',*,*,#231,.F.);
#461 = ORIENTED_EDGE('',*,*,#462,.F.);
#462 = EDGE_CURVE('',#234,#232,#463,.T.);
#463 = CIRCLE('',#464,0.4);
#464 = AXIS2_PLACEMENT_3D('',#465,#466,#467);
#465 = CARTESIAN_POINT('',(-3.75,0.5,0.));
#466 = DIRECTION('',(0.,-1.,0.));
#467 = DIRECTION('',(1.,0.,0.));
#468 = FACE_BOUND('',#469,.T.);
#469 = EDGE_LOOP('',(#470,#471));
#470 = ORIENTED_EDGE('',*,*,#273,.F.);
#471 = ORIENTED_EDGE('',*,*,#472,.F.);
#472 = EDGE_CURVE('',#276,#274,#473,.T.);
#473 = CIRCLE('',#474,2.);
#474 = AXIS2_PLACEMENT_3D('',#475,#476,#477);
#475 = CARTESIAN_POINT('',(0.,0.5,-2.5));
#476 = DIRECTION('',(0.,-1.,0.));
#477 = DIRECTION('',(1.,0.,0.));
#478 = FACE_BOUND('',#479,.T.);
#479 = EDGE_LOOP('',(#480,#481));
#480 = ORIENTED_EDGE('',*,*,#315,.F.);
#481 = ORIENTED_EDGE('',*,*,#482,.F.);
#482 = EDGE_CURVE('',#318,#316,#483,.T.);
#483 = CIRCLE('',#484,2.);
#484 = AXIS2_PLACEMENT_3D('',#485,#486,#487);
#485 = CARTESIAN_POINT('',(0.,0.5,2.5));
#486 = DIRECTION('',(0.,-1.,0.));
#487 = DIRECTION('',(1.,0.,0.));
#488 = FACE_BOUND('',#489,.T.);
#489 = EDGE_LOOP('',(#490,#497));
#490 = ORIENTED_EDGE('',*,*,#491,.T.);
#491 = EDGE_CURVE('',#148,#167,#492,.T.);
#492 = CIRCLE('',#493,5.7);
#493 = AXIS2_PLACEMENT_3D('',#494,#495,#496);
#494 = CARTESIAN_POINT('',(0.,0.5,0.));
#495 = DIRECTION('',(0.,-1.,0.));
#496 = DIRECTION('',(-1.,0.,0.));
#497 = ORIENTED_EDGE('',*,*,#174,.T.);
#498 = PLANE('',#499);
#499 = AXIS2_PLACEMENT_3D('',#500,#501,#502);
#500 = CARTESIAN_POINT('',(0.,0.5,0.));
#501 = DIRECTION('',(0.,-1.,0.));
#502 = DIRECTION('',(0.,0.,-1.));
#503 = ADVANCED_FACE('',(#504),#514,.T.);
#504 = FACE_BOUND('',#505,.T.);
#505 = EDGE_LOOP('',(#506,#507));
#506 = ORIENTED_EDGE('',*,*,#208,.T.);
#507 = ORIENTED_EDGE('',*,*,#508,.T.);
#508 = EDGE_CURVE('',#201,#209,#509,.T.);
#509 = CIRCLE('',#510,0.4);
#510 = AXIS2_PLACEMENT_3D('',#511,#512,#513);
#511 = CARTESIAN_POINT('',(3.75,-0.7,0.));
#512 = DIRECTION('',(0.,-1.,0.));
#513 = DIRECTION('',(-1.,0.,0.));
#514 = PLANE('',#515);
#515 = AXIS2_PLACEMENT_3D('',#516,#517,#518);
#516 = CARTESIAN_POINT('',(0.,-0.7,0.));
#517 = DIRECTION('',(0.,-1.,0.));
#518 = DIRECTION('',(0.,0.,-1.));
#519 = ADVANCED_FACE('',(#520),#530,.T.);
#520 = FACE_BOUND('',#521,.T.);
#521 = EDGE_LOOP('',(#522,#523));
#522 = ORIENTED_EDGE('',*,*,#250,.T.);
#523 = ORIENTED_EDGE('',*,*,#524,.T.);
#524 = EDGE_CURVE('',#243,#251,#525,.T.);
#525 = CIRCLE('',#526,0.4);
#526 = AXIS2_PLACEMENT_3D('',#527,#528,#529);
#527 = CARTESIAN_POINT('',(-3.75,-0.7,0.));
#528 = DIRECTION('',(0.,-1.,0.));
#529 = DIRECTION('',(1.,0.,0.));
#530 = PLANE('',#531);
#531 = AXIS2_PLACEMENT_3D('',#532,#533,#534);
#532 = CARTESIAN_POINT('',(0.,-0.7,0.));
#533 = DIRECTION('',(0.,-1.,0.));
#534 = DIRECTION('',(0.,0.,-1.));
#535 = ADVANCED_FACE('',(#536,#570),#580,.T.);
#536 = FACE_BOUND('',#537,.T.);
#537 = EDGE_LOOP('',(#538,#548,#556,#564));
#538 = ORIENTED_EDGE('',*,*,#539,.F.);
#539 = EDGE_CURVE('',#540,#542,#544,.T.);
#540 = VERTEX_POINT('',#541);
#541 = CARTESIAN_POINT('',(-0.176776695297,-0.7,-2.888855656444));
#542 = VERTEX_POINT('',#543);
#543 = CARTESIAN_POINT('',(0.388908729653,-0.7,-2.323170231495));
#544 = LINE('',#545,#546);
#545 = CARTESIAN_POINT('',(-0.176776695297,-0.7,-2.888855656444));
#546 = VECTOR('',#547,1.);
#547 = DIRECTION('',(0.707106781187,0.,0.707106781187));
#548 = ORIENTED_EDGE('',*,*,#549,.F.);
#549 = EDGE_CURVE('',#550,#540,#552,.T.);
#550 = VERTEX_POINT('',#551);
#551 = CARTESIAN_POINT('',(-0.388908729653,-0.7,-2.676723622088));
#552 = LINE('',#553,#554);
#553 = CARTESIAN_POINT('',(-0.388908729653,-0.7,-2.676723622088));
#554 = VECTOR('',#555,1.);
#555 = DIRECTION('',(0.707106781187,0.,-0.707106781187));
#556 = ORIENTED_EDGE('',*,*,#557,.F.);
#557 = EDGE_CURVE('',#558,#550,#560,.T.);
#558 = VERTEX_POINT('',#559);
#559 = CARTESIAN_POINT('',(0.176776695297,-0.7,-2.111038197139));
#560 = LINE('',#561,#562);
#561 = CARTESIAN_POINT('',(0.176776695297,-0.7,-2.111038197139));
#562 = VECTOR('',#563,1.);
#563 = DIRECTION('',(-0.707106781187,0.,-0.707106781187));
#564 = ORIENTED_EDGE('',*,*,#565,.F.);
#565 = EDGE_CURVE('',#542,#558,#566,.T.);
#566 = LINE('',#567,#568);
#567 = CARTESIAN_POINT('',(0.388908729653,-0.7,-2.323170231495));
#568 = VECTOR('',#569,1.);
#569 = DIRECTION('',(-0.707106781187,0.,0.707106781187));
#570 = FACE_BOUND('',#571,.T.);
#571 = EDGE_LOOP('',(#572,#573));
#572 = ORIENTED_EDGE('',*,*,#292,.T.);
#573 = ORIENTED_EDGE('',*,*,#574,.T.);
#574 = EDGE_CURVE('',#285,#293,#575,.T.);
#575 = CIRCLE('',#576,2.);
#576 = AXIS2_PLACEMENT_3D('',#577,#578,#579);
#577 = CARTESIAN_POINT('',(0.,-0.7,-2.5));
#578 = DIRECTION('',(0.,-1.,0.));
#579 = DIRECTION('',(-1.,0.,0.));
#580 = PLANE('',#581);
#581 = AXIS2_PLACEMENT_3D('',#582,#583,#584);
#582 = CARTESIAN_POINT('',(0.,-0.7,0.));
#583 = DIRECTION('',(0.,-1.,0.));
#584 = DIRECTION('',(0.,0.,-1.));
#585 = ADVANCED_FACE('',(#586,#620),#630,.T.);
#586 = FACE_BOUND('',#587,.T.);
#587 = EDGE_LOOP('',(#588,#598,#606,#614));
#588 = ORIENTED_EDGE('',*,*,#589,.F.);
#589 = EDGE_CURVE('',#590,#592,#594,.T.);
#590 = VERTEX_POINT('',#591);
#591 = CARTESIAN_POINT('',(-0.388908729653,-0.7,2.323223304703));
#592 = VERTEX_POINT('',#593);
#593 = CARTESIAN_POINT('',(-0.176776695297,-0.7,2.111091270347));
#594 = LINE('',#595,#596);
#595 = CARTESIAN_POINT('',(-0.388908729653,-0.7,2.323223304703));
#596 = VECTOR('',#597,1.);
#597 = DIRECTION('',(0.707106781187,0.,-0.707106781187));
#598 = ORIENTED_EDGE('',*,*,#599,.F.);
#599 = EDGE_CURVE('',#600,#590,#602,.T.);
#600 = VERTEX_POINT('',#601);
#601 = CARTESIAN_POINT('',(0.176776695297,-0.7,2.888908729653));
#602 = LINE('',#603,#604);
#603 = CARTESIAN_POINT('',(0.176776695297,-0.7,2.888908729653));
#604 = VECTOR('',#605,1.);
#605 = DIRECTION('',(-0.707106781187,0.,-0.707106781187));
#606 = ORIENTED_EDGE('',*,*,#607,.F.);
#607 = EDGE_CURVE('',#608,#600,#610,.T.);
#608 = VERTEX_POINT('',#609);
#609 = CARTESIAN_POINT('',(0.388908729653,-0.7,2.676776695297));
#610 = LINE('',#611,#612);
#611 = CARTESIAN_POINT('',(0.388908729653,-0.7,2.676776695297));
#612 = VECTOR('',#613,1.);
#613 = DIRECTION('',(-0.707106781187,0.,0.707106781187));
#614 = ORIENTED_EDGE('',*,*,#615,.F.);
#615 = EDGE_CURVE('',#592,#608,#616,.T.);
#616 = LINE('',#617,#618);
#617 = CARTESIAN_POINT('',(-0.176776695297,-0.7,2.111091270347));
#618 = VECTOR('',#619,1.);
#619 = DIRECTION('',(0.707106781187,0.,0.707106781187));
#620 = FACE_BOUND('',#621,.T.);
#621 = EDGE_LOOP('',(#622,#623));
#622 = ORIENTED_EDGE('',*,*,#334,.T.);
#623 = ORIENTED_EDGE('',*,*,#624,.T.);
#624 = EDGE_CURVE('',#327,#335,#625,.T.);
#625 = CIRCLE('',#626,2.);
#626 = AXIS2_PLACEMENT_3D('',#627,#628,#629);
#627 = CARTESIAN_POINT('',(0.,-0.7,2.5));
#628 = DIRECTION('',(0.,-1.,0.));
#629 = DIRECTION('',(1.,0.,0.));
#630 = PLANE('',#631);
#631 = AXIS2_PLACEMENT_3D('',#632,#633,#634);
#632 = CARTESIAN_POINT('',(0.,-0.7,0.));
#633 = DIRECTION('',(0.,-1.,0.));
#634 = DIRECTION('',(0.,0.,-1.));
#635 = ADVANCED_FACE('',(#636),#661,.T.);
#636 = FACE_BOUND('',#637,.T.);
#637 = EDGE_LOOP('',(#638,#646,#647,#655));
#638 = ORIENTED_EDGE('',*,*,#639,.F.);
#639 = EDGE_CURVE('',#542,#640,#642,.T.);
#640 = VERTEX_POINT('',#641);
#641 = CARTESIAN_POINT('',(0.388908729653,-3.85,-2.323170231495));
#642 = LINE('',#643,#644);
#643 = CARTESIAN_POINT('',(0.388908729653,-0.7,-2.323170231495));
#644 = VECTOR('',#645,1.);
#645 = DIRECTION('',(0.,-1.,0.));
#646 = ORIENTED_EDGE('',*,*,#565,.T.);
#647 = ORIENTED_EDGE('',*,*,#648,.T.);
#648 = EDGE_CURVE('',#558,#649,#651,.T.);
#649 = VERTEX_POINT('',#650);
#650 = CARTESIAN_POINT('',(0.176776695297,-3.85,-2.111038197139));
#651 = LINE('',#652,#653);
#652 = CARTESIAN_POINT('',(0.176776695297,-0.7,-2.111038197139));
#653 = VECTOR('',#654,1.);
#654 = DIRECTION('',(0.,-1.,0.));
#655 = ORIENTED_EDGE('',*,*,#656,.F.);
#656 = EDGE_CURVE('',#640,#649,#657,.T.);
#657 = LINE('',#658,#659);
#658 = CARTESIAN_POINT('',(0.388908729653,-3.85,-2.323170231495));
#659 = VECTOR('',#660,1.);
#660 = DIRECTION('',(-0.707106781187,0.,0.707106781187));
#661 = PLANE('',#662);
#662 = AXIS2_PLACEMENT_3D('',#663,#664,#665);
#663 = CARTESIAN_POINT('',(0.388908729653,-0.7,-2.323170231495));
#664 = DIRECTION('',(0.707106781187,0.,0.707106781187));
#665 = DIRECTION('',(0.,-1.,0.));
#666 = ADVANCED_FACE('',(#667),#692,.T.);
#667 = FACE_BOUND('',#668,.T.);
#668 = EDGE_LOOP('',(#669,#679,#685,#686));
#669 = ORIENTED_EDGE('',*,*,#670,.F.);
#670 = EDGE_CURVE('',#671,#673,#675,.T.);
#671 = VERTEX_POINT('',#672);
#672 = CARTESIAN_POINT('',(0.141421356237,-4.2,-2.57065760491));
#673 = VERTEX_POINT('',#674);
#674 = CARTESIAN_POINT('',(-7.071067811865E-02,-4.2,-2.358525570554));
#675 = LINE('',#676,#677);
#676 = CARTESIAN_POINT('',(0.141421356237,-4.2,-2.57065760491));
#677 = VECTOR('',#678,1.);
#678 = DIRECTION('',(-0.707106781187,0.,0.707106781187));
#679 = ORIENTED_EDGE('',*,*,#680,.F.);
#680 = EDGE_CURVE('',#640,#671,#681,.T.);
#681 = LINE('',#682,#683);
#682 = CARTESIAN_POINT('',(0.388908729653,-3.85,-2.323170231495));
#683 = VECTOR('',#684,1.);
#684 = DIRECTION('',(-0.5,-0.707106781187,-0.5));
#685 = ORIENTED_EDGE('',*,*,#656,.T.);
#686 = ORIENTED_EDGE('',*,*,#687,.F.);
#687 = EDGE_CURVE('',#673,#649,#688,.T.);
#688 = LINE('',#689,#690);
#689 = CARTESIAN_POINT('',(-7.071067811865E-02,-4.2,-2.358525570554));
#690 = VECTOR('',#691,1.);
#691 = DIRECTION('',(0.5,0.707106781187,0.5));
#692 = PLANE('',#693);
#693 = AXIS2_PLACEMENT_3D('',#694,#695,#696);
#694 = CARTESIAN_POINT('',(0.159099025767,-4.025,-2.340847901024));
#695 = DIRECTION('',(0.5,-0.707106781187,0.5));
#696 = DIRECTION('',(-0.816496580928,-0.57735026919,-2.775557561563E-17)
  );
#697 = ADVANCED_FACE('',(#698),#725,.T.);
#698 = FACE_BOUND('',#699,.T.);
#699 = EDGE_LOOP('',(#700,#708,#709,#710,#711,#719));
#700 = ORIENTED_EDGE('',*,*,#701,.F.);
#701 = EDGE_CURVE('',#673,#702,#704,.T.);
#702 = VERTEX_POINT('',#703);
#703 = CARTESIAN_POINT('',(-0.141421356237,-4.2,-2.429236248673));
#704 = LINE('',#705,#706);
#705 = CARTESIAN_POINT('',(-7.071067811865E-02,-4.2,-2.358525570554));
#706 = VECTOR('',#707,1.);
#707 = DIRECTION('',(-0.707106781187,0.,-0.707106781187));
#708 = ORIENTED_EDGE('',*,*,#687,.T.);
#709 = ORIENTED_EDGE('',*,*,#648,.F.);
#710 = ORIENTED_EDGE('',*,*,#557,.T.);
#711 = ORIENTED_EDGE('',*,*,#712,.T.);
#712 = EDGE_CURVE('',#550,#713,#715,.T.);
#713 = VERTEX_POINT('',#714);
#714 = CARTESIAN_POINT('',(-0.388908729653,-3.85,-2.676723622088));
#715 = LINE('',#716,#717);
#716 = CARTESIAN_POINT('',(-0.388908729653,-0.7,-2.676723622088));
#717 = VECTOR('',#718,1.);
#718 = DIRECTION('',(0.,-1.,0.));
#719 = ORIENTED_EDGE('',*,*,#720,.T.);
#720 = EDGE_CURVE('',#713,#702,#721,.T.);
#721 = LINE('',#722,#723);
#722 = CARTESIAN_POINT('',(-0.388908729653,-3.85,-2.676723622088));
#723 = VECTOR('',#724,1.);
#724 = DIRECTION('',(0.5,-0.707106781187,0.5));
#725 = PLANE('',#726);
#726 = AXIS2_PLACEMENT_3D('',#727,#728,#729);
#727 = CARTESIAN_POINT('',(0.176776695297,-0.7,-2.111038197139));
#728 = DIRECTION('',(-0.707106781187,0.,0.707106781187));
#729 = DIRECTION('',(0.,1.,0.));
#730 = ADVANCED_FACE('',(#731),#756,.T.);
#731 = FACE_BOUND('',#732,.T.);
#732 = EDGE_LOOP('',(#733,#741,#742,#750));
#733 = ORIENTED_EDGE('',*,*,#734,.F.);
#734 = EDGE_CURVE('',#702,#735,#737,.T.);
#735 = VERTEX_POINT('',#736);
#736 = CARTESIAN_POINT('',(7.071067811866E-02,-4.2,-2.641368283029));
#737 = LINE('',#738,#739);
#738 = CARTESIAN_POINT('',(-0.141421356237,-4.2,-2.429236248673));
#739 = VECTOR('',#740,1.);
#740 = DIRECTION('',(0.707106781187,0.,-0.707106781187));
#741 = ORIENTED_EDGE('',*,*,#720,.F.);
#742 = ORIENTED_EDGE('',*,*,#743,.T.);
#743 = EDGE_CURVE('',#713,#744,#746,.T.);
#744 = VERTEX_POINT('',#745);
#745 = CARTESIAN_POINT('',(-0.176776695297,-3.85,-2.888855656444));
#746 = LINE('',#747,#748);
#747 = CARTESIAN_POINT('',(-0.388908729653,-3.85,-2.676723622088));
#748 = VECTOR('',#749,1.);
#749 = DIRECTION('',(0.707106781187,0.,-0.707106781187));
#750 = ORIENTED_EDGE('',*,*,#751,.F.);
#751 = EDGE_CURVE('',#735,#744,#752,.T.);
#752 = LINE('',#753,#754);
#753 = CARTESIAN_POINT('',(7.071067811866E-02,-4.2,-2.641368283029));
#754 = VECTOR('',#755,1.);
#755 = DIRECTION('',(-0.5,0.707106781187,-0.5));
#756 = PLANE('',#757);
#757 = AXIS2_PLACEMENT_3D('',#758,#759,#760);
#758 = CARTESIAN_POINT('',(-0.159099025767,-4.025,-2.659045952558));
#759 = DIRECTION('',(-0.5,-0.707106781187,-0.5));
#760 = DIRECTION('',(5.551115123126E-17,0.57735026919,-0.816496580928));
#761 = ADVANCED_FACE('',(#762),#780,.T.);
#762 = FACE_BOUND('',#763,.T.);
#763 = EDGE_LOOP('',(#764,#770,#771,#772,#773,#779));
#764 = ORIENTED_EDGE('',*,*,#765,.F.);
#765 = EDGE_CURVE('',#540,#744,#766,.T.);
#766 = LINE('',#767,#768);
#767 = CARTESIAN_POINT('',(-0.176776695297,-0.7,-2.888855656444));
#768 = VECTOR('',#769,1.);
#769 = DIRECTION('',(0.,-1.,0.));
#770 = ORIENTED_EDGE('',*,*,#539,.T.);
#771 = ORIENTED_EDGE('',*,*,#639,.T.);
#772 = ORIENTED_EDGE('',*,*,#680,.T.);
#773 = ORIENTED_EDGE('',*,*,#774,.F.);
#774 = EDGE_CURVE('',#735,#671,#775,.T.);
#775 = LINE('',#776,#777);
#776 = CARTESIAN_POINT('',(7.071067811866E-02,-4.2,-2.641368283029));
#777 = VECTOR('',#778,1.);
#778 = DIRECTION('',(0.707106781187,0.,0.707106781187));
#779 = ORIENTED_EDGE('',*,*,#751,.T.);
#780 = PLANE('',#781);
#781 = AXIS2_PLACEMENT_3D('',#782,#783,#784);
#782 = CARTESIAN_POINT('',(-0.176776695297,-0.7,-2.888855656444));
#783 = DIRECTION('',(0.707106781187,0.,-0.707106781187));
#784 = DIRECTION('',(0.,-1.,0.));
#785 = ADVANCED_FACE('',(#786),#820,.T.);
#786 = FACE_BOUND('',#787,.T.);
#787 = EDGE_LOOP('',(#788,#798,#806,#814));
#788 = ORIENTED_EDGE('',*,*,#789,.T.);
#789 = EDGE_CURVE('',#790,#792,#794,.T.);
#790 = VERTEX_POINT('',#791);
#791 = CARTESIAN_POINT('',(-7.071067811865E-02,-4.2,2.641421356237));
#792 = VERTEX_POINT('',#793);
#793 = CARTESIAN_POINT('',(-0.141421356237,-4.2,2.570710678119));
#794 = LINE('',#795,#796);
#795 = CARTESIAN_POINT('',(-7.071067811865E-02,-4.2,2.641421356237));
#796 = VECTOR('',#797,1.);
#797 = DIRECTION('',(-0.707106781187,0.,-0.707106781187));
#798 = ORIENTED_EDGE('',*,*,#799,.T.);
#799 = EDGE_CURVE('',#792,#800,#802,.T.);
#800 = VERTEX_POINT('',#801);
#801 = CARTESIAN_POINT('',(7.071067811865E-02,-4.2,2.358578643763));
#802 = LINE('',#803,#804);
#803 = CARTESIAN_POINT('',(-0.141421356237,-4.2,2.570710678119));
#804 = VECTOR('',#805,1.);
#805 = DIRECTION('',(0.707106781187,0.,-0.707106781187));
#806 = ORIENTED_EDGE('',*,*,#807,.T.);
#807 = EDGE_CURVE('',#800,#808,#810,.T.);
#808 = VERTEX_POINT('',#809);
#809 = CARTESIAN_POINT('',(0.141421356237,-4.2,2.429289321881));
#810 = LINE('',#811,#812);
#811 = CARTESIAN_POINT('',(7.071067811865E-02,-4.2,2.358578643763));
#812 = VECTOR('',#813,1.);
#813 = DIRECTION('',(0.707106781187,0.,0.707106781187));
#814 = ORIENTED_EDGE('',*,*,#815,.T.);
#815 = EDGE_CURVE('',#808,#790,#816,.T.);
#816 = LINE('',#817,#818);
#817 = CARTESIAN_POINT('',(0.141421356237,-4.2,2.429289321881));
#818 = VECTOR('',#819,1.);
#819 = DIRECTION('',(-0.707106781187,0.,0.707106781187));
#820 = PLANE('',#821);
#821 = AXIS2_PLACEMENT_3D('',#822,#823,#824);
#822 = CARTESIAN_POINT('',(0.,-4.2,0.));
#823 = DIRECTION('',(0.,-1.,0.));
#824 = DIRECTION('',(0.,0.,-1.));
#825 = ADVANCED_FACE('',(#826),#832,.T.);
#826 = FACE_BOUND('',#827,.T.);
#827 = EDGE_LOOP('',(#828,#829,#830,#831));
#828 = ORIENTED_EDGE('',*,*,#774,.T.);
#829 = ORIENTED_EDGE('',*,*,#670,.T.);
#830 = ORIENTED_EDGE('',*,*,#701,.T.);
#831 = ORIENTED_EDGE('',*,*,#734,.T.);
#832 = PLANE('',#833);
#833 = AXIS2_PLACEMENT_3D('',#834,#835,#836);
#834 = CARTESIAN_POINT('',(0.,-4.2,0.));
#835 = DIRECTION('',(0.,-1.,0.));
#836 = DIRECTION('',(0.,0.,-1.));
#837 = ADVANCED_FACE('',(#838),#863,.T.);
#838 = FACE_BOUND('',#839,.T.);
#839 = EDGE_LOOP('',(#840,#841,#849,#857));
#840 = ORIENTED_EDGE('',*,*,#815,.F.);
#841 = ORIENTED_EDGE('',*,*,#842,.F.);
#842 = EDGE_CURVE('',#843,#808,#845,.T.);
#843 = VERTEX_POINT('',#844);
#844 = CARTESIAN_POINT('',(0.388908729653,-3.85,2.676776695297));
#845 = LINE('',#846,#847);
#846 = CARTESIAN_POINT('',(0.388908729653,-3.85,2.676776695297));
#847 = VECTOR('',#848,1.);
#848 = DIRECTION('',(-0.5,-0.707106781187,-0.5));
#849 = ORIENTED_EDGE('',*,*,#850,.T.);
#850 = EDGE_CURVE('',#843,#851,#853,.T.);
#851 = VERTEX_POINT('',#852);
#852 = CARTESIAN_POINT('',(0.176776695297,-3.85,2.888908729653));
#853 = LINE('',#854,#855);
#854 = CARTESIAN_POINT('',(0.388908729653,-3.85,2.676776695297));
#855 = VECTOR('',#856,1.);
#856 = DIRECTION('',(-0.707106781187,0.,0.707106781186));
#857 = ORIENTED_EDGE('',*,*,#858,.F.);
#858 = EDGE_CURVE('',#790,#851,#859,.T.);
#859 = LINE('',#860,#861);
#860 = CARTESIAN_POINT('',(-7.071067811865E-02,-4.2,2.641421356237));
#861 = VECTOR('',#862,1.);
#862 = DIRECTION('',(0.5,0.707106781187,0.5));
#863 = PLANE('',#864);
#864 = AXIS2_PLACEMENT_3D('',#865,#866,#867);
#865 = CARTESIAN_POINT('',(0.159099025767,-4.025,2.659099025767));
#866 = DIRECTION('',(0.5,-0.707106781187,0.5));
#867 = DIRECTION('',(-0.816496580928,-0.57735026919,-2.775557561563E-17)
  );
#868 = ADVANCED_FACE('',(#869),#894,.T.);
#869 = FACE_BOUND('',#870,.T.);
#870 = EDGE_LOOP('',(#871,#877,#878,#886,#892,#893));
#871 = ORIENTED_EDGE('',*,*,#872,.F.);
#872 = EDGE_CURVE('',#600,#851,#873,.T.);
#873 = LINE('',#874,#875);
#874 = CARTESIAN_POINT('',(0.176776695297,-0.7,2.888908729653));
#875 = VECTOR('',#876,1.);
#876 = DIRECTION('',(0.,-1.,0.));
#877 = ORIENTED_EDGE('',*,*,#599,.T.);
#878 = ORIENTED_EDGE('',*,*,#879,.T.);
#879 = EDGE_CURVE('',#590,#880,#882,.T.);
#880 = VERTEX_POINT('',#881);
#881 = CARTESIAN_POINT('',(-0.388908729653,-3.85,2.323223304703));
#882 = LINE('',#883,#884);
#883 = CARTESIAN_POINT('',(-0.388908729653,-0.7,2.323223304703));
#884 = VECTOR('',#885,1.);
#885 = DIRECTION('',(0.,-1.,0.));
#886 = ORIENTED_EDGE('',*,*,#887,.T.);
#887 = EDGE_CURVE('',#880,#792,#888,.T.);
#888 = LINE('',#889,#890);
#889 = CARTESIAN_POINT('',(-0.388908729653,-3.85,2.323223304703));
#890 = VECTOR('',#891,1.);
#891 = DIRECTION('',(0.5,-0.707106781187,0.5));
#892 = ORIENTED_EDGE('',*,*,#789,.F.);
#893 = ORIENTED_EDGE('',*,*,#858,.T.);
#894 = PLANE('',#895);
#895 = AXIS2_PLACEMENT_3D('',#896,#897,#898);
#896 = CARTESIAN_POINT('',(0.176776695297,-0.7,2.888908729653));
#897 = DIRECTION('',(-0.707106781187,0.,0.707106781187));
#898 = DIRECTION('',(0.,1.,0.));
#899 = ADVANCED_FACE('',(#900),#918,.T.);
#900 = FACE_BOUND('',#901,.T.);
#901 = EDGE_LOOP('',(#902,#903,#904,#912));
#902 = ORIENTED_EDGE('',*,*,#799,.F.);
#903 = ORIENTED_EDGE('',*,*,#887,.F.);
#904 = ORIENTED_EDGE('',*,*,#905,.T.);
#905 = EDGE_CURVE('',#880,#906,#908,.T.);
#906 = VERTEX_POINT('',#907);
#907 = CARTESIAN_POINT('',(-0.176776695297,-3.85,2.111091270347));
#908 = LINE('',#909,#910);
#909 = CARTESIAN_POINT('',(-0.388908729653,-3.85,2.323223304703));
#910 = VECTOR('',#911,1.);
#911 = DIRECTION('',(0.707106781187,0.,-0.707106781187));
#912 = ORIENTED_EDGE('',*,*,#913,.F.);
#913 = EDGE_CURVE('',#800,#906,#914,.T.);
#914 = LINE('',#915,#916);
#915 = CARTESIAN_POINT('',(7.071067811865E-02,-4.2,2.358578643763));
#916 = VECTOR('',#917,1.);
#917 = DIRECTION('',(-0.5,0.707106781187,-0.5));
#918 = PLANE('',#919);
#919 = AXIS2_PLACEMENT_3D('',#920,#921,#922);
#920 = CARTESIAN_POINT('',(-0.159099025767,-4.025,2.340900974233));
#921 = DIRECTION('',(-0.5,-0.707106781187,-0.5));
#922 = DIRECTION('',(5.551115123126E-17,0.57735026919,-0.816496580928));
#923 = ADVANCED_FACE('',(#924),#942,.T.);
#924 = FACE_BOUND('',#925,.T.);
#925 = EDGE_LOOP('',(#926,#927,#928,#934,#935,#941));
#926 = ORIENTED_EDGE('',*,*,#807,.F.);
#927 = ORIENTED_EDGE('',*,*,#913,.T.);
#928 = ORIENTED_EDGE('',*,*,#929,.F.);
#929 = EDGE_CURVE('',#592,#906,#930,.T.);
#930 = LINE('',#931,#932);
#931 = CARTESIAN_POINT('',(-0.176776695297,-0.7,2.111091270347));
#932 = VECTOR('',#933,1.);
#933 = DIRECTION('',(0.,-1.,0.));
#934 = ORIENTED_EDGE('',*,*,#615,.T.);
#935 = ORIENTED_EDGE('',*,*,#936,.T.);
#936 = EDGE_CURVE('',#608,#843,#937,.T.);
#937 = LINE('',#938,#939);
#938 = CARTESIAN_POINT('',(0.388908729653,-0.7,2.676776695297));
#939 = VECTOR('',#940,1.);
#940 = DIRECTION('',(0.,-1.,0.));
#941 = ORIENTED_EDGE('',*,*,#842,.T.);
#942 = PLANE('',#943);
#943 = AXIS2_PLACEMENT_3D('',#944,#945,#946);
#944 = CARTESIAN_POINT('',(-0.176776695297,-0.7,2.111091270347));
#945 = DIRECTION('',(0.707106781187,0.,-0.707106781187));
#946 = DIRECTION('',(0.,-1.,0.));
#947 = ADVANCED_FACE('',(#948),#954,.T.);
#948 = FACE_BOUND('',#949,.T.);
#949 = EDGE_LOOP('',(#950,#951,#952,#953));
#950 = ORIENTED_EDGE('',*,*,#936,.F.);
#951 = ORIENTED_EDGE('',*,*,#607,.T.);
#952 = ORIENTED_EDGE('',*,*,#872,.T.);
#953 = ORIENTED_EDGE('',*,*,#850,.F.);
#954 = PLANE('',#955);
#955 = AXIS2_PLACEMENT_3D('',#956,#957,#958);
#956 = CARTESIAN_POINT('',(0.388908729653,-0.7,2.676776695297));
#957 = DIRECTION('',(0.707106781187,0.,0.707106781187));
#958 = DIRECTION('',(0.,-1.,0.));
#959 = ADVANCED_FACE('',(#960),#966,.T.);
#960 = FACE_BOUND('',#961,.T.);
#961 = EDGE_LOOP('',(#962,#963,#964,#965));
#962 = ORIENTED_EDGE('',*,*,#879,.F.);
#963 = ORIENTED_EDGE('',*,*,#589,.T.);
#964 = ORIENTED_EDGE('',*,*,#929,.T.);
#965 = ORIENTED_EDGE('',*,*,#905,.F.);
#966 = PLANE('',#967);
#967 = AXIS2_PLACEMENT_3D('',#968,#969,#970);
#968 = CARTESIAN_POINT('',(-0.388908729653,-0.7,2.323223304703));
#969 = DIRECTION('',(-0.707106781187,0.,-0.707106781187));
#970 = DIRECTION('',(-0.707106781187,0.,0.707106781187));
#971 = ADVANCED_FACE('',(#972),#978,.T.);
#972 = FACE_BOUND('',#973,.T.);
#973 = EDGE_LOOP('',(#974,#975,#976,#977));
#974 = ORIENTED_EDGE('',*,*,#712,.F.);
#975 = ORIENTED_EDGE('',*,*,#549,.T.);
#976 = ORIENTED_EDGE('',*,*,#765,.T.);
#977 = ORIENTED_EDGE('',*,*,#743,.F.);
#978 = PLANE('',#979);
#979 = AXIS2_PLACEMENT_3D('',#980,#981,#982);
#980 = CARTESIAN_POINT('',(-0.388908729653,-0.7,-2.676723622088));
#981 = DIRECTION('',(-0.707106781187,0.,-0.707106781187));
#982 = DIRECTION('',(-0.707106781187,0.,0.707106781187));
#983 = ADVANCED_FACE('',(#984),#990,.T.);
#984 = FACE_BOUND('',#985,.T.);
#985 = EDGE_LOOP('',(#986,#987,#988,#989));
#986 = ORIENTED_EDGE('',*,*,#326,.F.);
#987 = ORIENTED_EDGE('',*,*,#482,.T.);
#988 = ORIENTED_EDGE('',*,*,#343,.T.);
#989 = ORIENTED_EDGE('',*,*,#624,.F.);
#990 = CYLINDRICAL_SURFACE('',#991,2.);
#991 = AXIS2_PLACEMENT_3D('',#992,#993,#994);
#992 = CARTESIAN_POINT('',(0.,0.5,2.5));
#993 = DIRECTION('',(0.,-1.,0.));
#994 = DIRECTION('',(-1.,0.,0.));
#995 = ADVANCED_FACE('',(#996),#1002,.T.);
#996 = FACE_BOUND('',#997,.T.);
#997 = EDGE_LOOP('',(#998,#999,#1000,#1001));
#998 = ORIENTED_EDGE('',*,*,#284,.F.);
#999 = ORIENTED_EDGE('',*,*,#472,.T.);
#1000 = ORIENTED_EDGE('',*,*,#301,.T.);
#1001 = ORIENTED_EDGE('',*,*,#574,.F.);
#1002 = CYLINDRICAL_SURFACE('',#1003,2.);
#1003 = AXIS2_PLACEMENT_3D('',#1004,#1005,#1006);
#1004 = CARTESIAN_POINT('',(0.,0.5,-2.5));
#1005 = DIRECTION('',(0.,-1.,0.));
#1006 = DIRECTION('',(-1.,0.,0.));
#1007 = ADVANCED_FACE('',(#1008),#1014,.T.);
#1008 = FACE_BOUND('',#1009,.T.);
#1009 = EDGE_LOOP('',(#1010,#1011,#1012,#1013));
#1010 = ORIENTED_EDGE('',*,*,#242,.F.);
#1011 = ORIENTED_EDGE('',*,*,#462,.T.);
#1012 = ORIENTED_EDGE('',*,*,#259,.T.);
#1013 = ORIENTED_EDGE('',*,*,#524,.F.);
#1014 = CYLINDRICAL_SURFACE('',#1015,0.4);
#1015 = AXIS2_PLACEMENT_3D('',#1016,#1017,#1018);
#1016 = CARTESIAN_POINT('',(-3.75,0.5,0.));
#1017 = DIRECTION('',(0.,-1.,0.));
#1018 = DIRECTION('',(-1.,0.,0.));
#1019 = ADVANCED_FACE('',(#1020),#1026,.T.);
#1020 = FACE_BOUND('',#1021,.T.);
#1021 = EDGE_LOOP('',(#1022,#1023,#1024,#1025));
#1022 = ORIENTED_EDGE('',*,*,#200,.F.);
#1023 = ORIENTED_EDGE('',*,*,#452,.T.);
#1024 = ORIENTED_EDGE('',*,*,#217,.T.);
#1025 = ORIENTED_EDGE('',*,*,#508,.F.);
#1026 = CYLINDRICAL_SURFACE('',#1027,0.4);
#1027 = AXIS2_PLACEMENT_3D('',#1028,#1029,#1030);
#1028 = CARTESIAN_POINT('',(3.75,0.5,0.));
#1029 = DIRECTION('',(0.,-1.,0.));
#1030 = DIRECTION('',(-1.,0.,0.));
#1031 = ADVANCED_FACE('',(#1032),#1038,.F.);
#1032 = FACE_BOUND('',#1033,.F.);
#1033 = EDGE_LOOP('',(#1034,#1035,#1036,#1037));
#1034 = ORIENTED_EDGE('',*,*,#357,.F.);
#1035 = ORIENTED_EDGE('',*,*,#147,.F.);
#1036 = ORIENTED_EDGE('',*,*,#491,.T.);
#1037 = ORIENTED_EDGE('',*,*,#166,.T.);
#1038 = CYLINDRICAL_SURFACE('',#1039,5.7);
#1039 = AXIS2_PLACEMENT_3D('',#1040,#1041,#1042);
#1040 = CARTESIAN_POINT('',(0.,0.,0.));
#1041 = DIRECTION('',(0.,-1.,0.));
#1042 = DIRECTION('',(-1.,0.,0.));
#1043 = ADVANCED_FACE('',(#1044),#1050,.F.);
#1044 = FACE_BOUND('',#1045,.F.);
#1045 = EDGE_LOOP('',(#1046,#1047,#1048,#1049));
#1046 = ORIENTED_EDGE('',*,*,#409,.F.);
#1047 = ORIENTED_EDGE('',*,*,#105,.F.);
#1048 = ORIENTED_EDGE('',*,*,#435,.T.);
#1049 = ORIENTED_EDGE('',*,*,#124,.T.);
#1050 = CYLINDRICAL_SURFACE('',#1051,1.);
#1051 = AXIS2_PLACEMENT_3D('',#1052,#1053,#1054);
#1052 = CARTESIAN_POINT('',(0.,6.2,0.));
#1053 = DIRECTION('',(0.,1.,0.));
#1054 = DIRECTION('',(1.,0.,0.));
#1055 = ADVANCED_FACE('',(#1056),#1062,.F.);
#1056 = FACE_BOUND('',#1057,.F.);
#1057 = EDGE_LOOP('',(#1058,#1059,#1060,#1061));
#1058 = ORIENTED_EDGE('',*,*,#383,.F.);
#1059 = ORIENTED_EDGE('',*,*,#63,.F.);
#1060 = ORIENTED_EDGE('',*,*,#419,.T.);
#1061 = ORIENTED_EDGE('',*,*,#82,.T.);
#1062 = CYLINDRICAL_SURFACE('',#1063,1.5);
#1063 = AXIS2_PLACEMENT_3D('',#1064,#1065,#1066);
#1064 = CARTESIAN_POINT('',(0.,6.3,0.));
#1065 = DIRECTION('',(0.,1.,0.));
#1066 = DIRECTION('',(1.,0.,0.));
#1067 = ADVANCED_FACE('',(#1068),#1074,.T.);
#1068 = FACE_BOUND('',#1069,.T.);
#1069 = EDGE_LOOP('',(#1070,#1071,#1072,#1073));
#1070 = ORIENTED_EDGE('',*,*,#32,.F.);
#1071 = ORIENTED_EDGE('',*,*,#368,.T.);
#1072 = ORIENTED_EDGE('',*,*,#49,.T.);
#1073 = ORIENTED_EDGE('',*,*,#394,.F.);
#1074 = CYLINDRICAL_SURFACE('',#1075,6.25);
#1075 = AXIS2_PLACEMENT_3D('',#1076,#1077,#1078);
#1076 = CARTESIAN_POINT('',(0.,0.,0.));
#1077 = DIRECTION('',(0.,1.,0.));
#1078 = DIRECTION('',(1.,0.,0.));
#1079 = ( GEOMETRIC_REPRESENTATION_CONTEXT(3) 
GLOBAL_UNCERTAINTY_ASSIGNED_CONTEXT((#1083)) 
GLOBAL_UNIT_ASSIGNED_CONTEXT((#1080,#1081,#1082)) REPRESENTATION_CONTEXT
('Context #1','3D Context with UNIT and UNCERTAINTY') );
#1080 = ( LENGTH_UNIT() NAMED_UNIT(*) SI_UNIT(.MILLI.,.METRE.) );
#1081 = ( NAMED_UNIT(*) PLANE_ANGLE_UNIT() SI_UNIT($,.RADIAN.) );
#1082 = ( NAMED_UNIT(*) SI_UNIT($,.STERADIAN.) SOLID_ANGLE_UNIT() );
#1083 = UNCERTAINTY_MEASURE_WITH_UNIT(LENGTH_MEASURE(1.E-07),#1080,
  'distance_accuracy_value','confusion accuracy');
#1084 = PRODUCT_RELATED_PRODUCT_CATEGORY('part',$,(#7));
#1085 = MECHANICAL_DESIGN_GEOMETRIC_PRESENTATION_REPRESENTATION('',(
    #1086),#1079);
#1086 = STYLED_ITEM('color',(#1087),#15);
#1087 = PRESENTATION_STYLE_ASSIGNMENT((#1088,#1094));
#1088 = SURFACE_STYLE_USAGE(.BOTH.,#1089);
#1089 = SURFACE_SIDE_STYLE('',(#1090));
#1090 = SURFACE_STYLE_FILL_AREA(#1091);
#1091 = FILL_AREA_STYLE('',(#1092));
#1092 = FILL_AREA_STYLE_COLOUR('',#1093);
#1093 = COLOUR_RGB('',0.250000000672,0.250000000672,0.250000000672);
#1094 = CURVE_STYLE('',#1095,POSITIVE_LENGTH_MEASURE(0.1),#1096);
#1095 = DRAUGHTING_PRE_DEFINED_CURVE_FONT('continuous');
#1096 = COLOUR_RGB('',9.803921802644E-02,9.803921802644E-02,
  9.803921802644E-02);
ENDSEC;
END-ISO-10303-21;
